<svg width="66" height="66" viewBox="0 0 66 66" fill="none" xmlns="http://www.w3.org/2000/svg">
<g filter="url(#filter0_d_1_147)">
<path d="M45.5714 10H20.4286C15.2213 10 11 14.2213 11 19.4286V44.5714C11 49.7787 15.2213 54 20.4286 54H45.5714C50.7787 54 55 49.7787 55 44.5714V19.4286C55 14.2213 50.7787 10 45.5714 10Z" fill="white"/>
<path d="M45.5714 10H20.4286C15.2213 10 11 14.2213 11 19.4286V44.5714C11 49.7787 15.2213 54 20.4286 54H45.5714C50.7787 54 55 49.7787 55 44.5714V19.4286C55 14.2213 50.7787 10 45.5714 10Z" stroke="#F2F4F7"/>
<path d="M24.238 35.79L22.913 36.27L22.842 40.16L27.43 38.51C25.855 37.99 24.707 37.07 24.238 35.79Z" fill="#FDBD39"/>
<path d="M24.932 31.67L20.333 33.33L22.913 36.27L24.238 35.79C23.771 34.52 24.059 33.08 24.932 31.67Z" fill="#F69833"/>
<path d="M32.6701 26.05C26.8141 28.17 23.0391 32.53 24.2391 35.79L45.444 28.14C44.244 24.88 38.5261 23.94 32.6701 26.05Z" fill="#FECF33"/>
<path d="M37.011 37.88C42.867 35.77 46.649 31.43 45.442 28.14L24.237 35.79C25.444 39.08 31.155 39.99 37.011 37.88Z" fill="#EE6723"/>
<path d="M45.442 28.14L24.238 35.79C24.653 36.92 26.237 37.48 28.458 37.48C30.624 37.48 33.397 36.95 36.287 35.91C42.143 33.79 46.262 30.37 45.442 28.14Z" fill="#F69833"/>
<path d="M41.222 26.45C39.057 26.45 36.283 26.98 33.393 28.02C27.537 30.14 23.418 33.56 24.238 35.79L45.443 28.14C45.027 27.01 43.444 26.45 41.222 26.45Z" fill="#FDBD39"/>
<path fill-rule="evenodd" clip-rule="evenodd" d="M37.315 38.71C38.507 39.81 39.427 40.37 40.051 40.37C40.216 40.37 40.378 40.33 40.514 40.23C41.281 39.7 40.696 37.9 40.071 36.49L40.021 36.38L39.915 36.44C39.835 36.48 39.749 36.53 39.66 36.58L39.572 36.62L39.613 36.72C40.495 38.71 40.495 39.64 40.227 39.83C40.18 39.86 40.119 39.87 40.044 39.87C39.824 39.87 39.151 39.73 37.658 38.35C36.273 37.07 34.684 35.2 33.18 33.07C31.678 30.95 30.446 28.82 29.71 27.1C28.918 25.24 28.935 24.38 29.19 24.2C29.233 24.17 29.293 24.1601 29.369 24.1601C29.634 24.1601 30.449 24.35 32.302 26.2L32.47 26.37L32.489 26.13C32.498 26.01 32.509 25.8901 32.52 25.7701L32.526 25.72L32.488 25.6801C30.769 24.0101 29.838 23.6601 29.362 23.6601C29.197 23.6501 29.036 23.7001 28.901 23.7901C28.314 24.2001 28.431 25.3801 29.247 27.2901C29.996 29.0501 31.247 31.2 32.769 33.36C34.292 35.51 35.906 37.42 37.315 38.71Z" fill="#EE6723"/>
<path d="M37.153 37.8199L37.145 37.9301C36.996 39.7301 36.607 41.91 35.59 42C35.569 42 35.548 42 35.528 42C34.837 42 34.184 41.02 33.587 39.1C33.021 37.27 32.582 34.83 32.351 32.2C32.119 29.58 32.123 27.1 32.361 25.21C32.619 23.14 33.112 22.07 33.826 22C33.847 22 33.869 22 33.89 22C34.391 22 35.146 22.56 35.918 25.17L35.414 25.27C35.156 24.39 34.875 23.69 34.596 23.2C34.338 22.75 34.087 22.5 33.89 22.5C33.884 22.5 33.877 22.5 33.87 22.5C33.561 22.53 33.11 23.27 32.859 25.27C32.626 27.13 32.623 29.57 32.851 32.16C33.079 34.75 33.511 37.16 34.067 38.95C34.315 39.75 34.588 40.41 34.856 40.86C35.103 41.27 35.342 41.5 35.528 41.5C35.534 41.5 35.54 41.5 35.547 41.5C35.843 41.48 36.4 40.7 36.635 37.99L37.153 37.8199Z" fill="#EE6723"/>
</g>
<defs>
<filter id="filter0_d_1_147" x="0.5" y="0.5" width="65" height="65" filterUnits="userSpaceOnUse" color-interpolation-filters="sRGB">
<feFlood flood-opacity="0" result="BackgroundImageFix"/>
<feColorMatrix in="SourceAlpha" type="matrix" values="0 0 0 0 0 0 0 0 0 0 0 0 0 0 0 0 0 0 127 0" result="hardAlpha"/>
<feOffset dy="1"/>
<feGaussianBlur stdDeviation="5"/>
<feColorMatrix type="matrix" values="0 0 0 0 0 0 0 0 0 0 0 0 0 0 0 0 0 0 0.06 0"/>
<feBlend mode="normal" in2="BackgroundImageFix" result="effect1_dropShadow_1_147"/>
<feBlend mode="normal" in="SourceGraphic" in2="effect1_dropShadow_1_147" result="shape"/>
</filter>
</defs>
</svg>
