<svg width="282" height="182" viewBox="0 0 282 182" fill="none" xmlns="http://www.w3.org/2000/svg">
<g filter="url(#filter0_d_1_92)">
<path d="M260 9H22C15.3726 9 10 14.3726 10 21V159C10 165.627 15.3726 171 22 171H260C266.627 171 272 165.627 272 159V21C272 14.3726 266.627 9 260 9Z" fill="white"/>
<path d="M31.41 48V36.364H35.34C36.25 36.364 37 36.519 37.58 36.83C38.16 37.136 38.59 37.559 38.88 38.097C39.16 38.634 39.3 39.246 39.3 39.932C39.3 40.617 39.16 41.225 38.88 41.756C38.59 42.286 38.16 42.703 37.59 43.006C37.01 43.305 36.27 43.455 35.36 43.455H32.1801V42.182H35.3199C35.9399 42.182 36.4399 42.091 36.8199 41.909C37.1999 41.727 37.48 41.47 37.65 41.136C37.82 40.799 37.91 40.398 37.91 39.932C37.91 39.466 37.82 39.059 37.65 38.71C37.47 38.362 37.2001 38.093 36.8101 37.903C36.4301 37.71 35.92 37.614 35.3 37.614H32.8199V48H31.41ZM36.89 42.773L39.75 48H38.11L35.3 42.773H36.89ZM45.03 48.182C44.19 48.182 43.46 47.996 42.85 47.625C42.24 47.25 41.78 46.727 41.45 46.057C41.12 45.383 40.96 44.598 40.96 43.705C40.96 42.811 41.12 42.023 41.45 41.341C41.78 40.655 42.2399 40.121 42.8199 39.739C43.4099 39.352 44.1 39.159 44.89 39.159C45.35 39.159 45.79 39.235 46.24 39.386C46.68 39.538 47.08 39.784 47.45 40.125C47.81 40.462 48.0999 40.909 48.3199 41.466C48.5299 42.023 48.64 42.708 48.64 43.523V44.091H41.91V42.932H47.28C47.28 42.439 47.18 42 46.98 41.614C46.79 41.227 46.51 40.922 46.15 40.699C45.8 40.475 45.38 40.364 44.89 40.364C44.36 40.364 43.89 40.496 43.5 40.761C43.12 41.023 42.82 41.364 42.61 41.784C42.4 42.205 42.3 42.655 42.3 43.136V43.909C42.3 44.568 42.41 45.127 42.64 45.585C42.87 46.04 43.19 46.386 43.6 46.625C44.01 46.86 44.49 46.977 45.03 46.977C45.38 46.977 45.7 46.928 45.98 46.83C46.27 46.727 46.52 46.576 46.73 46.375C46.93 46.17 47.1 45.917 47.21 45.614L48.5 45.977C48.37 46.417 48.1399 46.803 47.8199 47.136C47.4899 47.466 47.1 47.723 46.62 47.909C46.15 48.091 45.62 48.182 45.03 48.182ZM54.48 39.273V40.409H49.95V39.273H54.48ZM51.27 37.182H52.61V45.5C52.61 45.879 52.67 46.163 52.78 46.352C52.89 46.538 53.03 46.663 53.21 46.727C53.39 46.788 53.57 46.818 53.77 46.818C53.92 46.818 54.04 46.811 54.13 46.795C54.23 46.777 54.31 46.761 54.36 46.75L54.63 47.955C54.54 47.989 54.42 48.023 54.25 48.057C54.09 48.095 53.88 48.114 53.63 48.114C53.26 48.114 52.88 48.032 52.52 47.869C52.16 47.706 51.86 47.458 51.62 47.125C51.39 46.792 51.27 46.371 51.27 45.864V37.182ZM60.0601 48.182C59.2201 48.182 58.49 47.996 57.88 47.625C57.28 47.25 56.81 46.727 56.48 46.057C56.15 45.383 55.99 44.598 55.99 43.705C55.99 42.811 56.15 42.023 56.48 41.341C56.81 40.655 57.27 40.121 57.85 39.739C58.44 39.352 59.13 39.159 59.92 39.159C60.38 39.159 60.83 39.235 61.27 39.386C61.71 39.538 62.12 39.784 62.48 40.125C62.84 40.462 63.13 40.909 63.35 41.466C63.56 42.023 63.67 42.708 63.67 43.523V44.091H56.9399V42.932H62.3101C62.3101 42.439 62.21 42 62.01 41.614C61.82 41.227 61.5401 40.922 61.1801 40.699C60.8301 40.475 60.41 40.364 59.92 40.364C59.39 40.364 58.93 40.496 58.54 40.761C58.15 41.023 57.85 41.364 57.64 41.784C57.44 42.205 57.33 42.655 57.33 43.136V43.909C57.33 44.568 57.44 45.127 57.67 45.585C57.9 46.04 58.22 46.386 58.63 46.625C59.04 46.86 59.5201 46.977 60.0601 46.977C60.4101 46.977 60.73 46.928 61.01 46.83C61.3 46.727 61.55 46.576 61.76 46.375C61.97 46.17 62.13 45.917 62.24 45.614L63.54 45.977C63.4 46.417 63.17 46.803 62.85 47.136C62.53 47.466 62.13 47.723 61.65 47.909C61.18 48.091 60.6501 48.182 60.0601 48.182ZM67.05 42.75V48H65.71V39.273H67.01V40.636H67.12C67.33 40.193 67.64 39.837 68.05 39.568C68.47 39.295 69.01 39.159 69.67 39.159C70.26 39.159 70.77 39.28 71.22 39.523C71.66 39.761 72.01 40.125 72.25 40.614C72.5 41.098 72.62 41.712 72.62 42.455V48H71.28V42.545C71.28 41.86 71.1 41.326 70.75 40.943C70.39 40.557 69.9 40.364 69.28 40.364C68.85 40.364 68.47 40.456 68.13 40.642C67.8 40.828 67.54 41.098 67.34 41.455C67.15 41.811 67.05 42.242 67.05 42.75ZM78.87 39.273V40.409H74.34V39.273H78.87ZM75.66 37.182H77V45.5C77 45.879 77.06 46.163 77.17 46.352C77.28 46.538 77.43 46.663 77.6 46.727C77.78 46.788 77.96 46.818 78.16 46.818C78.31 46.818 78.43 46.811 78.53 46.795C78.62 46.777 78.7 46.761 78.75 46.75L79.03 47.955C78.93 47.989 78.81 48.023 78.64 48.057C78.48 48.095 78.28 48.114 78.03 48.114C77.65 48.114 77.28 48.032 76.91 47.869C76.55 47.706 76.25 47.458 76.01 47.125C75.78 46.792 75.66 46.371 75.66 45.864V37.182ZM80.88 48V39.273H82.22V48H80.88ZM81.5699 37.818C81.2999 37.818 81.08 37.729 80.89 37.551C80.7 37.373 80.61 37.159 80.61 36.909C80.61 36.659 80.7 36.445 80.89 36.267C81.08 36.089 81.2999 36 81.5699 36C81.8299 36 82.05 36.089 82.24 36.267C82.43 36.445 82.52 36.659 82.52 36.909C82.52 37.159 82.43 37.373 82.24 37.551C82.05 37.729 81.8299 37.818 81.5699 37.818ZM88.23 48.182C87.44 48.182 86.75 47.994 86.15 47.619C85.56 47.244 85.1 46.72 84.77 46.045C84.44 45.371 84.27 44.583 84.27 43.682C84.27 42.773 84.44 41.979 84.77 41.301C85.1 40.623 85.56 40.097 86.15 39.722C86.75 39.347 87.44 39.159 88.23 39.159C89.01 39.159 89.7 39.347 90.29 39.722C90.89 40.097 91.3501 40.623 91.6801 41.301C92.0101 41.979 92.1801 42.773 92.1801 43.682C92.1801 44.583 92.0101 45.371 91.6801 46.045C91.3501 46.72 90.89 47.244 90.29 47.619C89.7 47.994 89.01 48.182 88.23 48.182ZM88.23 46.977C88.82 46.977 89.32 46.824 89.7 46.517C90.09 46.21 90.3801 45.807 90.5601 45.307C90.7501 44.807 90.84 44.265 90.84 43.682C90.84 43.098 90.7501 42.555 90.5601 42.051C90.3801 41.547 90.09 41.14 89.7 40.83C89.32 40.519 88.82 40.364 88.23 40.364C87.63 40.364 87.13 40.519 86.75 40.83C86.36 41.14 86.08 41.547 85.89 42.051C85.71 42.555 85.61 43.098 85.61 43.682C85.61 44.265 85.71 44.807 85.89 45.307C86.08 45.807 86.36 46.21 86.75 46.517C87.13 46.824 87.63 46.977 88.23 46.977ZM95.5699 42.75V48H94.23V39.273H95.52V40.636H95.64C95.84 40.193 96.1499 39.837 96.5699 39.568C96.9799 39.295 97.5201 39.159 98.1801 39.159C98.7701 39.159 99.29 39.28 99.73 39.523C100.18 39.761 100.52 40.125 100.77 40.614C101.01 41.098 101.14 41.712 101.14 42.455V48H99.8V42.545C99.8 41.86 99.62 41.326 99.26 40.943C98.91 40.557 98.4201 40.364 97.8 40.364C97.37 40.364 96.98 40.456 96.65 40.642C96.31 40.828 96.05 41.098 95.86 41.455C95.66 41.811 95.5699 42.242 95.5699 42.75Z" fill="#5F6980"/>
<path d="M39.37 65.091V84H35.95V68.424H35.84L31.41 71.249V68.11L36.11 65.091H39.37ZM44.17 84V81.526L50.74 75.09C51.37 74.456 51.8901 73.893 52.3101 73.401C52.7301 72.908 53.04 72.431 53.25 71.969C53.46 71.508 53.5601 71.015 53.5601 70.492C53.5601 69.895 53.43 69.384 53.16 68.96C52.89 68.529 52.51 68.196 52.04 67.962C51.57 67.728 51.03 67.612 50.42 67.612C49.8 67.612 49.26 67.741 48.79 67.999C48.32 68.252 47.96 68.612 47.7 69.08C47.45 69.547 47.3199 70.104 47.3199 70.751H44.0601C44.0601 69.55 44.34 68.507 44.88 67.621C45.43 66.734 46.19 66.048 47.15 65.562C48.11 65.076 49.22 64.832 50.47 64.832C51.74 64.832 52.8501 65.069 53.8101 65.543C54.7701 66.017 55.52 66.667 56.05 67.491C56.58 68.316 56.85 69.258 56.85 70.317C56.85 71.025 56.7099 71.72 56.4399 72.403C56.1699 73.087 55.7 73.844 55.01 74.675C54.33 75.506 53.38 76.512 52.16 77.694L48.9 81.009V81.138H57.14V84H44.17ZM62.42 84.203C61.86 84.203 61.38 84.006 60.98 83.612C60.58 83.218 60.38 82.738 60.39 82.172C60.38 81.618 60.58 81.144 60.98 80.75C61.38 80.356 61.86 80.159 62.42 80.159C62.96 80.159 63.43 80.356 63.83 80.75C64.24 81.144 64.44 81.618 64.45 82.172C64.44 82.547 64.34 82.889 64.15 83.197C63.97 83.504 63.72 83.751 63.41 83.935C63.11 84.114 62.78 84.203 62.42 84.203ZM74.05 84.259C73.15 84.252 72.26 84.095 71.4 83.788C70.54 83.474 69.7599 82.966 69.0699 82.264C68.3799 81.556 67.8401 80.618 67.4301 79.448C67.0201 78.272 66.82 76.817 66.83 75.081C66.83 73.462 67 72.019 67.35 70.751C67.69 69.483 68.19 68.412 68.83 67.538C69.48 66.657 70.26 65.987 71.17 65.525C72.09 65.063 73.11 64.832 74.24 64.832C75.43 64.832 76.48 65.066 77.4 65.534C78.33 66.002 79.07 66.642 79.64 67.455C80.2 68.261 80.5499 69.172 80.6899 70.188H77.3199C77.1499 69.461 76.79 68.883 76.26 68.452C75.73 68.015 75.06 67.796 74.24 67.796C72.93 67.796 71.92 68.366 71.22 69.504C70.51 70.643 70.16 72.206 70.15 74.195H70.28C70.58 73.653 70.98 73.188 71.46 72.8C71.94 72.413 72.48 72.114 73.08 71.905C73.69 71.689 74.33 71.582 75.01 71.582C76.12 71.582 77.11 71.846 77.99 72.376C78.88 72.905 79.58 73.634 80.1 74.564C80.62 75.487 80.87 76.546 80.86 77.74C80.87 78.983 80.59 80.101 80.01 81.092C79.44 82.076 78.65 82.852 77.62 83.418C76.6 83.985 75.41 84.265 74.05 84.259ZM74.03 81.489C74.7 81.489 75.3 81.326 75.83 80.999C76.36 80.673 76.78 80.233 77.09 79.679C77.4 79.125 77.55 78.503 77.54 77.814C77.55 77.137 77.4 76.524 77.1 75.977C76.8 75.429 76.39 74.995 75.87 74.675C75.35 74.355 74.75 74.195 74.08 74.195C73.58 74.195 73.1101 74.29 72.6801 74.481C72.2501 74.672 71.8801 74.936 71.5601 75.275C71.2401 75.607 70.99 75.995 70.8 76.438C70.62 76.875 70.53 77.343 70.52 77.842C70.53 78.5 70.68 79.107 70.99 79.661C71.29 80.214 71.7 80.658 72.23 80.99C72.76 81.322 73.36 81.489 74.03 81.489ZM84.6801 84L92.72 68.082V67.953H83.38V65.091H96.26V68.018L88.23 84H84.6801ZM109.35 80.455V79.457C109.35 78.725 109.51 78.051 109.82 77.435C110.13 76.82 110.59 76.324 111.18 75.949C111.78 75.573 112.5 75.386 113.35 75.386C114.23 75.386 114.96 75.573 115.55 75.949C116.14 76.318 116.59 76.811 116.89 77.426C117.2 78.042 117.35 78.719 117.35 79.457V80.455C117.35 81.187 117.2 81.861 116.89 82.477C116.58 83.092 116.13 83.588 115.53 83.963C114.94 84.339 114.21 84.526 113.35 84.526C112.49 84.526 111.76 84.339 111.16 83.963C110.57 83.588 110.12 83.092 109.81 82.477C109.51 81.861 109.35 81.187 109.35 80.455ZM111.76 79.457V80.455C111.76 80.941 111.88 81.387 112.12 81.793C112.35 82.2 112.76 82.403 113.35 82.403C113.95 82.403 114.36 82.203 114.58 81.803C114.81 81.396 114.92 80.947 114.92 80.455V79.457C114.92 78.965 114.81 78.516 114.6 78.109C114.38 77.697 113.97 77.491 113.35 77.491C112.77 77.491 112.36 77.697 112.12 78.109C111.88 78.516 111.76 78.965 111.76 79.457ZM99.74 69.634V68.636C99.74 67.898 99.9 67.221 100.21 66.605C100.53 65.99 100.98 65.497 101.58 65.128C102.18 64.752 102.9 64.565 103.75 64.565C104.62 64.565 105.35 64.752 105.94 65.128C106.54 65.497 106.99 65.99 107.29 66.605C107.59 67.221 107.74 67.898 107.74 68.636V69.634C107.74 70.372 107.59 71.049 107.28 71.665C106.98 72.274 106.53 72.763 105.93 73.133C105.33 73.502 104.61 73.687 103.75 73.687C102.88 73.687 102.15 73.502 101.55 73.133C100.96 72.763 100.51 72.271 100.21 71.656C99.9 71.04 99.74 70.366 99.74 69.634ZM102.17 68.636V69.634C102.17 70.126 102.29 70.575 102.51 70.982C102.75 71.382 103.16 71.582 103.75 71.582C104.34 71.582 104.75 71.382 104.97 70.982C105.2 70.575 105.31 70.126 105.31 69.634V68.636C105.31 68.144 105.2 67.695 104.99 67.288C104.77 66.876 104.36 66.67 103.75 66.67C103.17 66.67 102.76 66.876 102.52 67.288C102.29 67.701 102.17 68.15 102.17 68.636ZM100.8 84L113.8 65.091H116.1L103.1 84H100.8Z" fill="#282828"/>
<path d="M75 127H42C35.3726 127 30 132.373 30 139C30 145.627 35.3726 151 42 151H75C81.6274 151 87 145.627 87 139C87 132.373 81.6274 127 75 127Z" fill="#DCFFF5"/>
<path d="M43.47 141.602V135.705H44.8101V141.602H43.47ZM41.1899 139.322V137.984H47.09V139.322H41.1899ZM52.1801 143.166C51.4801 143.166 50.88 142.989 50.38 142.634C49.88 142.276 49.49 141.76 49.22 141.087C48.95 140.411 48.8199 139.597 48.8199 138.645C48.8199 137.693 48.96 136.884 49.23 136.216C49.5 135.545 49.88 135.034 50.38 134.682C50.88 134.33 51.4801 134.153 52.1801 134.153C52.8801 134.153 53.48 134.33 53.99 134.682C54.49 135.034 54.87 135.545 55.14 136.216C55.41 136.886 55.55 137.696 55.55 138.645C55.55 139.599 55.41 140.415 55.14 141.091C54.87 141.764 54.49 142.278 53.99 142.634C53.49 142.989 52.8801 143.166 52.1801 143.166ZM52.1801 141.832C52.7301 141.832 53.16 141.564 53.47 141.027C53.79 140.487 53.95 139.693 53.95 138.645C53.95 137.952 53.88 137.369 53.73 136.898C53.59 136.426 53.38 136.071 53.12 135.832C52.86 135.591 52.5401 135.47 52.1801 135.47C51.6401 135.47 51.21 135.74 50.9 136.28C50.58 136.817 50.42 137.605 50.42 138.645C50.42 139.341 50.49 139.926 50.63 140.401C50.77 140.875 50.98 141.233 51.24 141.474C51.51 141.713 51.8201 141.832 52.1801 141.832ZM57.59 143.094C57.33 143.094 57.11 143.003 56.92 142.821C56.74 142.639 56.65 142.418 56.65 142.156C56.65 141.901 56.74 141.682 56.92 141.5C57.11 141.318 57.33 141.227 57.59 141.227C57.84 141.227 58.06 141.318 58.24 141.5C58.43 141.682 58.52 141.901 58.53 142.156C58.52 142.33 58.48 142.487 58.39 142.629C58.3 142.771 58.19 142.885 58.05 142.97C57.91 143.053 57.76 143.094 57.59 143.094ZM62.96 143.119C62.54 143.116 62.13 143.044 61.73 142.902C61.34 142.757 60.98 142.523 60.66 142.199C60.34 141.872 60.09 141.439 59.9 140.899C59.72 140.357 59.62 139.685 59.63 138.884C59.63 138.136 59.71 137.47 59.86 136.885C60.02 136.3 60.25 135.805 60.55 135.402C60.85 134.996 61.21 134.686 61.63 134.473C62.05 134.26 62.52 134.153 63.05 134.153C63.6 134.153 64.08 134.261 64.5 134.477C64.93 134.693 65.27 134.989 65.54 135.364C65.8 135.736 65.96 136.156 66.02 136.625H64.47C64.39 136.29 64.22 136.023 63.98 135.824C63.73 135.622 63.42 135.521 63.05 135.521C62.44 135.521 61.98 135.784 61.65 136.31C61.33 136.835 61.16 137.557 61.16 138.474H61.22C61.36 138.224 61.54 138.01 61.76 137.831C61.98 137.652 62.23 137.514 62.51 137.418C62.79 137.318 63.09 137.268 63.4 137.268C63.91 137.268 64.37 137.391 64.78 137.635C65.19 137.879 65.51 138.216 65.75 138.645C65.99 139.071 66.11 139.56 66.1 140.111C66.11 140.685 65.97 141.2 65.71 141.658C65.45 142.112 65.08 142.47 64.61 142.732C64.14 142.993 63.59 143.122 62.96 143.119ZM62.95 141.841C63.26 141.841 63.54 141.766 63.78 141.615C64.02 141.464 64.22 141.261 64.36 141.006C64.5 140.75 64.5699 140.463 64.5699 140.145C64.5699 139.832 64.5 139.55 64.36 139.297C64.23 139.044 64.04 138.844 63.8 138.696C63.56 138.548 63.28 138.474 62.97 138.474C62.74 138.474 62.53 138.518 62.33 138.607C62.13 138.695 61.9601 138.817 61.8101 138.973C61.6601 139.126 61.54 139.305 61.46 139.51C61.38 139.712 61.33 139.928 61.33 140.158C61.33 140.462 61.4 140.741 61.54 140.997C61.68 141.253 61.87 141.457 62.12 141.611C62.36 141.764 62.64 141.841 62.95 141.841ZM72.21 141.364V140.903C72.21 140.565 72.28 140.254 72.42 139.97C72.57 139.686 72.78 139.457 73.05 139.284C73.33 139.111 73.66 139.024 74.05 139.024C74.46 139.024 74.7999 139.111 75.0699 139.284C75.3399 139.455 75.5499 139.682 75.6899 139.966C75.8299 140.25 75.9 140.562 75.9 140.903V141.364C75.9 141.702 75.8299 142.013 75.6899 142.297C75.5399 142.581 75.3401 142.81 75.0601 142.983C74.7901 143.156 74.4501 143.243 74.05 143.243C73.66 143.243 73.32 143.156 73.04 142.983C72.77 142.81 72.56 142.581 72.42 142.297C72.28 142.013 72.21 141.702 72.21 141.364ZM73.3199 140.903V141.364C73.3199 141.588 73.38 141.794 73.48 141.982C73.59 142.169 73.78 142.263 74.05 142.263C74.33 142.263 74.52 142.17 74.62 141.986C74.73 141.798 74.78 141.591 74.78 141.364V140.903C74.78 140.676 74.73 140.469 74.63 140.281C74.53 140.091 74.34 139.996 74.05 139.996C73.7901 139.996 73.6 140.091 73.49 140.281C73.38 140.469 73.3199 140.676 73.3199 140.903ZM67.77 136.369V135.909C67.77 135.568 67.85 135.256 67.99 134.972C68.14 134.687 68.35 134.46 68.62 134.29C68.9 134.116 69.23 134.03 69.62 134.03C70.02 134.03 70.36 134.116 70.63 134.29C70.91 134.46 71.12 134.687 71.25 134.972C71.39 135.256 71.46 135.568 71.46 135.909V136.369C71.46 136.71 71.39 137.023 71.25 137.307C71.11 137.588 70.9 137.814 70.63 137.984C70.35 138.155 70.02 138.24 69.62 138.24C69.22 138.24 68.88 138.155 68.61 137.984C68.34 137.814 68.13 137.587 67.99 137.303C67.84 137.018 67.77 136.707 67.77 136.369ZM68.89 135.909V136.369C68.89 136.597 68.95 136.804 69.05 136.991C69.16 137.176 69.35 137.268 69.62 137.268C69.9 137.268 70.0799 137.176 70.1899 136.991C70.2899 136.804 70.34 136.597 70.34 136.369V135.909C70.34 135.682 70.2899 135.474 70.1899 135.287C70.0899 135.097 69.9 135.001 69.62 135.001C69.35 135.001 69.1601 135.097 69.0601 135.287C68.9501 135.477 68.89 135.685 68.89 135.909ZM68.26 143L74.26 134.273H75.3199L69.3199 143H68.26Z" fill="#20C997"/>
<path d="M95.86 143V134.273H101.45V135.598H97.4399V137.967H101.07V139.293H97.4399V143H95.86ZM102.73 143V136.455H104.23V137.545H104.29C104.41 137.168 104.62 136.876 104.91 136.672C105.2 136.464 105.53 136.361 105.91 136.361C105.99 136.361 106.09 136.365 106.19 136.374C106.3 136.379 106.39 136.389 106.46 136.403V137.822C106.4 137.8 106.29 137.78 106.15 137.763C106.01 137.743 105.88 137.733 105.75 137.733C105.47 137.733 105.21 137.794 104.99 137.916C104.77 138.036 104.59 138.202 104.46 138.415C104.34 138.628 104.27 138.874 104.27 139.152V143H102.73ZM110.07 143.128C109.43 143.128 108.88 142.987 108.41 142.706C107.94 142.425 107.58 142.031 107.32 141.526C107.06 141.02 106.94 140.429 106.94 139.753C106.94 139.077 107.06 138.484 107.32 137.976C107.58 137.467 107.94 137.072 108.41 136.791C108.88 136.51 109.43 136.369 110.07 136.369C110.71 136.369 111.27 136.51 111.74 136.791C112.2 137.072 112.57 137.467 112.82 137.976C113.08 138.484 113.21 139.077 113.21 139.753C113.21 140.429 113.08 141.02 112.82 141.526C112.57 142.031 112.2 142.425 111.74 142.706C111.27 142.987 110.71 143.128 110.07 143.128ZM110.08 141.892C110.43 141.892 110.72 141.797 110.95 141.607C111.18 141.413 111.36 141.155 111.47 140.831C111.59 140.507 111.65 140.146 111.65 139.749C111.65 139.348 111.59 138.986 111.47 138.662C111.36 138.335 111.18 138.075 110.95 137.882C110.72 137.689 110.43 137.592 110.08 137.592C109.73 137.592 109.43 137.689 109.2 137.882C108.96 138.075 108.79 138.335 108.67 138.662C108.56 138.986 108.5 139.348 108.5 139.749C108.5 140.146 108.56 140.507 108.67 140.831C108.79 141.155 108.96 141.413 109.2 141.607C109.43 141.797 109.73 141.892 110.08 141.892ZM114.52 143V136.455H115.99V137.567H116.07C116.21 137.192 116.43 136.899 116.75 136.689C117.06 136.476 117.44 136.369 117.88 136.369C118.32 136.369 118.69 136.477 119 136.693C119.3 136.906 119.52 137.197 119.65 137.567H119.71C119.86 137.203 120.1 136.913 120.45 136.697C120.79 136.479 121.2 136.369 121.68 136.369C122.28 136.369 122.77 136.56 123.15 136.94C123.53 137.321 123.72 137.876 123.72 138.607V143H122.18V138.845C122.18 138.439 122.07 138.142 121.85 137.955C121.64 137.764 121.37 137.669 121.06 137.669C120.69 137.669 120.4 137.786 120.19 138.018C119.98 138.249 119.88 138.548 119.88 138.918V143H118.36V138.781C118.36 138.443 118.26 138.173 118.06 137.972C117.85 137.77 117.59 137.669 117.26 137.669C117.04 137.669 116.84 137.726 116.66 137.839C116.48 137.95 116.33 138.108 116.22 138.312C116.12 138.514 116.06 138.75 116.06 139.02V143H114.52ZM128.09 141.381V140.124L131.79 134.273H132.84V136.062H132.2L129.71 140.013V140.081H134.88V141.381H128.09ZM132.25 143V140.997L132.27 140.435V134.273H133.76V143H132.25ZM136.96 143.094C136.7 143.094 136.48 143.003 136.3 142.821C136.11 142.639 136.02 142.418 136.02 142.156C136.02 141.901 136.11 141.682 136.3 141.5C136.48 141.318 136.7 141.227 136.96 141.227C137.21 141.227 137.43 141.318 137.61 141.5C137.8 141.682 137.9 141.901 137.9 142.156C137.9 142.33 137.85 142.487 137.76 142.629C137.68 142.771 137.56 142.885 137.42 142.97C137.28 143.053 137.13 143.094 136.96 143.094ZM142.33 143.119C141.91 143.116 141.51 143.044 141.11 142.902C140.71 142.757 140.35 142.523 140.03 142.199C139.72 141.872 139.46 141.439 139.28 140.899C139.09 140.357 139 139.685 139 138.884C139 138.136 139.08 137.47 139.24 136.885C139.4 136.3 139.62 135.805 139.92 135.402C140.22 134.996 140.58 134.686 141 134.473C141.42 134.26 141.9 134.153 142.42 134.153C142.97 134.153 143.45 134.261 143.88 134.477C144.3 134.693 144.65 134.989 144.91 135.364C145.17 135.736 145.33 136.156 145.39 136.625H143.84C143.76 136.29 143.6 136.023 143.35 135.824C143.11 135.622 142.8 135.521 142.42 135.521C141.82 135.521 141.35 135.784 141.02 136.31C140.7 136.835 140.54 137.557 140.53 138.474H140.59C140.73 138.224 140.91 138.01 141.13 137.831C141.36 137.652 141.61 137.514 141.88 137.418C142.16 137.318 142.46 137.268 142.77 137.268C143.29 137.268 143.74 137.391 144.15 137.635C144.56 137.879 144.88 138.216 145.12 138.645C145.36 139.071 145.48 139.56 145.48 140.111C145.48 140.685 145.35 141.2 145.08 141.658C144.82 142.112 144.45 142.47 143.98 142.732C143.51 142.993 142.96 143.122 142.33 143.119ZM142.32 141.841C142.63 141.841 142.91 141.766 143.15 141.615C143.4 141.464 143.59 141.261 143.73 141.006C143.88 140.75 143.94 140.463 143.94 140.145C143.94 139.832 143.88 139.55 143.74 139.297C143.6 139.044 143.41 138.844 143.17 138.696C142.93 138.548 142.65 138.474 142.34 138.474C142.11 138.474 141.9 138.518 141.7 138.607C141.5 138.695 141.33 138.817 141.18 138.973C141.03 139.126 140.92 139.305 140.83 139.51C140.75 139.712 140.71 139.928 140.7 140.158C140.71 140.462 140.78 140.741 140.92 140.997C141.06 141.253 141.25 141.457 141.49 141.611C141.74 141.764 142.01 141.841 142.32 141.841ZM151.58 141.364V140.903C151.58 140.565 151.65 140.254 151.8 139.97C151.94 139.686 152.15 139.457 152.43 139.284C152.7 139.111 153.04 139.024 153.43 139.024C153.83 139.024 154.17 139.111 154.44 139.284C154.71 139.455 154.92 139.682 155.06 139.966C155.2 140.25 155.27 140.562 155.27 140.903V141.364C155.27 141.702 155.2 142.013 155.06 142.297C154.92 142.581 154.71 142.81 154.43 142.983C154.16 143.156 153.83 143.243 153.43 143.243C153.03 143.243 152.69 143.156 152.42 142.983C152.14 142.81 151.93 142.581 151.79 142.297C151.65 142.013 151.58 141.702 151.58 141.364ZM152.69 140.903V141.364C152.69 141.588 152.75 141.794 152.86 141.982C152.96 142.169 153.15 142.263 153.43 142.263C153.7 142.263 153.89 142.17 153.99 141.986C154.1 141.798 154.15 141.591 154.15 141.364V140.903C154.15 140.676 154.1 140.469 154 140.281C153.9 140.091 153.71 139.996 153.43 139.996C153.16 139.996 152.97 140.091 152.86 140.281C152.75 140.469 152.69 140.676 152.69 140.903ZM147.15 136.369V135.909C147.15 135.568 147.22 135.256 147.36 134.972C147.51 134.687 147.72 134.46 147.99 134.29C148.27 134.116 148.6 134.03 149 134.03C149.4 134.03 149.73 134.116 150.01 134.29C150.28 134.46 150.49 134.687 150.63 134.972C150.77 135.256 150.84 135.568 150.84 135.909V136.369C150.84 136.71 150.77 137.023 150.62 137.307C150.48 137.588 150.28 137.814 150 137.984C149.73 138.155 149.39 138.24 149 138.24C148.6 138.24 148.26 138.155 147.98 137.984C147.71 137.814 147.5 137.587 147.36 137.303C147.22 137.018 147.15 136.707 147.15 136.369ZM148.27 135.909V136.369C148.27 136.597 148.32 136.804 148.42 136.991C148.53 137.176 148.72 137.268 149 137.268C149.27 137.268 149.46 137.176 149.56 136.991C149.66 136.804 149.72 136.597 149.72 136.369V135.909C149.72 135.682 149.67 135.474 149.57 135.287C149.47 135.097 149.28 135.001 149 135.001C148.73 135.001 148.54 135.097 148.43 135.287C148.32 135.477 148.27 135.685 148.27 135.909ZM147.63 143L153.63 134.273H154.7L148.7 143H147.63Z" fill="#9D9FA2"/>
</g>
<defs>
<filter id="filter0_d_1_92" x="0" y="0" width="282" height="182" filterUnits="userSpaceOnUse" color-interpolation-filters="sRGB">
<feFlood flood-opacity="0" result="BackgroundImageFix"/>
<feColorMatrix in="SourceAlpha" type="matrix" values="0 0 0 0 0 0 0 0 0 0 0 0 0 0 0 0 0 0 127 0" result="hardAlpha"/>
<feOffset dy="1"/>
<feGaussianBlur stdDeviation="5"/>
<feColorMatrix type="matrix" values="0 0 0 0 0 0 0 0 0 0 0 0 0 0 0 0 0 0 0.06 0"/>
<feBlend mode="normal" in2="BackgroundImageFix" result="effect1_dropShadow_1_92"/>
<feBlend mode="normal" in="SourceGraphic" in2="effect1_dropShadow_1_92" result="shape"/>
</filter>
</defs>
</svg>
