<svg width="282" height="182" viewBox="0 0 282 182" fill="none" xmlns="http://www.w3.org/2000/svg">
<g filter="url(#filter0_d_1_86)">
<path d="M260 9H22C15.3726 9 10 14.3726 10 21V159C10 165.627 15.3726 171 22 171H260C266.627 171 272 165.627 272 159V21C272 14.3726 266.627 9 260 9Z" fill="white"/>
<path d="M40.636 36.364V48H39.273L32.932 38.864H32.818V48H31.409V36.364H32.773L39.136 45.523H39.25V36.364H40.636ZM46.933 48.182C46.092 48.182 45.367 47.996 44.757 47.625C44.151 47.25 43.683 46.727 43.354 46.057C43.028 45.383 42.865 44.598 42.865 43.705C42.865 42.811 43.028 42.023 43.354 41.341C43.683 40.655 44.142 40.121 44.729 39.739C45.32 39.352 46.009 39.159 46.797 39.159C47.251 39.159 47.7 39.235 48.143 39.386C48.587 39.538 48.99 39.784 49.354 40.125C49.717 40.462 50.007 40.909 50.223 41.466C50.439 42.023 50.547 42.708 50.547 43.523V44.091H43.82V42.932H49.183C49.183 42.439 49.085 42 48.888 41.614C48.695 41.227 48.418 40.922 48.058 40.699C47.702 40.475 47.282 40.364 46.797 40.364C46.263 40.364 45.801 40.496 45.411 40.761C45.024 41.023 44.727 41.364 44.518 41.784C44.31 42.205 44.206 42.655 44.206 43.136V43.909C44.206 44.568 44.32 45.127 44.547 45.585C44.778 46.04 45.098 46.386 45.507 46.625C45.916 46.86 46.392 46.977 46.933 46.977C47.286 46.977 47.604 46.928 47.888 46.83C48.176 46.727 48.424 46.576 48.632 46.375C48.84 46.17 49.001 45.917 49.115 45.614L50.411 45.977C50.274 46.417 50.045 46.803 49.723 47.136C49.401 47.466 49.003 47.723 48.53 47.909C48.056 48.091 47.524 48.182 46.933 48.182ZM54.564 48L51.905 39.273H53.314L55.2 45.955H55.291L57.155 39.273H58.587L60.428 45.932H60.518L62.405 39.273H63.814L61.155 48H59.837L57.928 41.295H57.791L55.882 48H54.564ZM76.632 39.273C76.564 38.697 76.287 38.25 75.803 37.932C75.318 37.614 74.723 37.455 74.018 37.455C73.503 37.455 73.053 37.538 72.666 37.705C72.284 37.871 71.984 38.1 71.768 38.392C71.556 38.684 71.45 39.015 71.45 39.386C71.45 39.697 71.524 39.964 71.672 40.188C71.823 40.407 72.017 40.591 72.251 40.739C72.486 40.883 72.732 41.002 72.99 41.097C73.248 41.187 73.484 41.261 73.7 41.318L74.882 41.636C75.185 41.716 75.522 41.826 75.893 41.966C76.268 42.106 76.626 42.297 76.967 42.54C77.312 42.778 77.596 43.085 77.82 43.46C78.043 43.835 78.155 44.295 78.155 44.841C78.155 45.47 77.99 46.038 77.661 46.545C77.335 47.053 76.857 47.456 76.229 47.756C75.604 48.055 74.844 48.205 73.95 48.205C73.117 48.205 72.395 48.07 71.786 47.801C71.179 47.532 70.702 47.157 70.354 46.676C70.009 46.195 69.814 45.636 69.768 45H71.223C71.261 45.439 71.409 45.803 71.666 46.091C71.928 46.375 72.257 46.587 72.655 46.727C73.056 46.864 73.488 46.932 73.95 46.932C74.488 46.932 74.971 46.845 75.399 46.67C75.827 46.492 76.166 46.246 76.416 45.932C76.666 45.614 76.791 45.242 76.791 44.818C76.791 44.432 76.683 44.117 76.467 43.875C76.251 43.633 75.967 43.436 75.615 43.284C75.263 43.133 74.882 43 74.473 42.886L73.041 42.477C72.132 42.216 71.412 41.843 70.882 41.358C70.352 40.873 70.087 40.239 70.087 39.455C70.087 38.803 70.263 38.235 70.615 37.75C70.971 37.261 71.448 36.883 72.047 36.614C72.649 36.341 73.321 36.205 74.064 36.205C74.814 36.205 75.481 36.339 76.064 36.608C76.647 36.873 77.109 37.237 77.45 37.699C77.795 38.161 77.977 38.686 77.996 39.273H76.632ZM80.29 48V39.273H81.631V48H80.29ZM80.972 37.818C80.71 37.818 80.485 37.729 80.295 37.551C80.11 37.373 80.017 37.159 80.017 36.909C80.017 36.659 80.11 36.445 80.295 36.267C80.485 36.089 80.71 36 80.972 36C81.233 36 81.456 36.089 81.642 36.267C81.831 36.445 81.926 36.659 81.926 36.909C81.926 37.159 81.831 37.373 81.642 37.551C81.456 37.729 81.233 37.818 80.972 37.818ZM87.609 51.455C86.962 51.455 86.405 51.371 85.939 51.205C85.473 51.042 85.085 50.826 84.774 50.557C84.467 50.292 84.223 50.008 84.041 49.705L85.109 48.955C85.231 49.114 85.384 49.295 85.57 49.5C85.755 49.708 86.009 49.888 86.331 50.04C86.657 50.195 87.083 50.273 87.609 50.273C88.314 50.273 88.895 50.102 89.354 49.761C89.812 49.42 90.041 48.886 90.041 48.159V46.386H89.928C89.829 46.545 89.689 46.742 89.507 46.977C89.329 47.208 89.071 47.415 88.734 47.597C88.401 47.775 87.95 47.864 87.382 47.864C86.678 47.864 86.045 47.697 85.484 47.364C84.928 47.03 84.486 46.545 84.161 45.909C83.839 45.273 83.678 44.5 83.678 43.591C83.678 42.697 83.835 41.919 84.149 41.256C84.464 40.589 84.901 40.074 85.462 39.71C86.022 39.343 86.67 39.159 87.405 39.159C87.973 39.159 88.424 39.254 88.757 39.443C89.094 39.629 89.352 39.841 89.53 40.08C89.712 40.314 89.852 40.508 89.95 40.659H90.087V39.273H91.382V48.25C91.382 49 91.212 49.61 90.871 50.08C90.534 50.553 90.079 50.9 89.507 51.119C88.939 51.343 88.306 51.455 87.609 51.455ZM87.564 46.659C88.102 46.659 88.556 46.536 88.928 46.29C89.299 46.044 89.581 45.689 89.774 45.227C89.967 44.765 90.064 44.212 90.064 43.568C90.064 42.939 89.969 42.384 89.78 41.903C89.59 41.422 89.31 41.045 88.939 40.773C88.568 40.5 88.109 40.364 87.564 40.364C86.996 40.364 86.522 40.508 86.143 40.795C85.768 41.083 85.486 41.47 85.297 41.955C85.111 42.439 85.018 42.977 85.018 43.568C85.018 44.174 85.113 44.71 85.303 45.176C85.496 45.638 85.78 46.002 86.155 46.267C86.534 46.528 87.003 46.659 87.564 46.659ZM95.178 42.75V48H93.837V39.273H95.132V40.636H95.246C95.45 40.193 95.761 39.837 96.178 39.568C96.594 39.295 97.132 39.159 97.791 39.159C98.382 39.159 98.899 39.28 99.342 39.523C99.786 39.761 100.13 40.125 100.376 40.614C100.623 41.098 100.746 41.712 100.746 42.455V48H99.405V42.545C99.405 41.86 99.227 41.326 98.871 40.943C98.515 40.557 98.026 40.364 97.405 40.364C96.977 40.364 96.594 40.456 96.257 40.642C95.924 40.828 95.661 41.098 95.467 41.455C95.274 41.811 95.178 42.242 95.178 42.75ZM108.696 44.432V39.273H110.037V48H108.696V46.523H108.605C108.401 46.966 108.082 47.343 107.651 47.653C107.219 47.96 106.673 48.114 106.014 48.114C105.469 48.114 104.984 47.994 104.56 47.756C104.135 47.513 103.802 47.15 103.56 46.665C103.317 46.176 103.196 45.561 103.196 44.818V39.273H104.537V44.727C104.537 45.364 104.715 45.871 105.071 46.25C105.431 46.629 105.889 46.818 106.446 46.818C106.779 46.818 107.118 46.733 107.463 46.562C107.812 46.392 108.103 46.131 108.338 45.778C108.577 45.426 108.696 44.977 108.696 44.432ZM112.493 51.273V39.273H113.788V40.659H113.947C114.046 40.508 114.182 40.314 114.357 40.08C114.535 39.841 114.788 39.629 115.118 39.443C115.451 39.254 115.902 39.159 116.47 39.159C117.205 39.159 117.853 39.343 118.413 39.71C118.974 40.078 119.411 40.598 119.726 41.273C120.04 41.947 120.197 42.742 120.197 43.659C120.197 44.583 120.04 45.384 119.726 46.062C119.411 46.737 118.976 47.259 118.419 47.631C117.862 47.998 117.22 48.182 116.493 48.182C115.932 48.182 115.483 48.089 115.146 47.903C114.809 47.714 114.55 47.5 114.368 47.261C114.186 47.019 114.046 46.818 113.947 46.659H113.834V51.273H112.493ZM113.811 43.636C113.811 44.295 113.908 44.877 114.101 45.381C114.294 45.881 114.576 46.273 114.947 46.557C115.319 46.837 115.773 46.977 116.311 46.977C116.872 46.977 117.339 46.83 117.714 46.534C118.093 46.235 118.377 45.833 118.567 45.33C118.76 44.822 118.857 44.258 118.857 43.636C118.857 43.023 118.762 42.47 118.572 41.977C118.387 41.481 118.105 41.089 117.726 40.801C117.351 40.509 116.879 40.364 116.311 40.364C115.766 40.364 115.307 40.502 114.936 40.778C114.565 41.051 114.285 41.434 114.095 41.926C113.906 42.415 113.811 42.985 113.811 43.636ZM128.425 41.227L127.22 41.568C127.144 41.367 127.033 41.172 126.885 40.983C126.741 40.79 126.544 40.631 126.294 40.506C126.044 40.381 125.724 40.318 125.334 40.318C124.8 40.318 124.355 40.441 123.999 40.688C123.646 40.93 123.47 41.239 123.47 41.614C123.47 41.947 123.591 42.21 123.834 42.403C124.076 42.597 124.455 42.758 124.97 42.886L126.266 43.205C127.046 43.394 127.627 43.684 128.01 44.074C128.393 44.46 128.584 44.958 128.584 45.568C128.584 46.068 128.44 46.515 128.152 46.909C127.868 47.303 127.47 47.614 126.959 47.841C126.447 48.068 125.853 48.182 125.175 48.182C124.285 48.182 123.548 47.989 122.964 47.602C122.381 47.216 122.012 46.652 121.857 45.909L123.129 45.591C123.25 46.061 123.48 46.413 123.817 46.648C124.158 46.883 124.603 47 125.152 47C125.777 47 126.273 46.867 126.641 46.602C127.012 46.333 127.197 46.011 127.197 45.636C127.197 45.333 127.091 45.08 126.879 44.875C126.667 44.667 126.341 44.511 125.902 44.409L124.447 44.068C123.648 43.879 123.061 43.585 122.686 43.188C122.315 42.786 122.129 42.284 122.129 41.682C122.129 41.189 122.268 40.754 122.544 40.375C122.824 39.996 123.205 39.699 123.686 39.483C124.171 39.267 124.72 39.159 125.334 39.159C126.197 39.159 126.875 39.348 127.368 39.727C127.864 40.106 128.216 40.606 128.425 41.227Z" fill="#5F6980"/>
<path d="M39.371 65.091V84H35.946V68.424H35.835L31.413 71.249V68.11L36.112 65.091H39.371ZM51.864 65.091V84H48.438V68.424H48.327L43.905 71.249V68.11L48.604 65.091H51.864ZM63.589 84.259C62.685 84.252 61.801 84.095 60.94 83.788C60.078 83.474 59.302 82.966 58.613 82.264C57.924 81.556 57.376 80.618 56.969 79.448C56.563 78.272 56.363 76.817 56.369 75.081C56.369 73.462 56.542 72.019 56.886 70.751C57.231 69.483 57.727 68.412 58.373 67.538C59.019 66.657 59.798 65.987 60.709 65.525C61.626 65.063 62.651 64.832 63.783 64.832C64.971 64.832 66.024 65.066 66.941 65.534C67.864 66.002 68.609 66.642 69.175 67.455C69.742 68.261 70.093 69.172 70.228 70.188H66.858C66.686 69.461 66.332 68.883 65.796 68.452C65.267 68.015 64.596 67.796 63.783 67.796C62.472 67.796 61.463 68.366 60.755 69.504C60.053 70.643 59.699 72.206 59.693 74.195H59.822C60.124 73.653 60.515 73.188 60.995 72.8C61.475 72.413 62.017 72.114 62.62 71.905C63.229 71.689 63.873 71.582 64.55 71.582C65.658 71.582 66.652 71.846 67.532 72.376C68.418 72.905 69.12 73.634 69.637 74.564C70.154 75.487 70.41 76.546 70.403 77.74C70.41 78.983 70.126 80.101 69.554 81.092C68.982 82.076 68.184 82.852 67.163 83.418C66.141 83.985 64.95 84.265 63.589 84.259ZM63.571 81.489C64.242 81.489 64.842 81.326 65.371 80.999C65.901 80.673 66.319 80.233 66.627 79.679C66.935 79.125 67.086 78.503 67.08 77.814C67.086 77.137 66.938 76.524 66.636 75.977C66.341 75.429 65.932 74.995 65.408 74.675C64.885 74.355 64.288 74.195 63.617 74.195C63.119 74.195 62.654 74.29 62.223 74.481C61.792 74.672 61.417 74.936 61.097 75.275C60.777 75.607 60.524 75.995 60.339 76.438C60.161 76.875 60.069 77.343 60.062 77.842C60.069 78.5 60.223 79.107 60.524 79.661C60.826 80.214 61.241 80.658 61.771 80.99C62.3 81.322 62.9 81.489 63.571 81.489Z" fill="#282828"/>
<path d="M65 127H42C35.3726 127 30 132.373 30 139C30 145.627 35.3726 151 42 151H65C71.6274 151 77 145.627 77 139C77 132.373 71.6274 127 65 127Z" fill="#F2F4F7"/>
<path d="M44.095 143.166C43.393 143.166 42.791 142.989 42.288 142.634C41.788 142.276 41.403 141.76 41.134 141.087C40.866 140.411 40.733 139.597 40.733 138.645C40.736 137.693 40.871 136.884 41.138 136.216C41.408 135.545 41.793 135.034 42.293 134.682C42.795 134.33 43.396 134.153 44.095 134.153C44.794 134.153 45.395 134.33 45.898 134.682C46.401 135.034 46.786 135.545 47.053 136.216C47.322 136.886 47.457 137.696 47.457 138.645C47.457 139.599 47.322 140.415 47.053 141.091C46.786 141.764 46.401 142.278 45.898 142.634C45.398 142.989 44.797 143.166 44.095 143.166ZM44.095 141.832C44.641 141.832 45.071 141.564 45.386 141.027C45.705 140.487 45.864 139.693 45.864 138.645C45.864 137.952 45.791 137.369 45.646 136.898C45.501 136.426 45.297 136.071 45.033 135.832C44.768 135.591 44.456 135.47 44.095 135.47C43.553 135.47 43.124 135.74 42.808 136.28C42.493 136.817 42.334 137.605 42.331 138.645C42.328 139.341 42.398 139.926 42.54 140.401C42.685 140.875 42.889 141.233 43.153 141.474C43.418 141.713 43.732 141.832 44.095 141.832ZM49.501 143.094C49.242 143.094 49.021 143.003 48.836 142.821C48.651 142.639 48.56 142.418 48.563 142.156C48.56 141.901 48.651 141.682 48.836 141.5C49.021 141.318 49.242 141.227 49.501 141.227C49.751 141.227 49.968 141.318 50.153 141.5C50.34 141.682 50.435 141.901 50.438 142.156C50.435 142.33 50.39 142.487 50.302 142.629C50.217 142.771 50.103 142.885 49.961 142.97C49.822 143.053 49.668 143.094 49.501 143.094ZM54.9 143.166C54.198 143.166 53.596 142.989 53.093 142.634C52.593 142.276 52.208 141.76 51.938 141.087C51.671 140.411 51.538 139.597 51.538 138.645C51.54 137.693 51.675 136.884 51.942 136.216C52.212 135.545 52.597 135.034 53.097 134.682C53.6 134.33 54.201 134.153 54.9 134.153C55.599 134.153 56.2 134.33 56.702 134.682C57.205 135.034 57.59 135.545 57.857 136.216C58.127 136.886 58.262 137.696 58.262 138.645C58.262 139.599 58.127 140.415 57.857 141.091C57.59 141.764 57.205 142.278 56.702 142.634C56.202 142.989 55.602 143.166 54.9 143.166ZM54.9 141.832C55.445 141.832 55.876 141.564 56.191 141.027C56.509 140.487 56.668 139.693 56.668 138.645C56.668 137.952 56.596 137.369 56.451 136.898C56.306 136.426 56.102 136.071 55.837 135.832C55.573 135.591 55.261 135.47 54.9 135.47C54.357 135.47 53.928 135.74 53.613 136.28C53.298 136.817 53.138 137.605 53.136 138.645C53.133 139.341 53.202 139.926 53.344 140.401C53.489 140.875 53.694 141.233 53.958 141.474C54.222 141.713 54.536 141.832 54.9 141.832ZM62.904 143.166C62.202 143.166 61.6 142.989 61.097 142.634C60.597 142.276 60.212 141.76 59.942 141.087C59.675 140.411 59.542 139.597 59.542 138.645C59.544 137.693 59.679 136.884 59.946 136.216C60.216 135.545 60.601 135.034 61.101 134.682C61.604 134.33 62.205 134.153 62.904 134.153C63.603 134.153 64.203 134.33 64.706 134.682C65.209 135.034 65.594 135.545 65.861 136.216C66.131 136.886 66.266 137.696 66.266 138.645C66.266 139.599 66.131 140.415 65.861 141.091C65.594 141.764 65.209 142.278 64.706 142.634C64.206 142.989 63.605 143.166 62.904 143.166ZM62.904 141.832C63.449 141.832 63.88 141.564 64.195 141.027C64.513 140.487 64.672 139.693 64.672 138.645C64.672 137.952 64.6 137.369 64.455 136.898C64.31 136.426 64.105 136.071 63.841 135.832C63.577 135.591 63.265 135.47 62.904 135.47C62.361 135.47 61.932 135.74 61.617 136.28C61.301 136.817 61.142 137.605 61.14 138.645C61.137 139.341 61.206 139.926 61.348 140.401C61.493 140.875 61.698 141.233 61.962 141.474C62.226 141.713 62.54 141.832 62.904 141.832Z" fill="#5F6980"/>
</g>
<defs>
<filter id="filter0_d_1_86" x="0" y="0" width="282" height="182" filterUnits="userSpaceOnUse" color-interpolation-filters="sRGB">
<feFlood flood-opacity="0" result="BackgroundImageFix"/>
<feColorMatrix in="SourceAlpha" type="matrix" values="0 0 0 0 0 0 0 0 0 0 0 0 0 0 0 0 0 0 127 0" result="hardAlpha"/>
<feOffset dy="1"/>
<feGaussianBlur stdDeviation="5"/>
<feColorMatrix type="matrix" values="0 0 0 0 0 0 0 0 0 0 0 0 0 0 0 0 0 0 0.06 0"/>
<feBlend mode="normal" in2="BackgroundImageFix" result="effect1_dropShadow_1_86"/>
<feBlend mode="normal" in="SourceGraphic" in2="effect1_dropShadow_1_86" result="shape"/>
</filter>
</defs>
</svg>
