<svg width="66" height="66" viewBox="0 0 66 66" fill="none" xmlns="http://www.w3.org/2000/svg">
<g filter="url(#filter0_d_1_190)">
<path d="M45.5714 10H20.4286C15.2213 10 11 14.2213 11 19.4286V44.5714C11 49.7787 15.2213 54 20.4286 54H45.5714C50.7787 54 55 49.7787 55 44.5714V19.4286C55 14.2213 50.7787 10 45.5714 10Z" fill="white"/>
<path d="M45.5714 10H20.4286C15.2213 10 11 14.2213 11 19.4286V44.5714C11 49.7787 15.2213 54 20.4286 54H45.5714C50.7787 54 55 49.7787 55 44.5714V19.4286C55 14.2213 50.7787 10 45.5714 10Z" stroke="#F2F4F7"/>
<path d="M22.146 35.54C22.146 36.57 22.371 37.35 22.665 37.83C23.05 38.46 23.624 38.72 24.21 38.72C24.965 38.72 25.656 38.5299 26.987 36.6899C28.054 35.1999 29.311 33.1199 30.156 31.8199L31.589 29.61C32.584 28.08 33.735 26.37 35.055 25.22C36.134 24.27 37.296 23.75 38.466 23.75C40.431 23.75 42.302 24.89 43.734 27.04C45.302 29.38 46.063 32.34 46.063 35.39C46.063 37.2 45.706 38.54 45.1 39.59C44.515 40.61 43.373 41.63 41.454 41.63V38.72C43.098 38.72 43.508 37.21 43.508 35.47C43.508 33 42.933 30.25 41.668 28.29C40.77 26.9 39.607 26.05 38.326 26.05C36.942 26.05 35.827 27.1 34.575 28.97C33.909 29.96 33.226 31.17 32.459 32.54L31.614 34.04C29.917 37.06 29.487 37.75 28.638 38.88C27.151 40.87 25.881 41.62 24.21 41.62C22.226 41.62 20.972 40.76 20.195 39.46C19.561 38.41 19.25 37.0201 19.25 35.4301L22.146 35.54Z" fill="#0081FB"/>
<path d="M21.534 27.24C22.861 25.19 24.777 23.75 26.975 23.75C28.248 23.75 29.513 24.13 30.834 25.21C32.28 26.39 33.82 28.3401 35.742 31.5601L36.431 32.71C38.094 35.49 39.041 36.92 39.594 37.6C40.307 38.46 40.806 38.72 41.454 38.72C43.098 38.72 43.508 37.21 43.508 35.47L46.063 35.39C46.063 37.2 45.706 38.54 45.1 39.59C44.515 40.61 43.374 41.62 41.454 41.62C40.26 41.62 39.203 41.36 38.034 40.26C37.135 39.41 36.084 37.9 35.275 36.54L32.871 32.51C31.664 30.49 30.557 28.98 29.917 28.29C29.228 27.56 28.342 26.67 26.928 26.67C25.784 26.67 24.813 27.48 24 28.71L21.534 27.24Z" fill="url(#paint0_linear_1_190)"/>
<path d="M26.928 26.67C25.784 26.67 24.813 27.48 24 28.71C22.85 30.45 22.147 33.05 22.147 35.54C22.147 36.57 22.371 37.35 22.665 37.83L20.195 39.46C19.561 38.41 19.25 37.0201 19.25 35.4301C19.25 32.5601 20.037 29.56 21.534 27.24C22.861 25.19 24.777 23.75 26.975 23.75L26.928 26.67Z" fill="url(#paint1_linear_1_190)"/>
</g>
<defs>
<filter id="filter0_d_1_190" x="0.5" y="0.5" width="65" height="65" filterUnits="userSpaceOnUse" color-interpolation-filters="sRGB">
<feFlood flood-opacity="0" result="BackgroundImageFix"/>
<feColorMatrix in="SourceAlpha" type="matrix" values="0 0 0 0 0 0 0 0 0 0 0 0 0 0 0 0 0 0 127 0" result="hardAlpha"/>
<feOffset dy="1"/>
<feGaussianBlur stdDeviation="5"/>
<feColorMatrix type="matrix" values="0 0 0 0 0 0 0 0 0 0 0 0 0 0 0 0 0 0 0.06 0"/>
<feBlend mode="normal" in2="BackgroundImageFix" result="effect1_dropShadow_1_190"/>
<feBlend mode="normal" in="SourceGraphic" in2="effect1_dropShadow_1_190" result="shape"/>
</filter>
<linearGradient id="paint0_linear_1_190" x1="24.42" y1="38.95" x2="42.804" y2="40.71" gradientUnits="userSpaceOnUse">
<stop stop-color="#0064E1"/>
<stop offset="0.4" stop-color="#0064E1"/>
<stop offset="0.83" stop-color="#0073EE"/>
<stop offset="1" stop-color="#0082FB"/>
</linearGradient>
<linearGradient id="paint1_linear_1_190" x1="24.792" y1="36.76" x2="24.792" y2="29.93" gradientUnits="userSpaceOnUse">
<stop stop-color="#0082FB"/>
<stop offset="1" stop-color="#0064E0"/>
</linearGradient>
</defs>
</svg>
