<svg width="66" height="66" viewBox="0 0 66 66" fill="none" xmlns="http://www.w3.org/2000/svg">
<g filter="url(#filter0_d_1_170)">
<path d="M45.5714 10H20.4286C15.2213 10 11 14.2213 11 19.4286V44.5714C11 49.7787 15.2213 54 20.4286 54H45.5714C50.7787 54 55 49.7787 55 44.5714V19.4286C55 14.2213 50.7787 10 45.5714 10Z" fill="white"/>
<path d="M45.5714 10H20.4286C15.2213 10 11 14.2213 11 19.4286V44.5714C11 49.7787 15.2213 54 20.4286 54H45.5714C50.7787 54 55 49.7787 55 44.5714V19.4286C55 14.2213 50.7787 10 45.5714 10Z" stroke="#F2F4F7"/>
<path d="M28.531 45.75C30.998 45.75 33 43.75 33 41.28V36.8101H28.531C26.065 36.8101 24.063 38.81 24.063 41.28C24.063 43.75 26.065 45.75 28.531 45.75Z" fill="#0ACF83"/>
<path d="M24.063 32.34C24.063 29.88 26.065 27.88 28.531 27.88H33V36.8101H28.531C26.065 36.8101 24.063 34.81 24.063 32.34Z" fill="#A259FF"/>
<path d="M24.063 23.41C24.063 20.94 26.065 18.9399 28.531 18.9399H33V27.88H28.531C26.065 27.88 24.063 25.87 24.063 23.41Z" fill="#F24E1E"/>
<path d="M33 18.9399H37.469C39.936 18.9399 41.938 20.94 41.938 23.41C41.938 25.87 39.936 27.88 37.469 27.88H33V18.9399Z" fill="#FF7262"/>
<path d="M41.938 32.34C41.938 34.81 39.936 36.8101 37.469 36.8101C35.002 36.8101 33 34.81 33 32.34C33 29.88 35.002 27.88 37.469 27.88C39.936 27.88 41.938 29.88 41.938 32.34Z" fill="#1ABCFE"/>
</g>
<defs>
<filter id="filter0_d_1_170" x="0.5" y="0.5" width="65" height="65" filterUnits="userSpaceOnUse" color-interpolation-filters="sRGB">
<feFlood flood-opacity="0" result="BackgroundImageFix"/>
<feColorMatrix in="SourceAlpha" type="matrix" values="0 0 0 0 0 0 0 0 0 0 0 0 0 0 0 0 0 0 127 0" result="hardAlpha"/>
<feOffset dy="1"/>
<feGaussianBlur stdDeviation="5"/>
<feColorMatrix type="matrix" values="0 0 0 0 0 0 0 0 0 0 0 0 0 0 0 0 0 0 0.06 0"/>
<feBlend mode="normal" in2="BackgroundImageFix" result="effect1_dropShadow_1_170"/>
<feBlend mode="normal" in="SourceGraphic" in2="effect1_dropShadow_1_170" result="shape"/>
</filter>
</defs>
</svg>
