<svg width="282" height="182" viewBox="0 0 282 182" fill="none" xmlns="http://www.w3.org/2000/svg">
<g filter="url(#filter0_d_1_72)">
<path d="M260 9H22C15.3726 9 10 14.3726 10 21V159C10 165.627 15.3726 171 22 171H260C266.627 171 272 165.627 272 159V21C272 14.3726 266.627 9 260 9Z" fill="white"/>
<path d="M31.409 48V36.364H35.341C36.25 36.364 36.996 36.519 37.58 36.83C38.163 37.136 38.595 37.559 38.875 38.097C39.155 38.634 39.295 39.246 39.295 39.932C39.295 40.617 39.155 41.225 38.875 41.756C38.595 42.286 38.165 42.703 37.585 43.006C37.006 43.305 36.265 43.455 35.364 43.455H32.182V42.182H35.318C35.939 42.182 36.439 42.091 36.818 41.909C37.201 41.727 37.477 41.47 37.648 41.136C37.822 40.799 37.909 40.398 37.909 39.932C37.909 39.466 37.822 39.059 37.648 38.71C37.473 38.362 37.195 38.093 36.812 37.903C36.43 37.71 35.924 37.614 35.295 37.614H32.818V48H31.409ZM36.886 42.773L39.75 48H38.114L35.295 42.773H36.886ZM45.027 48.182C44.186 48.182 43.461 47.996 42.851 47.625C42.245 47.25 41.777 46.727 41.447 46.057C41.122 45.383 40.959 44.598 40.959 43.705C40.959 42.811 41.122 42.023 41.447 41.341C41.777 40.655 42.235 40.121 42.822 39.739C43.413 39.352 44.103 39.159 44.891 39.159C45.345 39.159 45.794 39.235 46.237 39.386C46.68 39.538 47.084 39.784 47.447 40.125C47.811 40.462 48.101 40.909 48.317 41.466C48.533 42.023 48.641 42.708 48.641 43.523V44.091H41.913V42.932H47.277C47.277 42.439 47.179 42 46.982 41.614C46.788 41.227 46.512 40.922 46.152 40.699C45.796 40.475 45.375 40.364 44.891 40.364C44.357 40.364 43.894 40.496 43.504 40.761C43.118 41.023 42.821 41.364 42.612 41.784C42.404 42.205 42.3 42.655 42.3 43.136V43.909C42.3 44.568 42.413 45.127 42.641 45.585C42.872 46.04 43.192 46.386 43.601 46.625C44.01 46.86 44.485 46.977 45.027 46.977C45.379 46.977 45.697 46.928 45.982 46.83C46.269 46.727 46.518 46.576 46.726 46.375C46.934 46.17 47.095 45.917 47.209 45.614L48.504 45.977C48.368 46.417 48.139 46.803 47.817 47.136C47.495 47.466 47.097 47.723 46.624 47.909C46.15 48.091 45.618 48.182 45.027 48.182ZM57.551 39.273L54.324 48H52.96L49.733 39.273H51.188L53.597 46.227H53.688L56.097 39.273H57.551ZM62.668 48.182C61.827 48.182 61.101 47.996 60.491 47.625C59.885 47.25 59.418 46.727 59.088 46.057C58.762 45.383 58.599 44.598 58.599 43.705C58.599 42.811 58.762 42.023 59.088 41.341C59.418 40.655 59.876 40.121 60.463 39.739C61.054 39.352 61.743 39.159 62.531 39.159C62.986 39.159 63.435 39.235 63.878 39.386C64.321 39.538 64.724 39.784 65.088 40.125C65.452 40.462 65.741 40.909 65.957 41.466C66.173 42.023 66.281 42.708 66.281 43.523V44.091H59.554V42.932H64.918C64.918 42.439 64.819 42 64.622 41.614C64.429 41.227 64.152 40.922 63.793 40.699C63.437 40.475 63.016 40.364 62.531 40.364C61.997 40.364 61.535 40.496 61.145 40.761C60.759 41.023 60.461 41.364 60.253 41.784C60.045 42.205 59.94 42.655 59.94 43.136V43.909C59.94 44.568 60.054 45.127 60.281 45.585C60.512 46.04 60.832 46.386 61.241 46.625C61.651 46.86 62.126 46.977 62.668 46.977C63.02 46.977 63.338 46.928 63.622 46.83C63.91 46.727 64.158 46.576 64.366 46.375C64.575 46.17 64.736 45.917 64.849 45.614L66.145 45.977C66.009 46.417 65.779 46.803 65.457 47.136C65.135 47.466 64.738 47.723 64.264 47.909C63.791 48.091 63.259 48.182 62.668 48.182ZM69.662 42.75V48H68.321V39.273H69.616V40.636H69.73C69.935 40.193 70.245 39.837 70.662 39.568C71.079 39.295 71.616 39.159 72.276 39.159C72.866 39.159 73.384 39.28 73.827 39.523C74.27 39.761 74.615 40.125 74.861 40.614C75.107 41.098 75.23 41.712 75.23 42.455V48H73.889V42.545C73.889 41.86 73.711 41.326 73.355 40.943C72.999 40.557 72.51 40.364 71.889 40.364C71.461 40.364 71.079 40.456 70.741 40.642C70.408 40.828 70.145 41.098 69.952 41.455C69.759 41.811 69.662 42.242 69.662 42.75ZM83.18 44.432V39.273H84.521V48H83.18V46.523H83.089C82.885 46.966 82.567 47.343 82.135 47.653C81.703 47.96 81.158 48.114 80.499 48.114C79.953 48.114 79.468 47.994 79.044 47.756C78.62 47.513 78.286 47.15 78.044 46.665C77.802 46.176 77.68 45.561 77.68 44.818V39.273H79.021V44.727C79.021 45.364 79.199 45.871 79.555 46.25C79.915 46.629 80.374 46.818 80.93 46.818C81.264 46.818 81.603 46.733 81.947 46.562C82.296 46.392 82.588 46.131 82.822 45.778C83.061 45.426 83.18 44.977 83.18 44.432ZM90.636 48.182C89.795 48.182 89.07 47.996 88.46 47.625C87.854 47.25 87.386 46.727 87.057 46.057C86.731 45.383 86.568 44.598 86.568 43.705C86.568 42.811 86.731 42.023 87.057 41.341C87.386 40.655 87.845 40.121 88.432 39.739C89.023 39.352 89.712 39.159 90.5 39.159C90.955 39.159 91.403 39.235 91.847 39.386C92.29 39.538 92.693 39.784 93.057 40.125C93.42 40.462 93.71 40.909 93.926 41.466C94.142 42.023 94.25 42.708 94.25 43.523V44.091H87.523V42.932H92.886C92.886 42.439 92.788 42 92.591 41.614C92.398 41.227 92.121 40.922 91.761 40.699C91.405 40.475 90.985 40.364 90.5 40.364C89.966 40.364 89.504 40.496 89.114 40.761C88.727 41.023 88.43 41.364 88.222 41.784C88.013 42.205 87.909 42.655 87.909 43.136V43.909C87.909 44.568 88.023 45.127 88.25 45.585C88.481 46.04 88.801 46.386 89.21 46.625C89.619 46.86 90.095 46.977 90.636 46.977C90.989 46.977 91.307 46.928 91.591 46.83C91.879 46.727 92.127 46.576 92.335 46.375C92.544 46.17 92.705 45.917 92.818 45.614L94.114 45.977C93.977 46.417 93.748 46.803 93.426 47.136C93.104 47.466 92.706 47.723 92.233 47.909C91.759 48.091 91.227 48.182 90.636 48.182Z" fill="#5F6980"/>
<path d="M37.774 86.364V62.727H39.288V86.364H37.774ZM42.141 70.289C42.055 69.483 41.692 68.855 41.052 68.406C40.418 67.956 39.593 67.732 38.577 67.732C37.863 67.732 37.251 67.839 36.74 68.055C36.229 68.27 35.838 68.562 35.567 68.932C35.297 69.301 35.158 69.723 35.152 70.197C35.152 70.591 35.241 70.932 35.42 71.222C35.604 71.511 35.854 71.757 36.168 71.96C36.482 72.157 36.829 72.323 37.211 72.459C37.593 72.594 37.977 72.708 38.365 72.8L40.138 73.244C40.852 73.41 41.538 73.634 42.197 73.918C42.862 74.201 43.455 74.558 43.979 74.989C44.508 75.42 44.927 75.94 45.234 76.549C45.542 77.158 45.696 77.872 45.696 78.691C45.696 79.799 45.413 80.775 44.847 81.618C44.28 82.455 43.462 83.111 42.391 83.585C41.326 84.052 40.036 84.286 38.522 84.286C37.051 84.286 35.774 84.058 34.69 83.603C33.613 83.147 32.77 82.483 32.161 81.609C31.557 80.735 31.231 79.67 31.182 78.414H34.552C34.601 79.073 34.804 79.621 35.161 80.058C35.518 80.495 35.983 80.821 36.555 81.036C37.134 81.252 37.78 81.359 38.494 81.359C39.239 81.359 39.892 81.249 40.452 81.027C41.018 80.799 41.461 80.485 41.781 80.085C42.101 79.679 42.264 79.205 42.271 78.663C42.264 78.171 42.12 77.765 41.837 77.445C41.554 77.118 41.156 76.848 40.646 76.632C40.141 76.411 39.55 76.214 38.873 76.041L36.722 75.487C35.164 75.087 33.933 74.481 33.028 73.668C32.13 72.85 31.68 71.763 31.68 70.409C31.68 69.295 31.982 68.319 32.585 67.482C33.195 66.645 34.022 65.996 35.069 65.534C36.115 65.066 37.3 64.832 38.624 64.832C39.965 64.832 41.141 65.066 42.151 65.534C43.166 65.996 43.963 66.639 44.542 67.464C45.121 68.282 45.419 69.224 45.438 70.289H42.141ZM55.139 84.259C53.908 84.259 52.806 84.028 51.834 83.566C50.861 83.098 50.089 82.458 49.516 81.646C48.95 80.833 48.648 79.904 48.611 78.857H51.935C51.997 79.633 52.332 80.267 52.942 80.759C53.551 81.246 54.283 81.489 55.139 81.489C55.81 81.489 56.407 81.335 56.93 81.027C57.453 80.719 57.866 80.291 58.167 79.744C58.469 79.196 58.617 78.571 58.611 77.869C58.617 77.155 58.466 76.521 58.158 75.967C57.85 75.413 57.429 74.979 56.893 74.665C56.358 74.345 55.742 74.185 55.047 74.185C54.48 74.179 53.923 74.284 53.376 74.499C52.828 74.715 52.394 74.998 52.074 75.349L48.981 74.841L49.969 65.091H60.937V67.953H52.803L52.258 72.967H52.369C52.72 72.554 53.215 72.213 53.856 71.942C54.496 71.665 55.198 71.526 55.961 71.526C57.106 71.526 58.127 71.797 59.026 72.339C59.925 72.874 60.633 73.613 61.15 74.555C61.667 75.496 61.925 76.574 61.925 77.786C61.925 79.036 61.636 80.15 61.057 81.129C60.485 82.101 59.688 82.867 58.666 83.428C57.65 83.982 56.475 84.259 55.139 84.259ZM71.943 84.259C71.038 84.252 70.155 84.095 69.293 83.788C68.431 83.474 67.656 82.966 66.966 82.264C66.277 81.556 65.729 80.618 65.323 79.448C64.917 78.272 64.717 76.817 64.723 75.081C64.723 73.462 64.895 72.019 65.24 70.751C65.585 69.483 66.08 68.412 66.726 67.538C67.373 66.657 68.151 65.987 69.062 65.525C69.979 65.063 71.004 64.832 72.137 64.832C73.325 64.832 74.377 65.066 75.295 65.534C76.218 66.002 76.963 66.642 77.529 67.455C78.095 68.261 78.446 69.172 78.581 70.188H75.211C75.039 69.461 74.685 68.883 74.15 68.452C73.62 68.015 72.949 67.796 72.137 67.796C70.826 67.796 69.816 68.366 69.108 69.504C68.407 70.643 68.053 72.206 68.047 74.195H68.176C68.478 73.653 68.868 73.188 69.349 72.8C69.829 72.413 70.37 72.114 70.974 71.905C71.583 71.689 72.226 71.582 72.903 71.582C74.011 71.582 75.005 71.846 75.885 72.376C76.772 72.905 77.474 73.634 77.991 74.564C78.508 75.487 78.763 76.546 78.757 77.74C78.763 78.983 78.48 80.101 77.907 81.092C77.335 82.076 76.538 82.852 75.516 83.418C74.494 83.985 73.303 84.265 71.943 84.259ZM71.925 81.489C72.595 81.489 73.196 81.326 73.725 80.999C74.254 80.673 74.673 80.233 74.981 79.679C75.288 79.125 75.439 78.503 75.433 77.814C75.439 77.137 75.291 76.524 74.99 75.977C74.694 75.429 74.285 74.995 73.762 74.675C73.239 74.355 72.642 74.195 71.971 74.195C71.472 74.195 71.007 74.29 70.577 74.481C70.146 74.672 69.77 74.936 69.45 75.275C69.13 75.607 68.878 75.995 68.693 76.438C68.515 76.875 68.422 77.343 68.416 77.842C68.422 78.5 68.576 79.107 68.878 79.661C69.179 80.214 69.595 80.658 70.124 80.99C70.653 81.322 71.254 81.489 71.925 81.489ZM85.026 81.415L84.906 82.43C84.82 83.206 84.666 83.994 84.444 84.794C84.229 85.6 84.001 86.342 83.761 87.019C83.521 87.696 83.327 88.229 83.18 88.616H80.927C81.013 88.241 81.13 87.73 81.278 87.084C81.431 86.438 81.579 85.711 81.721 84.905C81.862 84.098 81.958 83.28 82.007 82.449L82.072 81.415H85.026ZM95.018 64.832C95.923 64.839 96.804 64.999 97.659 65.312C98.521 65.62 99.296 66.125 99.986 66.827C100.675 67.522 101.223 68.455 101.629 69.624C102.036 70.794 102.239 72.24 102.239 73.964C102.245 75.589 102.072 77.041 101.722 78.322C101.377 79.596 100.881 80.673 100.235 81.553C99.589 82.433 98.81 83.104 97.899 83.566C96.988 84.028 95.963 84.259 94.825 84.259C93.63 84.259 92.572 84.025 91.648 83.557C90.731 83.089 89.99 82.449 89.423 81.636C88.857 80.824 88.509 79.894 88.38 78.848H91.75C91.922 79.599 92.273 80.196 92.803 80.639C93.338 81.076 94.012 81.295 94.825 81.295C96.136 81.295 97.145 80.725 97.853 79.587C98.561 78.448 98.915 76.866 98.915 74.841H98.786C98.484 75.383 98.093 75.85 97.613 76.244C97.133 76.632 96.588 76.931 95.979 77.14C95.375 77.349 94.735 77.454 94.058 77.454C92.95 77.454 91.953 77.189 91.067 76.66C90.187 76.13 89.488 75.404 88.971 74.481C88.46 73.558 88.201 72.502 88.195 71.314C88.195 70.083 88.478 68.978 89.045 67.999C89.617 67.014 90.414 66.239 91.436 65.673C92.458 65.1 93.652 64.82 95.018 64.832ZM95.028 67.602C94.363 67.602 93.763 67.765 93.227 68.092C92.698 68.412 92.279 68.849 91.972 69.403C91.67 69.951 91.519 70.563 91.519 71.24C91.525 71.911 91.676 72.52 91.972 73.068C92.273 73.616 92.683 74.05 93.2 74.37C93.723 74.69 94.32 74.85 94.991 74.85C95.489 74.85 95.954 74.755 96.385 74.564C96.816 74.373 97.191 74.108 97.511 73.77C97.838 73.425 98.09 73.034 98.268 72.597C98.453 72.16 98.542 71.699 98.536 71.212C98.536 70.566 98.382 69.969 98.075 69.421C97.773 68.873 97.357 68.433 96.828 68.101C96.305 67.768 95.705 67.602 95.028 67.602ZM104.972 80.491V77.768L112.995 65.091H115.266V68.969H113.881L108.48 77.528V77.675H119.68V80.491H104.972ZM113.992 84V79.661L114.029 78.442V65.091H117.261V84H113.992ZM129.203 84.259C127.972 84.259 126.871 84.028 125.898 83.566C124.926 83.098 124.153 82.458 123.581 81.646C123.014 80.833 122.713 79.904 122.676 78.857H126C126.061 79.633 126.397 80.267 127.006 80.759C127.615 81.246 128.348 81.489 129.203 81.489C129.874 81.489 130.471 81.335 130.995 81.027C131.518 80.719 131.93 80.291 132.232 79.744C132.533 79.196 132.681 78.571 132.675 77.869C132.681 77.155 132.53 76.521 132.223 75.967C131.915 75.413 131.493 74.979 130.958 74.665C130.422 74.345 129.807 74.185 129.111 74.185C128.545 74.179 127.988 74.284 127.44 74.499C126.892 74.715 126.458 74.998 126.138 75.349L123.045 74.841L124.033 65.091H135.002V67.953H126.868L126.323 72.967H126.434C126.784 72.554 127.28 72.213 127.92 71.942C128.56 71.665 129.262 71.526 130.025 71.526C131.17 71.526 132.192 71.797 133.091 72.339C133.989 72.874 134.697 73.613 135.214 74.555C135.731 75.496 135.99 76.574 135.99 77.786C135.99 79.036 135.7 80.15 135.122 81.129C134.549 82.101 133.752 82.867 132.73 83.428C131.715 83.982 130.539 84.259 129.203 84.259Z" fill="#282828"/>
<path d="M72 127H42C35.3726 127 30 132.373 30 139C30 145.627 35.3726 151 42 151H72C78.6274 151 84 145.627 84 139C84 132.373 78.6274 127 72 127Z" fill="#DCFFF5"/>
<path d="M43.474 141.602V135.705H44.812V141.602H43.474ZM41.194 139.322V137.984H47.092V139.322H41.194ZM48.8 141.381V140.124L52.503 134.273H53.551V136.062H52.912L50.419 140.013V140.081H55.588V141.381H48.8ZM52.963 143V140.997L52.98 140.435V134.273H54.471V143H52.963ZM59.983 143.119C59.415 143.119 58.907 143.013 58.458 142.8C58.009 142.584 57.653 142.288 57.388 141.913C57.127 141.538 56.988 141.109 56.971 140.626H58.505C58.533 140.984 58.688 141.277 58.969 141.504C59.251 141.729 59.589 141.841 59.983 141.841C60.293 141.841 60.569 141.77 60.81 141.628C61.052 141.486 61.242 141.288 61.381 141.036C61.52 140.783 61.589 140.494 61.586 140.17C61.589 139.841 61.519 139.548 61.377 139.293C61.235 139.037 61.04 138.837 60.793 138.692C60.546 138.544 60.262 138.47 59.941 138.47C59.68 138.467 59.422 138.516 59.17 138.615C58.917 138.714 58.716 138.845 58.569 139.007L57.141 138.773L57.597 134.273H62.66V135.594H58.905L58.654 137.908H58.705C58.867 137.717 59.096 137.56 59.391 137.435C59.687 137.307 60.01 137.243 60.363 137.243C60.891 137.243 61.363 137.368 61.778 137.618C62.192 137.865 62.519 138.206 62.758 138.641C62.996 139.075 63.116 139.572 63.116 140.132C63.116 140.709 62.982 141.223 62.715 141.675C62.451 142.124 62.083 142.477 61.611 142.736C61.143 142.991 60.6 143.119 59.983 143.119ZM69.209 141.364V140.903C69.209 140.565 69.28 140.254 69.422 139.97C69.567 139.686 69.778 139.457 70.053 139.284C70.329 139.111 70.662 139.024 71.055 139.024C71.458 139.024 71.796 139.111 72.069 139.284C72.341 139.455 72.547 139.682 72.687 139.966C72.829 140.25 72.9 140.562 72.9 140.903V141.364C72.9 141.702 72.829 142.013 72.687 142.297C72.545 142.581 72.336 142.81 72.06 142.983C71.787 143.156 71.452 143.243 71.055 143.243C70.657 143.243 70.32 143.156 70.045 142.983C69.769 142.81 69.56 142.581 69.418 142.297C69.279 142.013 69.209 141.702 69.209 141.364ZM70.322 140.903V141.364C70.322 141.588 70.376 141.794 70.483 141.982C70.591 142.169 70.782 142.263 71.055 142.263C71.33 142.263 71.519 142.17 71.621 141.986C71.726 141.798 71.779 141.591 71.779 141.364V140.903C71.779 140.676 71.729 140.469 71.63 140.281C71.53 140.091 71.339 139.996 71.055 139.996C70.787 139.996 70.599 140.091 70.488 140.281C70.377 140.469 70.322 140.676 70.322 140.903ZM64.773 136.369V135.909C64.773 135.568 64.846 135.256 64.991 134.972C65.135 134.687 65.346 134.46 65.621 134.29C65.897 134.116 66.231 134.03 66.623 134.03C67.023 134.03 67.36 134.116 67.633 134.29C67.908 134.46 68.116 134.687 68.255 134.972C68.394 135.256 68.464 135.568 68.464 135.909V136.369C68.464 136.71 68.393 137.023 68.251 137.307C68.111 137.588 67.904 137.814 67.628 137.984C67.353 138.155 67.018 138.24 66.623 138.24C66.222 138.24 65.884 138.155 65.608 137.984C65.336 137.814 65.128 137.587 64.986 137.303C64.844 137.018 64.773 136.707 64.773 136.369ZM65.894 135.909V136.369C65.894 136.597 65.947 136.804 66.052 136.991C66.16 137.176 66.35 137.268 66.623 137.268C66.895 137.268 67.083 137.176 67.185 136.991C67.29 136.804 67.343 136.597 67.343 136.369V135.909C67.343 135.682 67.293 135.474 67.194 135.287C67.094 135.097 66.904 135.001 66.623 135.001C66.353 135.001 66.164 135.097 66.056 135.287C65.948 135.477 65.894 135.685 65.894 135.909ZM65.259 143L71.259 134.273H72.324L66.324 143H65.259Z" fill="#20C997"/>
<path d="M92.861 143V134.273H98.452V135.598H94.442V137.967H98.068V139.293H94.442V143H92.861ZM99.73 143V136.455H101.226V137.545H101.294C101.413 137.168 101.618 136.876 101.908 136.672C102.2 136.464 102.534 136.361 102.909 136.361C102.994 136.361 103.089 136.365 103.195 136.374C103.303 136.379 103.392 136.389 103.463 136.403V137.822C103.398 137.8 103.294 137.78 103.152 137.763C103.013 137.743 102.878 137.733 102.747 137.733C102.466 137.733 102.213 137.794 101.989 137.916C101.767 138.036 101.592 138.202 101.464 138.415C101.337 138.628 101.273 138.874 101.273 139.152V143H99.73ZM107.074 143.128C106.434 143.128 105.88 142.987 105.412 142.706C104.943 142.425 104.579 142.031 104.321 141.526C104.065 141.02 103.937 140.429 103.937 139.753C103.937 139.077 104.065 138.484 104.321 137.976C104.579 137.467 104.943 137.072 105.412 136.791C105.88 136.51 106.434 136.369 107.074 136.369C107.713 136.369 108.267 136.51 108.735 136.791C109.204 137.072 109.566 137.467 109.822 137.976C110.081 138.484 110.21 139.077 110.21 139.753C110.21 140.429 110.081 141.02 109.822 141.526C109.566 142.031 109.204 142.425 108.735 142.706C108.267 142.987 107.713 143.128 107.074 143.128ZM107.082 141.892C107.429 141.892 107.718 141.797 107.951 141.607C108.184 141.413 108.358 141.155 108.471 140.831C108.588 140.507 108.646 140.146 108.646 139.749C108.646 139.348 108.588 138.986 108.471 138.662C108.358 138.335 108.184 138.075 107.951 137.882C107.718 137.689 107.429 137.592 107.082 137.592C106.727 137.592 106.431 137.689 106.196 137.882C105.963 138.075 105.788 138.335 105.672 138.662C105.558 138.986 105.501 139.348 105.501 139.749C105.501 140.146 105.558 140.507 105.672 140.831C105.788 141.155 105.963 141.413 106.196 141.607C106.431 141.797 106.727 141.892 107.082 141.892ZM111.519 143V136.455H112.994V137.567H113.07C113.207 137.192 113.433 136.899 113.748 136.689C114.063 136.476 114.44 136.369 114.877 136.369C115.32 136.369 115.694 136.477 115.998 136.693C116.305 136.906 116.521 137.197 116.646 137.567H116.714C116.859 137.203 117.103 136.913 117.447 136.697C117.793 136.479 118.204 136.369 118.678 136.369C119.281 136.369 119.772 136.56 120.153 136.94C120.533 137.321 120.724 137.876 120.724 138.607V143H119.177V138.845C119.177 138.439 119.069 138.142 118.853 137.955C118.637 137.764 118.373 137.669 118.06 137.669C117.688 137.669 117.397 137.786 117.187 138.018C116.979 138.249 116.876 138.548 116.876 138.918V143H115.363V138.781C115.363 138.443 115.261 138.173 115.056 137.972C114.854 137.77 114.59 137.669 114.263 137.669C114.042 137.669 113.84 137.726 113.658 137.839C113.477 137.95 113.332 138.108 113.224 138.312C113.116 138.514 113.062 138.75 113.062 139.02V143H111.519ZM125.091 141.381V140.124L128.794 134.273H129.842V136.062H129.203L126.71 140.013V140.081H131.879V141.381H125.091ZM129.254 143V140.997L129.271 140.435V134.273H130.762V143H129.254ZM133.962 143.094C133.703 143.094 133.482 143.003 133.297 142.821C133.112 142.639 133.021 142.418 133.024 142.156C133.021 141.901 133.112 141.682 133.297 141.5C133.482 141.318 133.703 141.227 133.962 141.227C134.212 141.227 134.429 141.318 134.614 141.5C134.801 141.682 134.896 141.901 134.899 142.156C134.896 142.33 134.851 142.487 134.763 142.629C134.678 142.771 134.564 142.885 134.422 142.97C134.283 143.053 134.129 143.094 133.962 143.094ZM139.331 143.119C138.913 143.116 138.506 143.044 138.108 142.902C137.71 142.757 137.352 142.523 137.034 142.199C136.716 141.872 136.463 141.439 136.276 140.899C136.088 140.357 135.996 139.685 135.999 138.884C135.999 138.136 136.078 137.47 136.237 136.885C136.396 136.3 136.625 135.805 136.923 135.402C137.222 134.996 137.581 134.686 138.001 134.473C138.425 134.26 138.898 134.153 139.42 134.153C139.969 134.153 140.455 134.261 140.878 134.477C141.304 134.693 141.648 134.989 141.909 135.364C142.17 135.736 142.332 136.156 142.395 136.625H140.839C140.76 136.29 140.597 136.023 140.349 135.824C140.105 135.622 139.795 135.521 139.42 135.521C138.815 135.521 138.349 135.784 138.023 136.31C137.699 136.835 137.536 137.557 137.533 138.474H137.592C137.732 138.224 137.912 138.01 138.134 137.831C138.355 137.652 138.605 137.514 138.884 137.418C139.165 137.318 139.462 137.268 139.774 137.268C140.286 137.268 140.744 137.391 141.151 137.635C141.56 137.879 141.884 138.216 142.122 138.645C142.361 139.071 142.479 139.56 142.476 140.111C142.479 140.685 142.348 141.2 142.084 141.658C141.82 142.112 141.452 142.47 140.98 142.732C140.509 142.993 139.959 143.122 139.331 143.119ZM139.322 141.841C139.632 141.841 139.909 141.766 140.153 141.615C140.398 141.464 140.591 141.261 140.733 141.006C140.875 140.75 140.945 140.463 140.942 140.145C140.945 139.832 140.876 139.55 140.737 139.297C140.601 139.044 140.412 138.844 140.17 138.696C139.929 138.548 139.653 138.474 139.344 138.474C139.114 138.474 138.899 138.518 138.7 138.607C138.501 138.695 138.328 138.817 138.18 138.973C138.033 139.126 137.916 139.305 137.831 139.51C137.749 139.712 137.706 139.928 137.703 140.158C137.706 140.462 137.777 140.741 137.916 140.997C138.055 141.253 138.247 141.457 138.491 141.611C138.736 141.764 139.013 141.841 139.322 141.841ZM148.582 141.364V140.903C148.582 140.565 148.653 140.254 148.795 139.97C148.94 139.686 149.151 139.457 149.426 139.284C149.702 139.111 150.036 139.024 150.428 139.024C150.831 139.024 151.169 139.111 151.442 139.284C151.714 139.455 151.92 139.682 152.06 139.966C152.202 140.25 152.273 140.562 152.273 140.903V141.364C152.273 141.702 152.202 142.013 152.06 142.297C151.918 142.581 151.709 142.81 151.433 142.983C151.161 143.156 150.825 143.243 150.428 143.243C150.03 143.243 149.693 143.156 149.418 142.983C149.142 142.81 148.933 142.581 148.791 142.297C148.652 142.013 148.582 141.702 148.582 141.364ZM149.695 140.903V141.364C149.695 141.588 149.749 141.794 149.857 141.982C149.964 142.169 150.155 142.263 150.428 142.263C150.703 142.263 150.892 142.17 150.994 141.986C151.099 141.798 151.152 141.591 151.152 141.364V140.903C151.152 140.676 151.102 140.469 151.003 140.281C150.903 140.091 150.712 139.996 150.428 139.996C150.161 139.996 149.972 140.091 149.861 140.281C149.75 140.469 149.695 140.676 149.695 140.903ZM144.146 136.369V135.909C144.146 135.568 144.219 135.256 144.364 134.972C144.509 134.687 144.719 134.46 144.994 134.29C145.27 134.116 145.604 134.03 145.996 134.03C146.396 134.03 146.733 134.116 147.006 134.29C147.281 134.46 147.489 134.687 147.628 134.972C147.767 135.256 147.837 135.568 147.837 135.909V136.369C147.837 136.71 147.766 137.023 147.624 137.307C147.484 137.588 147.277 137.814 147.001 137.984C146.726 138.155 146.391 138.24 145.996 138.24C145.595 138.24 145.257 138.155 144.982 137.984C144.709 137.814 144.501 137.587 144.359 137.303C144.217 137.018 144.146 136.707 144.146 136.369ZM145.267 135.909V136.369C145.267 136.597 145.32 136.804 145.425 136.991C145.533 137.176 145.723 137.268 145.996 137.268C146.268 137.268 146.456 137.176 146.558 136.991C146.663 136.804 146.716 136.597 146.716 136.369V135.909C146.716 135.682 146.666 135.474 146.567 135.287C146.467 135.097 146.277 135.001 145.996 135.001C145.726 135.001 145.537 135.097 145.429 135.287C145.321 135.477 145.267 135.685 145.267 135.909ZM144.632 143L150.632 134.273H151.697L145.697 143H144.632Z" fill="#9D9FA2"/>
</g>
<defs>
<filter id="filter0_d_1_72" x="0" y="0" width="282" height="182" filterUnits="userSpaceOnUse" color-interpolation-filters="sRGB">
<feFlood flood-opacity="0" result="BackgroundImageFix"/>
<feColorMatrix in="SourceAlpha" type="matrix" values="0 0 0 0 0 0 0 0 0 0 0 0 0 0 0 0 0 0 127 0" result="hardAlpha"/>
<feOffset dy="1"/>
<feGaussianBlur stdDeviation="5"/>
<feColorMatrix type="matrix" values="0 0 0 0 0 0 0 0 0 0 0 0 0 0 0 0 0 0 0.06 0"/>
<feBlend mode="normal" in2="BackgroundImageFix" result="effect1_dropShadow_1_72"/>
<feBlend mode="normal" in="SourceGraphic" in2="effect1_dropShadow_1_72" result="shape"/>
</filter>
</defs>
</svg>
