<svg width="282" height="182" viewBox="0 0 282 182" fill="none" xmlns="http://www.w3.org/2000/svg">
<g filter="url(#filter0_d_1_79)">
<path d="M260 9H22C15.3726 9 10 14.3726 10 21V159C10 165.627 15.3726 171 22 171H260C266.627 171 272 165.627 272 159V21C272 14.3726 266.627 9 260 9Z" fill="white"/>
<path d="M39.045 36.364H40.455V44.068C40.455 44.864 40.267 45.574 39.892 46.199C39.521 46.82 38.996 47.311 38.318 47.67C37.64 48.027 36.845 48.205 35.932 48.205C35.019 48.205 34.223 48.027 33.545 47.67C32.867 47.311 32.341 46.82 31.966 46.199C31.595 45.574 31.409 44.864 31.409 44.068V36.364H32.818V43.955C32.818 44.523 32.943 45.028 33.193 45.472C33.443 45.911 33.799 46.258 34.261 46.511C34.727 46.761 35.284 46.886 35.932 46.886C36.58 46.886 37.136 46.761 37.602 46.511C38.068 46.258 38.424 45.911 38.67 45.472C38.92 45.028 39.045 44.523 39.045 43.955V36.364ZM49.268 41.227L48.064 41.568C47.988 41.367 47.876 41.172 47.729 40.983C47.585 40.79 47.388 40.631 47.138 40.506C46.888 40.381 46.568 40.318 46.178 40.318C45.643 40.318 45.198 40.441 44.842 40.688C44.49 40.93 44.314 41.239 44.314 41.614C44.314 41.947 44.435 42.21 44.678 42.403C44.92 42.597 45.299 42.758 45.814 42.886L47.109 43.205C47.89 43.394 48.471 43.684 48.854 44.074C49.236 44.46 49.428 44.958 49.428 45.568C49.428 46.068 49.284 46.515 48.996 46.909C48.712 47.303 48.314 47.614 47.803 47.841C47.291 48.068 46.696 48.182 46.018 48.182C45.128 48.182 44.392 47.989 43.808 47.602C43.225 47.216 42.856 46.652 42.7 45.909L43.973 45.591C44.094 46.061 44.323 46.413 44.661 46.648C45.001 46.883 45.446 47 45.996 47C46.621 47 47.117 46.867 47.484 46.602C47.856 46.333 48.041 46.011 48.041 45.636C48.041 45.333 47.935 45.08 47.723 44.875C47.511 44.667 47.185 44.511 46.746 44.409L45.291 44.068C44.492 43.879 43.905 43.585 43.53 43.188C43.159 42.786 42.973 42.284 42.973 41.682C42.973 41.189 43.111 40.754 43.388 40.375C43.668 39.996 44.049 39.699 44.53 39.483C45.015 39.267 45.564 39.159 46.178 39.159C47.041 39.159 47.719 39.348 48.212 39.727C48.708 40.106 49.06 40.606 49.268 41.227ZM55.105 48.182C54.264 48.182 53.539 47.996 52.929 47.625C52.323 47.25 51.855 46.727 51.526 46.057C51.2 45.383 51.037 44.598 51.037 43.705C51.037 42.811 51.2 42.023 51.526 41.341C51.855 40.655 52.313 40.121 52.901 39.739C53.491 39.352 54.181 39.159 54.969 39.159C55.423 39.159 55.872 39.235 56.315 39.386C56.759 39.538 57.162 39.784 57.526 40.125C57.889 40.462 58.179 40.909 58.395 41.466C58.611 42.023 58.719 42.708 58.719 43.523V44.091H51.991V42.932H57.355C57.355 42.439 57.257 42 57.06 41.614C56.866 41.227 56.59 40.922 56.23 40.699C55.874 40.475 55.454 40.364 54.969 40.364C54.435 40.364 53.973 40.496 53.582 40.761C53.196 41.023 52.899 41.364 52.69 41.784C52.482 42.205 52.378 42.655 52.378 43.136V43.909C52.378 44.568 52.491 45.127 52.719 45.585C52.95 46.04 53.27 46.386 53.679 46.625C54.088 46.86 54.563 46.977 55.105 46.977C55.457 46.977 55.776 46.928 56.06 46.83C56.348 46.727 56.596 46.576 56.804 46.375C57.012 46.17 57.173 45.917 57.287 45.614L58.582 45.977C58.446 46.417 58.217 46.803 57.895 47.136C57.573 47.466 57.175 47.723 56.702 47.909C56.228 48.091 55.696 48.182 55.105 48.182ZM60.759 48V39.273H62.054V40.591H62.145C62.304 40.159 62.592 39.809 63.009 39.54C63.425 39.271 63.895 39.136 64.418 39.136C64.516 39.136 64.639 39.138 64.787 39.142C64.935 39.146 65.046 39.152 65.122 39.159V40.523C65.077 40.511 64.973 40.494 64.81 40.472C64.651 40.445 64.482 40.432 64.304 40.432C63.88 40.432 63.501 40.521 63.168 40.699C62.838 40.873 62.577 41.116 62.384 41.426C62.194 41.733 62.099 42.083 62.099 42.477V48H60.759ZM72.893 41.227L71.689 41.568C71.613 41.367 71.501 41.172 71.354 40.983C71.21 40.79 71.013 40.631 70.763 40.506C70.513 40.381 70.193 40.318 69.803 40.318C69.268 40.318 68.823 40.441 68.467 40.688C68.115 40.93 67.939 41.239 67.939 41.614C67.939 41.947 68.06 42.21 68.303 42.403C68.545 42.597 68.924 42.758 69.439 42.886L70.734 43.205C71.515 43.394 72.096 43.684 72.479 44.074C72.861 44.46 73.053 44.958 73.053 45.568C73.053 46.068 72.909 46.515 72.621 46.909C72.337 47.303 71.939 47.614 71.428 47.841C70.916 48.068 70.321 48.182 69.643 48.182C68.753 48.182 68.017 47.989 67.433 47.602C66.85 47.216 66.481 46.652 66.325 45.909L67.598 45.591C67.719 46.061 67.948 46.413 68.286 46.648C68.626 46.883 69.071 47 69.621 47C70.246 47 70.742 46.867 71.109 46.602C71.481 46.333 71.666 46.011 71.666 45.636C71.666 45.333 71.56 45.08 71.348 44.875C71.136 44.667 70.81 44.511 70.371 44.409L68.916 44.068C68.117 43.879 67.53 43.585 67.155 43.188C66.784 42.786 66.598 42.284 66.598 41.682C66.598 41.189 66.736 40.754 67.013 40.375C67.293 39.996 67.674 39.699 68.155 39.483C68.64 39.267 69.189 39.159 69.803 39.159C70.666 39.159 71.344 39.348 71.837 39.727C72.333 40.106 72.685 40.606 72.893 41.227Z" fill="#5F6980"/>
<path d="M32.373 84L40.415 68.082V67.953H31.08V65.091H43.96V68.018L35.928 84H32.373ZM53.459 84.259C52.554 84.252 51.671 84.095 50.809 83.788C49.947 83.474 49.171 82.966 48.482 82.264C47.793 81.556 47.245 80.618 46.839 79.448C46.432 78.272 46.232 76.817 46.238 75.081C46.238 73.462 46.411 72.019 46.756 70.751C47.1 69.483 47.596 68.412 48.242 67.538C48.888 66.657 49.667 65.987 50.578 65.525C51.495 65.063 52.52 64.832 53.653 64.832C54.84 64.832 55.893 65.066 56.81 65.534C57.733 66.002 58.478 66.642 59.045 67.455C59.611 68.261 59.962 69.172 60.097 70.188H56.727C56.555 69.461 56.201 68.883 55.665 68.452C55.136 68.015 54.465 67.796 53.653 67.796C52.341 67.796 51.332 68.366 50.624 69.504C49.922 70.643 49.568 72.206 49.562 74.195H49.692C49.993 73.653 50.384 73.188 50.864 72.8C51.344 72.413 51.886 72.114 52.489 71.905C53.099 71.689 53.742 71.582 54.419 71.582C55.527 71.582 56.521 71.846 57.401 72.376C58.287 72.905 58.989 73.634 59.506 74.564C60.023 75.487 60.279 76.546 60.273 77.74C60.279 78.983 59.996 80.101 59.423 81.092C58.851 82.076 58.054 82.852 57.032 83.418C56.01 83.985 54.819 84.265 53.459 84.259ZM53.44 81.489C54.111 81.489 54.711 81.326 55.241 80.999C55.77 80.673 56.189 80.233 56.496 79.679C56.804 79.125 56.955 78.503 56.949 77.814C56.955 77.137 56.807 76.524 56.506 75.977C56.21 75.429 55.801 74.995 55.278 74.675C54.754 74.355 54.157 74.195 53.486 74.195C52.988 74.195 52.523 74.29 52.092 74.481C51.661 74.672 51.286 74.936 50.966 75.275C50.646 75.607 50.393 75.995 50.209 76.438C50.03 76.875 49.938 77.343 49.932 77.842C49.938 78.5 50.092 79.107 50.393 79.661C50.695 80.214 51.11 80.658 51.64 80.99C52.169 81.322 52.769 81.489 53.44 81.489ZM64.677 84.203C64.117 84.203 63.636 84.006 63.236 83.612C62.836 83.218 62.639 82.738 62.645 82.172C62.639 81.618 62.836 81.144 63.236 80.75C63.636 80.356 64.117 80.159 64.677 80.159C65.218 80.159 65.689 80.356 66.089 80.75C66.496 81.144 66.702 81.618 66.708 82.172C66.702 82.547 66.603 82.889 66.412 83.197C66.228 83.504 65.982 83.751 65.674 83.935C65.372 84.114 65.04 84.203 64.677 84.203ZM76.132 84.259C74.76 84.259 73.541 84.028 72.476 83.566C71.417 83.104 70.587 82.473 69.983 81.673C69.386 80.867 69.091 79.953 69.097 78.931C69.091 78.137 69.263 77.408 69.614 76.743C69.965 76.078 70.439 75.524 71.036 75.081C71.639 74.632 72.31 74.345 73.049 74.222V74.093C72.076 73.878 71.288 73.382 70.685 72.607C70.088 71.825 69.792 70.923 69.799 69.901C69.792 68.929 70.063 68.061 70.611 67.298C71.159 66.534 71.91 65.934 72.864 65.497C73.818 65.054 74.908 64.832 76.132 64.832C77.345 64.832 78.425 65.054 79.373 65.497C80.327 65.934 81.078 66.534 81.626 67.298C82.18 68.061 82.457 68.929 82.457 69.901C82.457 70.923 82.152 71.825 81.543 72.607C80.94 73.382 80.161 73.878 79.207 74.093V74.222C79.946 74.345 80.61 74.632 81.201 75.081C81.798 75.524 82.272 76.078 82.623 76.743C82.98 77.408 83.159 78.137 83.159 78.931C83.159 79.953 82.857 80.867 82.254 81.673C81.651 82.473 80.82 83.104 79.761 83.566C78.708 84.028 77.499 84.259 76.132 84.259ZM76.132 81.618C76.84 81.618 77.456 81.498 77.979 81.258C78.502 81.012 78.908 80.667 79.198 80.224C79.487 79.781 79.635 79.27 79.641 78.691C79.635 78.088 79.478 77.555 79.17 77.094C78.868 76.626 78.453 76.26 77.924 75.995C77.4 75.73 76.803 75.598 76.132 75.598C75.455 75.598 74.852 75.73 74.323 75.995C73.793 76.26 73.375 76.626 73.067 77.094C72.766 77.555 72.618 78.088 72.624 78.691C72.618 79.27 72.759 79.781 73.049 80.224C73.338 80.661 73.744 81.002 74.267 81.249C74.797 81.495 75.418 81.618 76.132 81.618ZM76.132 73.004C76.711 73.004 77.222 72.887 77.665 72.653C78.114 72.419 78.468 72.093 78.727 71.674C78.985 71.255 79.118 70.772 79.124 70.224C79.118 69.683 78.989 69.209 78.736 68.803C78.484 68.39 78.133 68.073 77.684 67.852C77.234 67.624 76.717 67.51 76.132 67.51C75.535 67.51 75.009 67.624 74.554 67.852C74.104 68.073 73.753 68.39 73.501 68.803C73.255 69.209 73.135 69.683 73.141 70.224C73.135 70.772 73.258 71.255 73.51 71.674C73.769 72.086 74.123 72.413 74.572 72.653C75.028 72.887 75.548 73.004 76.132 73.004ZM96.304 80.455V79.457C96.304 78.725 96.458 78.051 96.766 77.435C97.08 76.82 97.535 76.324 98.132 75.949C98.729 75.573 99.453 75.386 100.302 75.386C101.176 75.386 101.909 75.573 102.499 75.949C103.09 76.318 103.537 76.811 103.838 77.426C104.146 78.042 104.3 78.719 104.3 79.457V80.455C104.3 81.187 104.146 81.861 103.838 82.477C103.53 83.092 103.078 83.588 102.481 83.963C101.89 84.339 101.164 84.526 100.302 84.526C99.44 84.526 98.711 84.339 98.114 83.963C97.517 83.588 97.064 83.092 96.757 82.477C96.455 81.861 96.304 81.187 96.304 80.455ZM98.714 79.457V80.455C98.714 80.941 98.831 81.387 99.065 81.793C99.299 82.2 99.711 82.403 100.302 82.403C100.899 82.403 101.308 82.203 101.53 81.803C101.758 81.396 101.872 80.947 101.872 80.455V79.457C101.872 78.965 101.764 78.516 101.548 78.109C101.333 77.697 100.918 77.491 100.302 77.491C99.723 77.491 99.314 77.697 99.074 78.109C98.834 78.516 98.714 78.965 98.714 79.457ZM86.693 69.634V68.636C86.693 67.898 86.85 67.221 87.164 66.605C87.477 65.99 87.933 65.497 88.53 65.128C89.127 64.752 89.85 64.565 90.7 64.565C91.568 64.565 92.297 64.752 92.888 65.128C93.485 65.497 93.934 65.99 94.236 66.605C94.538 67.221 94.688 67.898 94.688 68.636V69.634C94.688 70.372 94.535 71.049 94.227 71.665C93.925 72.274 93.476 72.763 92.879 73.133C92.282 73.502 91.555 73.687 90.7 73.687C89.832 73.687 89.099 73.502 88.502 73.133C87.911 72.763 87.462 72.271 87.154 71.656C86.847 71.04 86.693 70.366 86.693 69.634ZM89.121 68.636V69.634C89.121 70.126 89.235 70.575 89.463 70.982C89.696 71.382 90.109 71.582 90.7 71.582C91.291 71.582 91.697 71.382 91.919 70.982C92.146 70.575 92.26 70.126 92.26 69.634V68.636C92.26 68.144 92.152 67.695 91.937 67.288C91.722 66.876 91.309 66.67 90.7 66.67C90.115 66.67 89.706 66.876 89.472 67.288C89.238 67.701 89.121 68.15 89.121 68.636ZM87.745 84L100.745 65.091H103.053L90.053 84H87.745Z" fill="#282828"/>
<path d="M70 127H42C35.3726 127 30 132.373 30 139C30 145.627 35.3726 151 42 151H70C76.6274 151 82 145.627 82 139C82 132.373 76.6274 127 70 127Z" fill="#FFE0E3"/>
<path d="M45.139 138.001V139.271H41.21V138.001H45.139ZM50.294 134.273V143H48.713V135.811H48.662L46.621 137.115V135.666L48.79 134.273H50.294ZM52.997 143.094C52.738 143.094 52.517 143.003 52.332 142.821C52.147 142.639 52.056 142.418 52.059 142.156C52.056 141.901 52.147 141.682 52.332 141.5C52.517 141.318 52.738 141.227 52.997 141.227C53.247 141.227 53.464 141.318 53.649 141.5C53.836 141.682 53.931 141.901 53.934 142.156C53.931 142.33 53.886 142.487 53.798 142.629C53.713 142.771 53.599 142.885 53.457 142.97C53.318 143.053 53.164 143.094 52.997 143.094ZM55.548 143L59.26 135.653V135.594H54.952V134.273H60.896V135.624L57.189 143H55.548ZM66.938 141.364V140.903C66.938 140.565 67.009 140.254 67.151 139.97C67.296 139.686 67.506 139.457 67.782 139.284C68.057 139.111 68.391 139.024 68.783 139.024C69.186 139.024 69.525 139.111 69.797 139.284C70.07 139.455 70.276 139.682 70.415 139.966C70.557 140.25 70.628 140.562 70.628 140.903V141.364C70.628 141.702 70.557 142.013 70.415 142.297C70.273 142.581 70.064 142.81 69.789 142.983C69.516 143.156 69.181 143.243 68.783 143.243C68.385 143.243 68.049 143.156 67.773 142.983C67.498 142.81 67.289 142.581 67.147 142.297C67.007 142.013 66.938 141.702 66.938 141.364ZM68.05 140.903V141.364C68.05 141.588 68.104 141.794 68.212 141.982C68.32 142.169 68.51 142.263 68.783 142.263C69.059 142.263 69.248 142.17 69.35 141.986C69.455 141.798 69.507 141.591 69.507 141.364V140.903C69.507 140.676 69.458 140.469 69.358 140.281C69.259 140.091 69.067 139.996 68.783 139.996C68.516 139.996 68.327 140.091 68.216 140.281C68.105 140.469 68.05 140.676 68.05 140.903ZM62.502 136.369V135.909C62.502 135.568 62.574 135.256 62.719 134.972C62.864 134.687 63.074 134.46 63.35 134.29C63.625 134.116 63.959 134.03 64.351 134.03C64.752 134.03 65.088 134.116 65.361 134.29C65.637 134.46 65.844 134.687 65.983 134.972C66.123 135.256 66.192 135.568 66.192 135.909V136.369C66.192 136.71 66.121 137.023 65.979 137.307C65.84 137.588 65.632 137.814 65.357 137.984C65.081 138.155 64.746 138.24 64.351 138.24C63.951 138.24 63.613 138.155 63.337 137.984C63.064 137.814 62.857 137.587 62.715 137.303C62.573 137.018 62.502 136.707 62.502 136.369ZM63.623 135.909V136.369C63.623 136.597 63.675 136.804 63.78 136.991C63.888 137.176 64.078 137.268 64.351 137.268C64.624 137.268 64.811 137.176 64.914 136.991C65.019 136.804 65.071 136.597 65.071 136.369V135.909C65.071 135.682 65.022 135.474 64.922 135.287C64.823 135.097 64.632 135.001 64.351 135.001C64.081 135.001 63.892 135.097 63.784 135.287C63.676 135.477 63.623 135.685 63.623 135.909ZM62.988 143L68.988 134.273H70.053L64.053 143H62.988Z" fill="#DC3545"/>
<path d="M90.861 143V134.273H96.452V135.598H92.442V137.967H96.068V139.293H92.442V143H90.861ZM97.73 143V136.455H99.226V137.545H99.294C99.413 137.168 99.618 136.876 99.908 136.672C100.2 136.464 100.534 136.361 100.909 136.361C100.994 136.361 101.089 136.365 101.195 136.374C101.303 136.379 101.392 136.389 101.463 136.403V137.822C101.398 137.8 101.294 137.78 101.152 137.763C101.013 137.743 100.878 137.733 100.747 137.733C100.466 137.733 100.213 137.794 99.989 137.916C99.767 138.036 99.592 138.202 99.464 138.415C99.337 138.628 99.273 138.874 99.273 139.152V143H97.73ZM105.074 143.128C104.434 143.128 103.88 142.987 103.412 142.706C102.943 142.425 102.579 142.031 102.321 141.526C102.065 141.02 101.937 140.429 101.937 139.753C101.937 139.077 102.065 138.484 102.321 137.976C102.579 137.467 102.943 137.072 103.412 136.791C103.88 136.51 104.434 136.369 105.074 136.369C105.713 136.369 106.267 136.51 106.735 136.791C107.204 137.072 107.566 137.467 107.822 137.976C108.081 138.484 108.21 139.077 108.21 139.753C108.21 140.429 108.081 141.02 107.822 141.526C107.566 142.031 107.204 142.425 106.735 142.706C106.267 142.987 105.713 143.128 105.074 143.128ZM105.082 141.892C105.429 141.892 105.718 141.797 105.951 141.607C106.184 141.413 106.358 141.155 106.471 140.831C106.588 140.507 106.646 140.146 106.646 139.749C106.646 139.348 106.588 138.986 106.471 138.662C106.358 138.335 106.184 138.075 105.951 137.882C105.718 137.689 105.429 137.592 105.082 137.592C104.727 137.592 104.431 137.689 104.196 137.882C103.963 138.075 103.788 138.335 103.672 138.662C103.558 138.986 103.501 139.348 103.501 139.749C103.501 140.146 103.558 140.507 103.672 140.831C103.788 141.155 103.963 141.413 104.196 141.607C104.431 141.797 104.727 141.892 105.082 141.892ZM109.519 143V136.455H110.994V137.567H111.07C111.207 137.192 111.433 136.899 111.748 136.689C112.063 136.476 112.44 136.369 112.877 136.369C113.32 136.369 113.694 136.477 113.998 136.693C114.305 136.906 114.521 137.197 114.646 137.567H114.714C114.859 137.203 115.103 136.913 115.447 136.697C115.793 136.479 116.204 136.369 116.678 136.369C117.281 136.369 117.772 136.56 118.153 136.94C118.533 137.321 118.724 137.876 118.724 138.607V143H117.177V138.845C117.177 138.439 117.069 138.142 116.853 137.955C116.637 137.764 116.373 137.669 116.06 137.669C115.688 137.669 115.397 137.786 115.187 138.018C114.979 138.249 114.876 138.548 114.876 138.918V143H113.363V138.781C113.363 138.443 113.261 138.173 113.056 137.972C112.854 137.77 112.59 137.669 112.263 137.669C112.042 137.669 111.84 137.726 111.658 137.839C111.477 137.95 111.332 138.108 111.224 138.312C111.116 138.514 111.062 138.75 111.062 139.02V143H109.519ZM123.091 141.381V140.124L126.794 134.273H127.842V136.062H127.203L124.71 140.013V140.081H129.879V141.381H123.091ZM127.254 143V140.997L127.271 140.435V134.273H128.762V143H127.254ZM131.962 143.094C131.703 143.094 131.482 143.003 131.297 142.821C131.112 142.639 131.021 142.418 131.024 142.156C131.021 141.901 131.112 141.682 131.297 141.5C131.482 141.318 131.703 141.227 131.962 141.227C132.212 141.227 132.429 141.318 132.614 141.5C132.801 141.682 132.896 141.901 132.899 142.156C132.896 142.33 132.851 142.487 132.763 142.629C132.678 142.771 132.564 142.885 132.422 142.97C132.283 143.053 132.129 143.094 131.962 143.094ZM137.331 143.119C136.913 143.116 136.506 143.044 136.108 142.902C135.71 142.757 135.352 142.523 135.034 142.199C134.716 141.872 134.463 141.439 134.276 140.899C134.088 140.357 133.996 139.685 133.999 138.884C133.999 138.136 134.078 137.47 134.237 136.885C134.396 136.3 134.625 135.805 134.923 135.402C135.222 134.996 135.581 134.686 136.001 134.473C136.425 134.26 136.898 134.153 137.42 134.153C137.969 134.153 138.455 134.261 138.878 134.477C139.304 134.693 139.648 134.989 139.909 135.364C140.17 135.736 140.332 136.156 140.395 136.625H138.839C138.76 136.29 138.597 136.023 138.349 135.824C138.105 135.622 137.795 135.521 137.42 135.521C136.815 135.521 136.349 135.784 136.023 136.31C135.699 136.835 135.536 137.557 135.533 138.474H135.592C135.732 138.224 135.912 138.01 136.134 137.831C136.355 137.652 136.605 137.514 136.884 137.418C137.165 137.318 137.462 137.268 137.774 137.268C138.286 137.268 138.744 137.391 139.151 137.635C139.56 137.879 139.884 138.216 140.122 138.645C140.361 139.071 140.479 139.56 140.476 140.111C140.479 140.685 140.348 141.2 140.084 141.658C139.82 142.112 139.452 142.47 138.98 142.732C138.509 142.993 137.959 143.122 137.331 143.119ZM137.322 141.841C137.632 141.841 137.909 141.766 138.153 141.615C138.398 141.464 138.591 141.261 138.733 141.006C138.875 140.75 138.945 140.463 138.942 140.145C138.945 139.832 138.876 139.55 138.737 139.297C138.601 139.044 138.412 138.844 138.17 138.696C137.929 138.548 137.653 138.474 137.344 138.474C137.114 138.474 136.899 138.518 136.7 138.607C136.501 138.695 136.328 138.817 136.18 138.973C136.033 139.126 135.916 139.305 135.831 139.51C135.749 139.712 135.706 139.928 135.703 140.158C135.706 140.462 135.777 140.741 135.916 140.997C136.055 141.253 136.247 141.457 136.491 141.611C136.736 141.764 137.013 141.841 137.322 141.841ZM146.582 141.364V140.903C146.582 140.565 146.653 140.254 146.795 139.97C146.94 139.686 147.151 139.457 147.426 139.284C147.702 139.111 148.036 139.024 148.428 139.024C148.831 139.024 149.169 139.111 149.442 139.284C149.714 139.455 149.92 139.682 150.06 139.966C150.202 140.25 150.273 140.562 150.273 140.903V141.364C150.273 141.702 150.202 142.013 150.06 142.297C149.918 142.581 149.709 142.81 149.433 142.983C149.161 143.156 148.825 143.243 148.428 143.243C148.03 143.243 147.693 143.156 147.418 142.983C147.142 142.81 146.933 142.581 146.791 142.297C146.652 142.013 146.582 141.702 146.582 141.364ZM147.695 140.903V141.364C147.695 141.588 147.749 141.794 147.857 141.982C147.964 142.169 148.155 142.263 148.428 142.263C148.703 142.263 148.892 142.17 148.994 141.986C149.099 141.798 149.152 141.591 149.152 141.364V140.903C149.152 140.676 149.102 140.469 149.003 140.281C148.903 140.091 148.712 139.996 148.428 139.996C148.161 139.996 147.972 140.091 147.861 140.281C147.75 140.469 147.695 140.676 147.695 140.903ZM142.146 136.369V135.909C142.146 135.568 142.219 135.256 142.364 134.972C142.509 134.687 142.719 134.46 142.994 134.29C143.27 134.116 143.604 134.03 143.996 134.03C144.396 134.03 144.733 134.116 145.006 134.29C145.281 134.46 145.489 134.687 145.628 134.972C145.767 135.256 145.837 135.568 145.837 135.909V136.369C145.837 136.71 145.766 137.023 145.624 137.307C145.484 137.588 145.277 137.814 145.001 137.984C144.726 138.155 144.391 138.24 143.996 138.24C143.595 138.24 143.257 138.155 142.982 137.984C142.709 137.814 142.501 137.587 142.359 137.303C142.217 137.018 142.146 136.707 142.146 136.369ZM143.267 135.909V136.369C143.267 136.597 143.32 136.804 143.425 136.991C143.533 137.176 143.723 137.268 143.996 137.268C144.268 137.268 144.456 137.176 144.558 136.991C144.663 136.804 144.716 136.597 144.716 136.369V135.909C144.716 135.682 144.666 135.474 144.567 135.287C144.467 135.097 144.277 135.001 143.996 135.001C143.726 135.001 143.537 135.097 143.429 135.287C143.321 135.477 143.267 135.685 143.267 135.909ZM142.632 143L148.632 134.273H149.697L143.697 143H142.632Z" fill="#9D9FA2"/>
</g>
<defs>
<filter id="filter0_d_1_79" x="0" y="0" width="282" height="182" filterUnits="userSpaceOnUse" color-interpolation-filters="sRGB">
<feFlood flood-opacity="0" result="BackgroundImageFix"/>
<feColorMatrix in="SourceAlpha" type="matrix" values="0 0 0 0 0 0 0 0 0 0 0 0 0 0 0 0 0 0 127 0" result="hardAlpha"/>
<feOffset dy="1"/>
<feGaussianBlur stdDeviation="5"/>
<feColorMatrix type="matrix" values="0 0 0 0 0 0 0 0 0 0 0 0 0 0 0 0 0 0 0.06 0"/>
<feBlend mode="normal" in2="BackgroundImageFix" result="effect1_dropShadow_1_79"/>
<feBlend mode="normal" in="SourceGraphic" in2="effect1_dropShadow_1_79" result="shape"/>
</filter>
</defs>
</svg>
