<svg width="20" height="10" viewBox="0 0 20 10" fill="none" xmlns="http://www.w3.org/2000/svg">
<path d="M3.97202 0.27301V9H2.91504V1.38098H2.86404L0.733032 2.79498V1.72198L2.91504 0.27301H3.97202ZM9.32803 9.11902C8.68603 9.11902 8.13902 8.94497 7.68802 8.59497C7.23602 8.24297 6.89104 7.733 6.65204 7.065C6.41304 6.395 6.29404 5.58499 6.29404 4.63599C6.29404 3.69299 6.41304 2.88797 6.65204 2.21997C6.89304 1.54997 7.24002 1.03797 7.69202 0.685974C8.14602 0.330974 8.69203 0.153015 9.32803 0.153015C9.96403 0.153015 10.509 0.330974 10.96 0.685974C11.415 1.03797 11.761 1.54997 12 2.21997C12.241 2.88797 12.362 3.69299 12.362 4.63599C12.362 5.58499 12.243 6.395 12.004 7.065C11.766 7.733 11.42 8.24297 10.969 8.59497C10.517 8.94497 9.97003 9.11902 9.32803 9.11902ZM9.32803 8.18201C9.96403 8.18201 10.459 7.87499 10.811 7.26099C11.163 6.64799 11.339 5.77299 11.339 4.63599C11.339 3.88099 11.259 3.23699 11.097 2.70599C10.938 2.17499 10.707 1.77003 10.406 1.49103C10.108 1.21303 9.74903 1.07397 9.32803 1.07397C8.69703 1.07397 8.20503 1.38502 7.84903 2.00702C7.49403 2.62602 7.31702 3.50299 7.31702 4.63599C7.31702 5.39199 7.39602 6.03401 7.55502 6.56201C7.71402 7.09101 7.94303 7.49301 8.24103 7.76801C8.54303 8.04401 8.90503 8.18201 9.32803 8.18201ZM16.828 9.11902C16.186 9.11902 15.639 8.94497 15.188 8.59497C14.736 8.24297 14.391 7.733 14.152 7.065C13.913 6.395 13.794 5.58499 13.794 4.63599C13.794 3.69299 13.913 2.88797 14.152 2.21997C14.393 1.54997 14.74 1.03797 15.192 0.685974C15.646 0.330974 16.192 0.153015 16.828 0.153015C17.464 0.153015 18.009 0.330974 18.46 0.685974C18.915 1.03797 19.261 1.54997 19.5 2.21997C19.741 2.88797 19.862 3.69299 19.862 4.63599C19.862 5.58499 19.743 6.395 19.504 7.065C19.266 7.733 18.92 8.24297 18.469 8.59497C18.017 8.94497 17.47 9.11902 16.828 9.11902ZM16.828 8.18201C17.464 8.18201 17.959 7.87499 18.311 7.26099C18.663 6.64799 18.839 5.77299 18.839 4.63599C18.839 3.88099 18.759 3.23699 18.597 2.70599C18.438 2.17499 18.207 1.77003 17.906 1.49103C17.608 1.21303 17.249 1.07397 16.828 1.07397C16.197 1.07397 15.705 1.38502 15.349 2.00702C14.994 2.62602 14.817 3.50299 14.817 4.63599C14.817 5.39199 14.896 6.03401 15.055 6.56201C15.214 7.09101 15.443 7.49301 15.741 7.76801C16.043 8.04401 16.405 8.18201 16.828 8.18201Z" fill="#9D9FA2"/>
</svg>
