<svg width="47" height="15" viewBox="0 0 47 15" fill="none" xmlns="http://www.w3.org/2000/svg">
<path d="M9.43005 4H8.18994C8.11994 3.65 7.99006 3.32995 7.81006 3.06995C7.63006 2.79995 7.41002 2.57001 7.15002 2.39001C6.90002 2.20001 6.62005 2.05997 6.30005 1.96997C5.99005 1.87997 5.66996 1.82996 5.32996 1.82996C4.70996 1.82996 4.15002 1.99005 3.65002 2.30005C3.16002 2.61005 2.75997 3.07005 2.46997 3.68005C2.16997 4.28005 2.03003 5.03003 2.03003 5.91003C2.03003 6.79003 2.16997 7.53001 2.46997 8.14001C2.75997 8.75001 3.16002 9.21002 3.65002 9.52002C4.15002 9.83002 4.70996 9.98999 5.32996 9.98999C5.66996 9.98999 5.99005 9.93998 6.30005 9.84998C6.62005 9.74998 6.90002 9.62005 7.15002 9.43005C7.41002 9.25005 7.63006 9.02 7.81006 8.75C7.99006 8.48 8.11994 8.16995 8.18994 7.81995H9.43005C9.33005 8.33995 9.16004 8.79997 8.92004 9.21997C8.67004 9.62997 8.37 9.98001 8 10.26C7.64 10.55 7.23003 10.77 6.78003 10.92C6.33003 11.06 5.83996 11.14 5.32996 11.14C4.45996 11.14 3.69001 10.93 3.01001 10.5C2.34001 10.08 1.80004 9.47994 1.42004 8.68994C1.03004 7.90994 0.839966 6.98003 0.839966 5.91003C0.839966 4.84003 1.03004 3.91 1.42004 3.12C1.80004 2.34 2.34001 1.73995 3.01001 1.31995C3.69001 0.889946 4.45996 0.680054 5.32996 0.680054C5.83996 0.680054 6.33003 0.750024 6.78003 0.900024C7.23003 1.05002 7.64 1.27006 8 1.56006C8.37 1.84006 8.67004 2.18998 8.92004 2.59998C9.16004 3.00998 9.33005 3.48 9.43005 4ZM14.36 11.16C13.67 11.16 13.07 11 12.55 10.67C12.03 10.34 11.63 9.88004 11.33 9.29004C11.05 8.70004 10.9 8.00997 10.9 7.21997C10.9 6.42997 11.05 5.73001 11.33 5.14001C11.63 4.55001 12.03 4.08001 12.55 3.76001C13.07 3.43001 13.67 3.26001 14.36 3.26001C15.05 3.26001 15.65 3.43001 16.17 3.76001C16.69 4.08001 17.1 4.55001 17.38 5.14001C17.68 5.73001 17.8199 6.42997 17.8199 7.21997C17.8199 8.00997 17.68 8.70004 17.38 9.29004C17.1 9.88004 16.69 10.34 16.17 10.67C15.65 11 15.05 11.16 14.36 11.16ZM14.36 10.11C14.89 10.11 15.32 9.96995 15.65 9.69995C15.99 9.42995 16.24 9.08001 16.41 8.64001C16.57 8.21001 16.65 7.72997 16.65 7.21997C16.65 6.70997 16.57 6.24004 16.41 5.79004C16.24 5.35004 15.99 4.99998 15.65 4.72998C15.32 4.44998 14.89 4.31995 14.36 4.31995C13.84 4.31995 13.4099 4.44998 13.0699 4.72998C12.7299 4.99998 12.4799 5.35004 12.3199 5.79004C12.1599 6.24004 12.0699 6.70997 12.0699 7.21997C12.0699 7.72997 12.1599 8.21001 12.3199 8.64001C12.4799 9.08001 12.7299 9.42995 13.0699 9.69995C13.4099 9.96995 13.84 10.11 14.36 10.11ZM22.5 11.16C21.86 11.16 21.3001 11.0001 20.8101 10.6801C20.3201 10.3501 19.94 9.89005 19.67 9.30005C19.39 8.71005 19.25 8.00995 19.25 7.19995C19.25 6.39995 19.39 5.69999 19.67 5.10999C19.94 4.51999 20.3299 4.07 20.8199 3.75C21.3099 3.42 21.87 3.26001 22.52 3.26001C23.01 3.26001 23.4099 3.35001 23.6899 3.51001C23.9899 3.68001 24.21 3.85995 24.36 4.06995C24.52 4.27995 24.64 4.43996 24.72 4.57996H24.8199V0.819946H26V11H24.86V9.82996H24.72C24.64 9.96996 24.51 10.14 24.36 10.35C24.2 10.56 23.97 10.75 23.67 10.92C23.38 11.08 22.99 11.16 22.5 11.16ZM22.66 10.11C23.13 10.11 23.52 9.97999 23.85 9.73999C24.17 9.48999 24.42 9.14996 24.59 8.70996C24.76 8.26996 24.84 7.76005 24.84 7.18005C24.84 6.61005 24.76 6.10994 24.59 5.68994C24.43 5.24994 24.18 4.92005 23.86 4.68005C23.53 4.44005 23.13 4.31995 22.66 4.31995C22.16 4.31995 21.74 4.44995 21.41 4.69995C21.08 4.94995 20.84 5.29998 20.67 5.72998C20.51 6.15998 20.4301 6.64005 20.4301 7.18005C20.4301 7.73005 20.5101 8.22003 20.6801 8.66003C20.8501 9.10003 21.09 9.45997 21.42 9.71997C21.75 9.97997 22.17 10.11 22.66 10.11ZM28.3101 11V3.35999H29.48V11H28.3101ZM28.9 2.08997C28.68 2.08997 28.4801 2.00999 28.3101 1.85999C28.1501 1.69999 28.0699 1.51005 28.0699 1.30005C28.0699 1.08005 28.1501 0.88998 28.3101 0.72998C28.4801 0.57998 28.68 0.5 28.9 0.5C29.13 0.5 29.33 0.57998 29.49 0.72998C29.66 0.88998 29.74 1.08005 29.74 1.30005C29.74 1.51005 29.66 1.69999 29.49 1.85999C29.33 2.00999 29.13 2.08997 28.9 2.08997ZM32.8 6.41003V11H31.63V3.35999H32.76V4.56006H32.86C33.04 4.17006 33.3101 3.86 33.6801 3.62C34.0401 3.38 34.51 3.26001 35.09 3.26001C35.61 3.26001 36.06 3.36996 36.45 3.57996C36.84 3.78996 37.14 4.11004 37.35 4.54004C37.57 4.96004 37.6801 5.50002 37.6801 6.15002V11H36.5V6.22998C36.5 5.62998 36.35 5.15996 36.04 4.82996C35.72 4.48996 35.3 4.31995 34.75 4.31995C34.38 4.31995 34.04 4.40006 33.75 4.56006C33.46 4.72006 33.2301 4.96002 33.0601 5.27002C32.8901 5.58002 32.8 5.96003 32.8 6.41003ZM42.9 14.02C42.34 14.02 41.8499 13.95 41.4399 13.8C41.0299 13.66 40.69 13.47 40.42 13.24C40.15 13.01 39.94 12.76 39.78 12.49L40.71 11.84C40.82 11.97 40.96 12.1301 41.12 12.3101C41.28 12.4901 41.5 12.65 41.78 12.78C42.07 12.92 42.44 12.99 42.9 12.99C43.52 12.99 44.0301 12.84 44.4301 12.54C44.8301 12.24 45.03 11.78 45.03 11.14V9.58997H44.9301C44.8401 9.72997 44.7201 9.89999 44.5601 10.11C44.4101 10.31 44.18 10.49 43.89 10.65C43.6 10.8 43.2 10.88 42.7 10.88C42.09 10.88 41.53 10.7299 41.04 10.4399C40.56 10.1499 40.17 9.73004 39.88 9.17004C39.6 8.61004 39.46 7.94001 39.46 7.14001C39.46 6.36001 39.6 5.67998 39.87 5.09998C40.15 4.51998 40.53 4.06 41.02 3.75C41.51 3.42 42.08 3.26001 42.72 3.26001C43.22 3.26001 43.61 3.35001 43.91 3.51001C44.2 3.68001 44.43 3.85995 44.58 4.06995C44.74 4.27995 44.86 4.43996 44.95 4.57996H45.0699V3.35999H46.2V11.22C46.2 11.88 46.05 12.4099 45.76 12.8199C45.46 13.2299 45.0601 13.54 44.5601 13.73C44.0701 13.92 43.51 14.02 42.9 14.02ZM42.86 9.82996C43.33 9.82996 43.7301 9.72 44.0601 9.5C44.3801 9.29 44.6301 8.97995 44.8 8.56995C44.97 8.16995 45.05 7.69 45.05 7.12C45.05 6.56999 44.97 6.09004 44.8 5.67004C44.64 5.24004 44.3899 4.91005 44.0699 4.68005C43.7399 4.44005 43.34 4.31995 42.86 4.31995C42.37 4.31995 41.95 4.43995 41.62 4.69995C41.29 4.94995 41.04 5.28996 40.88 5.70996C40.72 6.12996 40.64 6.60999 40.64 7.12C40.64 7.64999 40.72 8.12003 40.88 8.53003C41.05 8.93003 41.3 9.24998 41.63 9.47998C41.96 9.70998 42.37 9.82996 42.86 9.82996Z" fill="#5F6980"/>
</svg>
