<svg width="42" height="12" viewBox="0 0 42 12" fill="none" xmlns="http://www.w3.org/2000/svg">
<path d="M4.435 11.14C4.017 11.13 3.59901 11.05 3.18201 10.9C2.76401 10.75 2.38302 10.49 2.03802 10.13C1.69402 9.77001 1.41701 9.27002 1.20801 8.65002C0.999008 8.03002 0.89502 7.25006 0.89502 6.31006C0.89502 5.41006 0.97901 4.61003 1.14801 3.91003C1.31701 3.21003 1.56297 2.62002 1.88397 2.15002C2.20597 1.67002 2.59397 1.30005 3.04797 1.05005C3.50497 0.800049 4.01999 0.680054 4.59399 0.680054C5.16399 0.680054 5.67099 0.79002 6.11499 1.02002C6.56299 1.25002 6.92698 1.55997 7.20898 1.96997C7.49098 2.36997 7.67298 2.83999 7.75598 3.35999H6.54303C6.43003 2.90999 6.21099 2.52998 5.88599 2.22998C5.56199 1.91998 5.13099 1.77002 4.59399 1.77002C3.80499 1.77002 3.183 2.12005 2.729 2.80005C2.279 3.49005 2.05197 4.44994 2.04797 5.68994H2.12799C2.31299 5.40994 2.534 5.16997 2.789 4.96997C3.048 4.76997 3.33298 4.61 3.64398 4.5C3.95598 4.39 4.28597 4.33997 4.63397 4.33997C5.21697 4.33997 5.75001 4.48003 6.23401 4.78003C6.71801 5.06003 7.10601 5.45997 7.39801 5.96997C7.68901 6.47997 7.83502 7.05997 7.83502 7.71997C7.83502 8.34997 7.69403 8.92995 7.41302 9.44995C7.13102 9.96995 6.735 10.3799 6.224 10.6899C5.717 10.9999 5.121 11.15 4.435 11.14ZM4.435 10.05C4.852 10.05 5.22698 9.93998 5.55798 9.72998C5.89298 9.51998 6.156 9.24002 6.349 8.89001C6.544 8.54001 6.64203 8.14997 6.64203 7.71997C6.64203 7.29997 6.54801 6.91995 6.35901 6.56995C6.17301 6.21995 5.91601 5.94999 5.58801 5.73999C5.26301 5.52999 4.892 5.43005 4.474 5.43005C4.16 5.43005 3.86599 5.49 3.59399 5.62C3.32299 5.74 3.08403 5.91001 2.87903 6.13C2.67603 6.34 2.517 6.58999 2.401 6.87C2.285 7.14 2.22699 7.42999 2.22699 7.73999C2.22699 8.13999 2.32199 8.52 2.51099 8.87C2.70299 9.22 2.96502 9.50997 3.29602 9.71997C3.63102 9.93997 4.01 10.05 4.435 10.05ZM10.108 11L14.662 1.98999V1.91003H9.41199V0.819946H15.935V1.96997L11.401 11H10.108ZM20.996 11.14C20.34 11.14 19.755 11.03 19.241 10.8C18.731 10.58 18.325 10.26 18.023 9.85999C17.725 9.45999 17.563 8.98995 17.536 8.44995H18.789C18.815 8.77995 18.928 9.07005 19.127 9.30005C19.326 9.54005 19.586 9.71998 19.907 9.84998C20.229 9.97998 20.585 10.05 20.976 10.05C21.414 10.05 21.802 9.96995 22.14 9.81995C22.478 9.65995 22.743 9.45005 22.935 9.18005C23.127 8.91005 23.224 8.58999 23.224 8.23999C23.224 7.85999 23.131 7.53 22.945 7.25C22.76 6.96 22.488 6.72995 22.13 6.56995C21.772 6.40995 21.334 6.32996 20.817 6.32996H20.002V5.22998H20.817C21.222 5.22998 21.576 5.16001 21.881 5.01001C22.189 4.87001 22.43 4.66002 22.602 4.40002C22.778 4.13002 22.866 3.81996 22.866 3.45996C22.866 3.11996 22.789 2.82006 22.637 2.56006C22.484 2.31006 22.269 2.10997 21.991 1.96997C21.715 1.81997 21.391 1.75 21.016 1.75C20.665 1.75 20.333 1.81995 20.022 1.94995C19.714 2.06995 19.462 2.26 19.266 2.5C19.071 2.74 18.965 3.02999 18.948 3.35999H17.755C17.775 2.82999 17.935 2.35996 18.237 1.95996C18.539 1.55996 18.933 1.24002 19.42 1.02002C19.911 0.79002 20.449 0.680054 21.036 0.680054C21.666 0.680054 22.206 0.810059 22.657 1.06006C23.108 1.31006 23.454 1.65006 23.696 2.06006C23.938 2.48006 24.059 2.92002 24.059 3.40002C24.059 3.98002 23.908 4.47 23.606 4.87C23.308 5.27 22.902 5.54996 22.388 5.70996V5.79004C23.031 5.90004 23.533 6.16999 23.895 6.60999C24.256 7.04999 24.437 7.58999 24.437 8.23999C24.437 8.78999 24.286 9.28998 23.984 9.72998C23.686 10.16 23.278 10.51 22.761 10.76C22.244 11.01 21.656 11.14 20.996 11.14ZM29.731 11.14C29.049 11.14 28.445 11.02 27.922 10.78C27.401 10.53 26.995 10.19 26.704 9.77002C26.412 9.34002 26.268 8.85005 26.271 8.30005C26.268 7.86005 26.352 7.46998 26.525 7.09998C26.697 6.72998 26.932 6.43005 27.231 6.18005C27.532 5.93005 27.869 5.77996 28.24 5.70996V5.65002C27.753 5.52002 27.365 5.24996 27.077 4.82996C26.788 4.40996 26.646 3.92 26.649 3.38C26.646 2.87 26.777 2.4 27.042 2C27.307 1.59 27.671 1.27003 28.135 1.03003C28.603 0.800029 29.135 0.680054 29.731 0.680054C30.321 0.680054 30.848 0.800029 31.312 1.03003C31.776 1.27003 32.141 1.59 32.406 2C32.675 2.4 32.81 2.87 32.814 3.38C32.81 3.92 32.663 4.40996 32.371 4.82996C32.083 5.24996 31.7 5.52002 31.223 5.65002V5.70996C31.591 5.77996 31.922 5.93005 32.217 6.18005C32.512 6.43005 32.747 6.72998 32.923 7.09998C33.099 7.46998 33.188 7.86005 33.192 8.30005C33.188 8.85005 33.039 9.34002 32.744 9.77002C32.452 10.19 32.046 10.53 31.526 10.78C31.009 11.02 30.411 11.14 29.731 11.14ZM29.731 10.05C30.192 10.05 30.59 9.96995 30.925 9.81995C31.259 9.66995 31.518 9.45994 31.7 9.18994C31.882 8.91994 31.975 8.59999 31.979 8.23999C31.975 7.84999 31.876 7.50997 31.68 7.21997C31.485 6.91997 31.218 6.69002 30.88 6.52002C30.545 6.35002 30.162 6.27002 29.731 6.27002C29.297 6.27002 28.909 6.35002 28.568 6.52002C28.23 6.69002 27.963 6.91997 27.768 7.21997C27.575 7.50997 27.481 7.84999 27.484 8.23999C27.481 8.59999 27.569 8.91994 27.748 9.18994C27.93 9.45994 28.19 9.66995 28.528 9.81995C28.866 9.96995 29.267 10.05 29.731 10.05ZM29.731 5.20996C30.096 5.20996 30.419 5.13999 30.701 4.98999C30.986 4.84999 31.21 4.64 31.372 4.38C31.534 4.12 31.617 3.80996 31.621 3.45996C31.617 3.11996 31.536 2.82006 31.377 2.56006C31.218 2.30006 30.997 2.10997 30.716 1.96997C30.434 1.81997 30.106 1.75 29.731 1.75C29.35 1.75 29.017 1.81997 28.732 1.96997C28.447 2.10997 28.227 2.30006 28.071 2.56006C27.915 2.82006 27.839 3.11996 27.842 3.45996C27.839 3.80996 27.917 4.12 28.076 4.38C28.238 4.64 28.462 4.84999 28.747 4.98999C29.032 5.13999 29.36 5.20996 29.731 5.20996ZM38.279 11.14C37.695 11.14 37.17 11.02 36.703 10.79C36.235 10.56 35.861 10.24 35.579 9.83997C35.297 9.42997 35.143 8.96995 35.117 8.44995H36.31C36.356 8.91995 36.565 9.29998 36.936 9.59998C37.311 9.89998 37.758 10.05 38.279 10.05C38.696 10.05 39.068 9.95 39.392 9.75C39.721 9.56 39.977 9.28995 40.163 8.94995C40.352 8.59995 40.446 8.21003 40.446 7.78003C40.446 7.33003 40.349 6.93997 40.153 6.58997C39.961 6.23997 39.696 5.96001 39.358 5.76001C39.02 5.56001 38.633 5.45995 38.199 5.44995C37.888 5.44995 37.568 5.49998 37.24 5.59998C36.912 5.68998 36.641 5.81997 36.429 5.96997L35.276 5.82996L35.892 0.819946H41.182V1.91003H36.926L36.569 4.91003H36.628C36.837 4.75003 37.099 4.61 37.414 4.5C37.729 4.39 38.057 4.33997 38.398 4.33997C39.021 4.33997 39.576 4.49004 40.064 4.79004C40.554 5.08004 40.939 5.48 41.217 6C41.499 6.51 41.64 7.10001 41.64 7.76001C41.64 8.41001 41.494 8.99 41.202 9.5C40.914 10.01 40.516 10.41 40.009 10.7C39.502 10.99 38.925 11.14 38.279 11.14Z" fill="#5F6980"/>
</svg>
