<svg width="24" height="10" viewBox="0 0 24 10" fill="none" xmlns="http://www.w3.org/2000/svg">
<path d="M0.961975 0.27301H2.224L5.19 7.51703H5.29199L8.258 0.27301H9.51898V9H8.53101V2.36902H8.44501L5.71802 9H4.76398L2.03601 2.36902H1.95099V9H0.961975V0.27301ZM14.161 9.13599C13.57 9.13599 13.052 8.99599 12.606 8.71399C12.162 8.43299 11.816 8.04 11.566 7.534C11.319 7.028 11.195 6.43699 11.195 5.76099C11.195 5.07999 11.319 4.48401 11.566 3.97601C11.816 3.46701 12.162 3.07202 12.606 2.79102C13.052 2.51002 13.57 2.36902 14.161 2.36902C14.752 2.36902 15.269 2.51002 15.712 2.79102C16.158 3.07202 16.505 3.46701 16.752 3.97601C17.002 4.48401 17.127 5.07999 17.127 5.76099C17.127 6.43699 17.002 7.028 16.752 7.534C16.505 8.04 16.158 8.43299 15.712 8.71399C15.269 8.99599 14.752 9.13599 14.161 9.13599ZM14.161 8.23297C14.61 8.23297 14.979 8.118 15.269 7.888C15.559 7.658 15.773 7.35498 15.912 6.97998C16.052 6.60498 16.121 6.19899 16.121 5.76099C16.121 5.32399 16.052 4.91602 15.912 4.53802C15.773 4.16102 15.559 3.85501 15.269 3.62201C14.979 3.38901 14.61 3.27301 14.161 3.27301C13.712 3.27301 13.343 3.38901 13.053 3.62201C12.763 3.85501 12.549 4.16102 12.409 4.53802C12.27 4.91602 12.201 5.32399 12.201 5.76099C12.201 6.19899 12.27 6.60498 12.409 6.97998C12.549 7.35498 12.763 7.658 13.053 7.888C13.343 8.118 13.712 8.23297 14.161 8.23297ZM19.668 5.06201V9H18.662V2.45502H19.634V3.47699H19.719C19.872 3.14499 20.105 2.87803 20.418 2.67603C20.73 2.47203 21.134 2.36902 21.628 2.36902C22.071 2.36902 22.459 2.46003 22.791 2.64203C23.124 2.82103 23.382 3.09402 23.567 3.46002C23.751 3.82402 23.844 4.284 23.844 4.841V9H22.838V4.909C22.838 4.395 22.705 3.99397 22.438 3.70697C22.17 3.41797 21.804 3.27301 21.338 3.27301C21.017 3.27301 20.73 3.34199 20.477 3.48199C20.227 3.62099 20.03 3.824 19.885 4.091C19.74 4.358 19.668 4.68201 19.668 5.06201Z" fill="#9D9FA2"/>
</svg>
