<svg width="40" height="14" viewBox="0 0 40 14" fill="none" xmlns="http://www.w3.org/2000/svg">
<path d="M8.18994 4C8.07994 3.67 7.94001 3.36998 7.76001 3.09998C7.58001 2.82998 7.37 2.60003 7.13 2.41003C6.89001 2.23003 6.61005 2.07998 6.30005 1.97998C6.00005 1.87998 5.66004 1.82996 5.29004 1.82996C4.69004 1.82996 4.14001 1.99005 3.64001 2.30005C3.15001 2.61005 2.75997 3.07005 2.46997 3.68005C2.16997 4.28005 2.03003 5.03003 2.03003 5.91003C2.03003 6.79003 2.17997 7.53001 2.46997 8.14001C2.76997 8.75001 3.17004 9.21002 3.67004 9.52002C4.17004 9.83002 4.74 9.98999 5.37 9.98999C5.95 9.98999 6.47003 9.85999 6.91003 9.60999C7.36003 9.35999 7.70995 9.01005 7.94995 8.55005C8.20995 8.09005 8.32996 7.55004 8.32996 6.92004L8.70996 7H5.65002V5.91003H9.53003V7C9.53003 7.84 9.34999 8.56994 8.98999 9.18994C8.62999 9.80994 8.14002 10.29 7.52002 10.63C6.89002 10.97 6.18 11.14 5.37 11.14C4.47 11.14 3.67999 10.93 2.98999 10.5C2.30999 10.08 1.78002 9.47994 1.40002 8.68994C1.02002 7.90994 0.839966 6.98003 0.839966 5.91003C0.839966 5.10003 0.940034 4.37999 1.16003 3.73999C1.38003 3.08999 1.68996 2.53997 2.07996 2.08997C2.47996 1.62997 2.95 1.28004 3.5 1.04004C4.04 0.800039 4.64004 0.680054 5.29004 0.680054C5.83004 0.680054 6.33004 0.760044 6.79004 0.920044C7.26004 1.08004 7.67004 1.30998 8.04004 1.59998C8.41004 1.89998 8.70996 2.25002 8.95996 2.65002C9.19996 3.06002 9.36997 3.51 9.46997 4H8.18994ZM11.48 11V3.35999H12.61V4.52002H12.6899C12.8299 4.14002 13.08 3.82998 13.45 3.59998C13.81 3.35998 14.2201 3.23999 14.6801 3.23999C14.7701 3.23999 14.87 3.25 15 3.25C15.13 3.25 15.23 3.26001 15.3 3.26001V4.45996C15.26 4.44996 15.17 4.43003 15.02 4.41003C14.88 4.39003 14.74 4.38 14.58 4.38C14.21 4.38 13.88 4.45999 13.59 4.60999C13.3 4.75999 13.07 4.98 12.9 5.25C12.73 5.52 12.65 5.82004 12.65 6.17004V11H11.48ZM19.5601 11.16C18.8701 11.16 18.26 11 17.74 10.67C17.23 10.34 16.82 9.88004 16.53 9.29004C16.24 8.70004 16.1 8.00997 16.1 7.21997C16.1 6.42997 16.24 5.73001 16.53 5.14001C16.82 4.55001 17.23 4.08001 17.74 3.76001C18.26 3.43001 18.8701 3.26001 19.5601 3.26001C20.2501 3.26001 20.85 3.43001 21.37 3.76001C21.89 4.08001 22.29 4.55001 22.58 5.14001C22.87 5.73001 23.02 6.42997 23.02 7.21997C23.02 8.00997 22.87 8.70004 22.58 9.29004C22.29 9.88004 21.89 10.34 21.37 10.67C20.85 11 20.2501 11.16 19.5601 11.16ZM19.5601 10.11C20.0801 10.11 20.51 9.96995 20.85 9.69995C21.19 9.42995 21.44 9.08001 21.6 8.64001C21.76 8.21001 21.84 7.72997 21.84 7.21997C21.84 6.70997 21.76 6.24004 21.6 5.79004C21.44 5.35004 21.19 4.99998 20.85 4.72998C20.51 4.44998 20.0801 4.31995 19.5601 4.31995C19.0301 4.31995 18.6 4.44998 18.26 4.72998C17.93 4.99998 17.68 5.35004 17.51 5.79004C17.35 6.24004 17.27 6.70997 17.27 7.21997C17.27 7.72997 17.35 8.21001 17.51 8.64001C17.68 9.08001 17.93 9.42995 18.26 9.69995C18.6 9.96995 19.0301 10.11 19.5601 10.11ZM29.62 7.88V3.35999H30.79V11H29.62V9.70996H29.54C29.36 10.1 29.08 10.42 28.71 10.7C28.33 10.97 27.85 11.1 27.27 11.1C26.8 11.1 26.37 11 26 10.79C25.63 10.57 25.34 10.26 25.13 9.82996C24.91 9.39996 24.8101 8.86997 24.8101 8.21997V3.35999H25.98V8.14001C25.98 8.69001 26.14 9.13997 26.45 9.46997C26.76 9.79997 27.16 9.96997 27.65 9.96997C27.94 9.96997 28.24 9.88999 28.54 9.73999C28.85 9.58999 29.1001 9.36006 29.3101 9.06006C29.5201 8.75006 29.62 8.36 29.62 7.88ZM32.9399 13.86V3.35999H34.08V4.57996H34.22C34.3 4.43996 34.4199 4.27995 34.5699 4.06995C34.7299 3.85995 34.95 3.68001 35.24 3.51001C35.53 3.35001 35.93 3.26001 36.42 3.26001C37.07 3.26001 37.63 3.42 38.12 3.75C38.61 4.07 39 4.51999 39.27 5.10999C39.55 5.69999 39.6801 6.39995 39.6801 7.19995C39.6801 8.00995 39.55 8.71005 39.27 9.30005C39 9.89005 38.62 10.3501 38.13 10.6801C37.64 11.0001 37.0799 11.16 36.4399 11.16C35.9499 11.16 35.56 11.08 35.26 10.92C34.97 10.75 34.74 10.56 34.58 10.35C34.42 10.14 34.3 9.96996 34.22 9.82996H34.12V13.86H32.9399ZM34.1 7.18005C34.1 7.76005 34.18 8.26996 34.35 8.70996C34.52 9.14996 34.77 9.48999 35.09 9.73999C35.42 9.97999 35.81 10.11 36.28 10.11C36.77 10.11 37.18 9.97997 37.51 9.71997C37.84 9.45997 38.09 9.10003 38.26 8.66003C38.43 8.22003 38.51 7.73005 38.51 7.18005C38.51 6.64005 38.43 6.15998 38.26 5.72998C38.1 5.29998 37.85 4.94995 37.52 4.69995C37.19 4.44995 36.78 4.31995 36.28 4.31995C35.81 4.31995 35.41 4.44005 35.08 4.68005C34.76 4.92005 34.51 5.24994 34.34 5.68994C34.18 6.10994 34.1 6.61005 34.1 7.18005Z" fill="#5F6980"/>
</svg>
