<svg width="22" height="10" viewBox="0 0 22 10" fill="none" xmlns="http://www.w3.org/2000/svg">
<path d="M3.85199 9.11902C3.28999 9.11902 2.78799 9.02302 2.34799 8.83002C1.91099 8.63602 1.56299 8.36799 1.30399 8.02399C1.04799 7.67799 0.908986 7.27599 0.885986 6.81799H1.95999C1.98299 7.09899 2.08 7.342 2.25 7.547C2.42 7.749 2.64301 7.90499 2.91901 8.01599C3.19501 8.12599 3.49999 8.18201 3.83499 8.18201C4.20999 8.18201 4.543 8.11602 4.832 7.98602C5.122 7.85502 5.34901 7.673 5.51401 7.44C5.67901 7.207 5.76099 6.93798 5.76099 6.63098C5.76099 6.30998 5.68201 6.02702 5.52301 5.78302C5.36401 5.53602 5.13101 5.342 4.82401 5.203C4.51701 5.064 4.14201 4.99402 3.69901 4.99402H3V4.05701H3.69901C4.04501 4.05701 4.34899 3.99402 4.61099 3.86902C4.87499 3.74402 5.081 3.568 5.229 3.341C5.379 3.114 5.45499 2.84698 5.45499 2.53998C5.45499 2.24398 5.389 1.98701 5.259 1.76801C5.128 1.55001 4.94299 1.37902 4.70499 1.25702C4.46899 1.13502 4.18999 1.07397 3.86899 1.07397C3.56799 1.07397 3.284 1.12899 3.017 1.23999C2.753 1.34799 2.53699 1.50601 2.36899 1.71301C2.20199 1.91801 2.11098 2.16502 2.09698 2.45502H1.07401C1.09101 1.99702 1.229 1.59699 1.487 1.25299C1.746 0.905991 2.08401 0.635993 2.50101 0.442993C2.92201 0.249993 3.38399 0.153015 3.88599 0.153015C4.42599 0.153015 4.889 0.262995 5.276 0.481995C5.662 0.696995 5.95899 0.983013 6.16599 1.33801C6.37399 1.69301 6.47699 2.07701 6.47699 2.48901C6.47699 2.98001 6.34799 3.39897 6.08899 3.74597C5.83399 4.09197 5.48601 4.332 5.04501 4.466V4.534C5.59701 4.625 6.02701 4.859 6.33701 5.237C6.64601 5.612 6.80099 6.07698 6.80099 6.63098C6.80099 7.10498 6.67199 7.531 6.41299 7.909C6.15799 8.284 5.80799 8.57998 5.36499 8.79498C4.92199 9.01098 4.41799 9.11902 3.85199 9.11902ZM11.391 9.11902C10.749 9.11902 10.202 8.94497 9.75 8.59497C9.298 8.24297 8.95299 7.733 8.71399 7.065C8.47599 6.395 8.35699 5.58499 8.35699 4.63599C8.35699 3.69299 8.47599 2.88797 8.71399 2.21997C8.95599 1.54997 9.303 1.03797 9.754 0.685974C10.209 0.330974 10.754 0.153015 11.391 0.153015C12.027 0.153015 12.571 0.330974 13.023 0.685974C13.477 1.03797 13.824 1.54997 14.062 2.21997C14.304 2.88797 14.425 3.69299 14.425 4.63599C14.425 5.58499 14.305 6.395 14.067 7.065C13.828 7.733 13.483 8.24297 13.031 8.59497C12.58 8.94497 12.033 9.11902 11.391 9.11902ZM11.391 8.18201C12.027 8.18201 12.521 7.87499 12.874 7.26099C13.226 6.64799 13.402 5.77299 13.402 4.63599C13.402 3.88099 13.321 3.23699 13.159 2.70599C13 2.17499 12.77 1.77003 12.469 1.49103C12.17 1.21303 11.811 1.07397 11.391 1.07397C10.76 1.07397 10.267 1.38502 9.91199 2.00702C9.55699 2.62602 9.379 3.50299 9.379 4.63599C9.379 5.39199 9.45901 6.03401 9.61801 6.56201C9.77701 7.09101 10.006 7.49301 10.304 7.76801C10.605 8.04401 10.967 8.18201 11.391 8.18201ZM18.891 9.11902C18.249 9.11902 17.702 8.94497 17.25 8.59497C16.798 8.24297 16.453 7.733 16.214 7.065C15.976 6.395 15.857 5.58499 15.857 4.63599C15.857 3.69299 15.976 2.88797 16.214 2.21997C16.456 1.54997 16.803 1.03797 17.254 0.685974C17.709 0.330974 18.254 0.153015 18.891 0.153015C19.527 0.153015 20.071 0.330974 20.523 0.685974C20.977 1.03797 21.324 1.54997 21.562 2.21997C21.804 2.88797 21.925 3.69299 21.925 4.63599C21.925 5.58499 21.805 6.395 21.567 7.065C21.328 7.733 20.983 8.24297 20.531 8.59497C20.08 8.94497 19.533 9.11902 18.891 9.11902ZM18.891 8.18201C19.527 8.18201 20.021 7.87499 20.374 7.26099C20.726 6.64799 20.902 5.77299 20.902 4.63599C20.902 3.88099 20.821 3.23699 20.659 2.70599C20.5 2.17499 20.27 1.77003 19.969 1.49103C19.67 1.21303 19.311 1.07397 18.891 1.07397C18.26 1.07397 17.767 1.38502 17.412 2.00702C17.057 2.62602 16.879 3.50299 16.879 4.63599C16.879 5.39199 16.959 6.03401 17.118 6.56201C17.277 7.09101 17.506 7.49301 17.804 7.76801C18.105 8.04401 18.467 8.18201 18.891 8.18201Z" fill="#9D9FA2"/>
</svg>
