<svg width="37" height="11" viewBox="0 0 37 11" fill="none" xmlns="http://www.w3.org/2000/svg">
<path d="M2.03003 10H0.343018L3.41498 1.27002H5.367L8.44397 10H6.75598L4.42499 3.06006H4.35699L2.03003 10ZM2.086 6.57996H6.68799V7.84998H2.086V6.57996ZM12.181 10.13C11.528 10.13 10.966 9.97995 10.498 9.69995C10.032 9.40995 9.67198 9.01001 9.41998 8.51001C9.16998 8.00001 9.04498 7.41 9.04498 6.75C9.04498 6.09 9.17198 5.49999 9.42798 4.98999C9.68398 4.47999 10.045 4.08005 10.51 3.80005C10.979 3.51005 11.533 3.37 12.172 3.37C12.704 3.37 13.174 3.47003 13.583 3.66003C13.995 3.86003 14.323 4.12999 14.567 4.48999C14.812 4.83999 14.951 5.24997 14.985 5.71997H13.51C13.451 5.40997 13.309 5.14005 13.084 4.93005C12.863 4.72005 12.566 4.60999 12.194 4.60999C11.878 4.60999 11.601 4.7 11.363 4.87C11.124 5.04 10.938 5.27997 10.805 5.58997C10.674 5.90997 10.608 6.28998 10.608 6.72998C10.608 7.16998 10.674 7.56 10.805 7.88C10.935 8.20001 11.118 8.44 11.354 8.62C11.593 8.79 11.873 8.87 12.194 8.87C12.421 8.87 12.624 8.82999 12.803 8.73999C12.985 8.64999 13.137 8.52999 13.259 8.35999C13.381 8.19999 13.465 8.00001 13.51 7.76001H14.985C14.948 8.23001 14.812 8.63999 14.576 8.98999C14.34 9.34999 14.019 9.62996 13.613 9.82996C13.206 10.03 12.729 10.13 12.181 10.13ZM19.52 3.44995V4.65002H15.757V3.44995H19.52ZM16.686 1.89001H18.229V8.03003C18.229 8.24003 18.26 8.40001 18.323 8.51001C18.388 8.62001 18.473 8.68998 18.578 8.72998C18.683 8.76998 18.8 8.79004 18.928 8.79004C19.024 8.79004 19.112 8.78002 19.192 8.77002C19.274 8.75002 19.337 8.73998 19.379 8.72998L19.639 9.93994C19.557 9.95994 19.439 10 19.286 10.03C19.135 10.06 18.95 10.08 18.732 10.09C18.345 10.1 17.997 10.04 17.688 9.91003C17.378 9.78003 17.132 9.58006 16.95 9.31006C16.771 9.04006 16.683 8.70004 16.686 8.29004V1.89001ZM20.81 10V3.44995H22.353V10H20.81ZM21.586 2.53003C21.341 2.53003 21.131 2.44003 20.955 2.28003C20.779 2.12003 20.691 1.91994 20.691 1.68994C20.691 1.45994 20.779 1.25998 20.955 1.09998C21.131 0.929976 21.341 0.849976 21.586 0.849976C21.833 0.849976 22.043 0.929976 22.216 1.09998C22.393 1.25998 22.481 1.45994 22.481 1.68994C22.481 1.91994 22.393 2.12003 22.216 2.28003C22.043 2.44003 21.833 2.53003 21.586 2.53003ZM29.786 3.44995L27.455 10H25.75L23.419 3.44995H25.064L26.568 8.31995H26.637L28.145 3.44995H29.786ZM33.528 10.13C32.872 10.13 32.305 9.98997 31.828 9.71997C31.354 9.43997 30.988 9.05005 30.733 8.55005C30.477 8.05005 30.349 7.45002 30.349 6.77002C30.349 6.09002 30.477 5.49999 30.733 4.98999C30.991 4.47999 31.352 4.08005 31.815 3.80005C32.278 3.51005 32.822 3.37 33.447 3.37C33.851 3.37 34.231 3.42995 34.589 3.56995C34.95 3.68995 35.268 3.89003 35.544 4.16003C35.822 4.43003 36.041 4.77994 36.2 5.18994C36.359 5.60994 36.439 6.10005 36.439 6.68005V7.15002H31.074V6.10999H34.96C34.957 5.80999 34.893 5.54995 34.768 5.31995C34.643 5.08995 34.469 4.90002 34.244 4.77002C34.023 4.64002 33.764 4.56995 33.469 4.56995C33.153 4.56995 32.876 4.65005 32.638 4.80005C32.399 4.95005 32.213 5.15002 32.079 5.40002C31.949 5.64002 31.882 5.90995 31.879 6.19995V7.10999C31.879 7.48999 31.949 7.81997 32.088 8.08997C32.227 8.35997 32.422 8.56996 32.672 8.70996C32.922 8.85996 33.214 8.93005 33.55 8.93005C33.774 8.93005 33.977 8.88996 34.159 8.82996C34.341 8.76996 34.498 8.67005 34.632 8.55005C34.765 8.42005 34.866 8.26996 34.934 8.07996L36.375 8.23999C36.284 8.61999 36.111 8.95999 35.855 9.23999C35.602 9.51999 35.278 9.74002 34.883 9.90002C34.488 10.05 34.037 10.13 33.528 10.13Z" fill="#20C997"/>
</svg>
