<svg width="18" height="18" viewBox="0 0 18 18" fill="none" xmlns="http://www.w3.org/2000/svg">
<path d="M13.1033 8.27699C12.9603 7.46499 12.5798 6.714 12.0099 6.119C11.4401 5.523 10.7065 5.11101 9.902 4.93201C9.0974 4.75401 8.258 4.818 7.49 5.117C6.7219 5.415 6.0596 5.935 5.5869 6.61C5.1142 7.285 4.8523 8.085 4.8343 8.909C4.8162 9.733 5.0429 10.544 5.4857 11.239C5.9285 11.934 6.5674 12.482 7.3217 12.814C8.076 13.146 8.9118 13.246 9.7233 13.103M1.5 9C1.5 10.483 1.9399 11.933 2.764 13.167C3.5881 14.4 4.7594 15.361 6.1299 15.929C7.5003 16.497 9.0083 16.645 10.4632 16.356C11.918 16.067 13.2544 15.352 14.3033 14.303C15.3522 13.254 16.0665 11.918 16.3559 10.463C16.6453 9.008 16.4968 7.5 15.9291 6.13C15.3614 4.759 14.4001 3.58801 13.1668 2.76401C11.9334 1.94001 10.4834 1.5 9 1.5M8.1667 9C8.1667 9.221 8.2545 9.433 8.4107 9.589C8.567 9.746 8.779 9.83299 9 9.83299C9.221 9.83299 9.433 9.746 9.5893 9.589C9.7455 9.433 9.8333 9.221 9.8333 9C9.8333 8.779 9.7455 8.567 9.5893 8.411C9.433 8.254 9.221 8.16701 9 8.16701C8.779 8.16701 8.567 8.254 8.4107 8.411C8.2545 8.567 8.1667 8.779 8.1667 9Z" stroke="#282828" stroke-width="1.25" stroke-linecap="round" stroke-linejoin="round"/>
</svg>
