<svg width="17" height="14" viewBox="0 0 17 14" fill="none" xmlns="http://www.w3.org/2000/svg">
<path fill-rule="evenodd" clip-rule="evenodd" d="M1.3993 2.44299C1.5295 2.01599 1.9264 1.70599 2.3958 1.70599H14.0625C14.5319 1.70599 14.9288 2.01599 15.059 2.44299L8.2292 6.996L1.3993 2.44299ZM0.104201 2.73599C0.104101 2.74299 0.104101 2.74901 0.104201 2.75601V11.081C0.104201 12.346 1.1302 13.372 2.3958 13.372H14.0625C15.3282 13.372 16.3542 12.346 16.3542 11.081V2.75601M15.1042 3.91501V11.081C15.1042 11.656 14.6378 12.122 14.0625 12.122H2.3958C1.8205 12.122 1.3542 11.656 1.3542 11.081V3.91501L7.8825 8.267C8.0924 8.407 8.3659 8.407 8.5759 8.267L15.1042 3.91501ZM16.3541 2.73599C16.348 1.47599 15.3244 0.455994 14.0625 0.455994H2.3958C1.134 0.455994 0.110401 1.47599 0.104201 2.73599" fill="#5F6980"/>
</svg>
