<svg width="57" height="10" viewBox="0 0 57 10" fill="none" xmlns="http://www.w3.org/2000/svg">
<path d="M7.78601 3.21997H6.19202C6.14702 2.95997 6.06298 2.72002 5.94098 2.52002C5.81898 2.32002 5.66699 2.14 5.48499 2C5.30299 1.86 5.09598 1.75005 4.86298 1.68005C4.63298 1.61005 4.384 1.56995 4.117 1.56995C3.643 1.56995 3.22202 1.69005 2.85602 1.93005C2.48902 2.17005 2.202 2.50997 1.995 2.96997C1.787 3.41997 1.68402 3.98001 1.68402 4.64001C1.68402 5.30001 1.787 5.86995 1.995 6.31995C2.205 6.77995 2.49202 7.11999 2.85602 7.35999C3.22202 7.58999 3.64098 7.69995 4.11298 7.69995C4.37398 7.69995 4.61801 7.66998 4.84601 7.59998C5.07601 7.52998 5.28199 7.42004 5.46399 7.29004C5.64799 7.15004 5.80298 6.98003 5.92798 6.78003C6.05598 6.59003 6.14402 6.35998 6.19202 6.09998L7.78601 6.10999C7.72601 6.52999 7.59701 6.91003 7.39801 7.28003C7.20201 7.64003 6.94501 7.95999 6.62701 8.23999C6.30901 8.51999 5.93701 8.73001 5.51001 8.89001C5.08401 9.04001 4.611 9.12 4.091 9.12C3.324 9.12 2.63999 8.93997 2.03699 8.58997C1.43499 8.22997 0.961014 7.72005 0.614014 7.05005C0.268014 6.38005 0.0939941 5.57001 0.0939941 4.64001C0.0939941 3.70001 0.268981 2.88997 0.617981 2.21997C0.967981 1.54997 1.44402 1.03994 2.04602 0.689941C2.64802 0.329941 3.33 0.150024 4.091 0.150024C4.577 0.150024 5.02902 0.219985 5.44702 0.359985C5.86402 0.489985 6.23599 0.689961 6.56299 0.959961C6.88999 1.21996 7.15798 1.54004 7.36798 1.92004C7.58098 2.30004 7.72101 2.72997 7.78601 3.21997ZM11.049 9.13C10.634 9.13 10.261 9.06003 9.92798 8.91003C9.59898 8.76003 9.33798 8.54 9.14398 8.25C8.95398 7.95 8.85901 7.59003 8.85901 7.16003C8.85901 6.79003 8.92699 6.49 9.06299 6.25C9.19999 6.01 9.38601 5.81004 9.62201 5.67004C9.85701 5.52004 10.123 5.40997 10.419 5.33997C10.717 5.25997 11.025 5.21004 11.343 5.17004C11.727 5.13004 12.038 5.09995 12.276 5.06995C12.515 5.02995 12.688 4.98003 12.796 4.91003C12.907 4.84003 12.963 4.72997 12.963 4.58997V4.56006C12.963 4.24006 12.867 3.99006 12.677 3.81006C12.487 3.64006 12.213 3.55005 11.855 3.55005C11.477 3.55005 11.177 3.63005 10.955 3.80005C10.737 3.96005 10.589 4.16001 10.512 4.38L9.07202 4.18005C9.18602 3.78005 9.37297 3.45005 9.63397 3.18005C9.89597 2.91005 10.215 2.70995 10.593 2.56995C10.971 2.43995 11.389 2.37 11.846 2.37C12.161 2.37 12.475 2.40998 12.788 2.47998C13.1 2.54998 13.386 2.67998 13.644 2.84998C13.903 3.00998 14.11 3.24003 14.267 3.53003C14.426 3.82003 14.505 4.18 14.505 4.62V9H13.022V8.09998H12.971C12.877 8.27998 12.745 8.44999 12.575 8.60999C12.407 8.76999 12.195 8.88999 11.94 8.98999C11.687 9.08999 11.39 9.13 11.049 9.13ZM11.45 8C11.759 8 12.028 7.93995 12.255 7.81995C12.482 7.68995 12.657 7.52995 12.779 7.31995C12.904 7.11995 12.967 6.89002 12.967 6.65002V5.88C12.919 5.92 12.836 5.95999 12.72 5.98999C12.606 6.02999 12.478 6.05996 12.336 6.07996C12.194 6.10996 12.053 6.13002 11.914 6.15002C11.775 6.17002 11.654 6.18995 11.552 6.19995C11.322 6.22995 11.116 6.27998 10.934 6.34998C10.752 6.41998 10.609 6.52002 10.504 6.65002C10.399 6.78002 10.346 6.94001 10.346 7.14001C10.346 7.42001 10.45 7.64003 10.657 7.78003C10.865 7.93003 11.129 8 11.45 8ZM17.599 5.16003V9H16.056V2.44995H17.531V3.56995H17.607C17.758 3.19995 17.998 2.90994 18.328 2.68994C18.66 2.47994 19.07 2.37 19.559 2.37C20.011 2.37 20.404 2.47003 20.74 2.66003C21.078 2.85003 21.339 3.13 21.524 3.5C21.711 3.87 21.803 4.30996 21.801 4.82996V9H20.258V5.06995C20.258 4.62995 20.144 4.29004 19.917 4.04004C19.693 3.80004 19.382 3.67004 18.984 3.67004C18.714 3.67004 18.474 3.72998 18.264 3.84998C18.056 3.96998 17.893 4.13999 17.774 4.35999C17.657 4.57999 17.599 4.85003 17.599 5.16003ZM26.224 9.13C25.57 9.13 25.009 8.97995 24.541 8.69995C24.075 8.40995 23.715 8.01001 23.463 7.51001C23.213 7.00001 23.088 6.41 23.088 5.75C23.088 5.09 23.215 4.49999 23.471 3.98999C23.727 3.47999 24.088 3.08005 24.553 2.80005C25.022 2.51005 25.576 2.37 26.215 2.37C26.747 2.37 27.217 2.47003 27.626 2.66003C28.038 2.86003 28.366 3.12999 28.61 3.48999C28.855 3.83999 28.994 4.24997 29.028 4.71997H27.553C27.494 4.40997 27.352 4.14005 27.127 3.93005C26.906 3.72005 26.609 3.60999 26.237 3.60999C25.921 3.60999 25.644 3.7 25.406 3.87C25.167 4.04 24.981 4.27997 24.847 4.58997C24.717 4.90997 24.651 5.28998 24.651 5.72998C24.651 6.16998 24.717 6.56 24.847 6.88C24.978 7.20001 25.161 7.44 25.397 7.62C25.636 7.79 25.916 7.87 26.237 7.87C26.464 7.87 26.667 7.82999 26.846 7.73999C27.028 7.64999 27.18 7.52999 27.302 7.35999C27.424 7.19999 27.508 7.00001 27.553 6.76001H29.028C28.991 7.23001 28.855 7.63999 28.619 7.98999C28.383 8.34999 28.062 8.62996 27.656 8.82996C27.249 9.02996 26.772 9.13 26.224 9.13ZM33.192 9.13C32.536 9.13 31.969 8.98997 31.492 8.71997C31.018 8.43997 30.653 8.05005 30.397 7.55005C30.141 7.05005 30.013 6.45002 30.013 5.77002C30.013 5.09002 30.141 4.49999 30.397 3.98999C30.655 3.47999 31.016 3.08005 31.479 2.80005C31.942 2.51005 32.486 2.37 33.111 2.37C33.515 2.37 33.895 2.42995 34.253 2.56995C34.614 2.68995 34.932 2.89003 35.208 3.16003C35.486 3.43003 35.705 3.77994 35.864 4.18994C36.023 4.60994 36.103 5.10005 36.103 5.68005V6.15002H30.738V5.10999H34.624C34.621 4.80999 34.557 4.54995 34.432 4.31995C34.307 4.08995 34.133 3.90002 33.908 3.77002C33.687 3.64002 33.428 3.56995 33.133 3.56995C32.817 3.56995 32.54 3.65005 32.302 3.80005C32.063 3.95005 31.877 4.15002 31.743 4.40002C31.613 4.64002 31.546 4.90995 31.543 5.19995V6.10999C31.543 6.48999 31.613 6.81997 31.752 7.08997C31.891 7.35997 32.086 7.56996 32.336 7.70996C32.586 7.85996 32.878 7.93005 33.214 7.93005C33.438 7.93005 33.641 7.88996 33.823 7.82996C34.005 7.76996 34.162 7.67005 34.296 7.55005C34.43 7.42005 34.53 7.26996 34.599 7.07996L36.039 7.23999C35.948 7.61999 35.775 7.95999 35.519 8.23999C35.266 8.51999 34.942 8.74002 34.547 8.90002C34.153 9.05002 33.701 9.13 33.192 9.13ZM38.95 0.27002V9H37.408V0.27002H38.95ZM42.079 0.27002V9H40.537V0.27002H42.079ZM46.563 9.13C45.907 9.13 45.34 8.98997 44.863 8.71997C44.389 8.43997 44.024 8.05005 43.768 7.55005C43.512 7.05005 43.384 6.45002 43.384 5.77002C43.384 5.09002 43.512 4.49999 43.768 3.98999C44.026 3.47999 44.387 3.08005 44.85 2.80005C45.313 2.51005 45.857 2.37 46.482 2.37C46.886 2.37 47.267 2.42995 47.624 2.56995C47.985 2.68995 48.303 2.89003 48.579 3.16003C48.857 3.43003 49.076 3.77994 49.235 4.18994C49.394 4.60994 49.474 5.10005 49.474 5.68005V6.15002H44.109V5.10999H47.995C47.992 4.80999 47.928 4.54995 47.803 4.31995C47.678 4.08995 47.504 3.90002 47.279 3.77002C47.058 3.64002 46.799 3.56995 46.504 3.56995C46.188 3.56995 45.911 3.65005 45.673 3.80005C45.434 3.95005 45.248 4.15002 45.115 4.40002C44.984 4.64002 44.917 4.90995 44.914 5.19995V6.10999C44.914 6.48999 44.984 6.81997 45.123 7.08997C45.262 7.35997 45.457 7.56996 45.707 7.70996C45.957 7.85996 46.249 7.93005 46.585 7.93005C46.809 7.93005 47.012 7.88996 47.194 7.82996C47.376 7.76996 47.534 7.67005 47.667 7.55005C47.801 7.42005 47.901 7.26996 47.97 7.07996L49.41 7.23999C49.319 7.61999 49.146 7.95999 48.89 8.23999C48.637 8.51999 48.313 8.74002 47.919 8.90002C47.524 9.05002 47.072 9.13 46.563 9.13ZM53.208 9.12C52.694 9.12 52.233 8.97997 51.827 8.71997C51.421 8.44997 51.1 8.06995 50.864 7.56995C50.628 7.06995 50.51 6.44999 50.51 5.73999C50.51 5.00999 50.63 4.39001 50.868 3.89001C51.11 3.39001 51.435 3.01001 51.844 2.76001C52.253 2.50001 52.709 2.37 53.212 2.37C53.596 2.37 53.911 2.42995 54.158 2.56995C54.405 2.68995 54.601 2.85003 54.746 3.03003C54.891 3.21003 55.003 3.38004 55.083 3.54004H55.147V0.27002H56.694V9H55.177V7.96997H55.083C55.003 8.12997 54.888 8.29998 54.738 8.47998C54.587 8.64998 54.388 8.80005 54.141 8.93005C53.894 9.05005 53.583 9.12 53.208 9.12ZM53.638 7.84998C53.965 7.84998 54.243 7.75997 54.474 7.58997C54.704 7.40997 54.878 7.15997 54.998 6.83997C55.117 6.51997 55.177 6.14998 55.177 5.72998C55.177 5.29998 55.117 4.94 54.998 4.62C54.881 4.31 54.708 4.07001 54.478 3.89001C54.251 3.72001 53.971 3.63 53.638 3.63C53.295 3.63 53.008 3.72002 52.778 3.90002C52.547 4.08002 52.374 4.33001 52.258 4.64001C52.141 4.96001 52.083 5.31998 52.083 5.72998C52.083 6.13998 52.141 6.49995 52.258 6.81995C52.377 7.13995 52.552 7.38996 52.782 7.57996C53.015 7.75996 53.3 7.84998 53.638 7.84998Z" fill="#5F6980"/>
</svg>
