<svg width="18" height="14" viewBox="0 0 18 14" fill="none" xmlns="http://www.w3.org/2000/svg">
<path fill-rule="evenodd" clip-rule="evenodd" d="M8.70957 3.45801C8.70957 2.53801 9.45577 1.79102 10.3763 1.79102C11.2968 1.79102 12.043 2.53801 12.043 3.45801C12.043 4.37801 11.2968 5.12 10.3763 5.12C9.45577 5.12 8.70957 4.37801 8.70957 3.45801ZM7.52677 4.08301H1.41797C1.07277 4.08301 0.792969 3.80301 0.792969 3.45801C0.792969 3.11301 1.07277 2.83301 1.41797 2.83301H7.52677C7.81287 1.52201 8.97997 0.541016 10.3763 0.541016C11.7726 0.541016 12.9397 1.52201 13.2258 2.83301H16.418C16.7631 2.83301 17.043 3.11301 17.043 3.45801C17.043 3.80301 16.7631 4.08301 16.418 4.08301H13.2258C12.9397 5.39001 11.7726 6.37 10.3763 6.37C8.97997 6.37 7.81287 5.39001 7.52677 4.08301ZM3.70957 10.12C3.70957 9.2 4.45577 8.46002 5.37627 8.46002C6.29677 8.46002 7.04297 9.2 7.04297 10.12C7.04297 11.05 6.29677 11.79 5.37627 11.79C4.45577 11.79 3.70957 11.05 3.70957 10.12ZM5.37627 13.04C3.97997 13.04 2.81287 12.06 2.52677 10.75H1.41797C1.07277 10.75 0.792969 10.47 0.792969 10.12C0.792969 9.77999 1.07277 9.5 1.41797 9.5H2.52677C2.81287 8.19 3.97997 7.21002 5.37627 7.21002C6.77257 7.21002 7.93967 8.19 8.22577 9.5H16.418C16.7631 9.5 17.043 9.77999 17.043 10.12C17.043 10.47 16.7631 10.75 16.418 10.75H8.22577C7.93967 12.06 6.77257 13.04 5.37627 13.04Z" fill="#5F6980"/>
</svg>
