<svg width="72" height="12" viewBox="0 0 72 12" fill="none" xmlns="http://www.w3.org/2000/svg">
<path d="M3.45447 11H0.00427246V0.817993H3.52407C4.53497 0.817993 5.40337 1.02199 6.12927 1.42999C6.85837 1.83399 7.41857 2.416 7.80967 3.175C8.20077 3.934 8.39627 4.842 8.39627 5.899C8.39627 6.96 8.19907 7.871 7.80467 8.634C7.41357 9.396 6.84847 9.981 6.10938 10.388C5.37358 10.796 4.48857 11 3.45447 11ZM1.84867 9.40401H3.36507C4.07427 9.40401 4.66597 9.27501 5.13987 9.01601C5.61387 8.75401 5.97017 8.36501 6.20877 7.84801C6.44737 7.32801 6.56677 6.678 6.56677 5.899C6.56677 5.12 6.44737 4.47401 6.20877 3.96001C5.97017 3.44301 5.61717 3.057 5.14987 2.802C4.68577 2.543 4.10907 2.414 3.41967 2.414H1.84867V9.40401ZM12.2667 11.154C11.7828 11.154 11.3469 11.068 10.9592 10.896C10.5747 10.72 10.2698 10.461 10.0444 10.12C9.82227 9.779 9.71127 9.358 9.71127 8.85699C9.71127 8.42599 9.79078 8.06999 9.94987 7.78799C10.109 7.50699 10.3261 7.281 10.6012 7.112C10.8763 6.943 11.1862 6.816 11.5309 6.729C11.8789 6.64 12.2385 6.575 12.6097 6.536C13.0572 6.489 13.4201 6.448 13.6985 6.411C13.9769 6.371 14.1791 6.31199 14.305 6.23199C14.4343 6.14899 14.4989 6.022 14.4989 5.849V5.82001C14.4989 5.44501 14.3879 5.155 14.1658 4.95C13.9438 4.744 13.6239 4.64101 13.2063 4.64101C12.7655 4.64101 12.4158 4.73699 12.1573 4.92999C11.9021 5.12199 11.7298 5.34899 11.6403 5.61099L9.95987 5.37199C10.0924 4.90799 10.3112 4.52 10.6161 4.209C10.921 3.894 11.2939 3.65901 11.7347 3.50301C12.1755 3.34401 12.6628 3.26401 13.1964 3.26401C13.5643 3.26401 13.9305 3.30701 14.2951 3.39301C14.6597 3.48001 14.9928 3.622 15.2944 3.821C15.596 4.017 15.838 4.283 16.0202 4.621C16.2058 4.96 16.2987 5.38201 16.2987 5.88901V11H14.5685V9.951H14.5089C14.3995 10.163 14.2454 10.362 14.0465 10.548C13.851 10.73 13.604 10.877 13.3058 10.99C13.0108 11.099 12.6644 11.154 12.2667 11.154ZM12.734 9.832C13.0953 9.832 13.4085 9.76 13.6737 9.618C13.9388 9.472 14.1426 9.28 14.2852 9.041C14.431 8.803 14.5039 8.542 14.5039 8.261V7.36099C14.4476 7.40699 14.3514 7.45001 14.2156 7.49001C14.083 7.53001 13.9338 7.56499 13.7681 7.59399C13.6024 7.62399 13.4383 7.651 13.2759 7.674C13.1135 7.697 12.9727 7.71699 12.8533 7.73399C12.5849 7.76999 12.3446 7.82999 12.1325 7.91299C11.9203 7.99599 11.753 8.112 11.6303 8.261C11.5077 8.406 11.4464 8.595 11.4464 8.827C11.4464 9.159 11.5674 9.409 11.8093 9.578C12.0513 9.747 12.3595 9.832 12.734 9.832ZM24.1438 5.382L22.5032 5.561C22.4568 5.395 22.3756 5.23999 22.2596 5.09399C22.1469 4.94799 21.9944 4.83 21.8022 4.741C21.61 4.651 21.3746 4.60699 21.0962 4.60699C20.7217 4.60699 20.4068 4.68801 20.1516 4.85001C19.8997 5.01301 19.7754 5.22299 19.7788 5.48199C19.7754 5.70399 19.8567 5.884 20.0224 6.02299C20.1914 6.16299 20.4698 6.277 20.8576 6.366L22.1602 6.645C22.8827 6.801 23.4196 7.048 23.771 7.386C24.1256 7.724 24.3046 8.166 24.3079 8.713C24.3046 9.194 24.1637 9.61799 23.8853 9.98599C23.6102 10.35 23.2274 10.635 22.7369 10.841C22.2463 11.046 21.6829 11.149 21.0465 11.149C20.1119 11.149 19.3595 10.954 18.7894 10.562C18.2193 10.168 17.8796 9.62001 17.7702 8.91701L19.5252 8.748C19.6048 9.093 19.7738 9.353 20.0323 9.528C20.2908 9.704 20.6272 9.79201 21.0415 9.79201C21.4691 9.79201 21.8121 9.704 22.0707 9.528C22.3325 9.353 22.4634 9.136 22.4634 8.877C22.4634 8.658 22.3789 8.47801 22.2099 8.33501C22.0442 8.19301 21.7856 8.083 21.4343 8.007L20.1317 7.73399C19.3993 7.58099 18.8574 7.324 18.506 6.963C18.1547 6.598 17.9807 6.13799 17.984 5.58099C17.9807 5.10999 18.1083 4.703 18.3668 4.358C18.6287 4.01 18.9916 3.74099 19.4556 3.55299C19.9229 3.35999 20.4615 3.26401 21.0714 3.26401C21.9663 3.26401 22.6706 3.455 23.1843 3.836C23.7013 4.217 24.0212 4.732 24.1438 5.382ZM27.5916 6.526V11H25.7919V0.817993H27.5518V4.661H27.6413C27.8203 4.23 28.0971 3.891 28.4716 3.642C28.8494 3.39 29.33 3.26401 29.9134 3.26401C30.4437 3.26401 30.906 3.375 31.3004 3.597C31.6948 3.819 31.9998 4.14401 32.2152 4.57201C32.4339 4.99901 32.5433 5.521 32.5433 6.138V11H30.7436V6.416C30.7436 5.902 30.611 5.503 30.3459 5.218C30.084 4.93 29.7161 4.786 29.2422 4.786C28.924 4.786 28.639 4.855 28.3871 4.994C28.1385 5.13 27.9429 5.327 27.8004 5.586C27.6612 5.844 27.5916 6.158 27.5916 6.526ZM34.4574 11V0.817993H36.2571V4.62601H36.3317C36.4245 4.44101 36.5554 4.244 36.7244 4.035C36.8935 3.823 37.1222 3.642 37.4105 3.493C37.6989 3.34 38.0668 3.26401 38.5142 3.26401C39.1042 3.26401 39.6361 3.415 40.1101 3.717C40.5874 4.015 40.9652 4.45701 41.2436 5.04401C41.5253 5.62701 41.6662 6.343 41.6662 7.192C41.6662 8.03 41.5286 8.743 41.2536 9.33C40.9785 9.916 40.6039 10.364 40.13 10.672C39.656 10.98 39.1191 11.134 38.5192 11.134C38.0817 11.134 37.7188 11.061 37.4304 10.915C37.142 10.77 36.91 10.594 36.7344 10.388C36.562 10.18 36.4278 9.982 36.3317 9.797H36.2273V11H34.4574ZM36.2223 7.18201C36.2223 7.67601 36.2919 8.108 36.4311 8.479C36.5736 8.851 36.7775 9.141 37.0426 9.349C37.3111 9.555 37.6359 9.658 38.017 9.658C38.4148 9.658 38.7479 9.552 39.0163 9.339C39.2848 9.124 39.487 8.83101 39.6229 8.46001C39.7621 8.08501 39.8317 7.65901 39.8317 7.18201C39.8317 6.70801 39.7637 6.28701 39.6278 5.91901C39.492 5.55101 39.2898 5.263 39.0213 5.054C38.7528 4.845 38.4181 4.741 38.017 4.741C37.6326 4.741 37.3061 4.84201 37.0376 5.04401C36.7692 5.24601 36.5653 5.53 36.4261 5.894C36.2902 6.259 36.2223 6.68801 36.2223 7.18201ZM46.5272 11.149C45.7814 11.149 45.1351 10.985 44.5882 10.657C44.0414 10.329 43.6171 9.87 43.3155 9.28C43.0172 8.69 42.8681 8.00001 42.8681 7.21201C42.8681 6.42301 43.0172 5.732 43.3155 5.138C43.6171 4.545 44.0414 4.085 44.5882 3.756C45.1351 3.428 45.7814 3.26401 46.5272 3.26401C47.2729 3.26401 47.9192 3.428 48.4661 3.756C49.013 4.085 49.4355 4.545 49.7338 5.138C50.0355 5.732 50.1863 6.42301 50.1863 7.21201C50.1863 8.00001 50.0355 8.69 49.7338 9.28C49.4355 9.87 49.013 10.329 48.4661 10.657C47.9192 10.985 47.2729 11.149 46.5272 11.149ZM46.5371 9.707C46.9415 9.707 47.2795 9.59599 47.5513 9.37399C47.8231 9.14899 48.0253 8.84699 48.1578 8.46899C48.2937 8.09199 48.3617 7.671 48.3617 7.207C48.3617 6.739 48.2937 6.317 48.1578 5.939C48.0253 5.558 47.8231 5.25401 47.5513 5.02901C47.2795 4.80401 46.9415 4.69099 46.5371 4.69099C46.1228 4.69099 45.7781 4.80401 45.503 5.02901C45.2312 5.25401 45.0274 5.558 44.8915 5.939C44.7589 6.317 44.6926 6.739 44.6926 7.207C44.6926 7.671 44.7589 8.09199 44.8915 8.46899C45.0274 8.84699 45.2312 9.14899 45.503 9.37399C45.7781 9.59599 46.1228 9.707 46.5371 9.707ZM53.911 11.154C53.427 11.154 52.991 11.068 52.604 10.896C52.219 10.72 51.914 10.461 51.689 10.12C51.467 9.779 51.356 9.358 51.356 8.85699C51.356 8.42599 51.435 8.06999 51.594 7.78799C51.754 7.50699 51.971 7.281 52.246 7.112C52.521 6.943 52.831 6.816 53.175 6.729C53.523 6.64 53.883 6.575 54.254 6.536C54.702 6.489 55.065 6.448 55.343 6.411C55.621 6.371 55.824 6.31199 55.95 6.23199C56.079 6.14899 56.143 6.022 56.143 5.849V5.82001C56.143 5.44501 56.032 5.155 55.81 4.95C55.588 4.744 55.268 4.64101 54.851 4.64101C54.41 4.64101 54.06 4.73699 53.802 4.92999C53.547 5.12199 53.374 5.34899 53.285 5.61099L51.604 5.37199C51.737 4.90799 51.956 4.52 52.261 4.209C52.566 3.894 52.938 3.65901 53.379 3.50301C53.82 3.34401 54.307 3.26401 54.841 3.26401C55.209 3.26401 55.575 3.30701 55.94 3.39301C56.304 3.48001 56.637 3.622 56.939 3.821C57.241 4.017 57.482 4.283 57.665 4.621C57.85 4.96 57.943 5.38201 57.943 5.88901V11H56.213V9.951H56.153C56.044 10.163 55.89 10.362 55.691 10.548C55.496 10.73 55.249 10.877 54.95 10.99C54.655 11.099 54.309 11.154 53.911 11.154ZM54.379 9.832C54.74 9.832 55.053 9.76 55.318 9.618C55.583 9.472 55.787 9.28 55.93 9.041C56.076 8.803 56.148 8.542 56.148 8.261V7.36099C56.092 7.40699 55.996 7.45001 55.86 7.49001C55.728 7.53001 55.578 7.56499 55.413 7.59399C55.247 7.62399 55.083 7.651 54.92 7.674C54.758 7.697 54.617 7.71699 54.498 7.73399C54.229 7.76999 53.989 7.82999 53.777 7.91299C53.565 7.99599 53.397 8.112 53.275 8.261C53.152 8.406 53.091 8.595 53.091 8.827C53.091 9.159 53.212 9.409 53.454 9.578C53.696 9.747 54.004 9.832 54.379 9.832ZM59.753 11V3.364H61.498V4.636H61.577C61.717 4.196 61.955 3.856 62.293 3.617C62.635 3.375 63.024 3.254 63.462 3.254C63.561 3.254 63.672 3.259 63.795 3.269C63.921 3.276 64.025 3.287 64.108 3.304V4.96001C64.032 4.93301 63.911 4.91 63.745 4.89C63.583 4.867 63.425 4.855 63.273 4.855C62.945 4.855 62.65 4.926 62.388 5.069C62.129 5.208 61.925 5.402 61.776 5.651C61.627 5.899 61.553 6.186 61.553 6.511V11H59.753ZM67.823 11.134C67.223 11.134 66.686 10.98 66.212 10.672C65.738 10.364 65.364 9.916 65.089 9.33C64.814 8.743 64.676 8.03 64.676 7.192C64.676 6.343 64.815 5.62701 65.094 5.04401C65.375 4.45701 65.755 4.015 66.232 3.717C66.709 3.415 67.241 3.26401 67.828 3.26401C68.275 3.26401 68.643 3.34 68.932 3.493C69.22 3.642 69.449 3.823 69.618 4.035C69.787 4.244 69.918 4.44101 70.01 4.62601H70.085V0.817993H71.89V11H70.12V9.797H70.01C69.918 9.982 69.783 10.18 69.608 10.388C69.432 10.594 69.2 10.77 68.912 10.915C68.623 11.061 68.26 11.134 67.823 11.134ZM68.325 9.658C68.706 9.658 69.031 9.555 69.3 9.349C69.568 9.141 69.772 8.851 69.911 8.479C70.05 8.108 70.12 7.67601 70.12 7.18201C70.12 6.68801 70.05 6.259 69.911 5.894C69.775 5.53 69.573 5.24601 69.305 5.04401C69.039 4.84201 68.713 4.741 68.325 4.741C67.924 4.741 67.589 4.845 67.321 5.054C67.052 5.263 66.85 5.55101 66.714 5.91901C66.578 6.28701 66.51 6.70801 66.51 7.18201C66.51 7.65901 66.578 8.08501 66.714 8.46001C66.854 8.83101 67.057 9.124 67.326 9.339C67.598 9.552 67.931 9.658 68.325 9.658Z" fill="#282828"/>
</svg>
