<svg width="47" height="12" viewBox="0 0 47 12" fill="none" xmlns="http://www.w3.org/2000/svg">
<path d="M6.91498 0.819946H8.14801V7.56006C8.14801 8.26006 7.98401 8.88004 7.65601 9.42004C7.33101 9.97004 6.87201 10.4 6.27802 10.71C5.68502 11.02 4.989 11.1801 4.19 11.1801C3.392 11.1801 2.69599 11.02 2.10199 10.71C1.50899 10.4 1.04797 9.97004 0.719971 9.42004C0.394971 8.88004 0.232971 8.26006 0.232971 7.56006V0.819946H1.466V7.45996C1.466 7.95996 1.57501 8.40004 1.79401 8.79004C2.01301 9.17004 2.324 9.47995 2.729 9.69995C3.136 9.91995 3.624 10.03 4.19 10.03C4.757 10.03 5.24398 9.91995 5.65198 9.69995C6.05998 9.47995 6.37098 9.17004 6.58698 8.79004C6.80498 8.40004 6.91498 7.95996 6.91498 7.45996V0.819946ZM15.86 5.06995L14.806 5.37C14.74 5.2 14.642 5.02999 14.513 4.85999C14.387 4.68999 14.214 4.54994 13.996 4.43994C13.777 4.32994 13.497 4.28003 13.155 4.28003C12.688 4.28003 12.299 4.38998 11.987 4.59998C11.679 4.80998 11.525 5.08003 11.525 5.41003C11.525 5.70003 11.631 5.92998 11.843 6.09998C12.055 6.26998 12.386 6.41003 12.837 6.53003L13.971 6.80005C14.653 6.97005 15.162 7.22006 15.497 7.56006C15.832 7.90006 15.999 8.34 15.999 8.87C15.999 9.30999 15.873 9.70005 15.621 10.05C15.373 10.39 15.025 10.66 14.577 10.86C14.13 11.06 13.609 11.16 13.016 11.16C12.237 11.16 11.593 10.99 11.082 10.65C10.572 10.31 10.249 9.82004 10.113 9.17004L11.226 8.89001C11.332 9.30001 11.533 9.60995 11.828 9.81995C12.126 10.0199 12.516 10.12 12.996 10.12C13.543 10.12 13.977 10.01 14.299 9.78003C14.624 9.54003 14.786 9.26005 14.786 8.93005C14.786 8.67005 14.693 8.44002 14.508 8.27002C14.322 8.08002 14.037 7.94999 13.653 7.85999L12.38 7.56006C11.68 7.39006 11.167 7.14004 10.839 6.79004C10.514 6.44004 10.351 5.99997 10.351 5.46997C10.351 5.03997 10.472 4.65996 10.714 4.32996C10.96 3.99996 11.293 3.74005 11.714 3.55005C12.138 3.36005 12.618 3.26001 13.155 3.26001C13.911 3.26001 14.504 3.43001 14.935 3.76001C15.369 4.09001 15.678 4.52995 15.86 5.06995ZM20.967 11.16C20.231 11.16 19.596 11 19.063 10.67C18.533 10.34 18.123 9.89005 17.835 9.30005C17.55 8.71005 17.407 8.01999 17.407 7.23999C17.407 6.45999 17.55 5.77004 17.835 5.17004C18.123 4.57004 18.524 4.11002 19.038 3.77002C19.555 3.43002 20.158 3.26001 20.848 3.26001C21.245 3.26001 21.638 3.32996 22.026 3.45996C22.414 3.59996 22.767 3.80999 23.085 4.10999C23.403 4.39999 23.657 4.80003 23.846 5.28003C24.034 5.77003 24.129 6.36996 24.129 7.07996V7.57996H18.243V6.56995H22.936C22.936 6.12995 22.85 5.75003 22.677 5.41003C22.508 5.07003 22.266 4.80999 21.951 4.60999C21.64 4.41999 21.272 4.31995 20.848 4.31995C20.38 4.31995 19.976 4.43004 19.635 4.67004C19.297 4.89004 19.036 5.19006 18.854 5.56006C18.672 5.93006 18.581 6.31999 18.581 6.73999V7.42004C18.581 8.00004 18.68 8.49001 18.879 8.89001C19.081 9.28001 19.361 9.59005 19.719 9.80005C20.077 10 20.493 10.11 20.967 10.11C21.275 10.11 21.554 10.06 21.802 9.97998C22.054 9.88998 22.271 9.74996 22.453 9.57996C22.636 9.39996 22.777 9.18003 22.876 8.91003L24.01 9.22998C23.89 9.60998 23.69 9.94999 23.408 10.24C23.126 10.53 22.778 10.76 22.364 10.92C21.95 11.08 21.484 11.16 20.967 11.16ZM25.914 11V3.35999H27.047V4.52002H27.127C27.266 4.14002 27.518 3.82998 27.882 3.59998C28.247 3.35998 28.658 3.23999 29.115 3.23999C29.202 3.23999 29.309 3.25 29.439 3.25C29.568 3.25 29.666 3.26001 29.732 3.26001V4.45996C29.692 4.44996 29.601 4.43003 29.458 4.41003C29.319 4.39003 29.172 4.38 29.016 4.38C28.645 4.38 28.313 4.45999 28.022 4.60999C27.733 4.75999 27.505 4.98 27.336 5.25C27.17 5.52 27.087 5.82004 27.087 6.17004V11H25.914ZM36.452 0.819946V11H35.219V0.819946H36.452ZM42.066 11H38.924V0.819946H42.206C43.193 0.819946 44.038 1.02005 44.741 1.43005C45.444 1.83005 45.982 2.42004 46.357 3.17004C46.731 3.93004 46.919 4.84001 46.919 5.89001C46.919 6.95001 46.73 7.86 46.352 8.63C45.974 9.39001 45.424 9.98001 44.701 10.39C43.979 10.8 43.1 11 42.066 11ZM40.157 9.91003H41.987C42.829 9.91003 43.526 9.74004 44.08 9.42004C44.633 9.09004 45.046 8.63003 45.318 8.03003C45.59 7.43003 45.725 6.72001 45.725 5.89001C45.725 5.07001 45.591 4.36002 45.323 3.77002C45.054 3.17002 44.653 2.71001 44.12 2.39001C43.586 2.07001 42.922 1.91003 42.126 1.91003H40.157V9.91003Z" fill="#5F6980"/>
</svg>
