<svg width="68" height="12" viewBox="0 0 68 12" fill="none" xmlns="http://www.w3.org/2000/svg">
<path d="M5.02132 0.817993H6.85091V7.97699C6.84751 8.63399 6.70832 9.199 6.43322 9.673C6.15812 10.143 5.77372 10.506 5.27982 10.761C4.78932 11.013 4.21762 11.139 3.56462 11.139C2.96802 11.139 2.43112 11.033 1.95382 10.821C1.47992 10.606 1.10371 10.287 0.825314 9.866C0.546914 9.446 0.407715 8.92201 0.407715 8.29501H2.24221C2.24551 8.57101 2.30522 8.80801 2.42122 9.00601C2.54051 9.20501 2.70451 9.35799 2.91341 9.46399C3.12221 9.56999 3.36252 9.62299 3.63422 9.62299C3.92922 9.62299 4.17951 9.562 4.38491 9.439C4.59041 9.31299 4.74621 9.12699 4.85231 8.88199C4.96161 8.63699 5.01802 8.33499 5.02132 7.97699V0.817993ZM12.1033 11.149C11.3576 11.149 10.7113 10.985 10.1644 10.657C9.61751 10.329 9.19332 9.87 8.89172 9.28C8.59342 8.69 8.44421 8.00001 8.44421 7.21201C8.44421 6.42301 8.59342 5.732 8.89172 5.138C9.19332 4.545 9.61751 4.08501 10.1644 3.75601C10.7113 3.42801 11.3576 3.26401 12.1033 3.26401C12.8491 3.26401 13.4954 3.42801 14.0423 3.75601C14.5891 4.08501 15.0117 4.545 15.31 5.138C15.6116 5.732 15.7624 6.42301 15.7624 7.21201C15.7624 8.00001 15.6116 8.69 15.31 9.28C15.0117 9.87 14.5891 10.329 14.0423 10.657C13.4954 10.985 12.8491 11.149 12.1033 11.149ZM12.1133 9.707C12.5176 9.707 12.8557 9.59599 13.1275 9.37399C13.3993 9.14899 13.6014 8.84699 13.734 8.46899C13.8699 8.09199 13.9379 7.671 13.9379 7.207C13.9379 6.739 13.8699 6.317 13.734 5.939C13.6014 5.558 13.3993 5.25399 13.1275 5.02899C12.8557 4.80399 12.5176 4.69101 12.1133 4.69101C11.699 4.69101 11.3543 4.80399 11.0792 5.02899C10.8074 5.25399 10.6036 5.558 10.4677 5.939C10.3351 6.317 10.2688 6.739 10.2688 7.207C10.2688 7.671 10.3351 8.09199 10.4677 8.46899C10.6036 8.84699 10.8074 9.14899 11.0792 9.37399C11.3543 9.59599 11.699 9.707 12.1133 9.707ZM17.3695 11V0.817993H19.1692V4.62601H19.2438C19.3366 4.44101 19.4675 4.244 19.6365 4.035C19.8056 3.823 20.0343 3.64201 20.3226 3.49301C20.611 3.34001 20.9789 3.26401 21.4263 3.26401C22.0163 3.26401 22.5482 3.41501 23.0222 3.71701C23.4995 4.01501 23.8773 4.45701 24.1557 5.04401C24.4374 5.62701 24.5783 6.34299 24.5783 7.19199C24.5783 8.02999 24.4408 8.74299 24.1657 9.32999C23.8906 9.91599 23.516 10.364 23.0421 10.672C22.5681 10.98 22.0312 11.134 21.4313 11.134C20.9938 11.134 20.6309 11.061 20.3425 10.915C20.0542 10.77 19.8221 10.594 19.6465 10.388C19.4741 10.18 19.3399 9.982 19.2438 9.797H19.1394V11H17.3695ZM19.1344 7.18201C19.1344 7.67601 19.204 8.108 19.3432 8.479C19.4857 8.851 19.6896 9.141 19.9547 9.349C20.2232 9.555 20.548 9.65799 20.9292 9.65799C21.3269 9.65799 21.66 9.55199 21.9284 9.33899C22.1969 9.12399 22.3991 8.83099 22.535 8.45999C22.6742 8.08499 22.7438 7.65901 22.7438 7.18201C22.7438 6.70801 22.6758 6.28701 22.54 5.91901C22.4041 5.55101 22.2019 5.26299 21.9334 5.05399C21.665 4.84499 21.3302 4.741 20.9292 4.741C20.5447 4.741 20.2182 4.84201 19.9498 5.04401C19.6813 5.24601 19.4775 5.53001 19.3382 5.89401C19.2024 6.25901 19.1344 6.68801 19.1344 7.18201ZM29.6605 11V0.817993H33.5582C34.294 0.817993 34.9055 0.933985 35.3928 1.16599C35.8833 1.39499 36.2495 1.70799 36.4915 2.10599C36.7367 2.50399 36.8594 2.95401 36.8594 3.45801C36.8594 3.87201 36.7798 4.227 36.6207 4.522C36.4616 4.814 36.2479 5.051 35.9794 5.233C35.7109 5.415 35.411 5.54601 35.0795 5.62601V5.72501C35.4408 5.74501 35.7872 5.85601 36.1186 6.05801C36.4534 6.25701 36.7268 6.53902 36.9389 6.90302C37.151 7.26801 37.2571 7.70901 37.2571 8.22601C37.2571 8.75301 37.1295 9.22701 36.8743 9.64801C36.6191 10.065 36.2346 10.395 35.7209 10.637C35.2071 10.879 34.5608 11 33.782 11H29.6605ZM31.505 9.45901H33.4886C34.1581 9.45901 34.6404 9.33099 34.9354 9.07599C35.2337 8.81699 35.3828 8.486 35.3828 8.082C35.3828 7.78 35.3082 7.50799 35.1591 7.26599C35.0099 7.02099 34.7978 6.829 34.5227 6.69C34.2476 6.547 33.9195 6.47601 33.5384 6.47601H31.505V9.45901ZM31.505 5.14801H33.3295C33.6477 5.14801 33.9344 5.09 34.1896 4.974C34.4448 4.855 34.6454 4.68798 34.7912 4.47198C34.9403 4.25398 35.0149 3.99499 35.0149 3.69699C35.0149 3.30199 34.8757 2.97798 34.5973 2.72198C34.3222 2.46698 33.9129 2.33899 33.3693 2.33899H31.505V5.14801ZM42.1131 11.149C41.3674 11.149 40.7211 10.985 40.1742 10.657C39.6273 10.329 39.2031 9.87 38.9015 9.28C38.6032 8.69 38.454 8.00001 38.454 7.21201C38.454 6.42301 38.6032 5.732 38.9015 5.138C39.2031 4.545 39.6273 4.08501 40.1742 3.75601C40.7211 3.42801 41.3674 3.26401 42.1131 3.26401C42.8588 3.26401 43.5051 3.42801 44.052 3.75601C44.5989 4.08501 45.0215 4.545 45.3198 5.138C45.6214 5.732 45.7722 6.42301 45.7722 7.21201C45.7722 8.00001 45.6214 8.69 45.3198 9.28C45.0215 9.87 44.5989 10.329 44.052 10.657C43.5051 10.985 42.8588 11.149 42.1131 11.149ZM42.123 9.707C42.5274 9.707 42.8655 9.59599 43.1373 9.37399C43.409 9.14899 43.6112 8.84699 43.7438 8.46899C43.8797 8.09199 43.9476 7.671 43.9476 7.207C43.9476 6.739 43.8797 6.317 43.7438 5.939C43.6112 5.558 43.409 5.25399 43.1373 5.02899C42.8655 4.80399 42.5274 4.69101 42.123 4.69101C41.7087 4.69101 41.3641 4.80399 41.089 5.02899C40.8172 5.25399 40.6133 5.558 40.4775 5.939C40.3449 6.317 40.2786 6.739 40.2786 7.207C40.2786 7.671 40.3449 8.09199 40.4775 8.46899C40.6133 8.84699 40.8172 9.14899 41.089 9.37399C41.3641 9.59599 41.7087 9.707 42.123 9.707ZM49.4972 11.154C49.0133 11.154 48.5774 11.068 48.1896 10.896C47.8052 10.72 47.5002 10.461 47.2749 10.12C47.0528 9.779 46.9418 9.358 46.9418 8.85699C46.9418 8.42599 47.0213 8.06999 47.1804 7.78799C47.3395 7.50699 47.5566 7.281 47.8317 7.112C48.1068 6.943 48.4167 6.816 48.7614 6.729C49.1094 6.64 49.469 6.57501 49.8402 6.53601C50.2876 6.48901 50.6506 6.44801 50.929 6.41101C51.2074 6.37101 51.4096 6.31199 51.5355 6.23199C51.6648 6.14899 51.7294 6.022 51.7294 5.849V5.82001C51.7294 5.44501 51.6184 5.15501 51.3963 4.95001C51.1742 4.74401 50.8544 4.64099 50.4368 4.64099C49.996 4.64099 49.6463 4.73699 49.3878 4.92999C49.1326 5.12199 48.9602 5.34899 48.8707 5.61099L47.1903 5.37201C47.3229 4.90801 47.5417 4.52001 47.8466 4.20901C48.1515 3.89401 48.5244 3.65899 48.9652 3.50299C49.406 3.34399 49.8932 3.26401 50.4268 3.26401C50.7947 3.26401 51.161 3.30701 51.5256 3.39301C51.8902 3.48001 52.223 3.62201 52.525 3.82101C52.826 4.01701 53.068 4.283 53.251 4.621C53.436 4.96 53.529 5.38201 53.529 5.88901V11H51.799V9.95099H51.7393C51.63 10.163 51.4759 10.362 51.277 10.548C51.0814 10.73 50.8345 10.877 50.5362 10.99C50.2412 11.099 49.8949 11.154 49.4972 11.154ZM49.9645 9.832C50.3258 9.832 50.639 9.76001 50.9041 9.61801C51.1693 9.47201 51.3731 9.27999 51.5156 9.04099C51.6615 8.80299 51.7344 8.54199 51.7344 8.26099V7.36099C51.678 7.40699 51.5819 7.44999 51.446 7.48999C51.3134 7.52999 51.1643 7.56499 50.9986 7.59399C50.8329 7.62399 50.6688 7.65101 50.5064 7.67401C50.344 7.69701 50.2031 7.71701 50.0838 7.73401C49.8153 7.77001 49.575 7.82999 49.3629 7.91299C49.1508 7.99599 48.9834 8.11199 48.8608 8.26099C48.7382 8.40599 48.6768 8.595 48.6768 8.827C48.6768 9.159 48.7978 9.409 49.0398 9.578C49.2817 9.747 49.59 9.832 49.9645 9.832ZM55.339 11V3.36401H57.084V4.63599H57.163C57.303 4.19599 57.541 3.856 57.879 3.617C58.221 3.375 58.61 3.254 59.048 3.254C59.147 3.254 59.258 3.25901 59.381 3.26901C59.507 3.27601 59.611 3.28699 59.694 3.30399V4.95999C59.618 4.93299 59.497 4.91001 59.331 4.89001C59.169 4.86701 59.011 4.85501 58.859 4.85501C58.531 4.85501 58.236 4.926 57.974 5.069C57.715 5.208 57.511 5.402 57.362 5.651C57.213 5.899 57.138 6.18599 57.138 6.51099V11H55.339ZM63.409 11.134C62.809 11.134 62.272 10.98 61.798 10.672C61.324 10.364 60.95 9.91599 60.675 9.32999C60.399 8.74299 60.262 8.02999 60.262 7.19199C60.262 6.34299 60.401 5.62701 60.68 5.04401C60.961 4.45701 61.341 4.01501 61.818 3.71701C62.295 3.41501 62.827 3.26401 63.414 3.26401C63.861 3.26401 64.229 3.34001 64.518 3.49301C64.806 3.64201 65.035 3.823 65.204 4.035C65.373 4.244 65.504 4.44101 65.596 4.62601H65.671V0.817993H67.476V11H65.706V9.797H65.596C65.504 9.982 65.369 10.18 65.194 10.388C65.018 10.594 64.786 10.77 64.498 10.915C64.209 11.061 63.846 11.134 63.409 11.134ZM63.911 9.65799C64.292 9.65799 64.617 9.555 64.885 9.349C65.154 9.141 65.358 8.851 65.497 8.479C65.636 8.108 65.706 7.67601 65.706 7.18201C65.706 6.68801 65.636 6.25901 65.497 5.89401C65.361 5.53001 65.159 5.24601 64.89 5.04401C64.625 4.84201 64.299 4.741 63.911 4.741C63.51 4.741 63.175 4.84499 62.907 5.05399C62.638 5.26299 62.436 5.55101 62.3 5.91901C62.164 6.28701 62.096 6.70801 62.096 7.18201C62.096 7.65901 62.164 8.08499 62.3 8.45999C62.439 8.83099 62.643 9.12399 62.912 9.33899C63.184 9.55199 63.517 9.65799 63.911 9.65799Z" fill="#5F6980"/>
</svg>
