<svg width="22" height="10" viewBox="0 0 22 10" fill="none" xmlns="http://www.w3.org/2000/svg">
<path d="M0.903015 9V8.23297L3.784 5.08002C4.122 4.71002 4.40099 4.38903 4.61899 4.11603C4.83799 3.84103 5.00001 3.582 5.10501 3.341C5.21301 3.097 5.267 2.84097 5.267 2.57397C5.267 2.26697 5.19301 2.00098 5.04501 1.77698C4.90101 1.55298 4.70201 1.37902 4.44901 1.25702C4.19601 1.13502 3.91198 1.07397 3.59698 1.07397C3.26098 1.07397 2.96899 1.14302 2.71899 1.28302C2.47199 1.41902 2.28001 1.61097 2.14301 1.85797C2.01001 2.10497 1.94299 2.39499 1.94299 2.72699H0.937988C0.937988 2.21599 1.05499 1.76698 1.29099 1.38098C1.52699 0.993981 1.848 0.69299 2.254 0.47699C2.663 0.26099 3.12201 0.153015 3.63101 0.153015C4.14201 0.153015 4.59499 0.26099 4.98999 0.47699C5.38499 0.69299 5.69501 0.984013 5.91901 1.35101C6.14301 1.71701 6.25601 2.12497 6.25601 2.57397C6.25601 2.89497 6.19699 3.20899 6.08099 3.51599C5.96699 3.81999 5.76801 4.159 5.48401 4.534C5.20301 4.906 4.81201 5.36101 4.31201 5.89801L2.35199 7.99402V8.06201H6.409V9H0.903015ZM11.016 9.11902C10.374 9.11902 9.827 8.94497 9.375 8.59497C8.923 8.24297 8.57799 7.733 8.33899 7.065C8.10099 6.395 7.98199 5.58499 7.98199 4.63599C7.98199 3.69299 8.10099 2.88797 8.33899 2.21997C8.58099 1.54997 8.928 1.03797 9.379 0.685974C9.834 0.330974 10.379 0.153015 11.016 0.153015C11.652 0.153015 12.196 0.330974 12.648 0.685974C13.102 1.03797 13.449 1.54997 13.688 2.21997C13.929 2.88797 14.05 3.69299 14.05 4.63599C14.05 5.58499 13.93 6.395 13.692 7.065C13.453 7.733 13.108 8.24297 12.656 8.59497C12.205 8.94497 11.658 9.11902 11.016 9.11902ZM11.016 8.18201C11.652 8.18201 12.146 7.87499 12.499 7.26099C12.851 6.64799 13.027 5.77299 13.027 4.63599C13.027 3.88099 12.946 3.23699 12.784 2.70599C12.625 2.17499 12.395 1.77003 12.094 1.49103C11.795 1.21303 11.436 1.07397 11.016 1.07397C10.385 1.07397 9.89199 1.38502 9.53699 2.00702C9.18199 2.62602 9.004 3.50299 9.004 4.63599C9.004 5.39199 9.08401 6.03401 9.24301 6.56201C9.40201 7.09101 9.63099 7.49301 9.92899 7.76801C10.23 8.04401 10.592 8.18201 11.016 8.18201ZM18.516 9.11902C17.874 9.11902 17.327 8.94497 16.875 8.59497C16.423 8.24297 16.078 7.733 15.839 7.065C15.601 6.395 15.482 5.58499 15.482 4.63599C15.482 3.69299 15.601 2.88797 15.839 2.21997C16.081 1.54997 16.428 1.03797 16.879 0.685974C17.334 0.330974 17.879 0.153015 18.516 0.153015C19.152 0.153015 19.696 0.330974 20.148 0.685974C20.602 1.03797 20.949 1.54997 21.188 2.21997C21.429 2.88797 21.55 3.69299 21.55 4.63599C21.55 5.58499 21.43 6.395 21.192 7.065C20.953 7.733 20.608 8.24297 20.156 8.59497C19.705 8.94497 19.158 9.11902 18.516 9.11902ZM18.516 8.18201C19.152 8.18201 19.646 7.87499 19.999 7.26099C20.351 6.64799 20.527 5.77299 20.527 4.63599C20.527 3.88099 20.446 3.23699 20.284 2.70599C20.125 2.17499 19.895 1.77003 19.594 1.49103C19.295 1.21303 18.936 1.07397 18.516 1.07397C17.885 1.07397 17.392 1.38502 17.037 2.00702C16.682 2.62602 16.504 3.50299 16.504 4.63599C16.504 5.39199 16.584 6.03401 16.743 6.56201C16.902 7.09101 17.131 7.49301 17.429 7.76801C17.73 8.04401 18.092 8.18201 18.516 8.18201Z" fill="#9D9FA2"/>
</svg>
