<svg width="48" height="12" viewBox="0 0 48 12" fill="none" xmlns="http://www.w3.org/2000/svg">
<path d="M4.63397 0.819946V11H3.401V2.10999H3.341L0.85498 3.76001V2.51001L3.401 0.819946H4.63397ZM11.141 0.819946V11H9.90802V2.10999H9.849L7.36298 3.76001V2.51001L9.90802 0.819946H11.141ZM13.831 8.91003V7.90002L18.305 0.819946H19.041V2.39001H18.544L15.163 7.73999V7.81995H21.189V8.91003H13.831ZM18.624 11V8.59998V8.13V0.819946H19.797V11H18.624ZM22.813 8.91003V7.90002L27.288 0.819946H28.024V2.39001H27.526L24.146 7.73999V7.81995H30.171V8.91003H22.813ZM27.606 11V8.59998V8.13V0.819946H28.779V11H27.606ZM32.034 11V10.11L35.395 6.43005C35.79 6.00005 36.114 5.62005 36.37 5.30005C36.625 4.98005 36.814 4.68002 36.936 4.40002C37.062 4.11002 37.125 3.81 37.125 3.5C37.125 3.14 37.039 2.82995 36.867 2.56995C36.698 2.30995 36.466 2.10997 36.171 1.96997C35.876 1.81997 35.544 1.75 35.176 1.75C34.785 1.75 34.444 1.83 34.152 2C33.864 2.16 33.64 2.38004 33.481 2.67004C33.325 2.96004 33.248 3.29005 33.248 3.68005H32.074C32.074 3.09005 32.212 2.55999 32.487 2.10999C32.762 1.65999 33.136 1.31006 33.61 1.06006C34.088 0.800059 34.623 0.680054 35.216 0.680054C35.813 0.680054 36.342 0.800059 36.802 1.06006C37.263 1.31006 37.624 1.64996 37.886 2.07996C38.148 2.49996 38.279 2.98 38.279 3.5C38.279 3.88 38.211 4.23998 38.075 4.59998C37.942 4.95998 37.71 5.35004 37.379 5.79004C37.051 6.22004 36.595 6.75 36.012 7.38L33.725 9.82996V9.91003H38.458V11H32.034ZM43.951 11.14C43.295 11.14 42.71 11.03 42.196 10.8C41.686 10.58 41.28 10.26 40.978 9.85999C40.68 9.45999 40.518 8.98995 40.491 8.44995H41.744C41.77 8.77995 41.883 9.07005 42.082 9.30005C42.281 9.54005 42.541 9.71998 42.863 9.84998C43.184 9.97998 43.54 10.05 43.931 10.05C44.369 10.05 44.757 9.96995 45.095 9.81995C45.433 9.65995 45.698 9.45005 45.89 9.18005C46.083 8.91005 46.179 8.58999 46.179 8.23999C46.179 7.85999 46.086 7.53 45.9 7.25C45.715 6.96 45.443 6.72995 45.085 6.56995C44.727 6.40995 44.289 6.32996 43.772 6.32996H42.957V5.22998H43.772C44.177 5.22998 44.531 5.16001 44.836 5.01001C45.145 4.87001 45.385 4.66002 45.557 4.40002C45.733 4.13002 45.821 3.81996 45.821 3.45996C45.821 3.11996 45.744 2.82006 45.592 2.56006C45.44 2.31006 45.224 2.10997 44.946 1.96997C44.671 1.81997 44.346 1.75 43.971 1.75C43.62 1.75 43.288 1.81995 42.977 1.94995C42.669 2.06995 42.417 2.26 42.221 2.5C42.026 2.74 41.92 3.02999 41.903 3.35999H40.71C40.73 2.82999 40.891 2.35996 41.192 1.95996C41.494 1.55996 41.888 1.24002 42.375 1.02002C42.866 0.79002 43.404 0.680054 43.991 0.680054C44.621 0.680054 45.161 0.810059 45.612 1.06006C46.063 1.31006 46.409 1.65006 46.651 2.06006C46.893 2.48006 47.014 2.92002 47.014 3.40002C47.014 3.98002 46.863 4.47 46.561 4.87C46.263 5.27 45.857 5.54996 45.343 5.70996V5.79004C45.986 5.90004 46.489 6.16999 46.85 6.60999C47.211 7.04999 47.392 7.58999 47.392 8.23999C47.392 8.78999 47.241 9.28998 46.939 9.72998C46.641 10.16 46.233 10.51 45.716 10.76C45.199 11.01 44.611 11.14 43.951 11.14Z" fill="#5F6980"/>
</svg>
