<svg width="52" height="12" viewBox="0 0 52 12" fill="none" xmlns="http://www.w3.org/2000/svg">
<path d="M0.00427246 11V0.817978H6.52697V2.36398H1.84867V5.12898H6.07947V6.67499H1.84867V11H0.00427246ZM8.12777 11V3.36398H9.92757V11H8.12777ZM9.03267 2.27998C8.74757 2.27998 8.50237 2.18499 8.29688 1.99599C8.09138 1.80399 7.98857 1.57398 7.98857 1.30498C7.98857 1.03398 8.09138 0.802983 8.29688 0.613983C8.50237 0.421983 8.74757 0.325989 9.03267 0.325989C9.32097 0.325989 9.56627 0.421983 9.76847 0.613983C9.97397 0.802983 10.0767 1.03398 10.0767 1.30498C10.0767 1.57398 9.97397 1.80399 9.76847 1.99599C9.56627 2.18499 9.32097 2.27998 9.03267 2.27998ZM13.5779 6.52599V11H11.7782V3.36398H13.4984V4.66098H13.5879C13.7636 4.23398 14.0436 3.89398 14.4281 3.64198C14.8159 3.38998 15.2948 3.26399 15.8649 3.26399C16.3919 3.26399 16.8509 3.37699 17.242 3.60199C17.6364 3.82799 17.9413 4.15399 18.1568 4.58199C18.3755 5.00899 18.4833 5.52799 18.4799 6.13799V11H16.6802V6.41599C16.6802 5.90598 16.5476 5.50599 16.2825 5.21799C16.0207 4.92999 15.6577 4.78598 15.1937 4.78598C14.8788 4.78598 14.5988 4.85499 14.3535 4.99399C14.1116 5.12999 13.921 5.32698 13.7818 5.58598C13.6459 5.84398 13.5779 6.15799 13.5779 6.52599ZM22.5069 11.154C22.023 11.154 21.5872 11.068 21.1994 10.896C20.8149 10.72 20.51 10.461 20.2846 10.12C20.0626 9.77898 19.9515 9.35798 19.9515 8.85698C19.9515 8.42598 20.0311 8.06998 20.1902 7.78798C20.3493 7.50698 20.5663 7.28098 20.8414 7.11198C21.1165 6.94298 21.4264 6.81599 21.7711 6.72899C22.1191 6.63999 22.4788 6.57498 22.85 6.53598C23.2974 6.48898 23.6603 6.44798 23.9387 6.41098C24.2172 6.37098 24.4193 6.31198 24.5453 6.23198C24.6745 6.14898 24.7392 6.02198 24.7392 5.84898V5.81999C24.7392 5.44499 24.6281 5.15498 24.4061 4.94998C24.184 4.74398 23.8642 4.64099 23.4466 4.64099C23.0057 4.64099 22.6561 4.73698 22.3975 4.92998C22.1423 5.12198 21.97 5.34898 21.8805 5.61098L20.2001 5.37198C20.3327 4.90798 20.5514 4.51998 20.8564 4.20898C21.1613 3.89398 21.5342 3.65899 21.975 3.50299C22.4158 3.34399 22.903 3.26399 23.4366 3.26399C23.8045 3.26399 24.1708 3.30699 24.5353 3.39299C24.8999 3.47999 25.233 3.62198 25.5346 3.82098C25.8362 4.01698 26.0782 4.28299 26.2605 4.62099C26.4461 4.95999 26.5389 5.38199 26.5389 5.88899V11H24.8088V9.95099H24.7491C24.6397 10.163 24.4856 10.362 24.2868 10.548C24.0912 10.73 23.8443 10.877 23.546 10.99C23.251 11.099 22.9047 11.154 22.5069 11.154ZM22.9743 9.83199C23.3355 9.83199 23.6487 9.75998 23.9139 9.61798C24.179 9.47198 24.3829 9.27999 24.5254 9.04099C24.6712 8.80299 24.7441 8.54199 24.7441 8.26099V7.36098C24.6878 7.40698 24.5917 7.44999 24.4558 7.48999C24.3232 7.52999 24.1741 7.56498 24.0083 7.59398C23.8426 7.62398 23.6786 7.65098 23.5162 7.67398C23.3538 7.69698 23.2129 7.71698 23.0936 7.73398C22.8251 7.76998 22.5848 7.82998 22.3727 7.91298C22.1606 7.99598 21.9932 8.11199 21.8706 8.26099C21.7479 8.40599 21.6866 8.59498 21.6866 8.82698C21.6866 9.15898 21.8076 9.40899 22.0495 9.57799C22.2915 9.74699 22.5997 9.83199 22.9743 9.83199ZM30.1483 6.52599V11H28.3485V3.36398H30.0687V4.66098H30.1582C30.3339 4.23398 30.6139 3.89398 30.9984 3.64198C31.3862 3.38998 31.8651 3.26399 32.4352 3.26399C32.9622 3.26399 33.4212 3.37699 33.8123 3.60199C34.2067 3.82799 34.5117 4.15399 34.7271 4.58199C34.9458 5.00899 35.0536 5.52799 35.0502 6.13799V11H33.2505V6.41599C33.2505 5.90598 33.118 5.50599 32.8528 5.21799C32.591 4.92999 32.228 4.78598 31.764 4.78598C31.4492 4.78598 31.1691 4.85499 30.9238 4.99399C30.6819 5.12999 30.4913 5.32698 30.3521 5.58598C30.2162 5.84398 30.1483 6.15799 30.1483 6.52599ZM40.2108 11.149C39.4484 11.149 38.7939 10.982 38.247 10.647C37.7034 10.312 37.2842 9.84998 36.9892 9.25998C36.6975 8.66698 36.5517 7.98399 36.5517 7.21199C36.5517 6.43599 36.7008 5.75199 36.9991 5.15799C37.2974 4.56199 37.7183 4.09799 38.2619 3.76599C38.8088 3.43199 39.4551 3.26399 40.2008 3.26399C40.8206 3.26399 41.3691 3.37898 41.8464 3.60698C42.327 3.83298 42.7098 4.15199 42.9949 4.56699C43.2799 4.97799 43.4423 5.45799 43.4821 6.00899H41.7619C41.6923 5.64099 41.5266 5.33399 41.2647 5.08899C41.0062 4.83999 40.6599 4.71599 40.2257 4.71599C39.8578 4.71599 39.5346 4.81499 39.2562 5.01399C38.9778 5.20999 38.7607 5.49098 38.6049 5.85898C38.4525 6.22698 38.3762 6.66799 38.3762 7.18199C38.3762 7.70199 38.4525 8.14999 38.6049 8.52399C38.7574 8.89499 38.9712 9.18199 39.2463 9.38399C39.5247 9.58299 39.8511 9.68298 40.2257 9.68298C40.4908 9.68298 40.7278 9.63299 40.9366 9.53299C41.1487 9.43099 41.3261 9.28299 41.4686 9.09099C41.6111 8.89899 41.7089 8.66498 41.7619 8.38998H43.4821C43.439 8.92998 43.2799 9.40898 43.0048 9.82698C42.7297 10.241 42.3552 10.566 41.8812 10.801C41.4073 11.033 40.8504 11.149 40.2108 11.149ZM48.3406 11.149C47.5749 11.149 46.9137 10.99 46.3569 10.672C45.8034 10.35 45.3775 9.89598 45.0792 9.30998C44.7809 8.71998 44.6317 8.02499 44.6317 7.22699C44.6317 6.44099 44.7809 5.75199 45.0792 5.15799C45.3808 4.56199 45.8017 4.09799 46.342 3.76599C46.8822 3.43199 47.5169 3.26399 48.2461 3.26399C48.7167 3.26399 49.1609 3.33998 49.5785 3.49298C49.9994 3.64198 50.3706 3.87398 50.6921 4.18898C51.017 4.50398 51.272 4.90498 51.458 5.39198C51.643 5.87598 51.736 6.45298 51.736 7.12198V7.67398H45.4769V6.46098H50.011C50.0077 6.11598 49.9331 5.80999 49.7873 5.54099C49.6415 5.26899 49.4376 5.05598 49.1758 4.89998C48.9173 4.74398 48.6156 4.66599 48.271 4.66599C47.9031 4.66599 47.5799 4.75598 47.3015 4.93498C47.0231 5.10998 46.806 5.34198 46.6502 5.63098C46.4978 5.91598 46.4199 6.22899 46.4165 6.56999V7.62898C46.4165 8.07298 46.4978 8.45498 46.6602 8.77298C46.8226 9.08798 47.0496 9.32998 47.3413 9.49898C47.6329 9.66398 47.9743 9.74698 48.3654 9.74698C48.6272 9.74698 48.8642 9.71099 49.0763 9.63799C49.2885 9.56199 49.4724 9.45098 49.6282 9.30498C49.784 9.15898 49.9016 8.97799 49.9812 8.76299L51.662 8.95198C51.556 9.39598 51.353 9.78399 51.055 10.115C50.7601 10.443 50.3822 10.698 49.9215 10.881C49.4608 11.06 48.9338 11.149 48.3406 11.149Z" fill="#5F6980"/>
</svg>
