<svg width="50" height="12" viewBox="0 0 50 12" fill="none" xmlns="http://www.w3.org/2000/svg">
<path d="M0.00427246 11V0.817993H6.52697V2.36401H1.84867V5.129H6.07947V6.67499H1.84867V11H0.00427246ZM8.01847 11V3.36401H9.76347V4.63599H9.84297C9.98217 4.19599 10.2209 3.856 10.5589 3.617C10.9003 3.375 11.2898 3.254 11.7273 3.254C11.8267 3.254 11.9377 3.25901 12.0604 3.26901C12.1863 3.27601 12.2907 3.28699 12.3736 3.30399V4.95999C12.2973 4.93299 12.1764 4.91001 12.0107 4.89001C11.8482 4.86701 11.6908 4.85501 11.5384 4.85501C11.2102 4.85501 10.9152 4.926 10.6534 5.069C10.3949 5.208 10.1911 5.402 10.0419 5.651C9.89277 5.899 9.81817 6.18599 9.81817 6.51099V11H8.01847ZM13.5692 11V3.36401H15.369V11H13.5692ZM14.4741 2.28C14.189 2.28 13.9438 2.185 13.7383 1.996C13.5328 1.804 13.43 1.57399 13.43 1.30499C13.43 1.03399 13.5328 0.803014 13.7383 0.614014C13.9438 0.422014 14.189 0.325989 14.4741 0.325989C14.7624 0.325989 15.0077 0.422014 15.2099 0.614014C15.4154 0.803014 15.5181 1.03399 15.5181 1.30499C15.5181 1.57399 15.4154 1.804 15.2099 1.996C15.0077 2.185 14.7624 2.28 14.4741 2.28ZM20.6003 11.149C19.8347 11.149 19.1735 10.99 18.6167 10.672C18.0632 10.35 17.6373 9.896 17.339 9.31C17.0407 8.72 16.8915 8.02499 16.8915 7.22699C16.8915 6.44099 17.0407 5.75199 17.339 5.15799C17.6406 4.56199 18.0615 4.09799 18.6017 3.76599C19.142 3.43199 19.7767 3.26401 20.5059 3.26401C20.9765 3.26401 21.4206 3.34001 21.8382 3.49301C22.2592 3.64201 22.6304 3.874 22.9519 4.189C23.2767 4.504 23.5319 4.905 23.7175 5.392C23.9031 5.876 23.9959 6.45301 23.9959 7.12201V7.67401H17.7367V6.461H22.2708C22.2675 6.116 22.1929 5.80999 22.0471 5.54099C21.9012 5.26899 21.6974 5.05599 21.4355 4.89999C21.177 4.74399 20.8754 4.66599 20.5307 4.66599C20.1628 4.66599 19.8397 4.756 19.5613 4.935C19.2828 5.11 19.0658 5.34201 18.91 5.63101C18.7575 5.91601 18.6796 6.22901 18.6763 6.57001V7.629C18.6763 8.073 18.7575 8.45501 18.9199 8.77301C19.0823 9.08801 19.3094 9.32999 19.601 9.49899C19.8927 9.66399 20.2341 9.74701 20.6252 9.74701C20.887 9.74701 21.124 9.711 21.3361 9.638C21.5482 9.562 21.7322 9.45099 21.888 9.30499C22.0437 9.15899 22.1614 8.978 22.2409 8.763L23.9213 8.952C23.8153 9.396 23.6131 9.78399 23.3148 10.115C23.0198 10.443 22.642 10.698 22.1813 10.881C21.7206 11.06 21.1936 11.149 20.6003 11.149ZM27.3182 6.526V11H25.5185V3.36401H27.2386V4.66101H27.3281C27.5038 4.23401 27.7839 3.894 28.1683 3.642C28.5561 3.39 29.035 3.26401 29.6051 3.26401C30.1321 3.26401 30.5911 3.37699 30.9822 3.60199C31.3767 3.82799 31.6816 4.154 31.897 4.582C32.1158 5.009 32.2235 5.528 32.2202 6.138V11H30.4205V6.41599C30.4205 5.90598 30.2879 5.50599 30.0227 5.21799C29.7609 4.92999 29.398 4.78601 28.9339 4.78601C28.6191 4.78601 28.339 4.85499 28.0938 4.99399C27.8518 5.12999 27.6612 5.327 27.522 5.586C27.3861 5.844 27.3182 6.158 27.3182 6.526ZM36.8835 11.134C36.2836 11.134 35.7467 10.98 35.2727 10.672C34.7988 10.364 34.4242 9.91599 34.1491 9.32999C33.8741 8.74299 33.7365 8.02999 33.7365 7.19199C33.7365 6.34299 33.8757 5.62701 34.1541 5.04401C34.4358 4.45701 34.8153 4.01501 35.2926 3.71701C35.7699 3.41501 36.3018 3.26401 36.8885 3.26401C37.3359 3.26401 37.7038 3.34001 37.9922 3.49301C38.2805 3.64201 38.5092 3.823 38.6783 4.035C38.8473 4.244 38.9782 4.44101 39.071 4.62601H39.1456V0.817993H40.9503V11H39.1804V9.797H39.071C38.9782 9.982 38.844 10.18 38.6683 10.388C38.4927 10.594 38.2607 10.77 37.9723 10.915C37.6839 11.061 37.321 11.134 36.8835 11.134ZM37.3857 9.65799C37.7668 9.65799 38.0916 9.555 38.3601 9.349C38.6286 9.141 38.8324 8.851 38.9716 8.479C39.1108 8.108 39.1804 7.67601 39.1804 7.18201C39.1804 6.68801 39.1108 6.25901 38.9716 5.89401C38.8357 5.53001 38.6335 5.24601 38.3651 5.04401C38.0999 4.84201 37.7734 4.741 37.3857 4.741C36.9846 4.741 36.6499 4.84499 36.3814 5.05399C36.1129 5.26299 35.9107 5.55101 35.7749 5.91901C35.639 6.28701 35.571 6.70801 35.571 7.18201C35.571 7.65901 35.639 8.08499 35.7749 8.45999C35.9141 8.83099 36.1179 9.12399 36.3864 9.33899C36.6581 9.55199 36.9912 9.65799 37.3857 9.65799ZM48.9036 5.38199L47.263 5.561C47.2166 5.395 47.1354 5.23999 47.0194 5.09399C46.9067 4.94799 46.7542 4.83 46.562 4.741C46.3697 4.651 46.1344 4.60699 45.856 4.60699C45.4815 4.60699 45.1666 4.68801 44.9114 4.85001C44.6595 5.01301 44.5352 5.22299 44.5385 5.48199C44.5352 5.70399 44.6164 5.88401 44.7821 6.02301C44.9512 6.16301 45.2296 6.277 45.6174 6.366L46.9199 6.64499C47.6425 6.80099 48.1794 7.04799 48.5307 7.38599C48.8854 7.72399 49.0643 8.16601 49.0676 8.71301C49.0643 9.19401 48.9235 9.61799 48.6451 9.98599C48.37 10.35 47.9872 10.635 47.4966 10.841C47.0061 11.046 46.4426 11.149 45.8063 11.149C44.8716 11.149 44.1193 10.954 43.5492 10.562C42.9791 10.168 42.6394 9.61999 42.53 8.91699L44.285 8.74799C44.3645 9.09299 44.5336 9.35301 44.7921 9.52802C45.0506 9.70401 45.387 9.79199 45.8013 9.79199C46.2289 9.79199 46.5719 9.70401 46.8304 9.52802C47.0923 9.35301 47.2232 9.13601 47.2232 8.87701C47.2232 8.65801 47.1387 8.47799 46.9696 8.33499C46.8039 8.19299 46.5454 8.08299 46.1941 8.00699L44.8915 7.73401C44.159 7.58101 43.6171 7.32401 43.2658 6.96301C42.9145 6.59801 42.7405 6.13799 42.7438 5.58099C42.7405 5.10999 42.8681 4.703 43.1266 4.358C43.3884 4.01 43.7514 3.74101 44.2154 3.55301C44.6827 3.36001 45.2213 3.26401 45.8311 3.26401C46.726 3.26401 47.4303 3.455 47.9441 3.836C48.4611 4.217 48.781 4.73199 48.9036 5.38199Z" fill="#5F6980"/>
</svg>
