<svg width="63" height="16" viewBox="0 0 63 16" fill="none" xmlns="http://www.w3.org/2000/svg">
<path d="M7.84998 0.364014H9.94995V7.96602C9.94995 8.79902 9.75998 9.53201 9.35999 10.165C8.96999 10.797 8.41997 11.292 7.71997 11.648C7.00997 12 6.17998 12.176 5.22998 12.176C4.27998 12.176 3.44999 12 2.73999 11.648C2.03999 11.292 1.48998 10.797 1.09998 10.165C0.709976 9.53201 0.51001 8.79902 0.51001 7.96602V0.364014H2.62V7.79001C2.62 8.27501 2.72994 8.70602 2.93994 9.08502C3.14994 9.46402 3.45998 9.76102 3.84998 9.97702C4.23998 10.189 4.69998 10.295 5.22998 10.295C5.76998 10.295 6.23 10.189 6.62 9.97702C7.00999 9.76102 7.32003 9.46402 7.53003 9.08502C7.74003 8.70602 7.84998 8.27501 7.84998 7.79001V0.364014ZM11.76 15.273V3.27301H13.78V4.71602H13.9C14 4.50402 14.15 4.27801 14.35 4.04001C14.54 3.79701 14.8 3.59101 15.13 3.42001C15.46 3.24601 15.88 3.15901 16.39 3.15901C17.07 3.15901 17.67 3.33101 18.22 3.67601C18.76 4.01701 19.19 4.52301 19.51 5.19301C19.83 5.86001 19.99 6.67801 19.99 7.64801C19.99 8.60601 19.84 9.42002 19.52 10.091C19.21 10.761 18.78 11.273 18.24 11.625C17.7 11.977 17.08 12.153 16.4 12.153C15.9 12.153 15.48 12.07 15.15 11.903C14.82 11.737 14.56 11.536 14.36 11.301C14.16 11.062 14.01 10.837 13.9 10.625H13.8101V15.273H11.76ZM13.77 7.63602C13.77 8.20102 13.85 8.69502 14.01 9.11902C14.17 9.54402 14.41 9.87501 14.71 10.114C15.02 10.348 15.3899 10.466 15.8199 10.466C16.2799 10.466 16.66 10.345 16.97 10.102C17.27 9.85602 17.5 9.52102 17.66 9.09702C17.82 8.66901 17.9 8.18202 17.9 7.63602C17.9 7.09502 17.82 6.61401 17.66 6.19301C17.51 5.77301 17.28 5.44302 16.97 5.20502C16.66 4.96602 16.2799 4.84702 15.8199 4.84702C15.3799 4.84702 15.01 4.96201 14.7 5.19301C14.4 5.42401 14.16 5.74801 14.01 6.16501C13.85 6.58101 13.77 7.07202 13.77 7.63602ZM25.15 15.455C24.41 15.455 23.78 15.354 23.25 15.153C22.72 14.956 22.29 14.691 21.97 14.358C21.65 14.025 21.42 13.655 21.3 13.25L23.15 12.801C23.23 12.972 23.36 13.14 23.51 13.307C23.67 13.477 23.89 13.617 24.16 13.727C24.43 13.841 24.7701 13.898 25.1801 13.898C25.7701 13.898 26.25 13.756 26.63 13.472C27.02 13.191 27.21 12.729 27.21 12.085V10.432H27.11C27 10.644 26.84 10.862 26.64 11.085C26.44 11.309 26.17 11.496 25.84 11.648C25.51 11.799 25.09 11.875 24.59 11.875C23.92 11.875 23.32 11.718 22.77 11.403C22.23 11.085 21.8 10.612 21.47 9.98302C21.16 9.35002 21 8.55902 21 7.60802C21 6.65002 21.16 5.84102 21.47 5.18202C21.8 4.51902 22.23 4.01701 22.78 3.67601C23.32 3.33101 23.93 3.15901 24.6 3.15901C25.11 3.15901 25.53 3.24601 25.86 3.42001C26.19 3.59101 26.46 3.79701 26.66 4.04001C26.85 4.27801 27 4.50402 27.11 4.71602H27.22V3.27301H29.25V12.142C29.25 12.888 29.07 13.506 28.71 13.994C28.36 14.483 27.87 14.848 27.25 15.091C26.64 15.333 25.93 15.455 25.15 15.455ZM25.17 10.261C25.6 10.261 25.97 10.155 26.28 9.94301C26.59 9.73101 26.82 9.42601 26.98 9.02802C27.14 8.63101 27.22 8.15302 27.22 7.59702C27.22 7.04702 27.14 6.56602 26.98 6.15302C26.82 5.74101 26.59 5.42001 26.29 5.19301C25.98 4.96201 25.61 4.84702 25.17 4.84702C24.71 4.84702 24.33 4.96602 24.02 5.20502C23.71 5.44302 23.48 5.77102 23.33 6.18802C23.17 6.60002 23.09 7.07002 23.09 7.59702C23.09 8.13102 23.17 8.59801 23.33 9.00002C23.49 9.39802 23.72 9.70802 24.03 9.93202C24.34 10.152 24.72 10.261 25.17 10.261ZM30.96 12V3.27301H32.95V4.72702H33.04C33.2 4.22302 33.47 3.83501 33.86 3.56201C34.25 3.28601 34.6899 3.14801 35.1899 3.14801C35.3099 3.14801 35.4299 3.15301 35.5699 3.16501C35.7199 3.17201 35.8401 3.18602 35.9301 3.20502V5.09702C35.8501 5.06602 35.71 5.04001 35.52 5.01701C35.33 4.99101 35.15 4.97702 34.98 4.97702C34.6 4.97702 34.27 5.05902 33.97 5.22202C33.67 5.38102 33.44 5.60202 33.27 5.88602C33.1 6.17002 33.01 6.49802 33.01 6.86902V12H30.96ZM39.25 12.176C38.7 12.176 38.2 12.078 37.76 11.881C37.32 11.68 36.97 11.384 36.71 10.994C36.46 10.604 36.33 10.123 36.33 9.55101C36.33 9.05901 36.42 8.65202 36.61 8.33002C36.79 8.00802 37.04 7.75002 37.35 7.55702C37.67 7.36402 38.02 7.21802 38.41 7.11902C38.81 7.01702 39.22 6.94301 39.65 6.89801C40.16 6.84501 40.57 6.79701 40.89 6.75601C41.21 6.71001 41.44 6.64201 41.58 6.55101C41.73 6.45601 41.8101 6.31101 41.8101 6.11401V6.08002C41.8101 5.65202 41.68 5.32002 41.42 5.08502C41.17 4.85002 40.81 4.73302 40.33 4.73302C39.82 4.73302 39.42 4.84301 39.13 5.06201C38.84 5.28201 38.64 5.54202 38.54 5.84102L36.62 5.56801C36.77 5.03801 37.02 4.59501 37.37 4.23901C37.72 3.87901 38.14 3.61002 38.65 3.43202C39.15 3.25002 39.7099 3.15901 40.3199 3.15901C40.7399 3.15901 41.1599 3.20802 41.5699 3.30702C41.9899 3.40502 42.37 3.56801 42.71 3.79501C43.06 4.01901 43.34 4.32402 43.54 4.71002C43.76 5.09702 43.86 5.58001 43.86 6.15901V12H41.88V10.801H41.8199C41.6899 11.044 41.52 11.271 41.29 11.483C41.06 11.691 40.7799 11.86 40.4399 11.989C40.0999 12.114 39.71 12.176 39.25 12.176ZM39.79 10.665C40.2 10.665 40.56 10.583 40.86 10.42C41.17 10.254 41.4001 10.034 41.5601 9.76102C41.7301 9.48902 41.8101 9.19102 41.8101 8.86902V7.84102C41.7501 7.89402 41.64 7.94301 41.48 7.98901C41.33 8.03401 41.16 8.07402 40.97 8.10802C40.78 8.14202 40.59 8.17202 40.41 8.19902C40.22 8.22502 40.06 8.24801 39.92 8.26701C39.62 8.30901 39.34 8.37702 39.1 8.47202C38.86 8.56602 38.67 8.69902 38.53 8.86902C38.39 9.03602 38.3199 9.25201 38.3199 9.51701C38.3199 9.89601 38.45 10.182 38.73 10.375C39.01 10.568 39.36 10.665 39.79 10.665ZM48.77 12.153C48.08 12.153 47.4701 11.977 46.9301 11.625C46.3901 11.273 45.96 10.761 45.64 10.091C45.33 9.42002 45.17 8.60601 45.17 7.64801C45.17 6.67801 45.33 5.86001 45.65 5.19301C45.97 4.52301 46.41 4.01701 46.95 3.67601C47.5 3.33101 48.1 3.15901 48.77 3.15901C49.29 3.15901 49.71 3.24601 50.04 3.42001C50.37 3.59101 50.6299 3.79701 50.8199 4.04001C51.0099 4.27801 51.16 4.50402 51.27 4.71602H51.35V0.364014H53.42V12H51.39V10.625H51.27C51.16 10.837 51.0101 11.062 50.8101 11.301C50.6101 11.536 50.34 11.737 50.01 11.903C49.68 12.07 49.27 12.153 48.77 12.153ZM49.34 10.466C49.78 10.466 50.15 10.348 50.46 10.114C50.76 9.87501 51 9.54402 51.16 9.11902C51.31 8.69502 51.39 8.20102 51.39 7.63602C51.39 7.07202 51.31 6.58101 51.16 6.16501C51 5.74801 50.77 5.42401 50.46 5.19301C50.16 4.96201 49.79 4.84702 49.34 4.84702C48.88 4.84702 48.5 4.96602 48.2 5.20502C47.8899 5.44302 47.66 5.77301 47.5 6.19301C47.35 6.61401 47.27 7.09502 47.27 7.63602C47.27 8.18202 47.35 8.66901 47.5 9.09702C47.66 9.52102 47.8899 9.85602 48.2 10.102C48.51 10.345 48.89 10.466 49.34 10.466ZM59.0699 12.17C58.1999 12.17 57.44 11.989 56.8 11.625C56.17 11.258 55.69 10.739 55.34 10.068C55 9.39401 54.83 8.60002 54.83 7.68802C54.83 6.79002 55 6.00202 55.34 5.32402C55.69 4.64202 56.17 4.11202 56.79 3.73302C57.41 3.35002 58.13 3.15901 58.96 3.15901C59.5 3.15901 60.01 3.24601 60.49 3.42001C60.97 3.59101 61.39 3.85602 61.76 4.21602C62.13 4.57602 62.42 5.03402 62.63 5.59102C62.85 6.14402 62.95 6.80301 62.95 7.56801V8.19902H55.8V6.81201H60.98C60.98 6.41901 60.89 6.06802 60.73 5.76102C60.56 5.45102 60.33 5.20602 60.03 5.02802C59.73 4.85002 59.39 4.76102 58.99 4.76102C58.57 4.76102 58.2 4.86401 57.88 5.06801C57.57 5.26901 57.32 5.53401 57.14 5.86401C56.97 6.18901 56.88 6.54702 56.87 6.93802V8.14801C56.87 8.65501 56.97 9.09102 57.15 9.45502C57.34 9.81402 57.6001 10.091 57.9301 10.284C58.2601 10.473 58.65 10.568 59.1 10.568C59.4 10.568 59.67 10.527 59.91 10.443C60.16 10.356 60.37 10.229 60.54 10.062C60.72 9.89601 60.86 9.68901 60.95 9.44301L62.87 9.65901C62.75 10.167 62.52 10.61 62.17 10.989C61.84 11.364 61.41 11.655 60.88 11.864C60.35 12.068 59.7499 12.17 59.0699 12.17Z" fill="#282828"/>
</svg>
