<svg width="18" height="18" viewBox="0 0 18 18" fill="none" xmlns="http://www.w3.org/2000/svg">
<path d="M11.5 11.5L14.2917 14.292M6.5 11.5L3.7083 14.292M3.7083 3.70801L6.5 6.5M14.2917 3.70801L11.5 6.5M5.6667 9C5.6667 9.884 6.0179 10.732 6.643 11.357C7.2681 11.982 8.1159 12.333 9 12.333C9.8841 12.333 10.7319 11.982 11.357 11.357C11.9821 10.732 12.3333 9.884 12.3333 9C12.3333 8.116 11.9821 7.26801 11.357 6.64301C10.7319 6.01801 9.8841 5.66699 9 5.66699C8.1159 5.66699 7.2681 6.01801 6.643 6.64301C6.0179 7.26801 5.6667 8.116 5.6667 9ZM1.5 9C1.5 9.985 1.694 10.96 2.0709 11.87C2.4478 12.78 3.0003 13.607 3.6967 14.303C4.3931 15 5.2199 15.552 6.1299 15.929C7.0398 16.306 8.0151 16.5 9 16.5C9.9849 16.5 10.9602 16.306 11.8701 15.929C12.7801 15.552 13.6069 15 14.3033 14.303C14.9997 13.607 15.5522 12.78 15.9291 11.87C16.306 10.96 16.5 9.985 16.5 9C16.5 8.015 16.306 7.04 15.9291 6.13C15.5522 5.22 14.9997 4.39302 14.3033 3.69702C13.6069 3.00002 12.7801 2.44798 11.8701 2.07098C10.9602 1.69398 9.9849 1.5 9 1.5C8.0151 1.5 7.0398 1.69398 6.1299 2.07098C5.2199 2.44798 4.3931 3.00002 3.6967 3.69702C3.0003 4.39302 2.4478 5.22 2.0709 6.13C1.694 7.04 1.5 8.015 1.5 9Z" stroke="#282828" stroke-width="1.25" stroke-linecap="round" stroke-linejoin="round"/>
</svg>
