<svg width="27" height="12" viewBox="0 0 27 12" fill="none" xmlns="http://www.w3.org/2000/svg">
<path d="M2.366 0.819946L5.01599 8.82996H5.121L7.76599 0.819946H9.79401L6.20499 11H3.92801L0.342987 0.819946H2.366ZM15.923 7.79004V3.35999H17.722V11H15.977V9.64001H15.898C15.726 10.07 15.442 10.4199 15.048 10.6899C14.657 10.9599 14.174 11.1 13.601 11.1C13.101 11.1 12.658 10.99 12.274 10.77C11.892 10.54 11.594 10.21 11.379 9.79004C11.163 9.36004 11.056 8.83998 11.056 8.22998V3.35999H12.855V7.94995C12.855 8.42995 12.988 8.81998 13.253 9.09998C13.518 9.38998 13.866 9.53003 14.297 9.53003C14.562 9.53003 14.819 9.45996 15.068 9.32996C15.316 9.20996 15.52 9.01001 15.679 8.76001C15.842 8.50001 15.923 8.18004 15.923 7.79004ZM22.954 11.15C22.188 11.15 21.527 10.99 20.97 10.67C20.417 10.35 19.991 9.90006 19.692 9.31006C19.394 8.72006 19.245 8.02998 19.245 7.22998C19.245 6.43998 19.394 5.75003 19.692 5.16003C19.994 4.56003 20.415 4.10002 20.955 3.77002C21.496 3.43002 22.13 3.26001 22.859 3.26001C23.33 3.26001 23.774 3.33999 24.192 3.48999C24.613 3.63999 24.984 3.86994 25.305 4.18994C25.63 4.49994 25.885 4.90001 26.071 5.39001C26.257 5.88001 26.349 6.45 26.349 7.12V7.67004H20.09V6.45996H24.624C24.621 6.11996 24.546 5.81004 24.401 5.54004C24.255 5.27004 24.051 5.06002 23.789 4.90002C23.531 4.74002 23.229 4.67004 22.884 4.67004C22.516 4.67004 22.193 4.76005 21.915 4.93005C21.636 5.11005 21.419 5.34 21.263 5.63C21.111 5.92 21.033 6.22995 21.03 6.56995V7.63C21.03 8.07 21.111 8.45002 21.273 8.77002C21.436 9.09002 21.663 9.33 21.955 9.5C22.246 9.66 22.588 9.75 22.979 9.75C23.241 9.75 23.478 9.71001 23.69 9.64001C23.902 9.56001 24.086 9.45005 24.241 9.30005C24.397 9.16005 24.515 8.98001 24.594 8.76001L26.275 8.94995C26.169 9.39995 25.967 9.77999 25.668 10.12C25.373 10.44 24.996 10.7 24.535 10.88C24.074 11.06 23.547 11.15 22.954 11.15Z" fill="#282828"/>
</svg>
