<svg width="38" height="12" viewBox="0 0 38 12" fill="none" xmlns="http://www.w3.org/2000/svg">
<path d="M0.815002 8.91002V7.9L5.29001 0.819927H6.026V2.39H5.52802L2.14801 7.73997V7.81993H8.173V8.91002H0.815002ZM5.608 11V8.59996V8.12999V0.819927H6.78101V11H5.608ZM13.278 0.680034C13.695 0.680034 14.113 0.760025 14.531 0.920025C14.948 1.07002 15.329 1.32992 15.674 1.68992C16.019 2.04992 16.296 2.54001 16.504 3.16001C16.713 3.78001 16.818 4.55997 16.818 5.48997C16.818 6.39997 16.731 7.20001 16.559 7.9C16.39 8.6 16.145 9.19003 15.823 9.67002C15.505 10.15 15.117 10.52 14.66 10.77C14.206 11.01 13.692 11.14 13.119 11.14C12.549 11.14 12.04 11.03 11.593 10.8C11.148 10.57 10.784 10.26 10.499 9.84996C10.217 9.43996 10.036 8.97003 9.957 8.43003H11.17C11.279 8.90003 11.496 9.28995 11.821 9.58995C12.149 9.88995 12.582 10.05 13.119 10.05C13.904 10.05 14.524 9.7 14.978 9.02C15.436 8.33 15.664 7.35997 15.664 6.10997H15.585C15.399 6.38997 15.179 6.62994 14.923 6.82994C14.668 7.02994 14.385 7.19003 14.073 7.30003C13.762 7.41003 13.43 7.45994 13.079 7.45994C12.496 7.45994 11.96 7.32001 11.473 7.03001C10.989 6.74001 10.602 6.33994 10.31 5.82994C10.021 5.31994 9.87701 4.73994 9.87701 4.07994C9.87701 3.45994 10.017 2.88998 10.295 2.36998C10.577 1.84998 10.971 1.42999 11.478 1.12999C11.989 0.819985 12.588 0.670034 13.278 0.680034ZM13.278 1.77C12.86 1.77 12.484 1.87995 12.149 2.08995C11.818 2.28995 11.554 2.57002 11.359 2.92002C11.167 3.27002 11.07 3.65994 11.07 4.07994C11.07 4.49994 11.163 4.88997 11.349 5.23997C11.538 5.57997 11.795 5.86004 12.119 6.06004C12.448 6.27004 12.82 6.36998 13.238 6.36998C13.553 6.36998 13.846 6.31003 14.118 6.18003C14.39 6.06003 14.627 5.89002 14.829 5.67002C15.035 5.45002 15.195 5.20003 15.311 4.93003C15.427 4.65003 15.485 4.36004 15.485 4.06004C15.485 3.66004 15.389 3.28992 15.197 2.93992C15.008 2.58992 14.746 2.30996 14.411 2.09996C14.08 1.87996 13.702 1.77 13.278 1.77ZM19.292 11.0799C19.047 11.0799 18.837 10.9899 18.661 10.8199C18.485 10.6399 18.397 10.43 18.397 10.18C18.397 9.94003 18.485 9.73003 18.661 9.55003C18.837 9.38003 19.047 9.29002 19.292 9.29002C19.538 9.29002 19.748 9.38003 19.924 9.55003C20.099 9.73003 20.187 9.94003 20.187 10.18C20.187 10.35 20.146 10.5 20.063 10.63C19.983 10.77 19.876 10.8799 19.74 10.9599C19.607 11.0399 19.458 11.0799 19.292 11.0799ZM25.238 11.14C24.489 11.14 23.851 10.94 23.324 10.53C22.797 10.12 22.395 9.51997 22.116 8.73997C21.838 7.95997 21.699 7.02001 21.699 5.91001C21.699 4.81001 21.838 3.86995 22.116 3.08995C22.398 2.30995 22.802 1.71003 23.329 1.30003C23.859 0.890029 24.496 0.680034 25.238 0.680034C25.981 0.680034 26.615 0.890029 27.142 1.30003C27.673 1.71003 28.077 2.30995 28.355 3.08995C28.637 3.86995 28.778 4.81001 28.778 5.91001C28.778 7.02001 28.639 7.95997 28.36 8.73997C28.082 9.51997 27.679 10.12 27.152 10.53C26.625 10.94 25.987 11.14 25.238 11.14ZM25.238 10.05C25.981 10.05 26.557 9.68995 26.968 8.96995C27.379 8.25995 27.585 7.23001 27.585 5.91001C27.585 5.03001 27.49 4.28001 27.301 3.66001C27.116 3.04001 26.847 2.55997 26.496 2.23997C26.148 1.91997 25.729 1.74998 25.238 1.74998C24.502 1.74998 23.927 2.11995 23.513 2.83995C23.099 3.55995 22.892 4.59001 22.892 5.91001C22.892 6.79001 22.984 7.54001 23.17 8.16001C23.356 8.77001 23.623 9.24004 23.971 9.56004C24.322 9.88004 24.744 10.05 25.238 10.05ZM33.988 11.14C33.239 11.14 32.601 10.94 32.074 10.53C31.547 10.12 31.145 9.51997 30.866 8.73997C30.588 7.95997 30.449 7.02001 30.449 5.91001C30.449 4.81001 30.588 3.86995 30.866 3.08995C31.148 2.30995 31.552 1.71003 32.079 1.30003C32.609 0.890029 33.246 0.680034 33.988 0.680034C34.731 0.680034 35.365 0.890029 35.892 1.30003C36.423 1.71003 36.827 2.30995 37.105 3.08995C37.387 3.86995 37.528 4.81001 37.528 5.91001C37.528 7.02001 37.389 7.95997 37.11 8.73997C36.832 9.51997 36.429 10.12 35.902 10.53C35.375 10.94 34.737 11.14 33.988 11.14ZM33.988 10.05C34.731 10.05 35.307 9.68995 35.718 8.96995C36.129 8.25995 36.335 7.23001 36.335 5.91001C36.335 5.03001 36.24 4.28001 36.051 3.66001C35.866 3.04001 35.597 2.55997 35.246 2.23997C34.898 1.91997 34.479 1.74998 33.988 1.74998C33.252 1.74998 32.677 2.11995 32.263 2.83995C31.849 3.55995 31.642 4.59001 31.642 5.91001C31.642 6.79001 31.734 7.54001 31.92 8.16001C32.106 8.77001 32.373 9.24004 32.721 9.56004C33.072 9.88004 33.494 10.05 33.988 10.05Z" fill="#5F6980"/>
</svg>
