<svg width="46" height="12" viewBox="0 0 46 12" fill="none" xmlns="http://www.w3.org/2000/svg">
<path d="M6.80103 3.35999C6.74103 2.85999 6.50004 2.46994 6.07504 2.18994C5.65104 1.90994 5.13104 1.77002 4.51404 1.77002C4.06304 1.77002 3.66902 1.84999 3.33102 1.98999C2.99602 2.13999 2.73404 2.33997 2.54504 2.58997C2.36004 2.84997 2.26703 3.13996 2.26703 3.45996C2.26703 3.72996 2.33203 3.97003 2.46103 4.16003C2.59403 4.36003 2.76302 4.52002 2.96802 4.65002C3.17402 4.77002 3.38904 4.87996 3.61404 4.95996C3.84004 5.03996 4.04702 5.10002 4.23602 5.15002L5.27002 5.43005C5.53502 5.50005 5.83003 5.59997 6.15503 5.71997C6.48303 5.83997 6.79602 6.00997 7.09402 6.21997C7.39602 6.42997 7.64503 6.70003 7.84003 7.03003C8.03603 7.36003 8.13403 7.75999 8.13403 8.23999C8.13403 8.78999 7.98902 9.27998 7.70102 9.72998C7.41602 10.17 6.99803 10.52 6.44803 10.79C5.90103 11.05 5.23702 11.1801 4.45502 11.1801C3.72502 11.1801 3.09403 11.06 2.56003 10.83C2.03003 10.59 1.61204 10.26 1.30804 9.83997C1.00604 9.41997 0.835044 8.93001 0.795044 8.38H2.06802C2.10102 8.76 2.23102 9.07996 2.45602 9.32996C2.68502 9.57996 2.97304 9.76001 3.32104 9.89001C3.67204 10.01 4.05002 10.0699 4.45502 10.0699C4.92502 10.0699 5.34802 9.98997 5.72202 9.83997C6.09702 9.67997 6.39303 9.46994 6.61203 9.18994C6.83103 8.90994 6.94003 8.58997 6.94003 8.21997C6.94003 7.87997 6.84604 7.60001 6.65704 7.39001C6.46804 7.18001 6.21904 7.00999 5.91104 6.87C5.60304 6.74 5.27002 6.62003 4.91202 6.53003L3.65903 6.17004C2.86403 5.94004 2.23402 5.60994 1.77002 5.18994C1.30602 4.75994 1.07404 4.21002 1.07404 3.52002C1.07404 2.95002 1.22804 2.46003 1.53604 2.03003C1.84804 1.60003 2.26503 1.27004 2.78903 1.04004C3.31603 0.800039 3.90402 0.680054 4.55402 0.680054C5.21002 0.680054 5.79402 0.800029 6.30402 1.03003C6.81402 1.26003 7.21903 1.57999 7.51703 1.98999C7.81903 2.38999 7.97802 2.84999 7.99402 3.35999H6.80103ZM13.104 11.16C12.414 11.16 11.81 11 11.289 10.67C10.772 10.34 10.368 9.88004 10.076 9.29004C9.78802 8.70004 9.64404 8.00997 9.64404 7.21997C9.64404 6.42997 9.78802 5.73001 10.076 5.14001C10.368 4.55001 10.772 4.08001 11.289 3.76001C11.81 3.43001 12.414 3.26001 13.104 3.26001C13.793 3.26001 14.396 3.43001 14.914 3.76001C15.434 4.08001 15.838 4.55001 16.127 5.14001C16.418 5.73001 16.564 6.42997 16.564 7.21997C16.564 8.00997 16.418 8.70004 16.127 9.29004C15.838 9.88004 15.434 10.34 14.914 10.67C14.396 11 13.793 11.16 13.104 11.16ZM13.104 10.11C13.628 10.11 14.058 9.96995 14.396 9.69995C14.735 9.42995 14.985 9.08001 15.147 8.64001C15.31 8.21001 15.391 7.72997 15.391 7.21997C15.391 6.70997 15.31 6.24004 15.147 5.79004C14.985 5.35004 14.735 4.99998 14.396 4.72998C14.058 4.44998 13.628 4.31995 13.104 4.31995C12.58 4.31995 12.149 4.44998 11.811 4.72998C11.473 4.99998 11.223 5.35004 11.061 5.79004C10.898 6.24004 10.817 6.70997 10.817 7.21997C10.817 7.72997 10.898 8.21001 11.061 8.64001C11.223 9.08001 11.473 9.42995 11.811 9.69995C12.149 9.96995 12.58 10.11 13.104 10.11ZM23.168 7.88V3.35999H24.341V11H23.168V9.70996H23.088C22.909 10.1 22.631 10.42 22.253 10.7C21.875 10.97 21.398 11.1 20.821 11.1C20.344 11.1 19.92 11 19.548 10.79C19.177 10.57 18.885 10.26 18.673 9.82996C18.461 9.39996 18.355 8.86997 18.355 8.21997V3.35999H19.528V8.14001C19.528 8.69001 19.684 9.13997 19.996 9.46997C20.311 9.79997 20.712 9.96997 21.199 9.96997C21.491 9.96997 21.787 9.88999 22.089 9.73999C22.394 9.58999 22.649 9.36006 22.854 9.06006C23.063 8.75006 23.168 8.36 23.168 7.88ZM26.49 11V3.35999H27.623V4.52002H27.703C27.842 4.14002 28.094 3.82998 28.459 3.59998C28.823 3.35998 29.234 3.23999 29.692 3.23999C29.778 3.23999 29.885 3.25 30.015 3.25C30.144 3.25 30.242 3.26001 30.308 3.26001V4.45996C30.268 4.44996 30.177 4.43003 30.035 4.41003C29.895 4.39003 29.748 4.38 29.592 4.38C29.221 4.38 28.89 4.45999 28.598 4.60999C28.309 4.75999 28.081 4.98 27.912 5.25C27.746 5.52 27.663 5.82004 27.663 6.17004V11H26.49ZM34.569 11.16C33.853 11.16 33.236 10.99 32.719 10.65C32.202 10.31 31.805 9.85 31.526 9.25C31.248 8.66 31.108 7.97997 31.108 7.21997C31.108 6.44997 31.251 5.76004 31.536 5.17004C31.824 4.57004 32.225 4.11002 32.739 3.77002C33.256 3.43002 33.859 3.26001 34.549 3.26001C35.086 3.26001 35.57 3.36006 36.001 3.56006C36.431 3.76006 36.784 4.04002 37.059 4.40002C37.335 4.76002 37.505 5.17002 37.572 5.65002H36.398C36.309 5.30002 36.11 4.98998 35.802 4.72998C35.497 4.44998 35.086 4.31995 34.569 4.31995C34.111 4.31995 33.71 4.44005 33.366 4.68005C33.024 4.91005 32.757 5.24005 32.565 5.68005C32.376 6.10005 32.282 6.61005 32.282 7.18005C32.282 7.77005 32.375 8.28997 32.56 8.71997C32.749 9.15997 33.014 9.49999 33.356 9.73999C33.7 9.97999 34.105 10.11 34.569 10.11C34.874 10.11 35.15 10.05 35.399 9.94995C35.648 9.83995 35.858 9.68999 36.03 9.48999C36.203 9.28999 36.325 9.05002 36.398 8.77002H37.572C37.505 9.22002 37.341 9.62999 37.079 9.98999C36.821 10.35 36.478 10.63 36.05 10.85C35.626 11.05 35.132 11.16 34.569 11.16ZM42.488 11.16C41.753 11.16 41.118 11 40.584 10.67C40.054 10.34 39.645 9.89005 39.356 9.30005C39.071 8.71005 38.929 8.01999 38.929 7.23999C38.929 6.45999 39.071 5.77004 39.356 5.17004C39.645 4.57004 40.046 4.11002 40.559 3.77002C41.077 3.43002 41.68 3.26001 42.369 3.26001C42.767 3.26001 43.16 3.32996 43.547 3.45996C43.935 3.59996 44.288 3.80999 44.606 4.10999C44.925 4.39999 45.178 4.80003 45.367 5.28003C45.556 5.77003 45.65 6.36996 45.65 7.07996V7.57996H39.764V6.56995H44.457C44.457 6.12995 44.371 5.75003 44.199 5.41003C44.03 5.07003 43.788 4.80999 43.473 4.60999C43.161 4.41999 42.793 4.31995 42.369 4.31995C41.902 4.31995 41.497 4.43004 41.156 4.67004C40.818 4.89004 40.558 5.19006 40.376 5.56006C40.193 5.93006 40.102 6.31999 40.102 6.73999V7.42004C40.102 8.00004 40.202 8.49001 40.4 8.89001C40.603 9.28001 40.883 9.59005 41.241 9.80005C41.599 10 42.015 10.11 42.488 10.11C42.797 10.11 43.075 10.06 43.324 9.97998C43.576 9.88998 43.793 9.74996 43.975 9.57996C44.157 9.39996 44.298 9.18003 44.398 8.91003L45.531 9.22998C45.412 9.60998 45.211 9.94999 44.93 10.24C44.648 10.53 44.3 10.76 43.885 10.92C43.471 11.08 43.006 11.16 42.488 11.16Z" fill="#5F6980"/>
</svg>
