<svg width="12" height="17" viewBox="0 0 12 17" fill="none" xmlns="http://www.w3.org/2000/svg">
<path fill-rule="evenodd" clip-rule="evenodd" d="M2.94532 4.66699C2.94532 3.17099 4.15793 1.95901 5.65363 1.95901C7.14943 1.95901 8.36202 3.17099 8.36202 4.66699C8.36202 6.16299 7.14943 7.375 5.65363 7.375C4.15793 7.375 2.94532 6.16299 2.94532 4.66699ZM5.65363 0.709015C3.46753 0.709015 1.69532 2.48099 1.69532 4.66699C1.69532 6.85299 3.46753 8.625 5.65363 8.625C7.83983 8.625 9.61202 6.85299 9.61202 4.66699C9.61202 2.48099 7.83983 0.709015 5.65363 0.709015ZM2.07192 11.832C2.57982 11.324 3.26872 11.039 3.98702 11.039H7.32032C8.03862 11.039 8.72753 11.324 9.23543 11.832C9.74333 12.34 10.0286 13.029 10.0286 13.747V15.414C10.0286 15.759 10.3085 16.039 10.6536 16.039C10.9988 16.039 11.2786 15.759 11.2786 15.414V13.747C11.2786 12.698 10.8616 11.691 10.1193 10.948C9.37693 10.206 8.37012 9.789 7.32032 9.789H3.98702C2.93722 9.789 1.93032 10.206 1.18802 10.948C0.445725 11.691 0.0286255 12.698 0.0286255 13.747V15.414C0.0286255 15.759 0.308526 16.039 0.653625 16.039C0.998825 16.039 1.27863 15.759 1.27863 15.414V13.747C1.27863 13.029 1.56402 12.34 2.07192 11.832Z" fill="#5F6980"/>
</svg>
