<svg width="33" height="16" viewBox="0 0 33 16" fill="none" xmlns="http://www.w3.org/2000/svg">
<path d="M5.45697 0.910034V14H3.87201V2.56995H3.79498L0.598999 4.68994V3.07996L3.87201 0.910034H5.45697ZM13.876 0.300049L9.65698 15.97H8.276L12.495 0.300049H13.876ZM20.241 0.910034V14H18.655V2.56995H18.579L15.383 4.68994V3.07996L18.655 0.910034H20.241ZM28.096 14.1801C27.346 14.1801 26.671 14.03 26.07 13.73C25.469 13.43 24.988 13.02 24.626 12.5C24.263 11.98 24.065 11.39 24.031 10.73H25.565C25.625 11.32 25.893 11.81 26.371 12.2C26.852 12.58 27.427 12.77 28.096 12.77C28.633 12.77 29.111 12.65 29.528 12.4C29.95 12.14 30.28 11.8 30.519 11.36C30.762 10.92 30.883 10.42 30.883 9.85999C30.883 9.28999 30.758 8.77996 30.506 8.32996C30.259 7.87996 29.918 7.52001 29.483 7.26001C29.049 7.00001 28.552 6.87 27.994 6.87C27.594 6.85999 27.182 6.92005 26.76 7.05005C26.339 7.18005 25.991 7.34003 25.719 7.53003L24.236 7.34998L25.028 0.910034H31.829V2.31995H26.358L25.898 6.18005H25.974C26.243 5.96005 26.579 5.79002 26.984 5.65002C27.389 5.50002 27.811 5.43005 28.25 5.43005C29.051 5.43005 29.765 5.63001 30.391 6.01001C31.022 6.39001 31.516 6.90995 31.874 7.56995C32.236 8.22995 32.417 8.97996 32.417 9.82996C32.417 10.67 32.23 11.4099 31.855 12.0699C31.484 12.7199 30.973 13.24 30.321 13.62C29.669 13.99 28.927 14.1801 28.096 14.1801Z" fill="#282828"/>
</svg>
