<svg width="46" height="12" viewBox="0 0 46 12" fill="none" xmlns="http://www.w3.org/2000/svg">
<path d="M4.435 11.14C4.017 11.13 3.59901 11.05 3.18201 10.9C2.76401 10.75 2.38299 10.49 2.03799 10.13C1.69399 9.77001 1.41701 9.27002 1.20801 8.65002C0.999008 8.03002 0.894989 7.25006 0.894989 6.31006C0.894989 5.41006 0.97901 4.61003 1.14801 3.91003C1.31701 3.21003 1.563 2.62002 1.884 2.15002C2.206 1.67002 2.594 1.30005 3.048 1.05005C3.505 0.800049 4.01999 0.680054 4.59399 0.680054C5.16399 0.680054 5.67099 0.79002 6.11499 1.02002C6.56299 1.25002 6.92701 1.55997 7.20901 1.96997C7.49101 2.36997 7.67301 2.83999 7.75601 3.35999H6.543C6.43 2.90999 6.21099 2.52998 5.88599 2.22998C5.56199 1.91998 5.13099 1.77002 4.59399 1.77002C3.80499 1.77002 3.183 2.12005 2.729 2.80005C2.279 3.49005 2.052 4.44994 2.048 5.68994H2.12799C2.31299 5.40994 2.534 5.16997 2.789 4.96997C3.048 4.76997 3.33301 4.61 3.64401 4.5C3.95601 4.39 4.286 4.33997 4.634 4.33997C5.217 4.33997 5.75001 4.48003 6.23401 4.78003C6.71801 5.06003 7.10601 5.45997 7.39801 5.96997C7.68901 6.47997 7.83499 7.05997 7.83499 7.71997C7.83499 8.34997 7.69399 8.92995 7.41299 9.44995C7.13099 9.96995 6.735 10.3799 6.224 10.6899C5.717 10.9999 5.121 11.15 4.435 11.14ZM4.435 10.05C4.852 10.05 5.22701 9.93998 5.55801 9.72998C5.89301 9.51998 6.156 9.24002 6.349 8.89001C6.544 8.54001 6.642 8.14997 6.642 7.71997C6.642 7.29997 6.54801 6.91995 6.35901 6.56995C6.17301 6.21995 5.91601 5.94999 5.58801 5.73999C5.26301 5.52999 4.892 5.43005 4.474 5.43005C4.16 5.43005 3.86599 5.49 3.59399 5.62C3.32299 5.74 3.084 5.91001 2.879 6.13C2.676 6.34 2.517 6.58999 2.401 6.87C2.285 7.14 2.22699 7.42999 2.22699 7.73999C2.22699 8.13999 2.32199 8.52 2.51099 8.87C2.70299 9.22 2.96499 9.50997 3.29599 9.71997C3.63099 9.93997 4.01 10.05 4.435 10.05ZM13.052 11.14C12.369 11.14 11.766 11.02 11.242 10.78C10.722 10.53 10.316 10.19 10.024 9.77002C9.73199 9.34002 9.588 8.85005 9.591 8.30005C9.588 7.86005 9.673 7.46998 9.845 7.09998C10.017 6.72998 10.253 6.43005 10.551 6.18005C10.853 5.93005 11.189 5.77996 11.56 5.70996V5.65002C11.073 5.52002 10.685 5.24996 10.397 4.82996C10.108 4.40996 9.96599 3.92 9.96899 3.38C9.96599 2.87 10.097 2.4 10.362 2C10.627 1.59 10.992 1.27003 11.456 1.03003C11.923 0.800029 12.455 0.680054 13.052 0.680054C13.642 0.680054 14.169 0.800029 14.633 1.03003C15.097 1.27003 15.461 1.59 15.726 2C15.995 2.4 16.131 2.87 16.134 3.38C16.131 3.92 15.983 4.40996 15.692 4.82996C15.403 5.24996 15.02 5.52002 14.543 5.65002V5.70996C14.911 5.77996 15.242 5.93005 15.537 6.18005C15.832 6.43005 16.068 6.72998 16.243 7.09998C16.419 7.46998 16.509 7.86005 16.512 8.30005C16.509 8.85005 16.359 9.34002 16.064 9.77002C15.773 10.19 15.367 10.53 14.846 10.78C14.329 11.02 13.731 11.14 13.052 11.14ZM13.052 10.05C13.512 10.05 13.91 9.96995 14.245 9.81995C14.58 9.66995 14.838 9.45994 15.02 9.18994C15.203 8.91994 15.296 8.59999 15.299 8.23999C15.296 7.84999 15.196 7.50997 15.001 7.21997C14.805 6.91997 14.538 6.69002 14.2 6.52002C13.865 6.35002 13.483 6.27002 13.052 6.27002C12.617 6.27002 12.23 6.35002 11.888 6.52002C11.55 6.69002 11.283 6.91997 11.088 7.21997C10.896 7.50997 10.801 7.84999 10.805 8.23999C10.801 8.59999 10.889 8.91994 11.068 9.18994C11.25 9.45994 11.51 9.66995 11.849 9.81995C12.187 9.96995 12.588 10.05 13.052 10.05ZM13.052 5.20996C13.416 5.20996 13.739 5.13999 14.021 4.98999C14.306 4.84999 14.53 4.64 14.692 4.38C14.855 4.12 14.938 3.80996 14.941 3.45996C14.938 3.11996 14.856 2.82006 14.697 2.56006C14.538 2.30006 14.318 2.10997 14.036 1.96997C13.754 1.81997 13.426 1.75 13.052 1.75C12.671 1.75 12.337 1.81997 12.052 1.96997C11.767 2.10997 11.547 2.30006 11.391 2.56006C11.235 2.82006 11.159 3.11996 11.162 3.45996C11.159 3.80996 11.237 4.12 11.396 4.38C11.559 4.64 11.782 4.84999 12.067 4.98999C12.352 5.13999 12.68 5.20996 13.052 5.20996ZM21.798 11.14C21.38 11.13 20.963 11.05 20.545 10.9C20.127 10.75 19.746 10.49 19.402 10.13C19.057 9.77001 18.78 9.27002 18.571 8.65002C18.363 8.03002 18.258 7.25006 18.258 6.31006C18.258 5.41006 18.343 4.61003 18.512 3.91003C18.681 3.21003 18.926 2.62002 19.248 2.15002C19.569 1.67002 19.957 1.30005 20.411 1.05005C20.868 0.800049 21.384 0.680054 21.957 0.680054C22.527 0.680054 23.034 0.79002 23.478 1.02002C23.926 1.25002 24.29 1.55997 24.572 1.96997C24.854 2.36997 25.036 2.83999 25.119 3.35999H23.906C23.793 2.90999 23.574 2.52998 23.25 2.22998C22.925 1.91998 22.494 1.77002 21.957 1.77002C21.168 1.77002 20.547 2.12005 20.093 2.80005C19.642 3.49005 19.415 4.44994 19.412 5.68994H19.491C19.677 5.40994 19.897 5.16997 20.152 4.96997C20.411 4.76997 20.696 4.61 21.007 4.5C21.319 4.39 21.649 4.33997 21.997 4.33997C22.58 4.33997 23.114 4.48003 23.598 4.78003C24.082 5.06003 24.469 5.45997 24.761 5.96997C25.053 6.47997 25.199 7.05997 25.199 7.71997C25.199 8.34997 25.058 8.92995 24.776 9.44995C24.494 9.96995 24.098 10.3799 23.588 10.6899C23.081 10.9999 22.484 11.15 21.798 11.14ZM21.798 10.05C22.216 10.05 22.59 9.93998 22.922 9.72998C23.256 9.51998 23.52 9.24002 23.712 8.89001C23.908 8.54001 24.005 8.14997 24.005 7.71997C24.005 7.29997 23.911 6.91995 23.722 6.56995C23.536 6.21995 23.279 5.94999 22.951 5.73999C22.627 5.52999 22.255 5.43005 21.838 5.43005C21.523 5.43005 21.23 5.49 20.958 5.62C20.686 5.74 20.447 5.91001 20.242 6.13C20.04 6.34 19.881 6.58999 19.765 6.87C19.649 7.14 19.591 7.42999 19.591 7.73999C19.591 8.13999 19.685 8.52 19.874 8.87C20.066 9.22 20.328 9.50997 20.659 9.71997C20.994 9.93997 21.374 10.05 21.798 10.05ZM27.55 11.08C27.305 11.08 27.094 10.9899 26.919 10.8199C26.743 10.6399 26.655 10.4301 26.655 10.1801C26.655 9.94005 26.743 9.73005 26.919 9.55005C27.094 9.38005 27.305 9.29004 27.55 9.29004C27.795 9.29004 28.006 9.38005 28.181 9.55005C28.357 9.73005 28.445 9.94005 28.445 10.1801C28.445 10.3501 28.404 10.5 28.321 10.63C28.241 10.77 28.133 10.88 27.998 10.96C27.865 11.04 27.716 11.08 27.55 11.08ZM33.496 11.14C32.747 11.14 32.109 10.94 31.582 10.53C31.055 10.12 30.652 9.51999 30.374 8.73999C30.096 7.95999 29.956 7.02003 29.956 5.91003C29.956 4.81003 30.096 3.86997 30.374 3.08997C30.656 2.30997 31.06 1.71005 31.587 1.30005C32.117 0.890049 32.754 0.680054 33.496 0.680054C34.239 0.680054 34.873 0.890049 35.4 1.30005C35.931 1.71005 36.335 2.30997 36.613 3.08997C36.895 3.86997 37.036 4.81003 37.036 5.91003C37.036 7.02003 36.897 7.95999 36.618 8.73999C36.34 9.51999 35.937 10.12 35.41 10.53C34.883 10.94 34.245 11.14 33.496 11.14ZM33.496 10.05C34.239 10.05 34.815 9.68997 35.226 8.96997C35.637 8.25997 35.843 7.23003 35.843 5.91003C35.843 5.03003 35.748 4.28003 35.559 3.66003C35.374 3.04003 35.105 2.55999 34.754 2.23999C34.406 1.91999 33.987 1.75 33.496 1.75C32.76 1.75 32.185 2.11997 31.771 2.83997C31.357 3.55997 31.15 4.59003 31.15 5.91003C31.15 6.79003 31.242 7.54003 31.428 8.16003C31.614 8.77003 31.88 9.24006 32.228 9.56006C32.58 9.88006 33.002 10.05 33.496 10.05ZM42.246 11.14C41.497 11.14 40.859 10.94 40.332 10.53C39.805 10.12 39.402 9.51999 39.124 8.73999C38.846 7.95999 38.706 7.02003 38.706 5.91003C38.706 4.81003 38.846 3.86997 39.124 3.08997C39.406 2.30997 39.81 1.71005 40.337 1.30005C40.867 0.890049 41.504 0.680054 42.246 0.680054C42.989 0.680054 43.623 0.890049 44.15 1.30005C44.681 1.71005 45.085 2.30997 45.363 3.08997C45.645 3.86997 45.786 4.81003 45.786 5.91003C45.786 7.02003 45.647 7.95999 45.368 8.73999C45.09 9.51999 44.687 10.12 44.16 10.53C43.633 10.94 42.995 11.14 42.246 11.14ZM42.246 10.05C42.989 10.05 43.565 9.68997 43.976 8.96997C44.387 8.25997 44.593 7.23003 44.593 5.91003C44.593 5.03003 44.498 4.28003 44.309 3.66003C44.124 3.04003 43.855 2.55999 43.504 2.23999C43.156 1.91999 42.737 1.75 42.246 1.75C41.51 1.75 40.935 2.11997 40.521 2.83997C40.107 3.55997 39.9 4.59003 39.9 5.91003C39.9 6.79003 39.992 7.54003 40.178 8.16003C40.364 8.77003 40.63 9.24006 40.978 9.56006C41.33 9.88006 41.752 10.05 42.246 10.05Z" fill="#5F6980"/>
</svg>
