<svg width="285" height="15" viewBox="0 0 285 15" fill="none" xmlns="http://www.w3.org/2000/svg">
<path d="M8.19296 4C8.08396 3.665 7.93996 3.36501 7.76096 3.10001C7.58496 2.83201 7.37497 2.603 7.12897 2.414C6.88697 2.225 6.61196 2.08099 6.30396 1.98199C5.99595 1.88199 5.65798 1.832 5.28998 1.832C4.68698 1.832 4.13798 1.988 3.64398 2.3C3.14998 2.611 2.75797 3.07 2.46597 3.677C2.17397 4.283 2.02798 5.027 2.02798 5.909C2.02798 6.791 2.17598 7.53501 2.47098 8.14101C2.76598 8.74801 3.16498 9.20701 3.66898 9.51801C4.17298 9.83001 4.73996 9.98599 5.36896 9.98599C5.95296 9.98599 6.46598 9.86201 6.91098 9.61301C7.35798 9.36101 7.70596 9.006 7.95496 8.549C8.20596 8.088 8.33197 7.546 8.33197 6.923L8.70996 7.00301H5.64798V5.909H9.52597V7.00301C9.52597 7.84101 9.34698 8.571 8.98898 9.19C8.63398 9.81 8.14297 10.291 7.51697 10.632C6.89397 10.97 6.17796 11.139 5.36896 11.139C4.46796 11.139 3.67598 10.927 2.99298 10.503C2.31298 10.079 1.78298 9.47499 1.40198 8.69299C1.02398 7.91099 0.834961 6.983 0.834961 5.909C0.834961 5.104 0.942959 4.379 1.15796 3.737C1.37696 3.09 1.68498 2.54 2.08298 2.086C2.48098 1.632 2.95096 1.28401 3.49496 1.04201C4.03896 0.800007 4.63698 0.679001 5.28998 0.679001C5.82698 0.679001 6.32695 0.760004 6.79095 0.923004C7.25895 1.082 7.67397 1.309 8.03897 1.604C8.40697 1.895 8.71398 2.245 8.95898 2.653C9.20398 3.057 9.37297 3.506 9.46597 4H8.19296ZM14.68 11.159C13.944 11.159 13.309 10.997 12.776 10.672C12.245 10.344 11.836 9.886 11.548 9.3C11.263 8.71 11.12 8.024 11.12 7.241C11.12 6.459 11.263 5.77 11.548 5.173C11.836 4.573 12.237 4.106 12.751 3.771C13.268 3.433 13.871 3.26401 14.561 3.26401C14.958 3.26401 15.351 3.33 15.739 3.463C16.127 3.596 16.48 3.81099 16.798 4.10899C17.116 4.40399 17.369 4.795 17.558 5.283C17.747 5.77 17.842 6.37 17.842 7.082V7.58H11.955V6.565H16.649C16.649 6.134 16.562 5.75 16.39 5.412C16.221 5.074 15.979 4.807 15.664 4.612C15.353 4.416 14.985 4.31799 14.561 4.31799C14.093 4.31799 13.689 4.434 13.347 4.666C13.009 4.895 12.749 5.193 12.567 5.561C12.385 5.929 12.294 6.323 12.294 6.744V7.42C12.294 7.997 12.393 8.48599 12.592 8.88699C12.794 9.28499 13.074 9.588 13.432 9.797C13.79 10.002 14.206 10.105 14.68 10.105C14.988 10.105 15.267 10.062 15.515 9.976C15.767 9.886 15.984 9.754 16.166 9.578C16.349 9.399 16.49 9.177 16.589 8.912L17.722 9.23C17.603 9.615 17.403 9.953 17.121 10.244C16.839 10.533 16.491 10.758 16.077 10.92C15.663 11.08 15.197 11.159 14.68 11.159ZM22.948 3.364V4.358H18.99V3.364H22.948ZM20.144 1.534H21.317V8.812C21.317 9.144 21.365 9.393 21.461 9.558C21.561 9.721 21.686 9.83 21.839 9.886C21.995 9.939 22.159 9.966 22.331 9.966C22.46 9.966 22.566 9.959 22.649 9.946C22.732 9.929 22.798 9.91601 22.848 9.90601L23.087 10.96C23.007 10.99 22.896 11.02 22.754 11.05C22.611 11.083 22.431 11.099 22.212 11.099C21.88 11.099 21.556 11.028 21.237 10.886C20.923 10.743 20.661 10.526 20.452 10.234C20.246 9.94299 20.144 9.575 20.144 9.131V1.534ZM33.463 7.87801V3.364H34.636V11H33.463V9.707H33.383C33.204 10.095 32.926 10.425 32.548 10.697C32.17 10.965 31.693 11.099 31.116 11.099C30.639 11.099 30.214 10.995 29.843 10.786C29.472 10.574 29.18 10.256 28.968 9.832C28.756 9.404 28.65 8.866 28.65 8.216V3.364H29.823V8.136C29.823 8.693 29.979 9.13699 30.291 9.46899C30.606 9.79999 31.007 9.966 31.494 9.966C31.785 9.966 32.082 9.891 32.384 9.742C32.689 9.593 32.944 9.364 33.149 9.056C33.358 8.748 33.463 8.35501 33.463 7.87801ZM36.785 13.864V3.364H37.918V4.577H38.058C38.144 4.444 38.263 4.27501 38.415 4.07001C38.571 3.86101 38.793 3.675 39.082 3.513C39.373 3.347 39.768 3.26401 40.265 3.26401C40.908 3.26401 41.475 3.425 41.965 3.746C42.456 4.068 42.839 4.524 43.114 5.114C43.389 5.704 43.526 6.4 43.526 7.202C43.526 8.01 43.389 8.71099 43.114 9.30499C42.839 9.89499 42.457 10.352 41.97 10.677C41.483 10.998 40.921 11.159 40.285 11.159C39.794 11.159 39.402 11.078 39.107 10.915C38.812 10.75 38.585 10.562 38.425 10.354C38.266 10.142 38.144 9.966 38.058 9.827H37.958V13.864H36.785ZM37.938 7.18201C37.938 7.75901 38.023 8.26699 38.192 8.70799C38.361 9.14599 38.608 9.489 38.933 9.737C39.257 9.982 39.655 10.105 40.126 10.105C40.616 10.105 41.026 9.976 41.354 9.717C41.685 9.455 41.934 9.10399 42.099 8.66299C42.268 8.21899 42.353 7.72501 42.353 7.18201C42.353 6.64501 42.27 6.161 42.104 5.73C41.942 5.296 41.695 4.953 41.364 4.701C41.036 4.446 40.623 4.31799 40.126 4.31799C39.648 4.31799 39.247 4.439 38.923 4.681C38.598 4.92 38.353 5.254 38.187 5.685C38.021 6.113 37.938 6.61201 37.938 7.18201ZM52.575 3.364V4.358H48.617V3.364H52.575ZM49.771 1.534H50.944V8.812C50.944 9.144 50.992 9.393 51.088 9.558C51.188 9.721 51.313 9.83 51.466 9.886C51.622 9.939 51.786 9.966 51.958 9.966C52.087 9.966 52.193 9.959 52.276 9.946C52.359 9.929 52.425 9.91601 52.475 9.90601L52.714 10.96C52.634 10.99 52.523 11.02 52.381 11.05C52.238 11.083 52.058 11.099 51.839 11.099C51.507 11.099 51.183 11.028 50.864 10.886C50.549 10.743 50.288 10.526 50.079 10.234C49.873 9.94299 49.771 9.575 49.771 9.131V1.534ZM57.36 11.159C56.67 11.159 56.065 10.995 55.545 10.667C55.028 10.339 54.624 9.87999 54.332 9.28999C54.044 8.69999 53.9 8.01 53.9 7.222C53.9 6.426 54.044 5.732 54.332 5.138C54.624 4.545 55.028 4.085 55.545 3.756C56.065 3.428 56.67 3.26401 57.36 3.26401C58.049 3.26401 58.652 3.428 59.169 3.756C59.69 4.085 60.094 4.545 60.382 5.138C60.674 5.732 60.82 6.426 60.82 7.222C60.82 8.01 60.674 8.69999 60.382 9.28999C60.094 9.87999 59.69 10.339 59.169 10.667C58.652 10.995 58.049 11.159 57.36 11.159ZM57.36 10.105C57.883 10.105 58.314 9.971 58.652 9.702C58.99 9.434 59.241 9.08101 59.403 8.64301C59.565 8.20601 59.647 7.732 59.647 7.222C59.647 6.711 59.565 6.236 59.403 5.795C59.241 5.354 58.99 4.998 58.652 4.726C58.314 4.454 57.883 4.31799 57.36 4.31799C56.836 4.31799 56.405 4.454 56.067 4.726C55.729 4.998 55.479 5.354 55.316 5.795C55.154 6.236 55.073 6.711 55.073 7.222C55.073 7.732 55.154 8.20601 55.316 8.64301C55.479 9.08101 55.729 9.434 56.067 9.702C56.405 9.971 56.836 10.105 57.36 10.105ZM70.108 0.817993V11H68.875V2.11099H68.816L66.33 3.761V2.509L68.875 0.817993H70.108ZM76.357 11.139C75.608 11.139 74.97 10.935 74.443 10.528C73.916 10.117 73.514 9.522 73.235 8.743C72.957 7.961 72.818 7.016 72.818 5.909C72.818 4.809 72.957 3.869 73.235 3.09C73.517 2.308 73.921 1.711 74.448 1.3C74.979 0.886003 75.615 0.679001 76.357 0.679001C77.1 0.679001 77.735 0.886003 78.262 1.3C78.792 1.711 79.196 2.308 79.475 3.09C79.756 3.869 79.897 4.809 79.897 5.909C79.897 7.016 79.758 7.961 79.48 8.743C79.201 9.522 78.798 10.117 78.271 10.528C77.744 10.935 77.106 11.139 76.357 11.139ZM76.357 10.045C77.1 10.045 77.677 9.687 78.088 8.972C78.499 8.256 78.704 7.235 78.704 5.909C78.704 5.027 78.61 4.277 78.421 3.657C78.235 3.037 77.967 2.56501 77.615 2.24001C77.267 1.91501 76.848 1.75301 76.357 1.75301C75.622 1.75301 75.047 2.116 74.632 2.842C74.218 3.564 74.011 4.587 74.011 5.909C74.011 6.791 74.104 7.54001 74.289 8.15601C74.475 8.77301 74.742 9.242 75.09 9.563C75.441 9.885 75.864 10.045 76.357 10.045ZM81.409 1.912V0.817993H89.045V1.912H85.843V11H84.61V1.912H81.409ZM90.948 11V0.817993H94.507C95.217 0.817993 95.802 0.941005 96.262 1.186C96.723 1.428 97.066 1.75399 97.292 2.16499C97.517 2.57299 97.63 3.026 97.63 3.52299C97.63 3.96 97.552 4.32099 97.396 4.60699C97.243 4.89199 97.041 5.117 96.789 5.283C96.541 5.448 96.271 5.571 95.979 5.651V5.75C96.291 5.77 96.604 5.879 96.919 6.078C97.234 6.277 97.497 6.562 97.709 6.933C97.921 7.304 98.027 7.759 98.027 8.295C98.027 8.806 97.911 9.265 97.679 9.673C97.447 10.08 97.081 10.403 96.581 10.642C96.08 10.881 95.429 11 94.627 11H90.948ZM92.181 9.90601H94.627C95.432 9.90601 96.004 9.75 96.342 9.439C96.683 9.124 96.854 8.743 96.854 8.295C96.854 7.951 96.766 7.633 96.591 7.341C96.415 7.046 96.165 6.81099 95.84 6.63499C95.515 6.45599 95.131 6.366 94.686 6.366H92.181V9.90601ZM92.181 5.293H94.468C94.839 5.293 95.174 5.22001 95.472 5.07401C95.774 4.92801 96.012 4.723 96.188 4.457C96.367 4.192 96.456 3.881 96.456 3.52299C96.456 3.075 96.301 2.696 95.989 2.384C95.677 2.069 95.184 1.912 94.507 1.912H92.181V5.293ZM106.934 11.159C106.245 11.159 105.64 10.995 105.119 10.667C104.602 10.339 104.198 9.87999 103.906 9.28999C103.618 8.69999 103.474 8.01 103.474 7.222C103.474 6.426 103.618 5.732 103.906 5.138C104.198 4.545 104.602 4.085 105.119 3.756C105.64 3.428 106.245 3.26401 106.934 3.26401C107.623 3.26401 108.227 3.428 108.744 3.756C109.264 4.085 109.668 4.545 109.957 5.138C110.248 5.732 110.394 6.426 110.394 7.222C110.394 8.01 110.248 8.69999 109.957 9.28999C109.668 9.87999 109.264 10.339 108.744 10.667C108.227 10.995 107.623 11.159 106.934 11.159ZM106.934 10.105C107.458 10.105 107.888 9.971 108.227 9.702C108.565 9.434 108.815 9.08101 108.977 8.64301C109.14 8.20601 109.221 7.732 109.221 7.222C109.221 6.711 109.14 6.236 108.977 5.795C108.815 5.354 108.565 4.998 108.227 4.726C107.888 4.454 107.458 4.31799 106.934 4.31799C106.41 4.31799 105.979 4.454 105.641 4.726C105.303 4.998 105.053 5.354 104.891 5.795C104.728 6.236 104.647 6.711 104.647 7.222C104.647 7.732 104.728 8.20601 104.891 8.64301C105.053 9.08101 105.303 9.434 105.641 9.702C105.979 9.971 106.41 10.105 106.934 10.105ZM115.586 3.364V4.358H111.469V3.364H115.586ZM112.702 11V2.31C112.702 1.872 112.805 1.508 113.01 1.216C113.216 0.924003 113.483 0.704998 113.811 0.559998C114.139 0.413998 114.485 0.341003 114.85 0.341003C115.138 0.341003 115.374 0.363995 115.556 0.410995C115.738 0.456995 115.874 0.499993 115.964 0.539993L115.626 1.554C115.566 1.534 115.483 1.509 115.377 1.479C115.274 1.45 115.138 1.435 114.969 1.435C114.581 1.435 114.301 1.532 114.129 1.728C113.96 1.924 113.876 2.21 113.876 2.588V11H112.702ZM126.577 5.07401L125.523 5.37199C125.456 5.19599 125.359 5.026 125.229 4.86C125.103 4.691 124.931 4.552 124.712 4.442C124.494 4.333 124.214 4.278 123.872 4.278C123.405 4.278 123.015 4.386 122.704 4.60201C122.396 4.814 122.241 5.084 122.241 5.412C122.241 5.704 122.348 5.934 122.56 6.103C122.772 6.272 123.103 6.413 123.554 6.526L124.688 6.804C125.37 6.97 125.879 7.223 126.214 7.565C126.549 7.903 126.716 8.33899 126.716 8.87199C126.716 9.30999 126.59 9.701 126.338 10.045C126.089 10.39 125.741 10.662 125.294 10.861C124.847 11.06 124.326 11.159 123.733 11.159C122.954 11.159 122.309 10.99 121.799 10.652C121.289 10.314 120.965 9.82 120.83 9.17L121.943 8.892C122.049 9.303 122.25 9.611 122.545 9.817C122.843 10.022 123.232 10.125 123.713 10.125C124.26 10.125 124.694 10.009 125.016 9.77699C125.34 9.54199 125.503 9.26001 125.503 8.93201C125.503 8.66701 125.41 8.44501 125.224 8.26601C125.039 8.08301 124.754 7.947 124.369 7.858L123.097 7.56C122.397 7.394 121.884 7.137 121.555 6.789C121.231 6.438 121.068 5.999 121.068 5.472C121.068 5.041 121.189 4.66 121.431 4.328C121.676 3.997 122.009 3.737 122.43 3.548C122.855 3.359 123.335 3.26401 123.872 3.26401C124.628 3.26401 125.221 3.43 125.652 3.761C126.086 4.093 126.394 4.53 126.577 5.07401ZM131.803 3.364V4.358H127.846V3.364H131.803ZM128.999 1.534H130.172V8.812C130.172 9.144 130.22 9.393 130.317 9.558C130.416 9.721 130.542 9.83 130.694 9.886C130.85 9.939 131.014 9.966 131.187 9.966C131.316 9.966 131.422 9.959 131.505 9.946C131.588 9.929 131.654 9.91601 131.704 9.90601L131.942 10.96C131.863 10.99 131.752 11.02 131.609 11.05C131.467 11.083 131.286 11.099 131.067 11.099C130.736 11.099 130.411 11.028 130.093 10.886C129.778 10.743 129.516 10.526 129.307 10.234C129.102 9.94299 128.999 9.575 128.999 9.131V1.534ZM136.588 11.159C135.899 11.159 135.294 10.995 134.774 10.667C134.257 10.339 133.852 9.87999 133.561 9.28999C133.272 8.69999 133.128 8.01 133.128 7.222C133.128 6.426 133.272 5.732 133.561 5.138C133.852 4.545 134.257 4.085 134.774 3.756C135.294 3.428 135.899 3.26401 136.588 3.26401C137.278 3.26401 137.881 3.428 138.398 3.756C138.918 4.085 139.323 4.545 139.611 5.138C139.903 5.732 140.048 6.426 140.048 7.222C140.048 8.01 139.903 8.69999 139.611 9.28999C139.323 9.87999 138.918 10.339 138.398 10.667C137.881 10.995 137.278 11.159 136.588 11.159ZM136.588 10.105C137.112 10.105 137.543 9.971 137.881 9.702C138.219 9.434 138.469 9.08101 138.632 8.64301C138.794 8.20601 138.875 7.732 138.875 7.222C138.875 6.711 138.794 6.236 138.632 5.795C138.469 5.354 138.219 4.998 137.881 4.726C137.543 4.454 137.112 4.31799 136.588 4.31799C136.065 4.31799 135.634 4.454 135.296 4.726C134.958 4.998 134.707 5.354 134.545 5.795C134.383 6.236 134.301 6.711 134.301 7.222C134.301 7.732 134.383 8.20601 134.545 8.64301C134.707 9.08101 134.958 9.434 135.296 9.702C135.634 9.971 136.065 10.105 136.588 10.105ZM141.839 11V3.364H142.973V4.517H143.053C143.192 4.139 143.444 3.833 143.808 3.597C144.173 3.362 144.584 3.244 145.041 3.244C145.127 3.244 145.235 3.24599 145.364 3.24899C145.494 3.25299 145.591 3.25801 145.658 3.26401V4.457C145.618 4.447 145.527 4.43299 145.384 4.41299C145.245 4.38899 145.098 4.37801 144.942 4.37801C144.571 4.37801 144.239 4.456 143.947 4.612C143.659 4.764 143.43 4.976 143.261 5.248C143.096 5.516 143.013 5.823 143.013 6.168V11H141.839ZM149.296 11.179C148.812 11.179 148.373 11.088 147.978 10.906C147.584 10.72 147.271 10.453 147.039 10.105C146.807 9.754 146.691 9.33 146.691 8.832C146.691 8.395 146.777 8.04001 146.949 7.76801C147.121 7.49301 147.352 7.27799 147.64 7.12199C147.928 6.96599 148.247 6.85 148.595 6.774C148.946 6.695 149.299 6.63201 149.654 6.58501C150.118 6.52601 150.494 6.481 150.782 6.451C151.074 6.418 151.286 6.363 151.419 6.287C151.554 6.211 151.622 6.07801 151.622 5.88901V5.849C151.622 5.359 151.488 4.97799 151.22 4.70599C150.954 4.43399 150.552 4.298 150.012 4.298C149.451 4.298 149.012 4.421 148.694 4.666C148.376 4.911 148.152 5.173 148.023 5.452L146.909 5.054C147.108 4.59 147.373 4.229 147.705 3.97C148.039 3.708 148.404 3.526 148.798 3.423C149.196 3.317 149.587 3.26401 149.972 3.26401C150.217 3.26401 150.499 3.294 150.817 3.354C151.138 3.41 151.448 3.528 151.747 3.707C152.048 3.886 152.298 4.156 152.497 4.517C152.696 4.878 152.796 5.36199 152.796 5.96899V11H151.622V9.966H151.563C151.483 10.132 151.351 10.309 151.165 10.498C150.979 10.687 150.732 10.848 150.424 10.98C150.116 11.113 149.74 11.179 149.296 11.179ZM149.475 10.125C149.939 10.125 150.33 10.034 150.648 9.85201C150.969 9.66901 151.211 9.434 151.374 9.146C151.539 8.857 151.622 8.55399 151.622 8.23599V7.162C151.573 7.222 151.463 7.276 151.294 7.326C151.128 7.372 150.936 7.414 150.718 7.45C150.502 7.483 150.292 7.51299 150.086 7.53999C149.884 7.56299 149.72 7.583 149.594 7.599C149.289 7.639 149.004 7.704 148.739 7.793C148.477 7.879 148.265 8.01 148.102 8.186C147.943 8.358 147.864 8.594 147.864 8.892C147.864 9.3 148.015 9.608 148.316 9.817C148.621 10.022 149.007 10.125 149.475 10.125ZM158.02 14.023C157.453 14.023 156.966 13.95 156.558 13.804C156.15 13.661 155.81 13.473 155.539 13.237C155.27 13.005 155.056 12.757 154.897 12.491L155.832 11.835C155.938 11.974 156.072 12.134 156.235 12.312C156.397 12.495 156.619 12.652 156.901 12.785C157.186 12.921 157.559 12.989 158.02 12.989C158.636 12.989 159.145 12.839 159.546 12.541C159.947 12.243 160.147 11.776 160.147 11.139V9.588H160.048C159.962 9.727 159.839 9.9 159.68 10.105C159.524 10.307 159.299 10.488 159.004 10.647C158.712 10.803 158.318 10.881 157.821 10.881C157.204 10.881 156.651 10.735 156.16 10.443C155.673 10.152 155.287 9.727 155.002 9.17C154.72 8.614 154.579 7.937 154.579 7.142C154.579 6.36 154.717 5.679 154.992 5.099C155.267 4.515 155.65 4.065 156.14 3.746C156.631 3.425 157.198 3.26401 157.841 3.26401C158.338 3.26401 158.732 3.347 159.024 3.513C159.319 3.675 159.544 3.86101 159.7 4.07001C159.859 4.27501 159.982 4.444 160.068 4.577H160.187V3.364H161.321V11.219C161.321 11.875 161.172 12.409 160.873 12.82C160.578 13.234 160.181 13.537 159.68 13.729C159.183 13.925 158.629 14.023 158.02 14.023ZM157.98 9.827C158.45 9.827 158.848 9.719 159.173 9.504C159.498 9.288 159.745 8.97801 159.914 8.57401C160.083 8.17001 160.167 7.68599 160.167 7.12199C160.167 6.57199 160.084 6.08599 159.919 5.66499C159.753 5.24499 159.508 4.91499 159.183 4.67599C158.858 4.437 158.457 4.31799 157.98 4.31799C157.483 4.31799 157.068 4.444 156.737 4.696C156.409 4.948 156.162 5.28601 155.996 5.71001C155.834 6.13401 155.752 6.60499 155.752 7.12199C155.752 7.65199 155.835 8.12101 156.001 8.52901C156.17 8.93301 156.419 9.25199 156.747 9.48399C157.078 9.71199 157.489 9.827 157.98 9.827ZM166.67 11.159C165.934 11.159 165.3 10.997 164.766 10.672C164.236 10.344 163.826 9.886 163.538 9.3C163.253 8.71 163.11 8.024 163.11 7.241C163.11 6.459 163.253 5.77 163.538 5.173C163.826 4.573 164.227 4.106 164.741 3.771C165.258 3.433 165.861 3.26401 166.551 3.26401C166.949 3.26401 167.341 3.33 167.729 3.463C168.117 3.596 168.47 3.81099 168.788 4.10899C169.106 4.40399 169.36 4.795 169.549 5.283C169.738 5.77 169.832 6.37 169.832 7.082V7.58H163.946V6.565H168.639C168.639 6.134 168.553 5.75 168.38 5.412C168.211 5.074 167.969 4.807 167.654 4.612C167.343 4.416 166.975 4.31799 166.551 4.31799C166.083 4.31799 165.679 4.434 165.338 4.666C165 4.895 164.739 5.193 164.557 5.561C164.375 5.929 164.284 6.323 164.284 6.744V7.42C164.284 7.997 164.383 8.48599 164.582 8.88699C164.784 9.28499 165.064 9.588 165.422 9.797C165.78 10.002 166.196 10.105 166.67 10.105C166.978 10.105 167.257 10.062 167.505 9.976C167.757 9.886 167.974 9.754 168.157 9.578C168.339 9.399 168.48 9.177 168.579 8.912L169.713 9.23C169.593 9.615 169.393 9.953 169.111 10.244C168.829 10.533 168.481 10.758 168.067 10.92C167.653 11.08 167.187 11.159 166.67 11.159ZM178.955 3.364V4.358H174.838V3.364H178.955ZM176.071 11V2.31C176.071 1.872 176.174 1.508 176.38 1.216C176.585 0.924003 176.852 0.704998 177.18 0.559998C177.508 0.413998 177.855 0.341003 178.219 0.341003C178.507 0.341003 178.743 0.363995 178.925 0.410995C179.107 0.456995 179.243 0.499993 179.333 0.539993L178.995 1.554C178.935 1.534 178.852 1.509 178.746 1.479C178.643 1.45 178.507 1.435 178.338 1.435C177.951 1.435 177.671 1.532 177.498 1.728C177.329 1.924 177.245 2.21 177.245 2.588V11H176.071ZM183.387 11.159C182.698 11.159 182.093 10.995 181.572 10.667C181.055 10.339 180.651 9.87999 180.359 9.28999C180.071 8.69999 179.927 8.01 179.927 7.222C179.927 6.426 180.071 5.732 180.359 5.138C180.651 4.545 181.055 4.085 181.572 3.756C182.093 3.428 182.698 3.26401 183.387 3.26401C184.076 3.26401 184.68 3.428 185.197 3.756C185.717 4.085 186.121 4.545 186.41 5.138C186.701 5.732 186.847 6.426 186.847 7.222C186.847 8.01 186.701 8.69999 186.41 9.28999C186.121 9.87999 185.717 10.339 185.197 10.667C184.68 10.995 184.076 11.159 183.387 11.159ZM183.387 10.105C183.911 10.105 184.342 9.971 184.68 9.702C185.018 9.434 185.268 9.08101 185.43 8.64301C185.593 8.20601 185.674 7.732 185.674 7.222C185.674 6.711 185.593 6.236 185.43 5.795C185.268 5.354 185.018 4.998 184.68 4.726C184.342 4.454 183.911 4.31799 183.387 4.31799C182.863 4.31799 182.433 4.454 182.094 4.726C181.756 4.998 181.506 5.354 181.344 5.795C181.181 6.236 181.1 6.711 181.1 7.222C181.1 7.732 181.181 8.20601 181.344 8.64301C181.506 9.08101 181.756 9.434 182.094 9.702C182.433 9.971 182.863 10.105 183.387 10.105ZM188.638 11V3.364H189.772V4.517H189.851C189.991 4.139 190.242 3.833 190.607 3.597C190.972 3.362 191.383 3.244 191.84 3.244C191.926 3.244 192.034 3.24599 192.163 3.24899C192.292 3.25299 192.39 3.25801 192.456 3.26401V4.457C192.417 4.447 192.326 4.43299 192.183 4.41299C192.044 4.38899 191.896 4.37801 191.741 4.37801C191.369 4.37801 191.038 4.456 190.746 4.612C190.458 4.764 190.229 4.976 190.06 5.248C189.894 5.516 189.812 5.823 189.812 6.168V11H188.638ZM200.032 11.179C199.548 11.179 199.109 11.088 198.714 10.906C198.32 10.72 198.007 10.453 197.775 10.105C197.543 9.754 197.427 9.33 197.427 8.832C197.427 8.395 197.513 8.04001 197.685 7.76801C197.858 7.49301 198.088 7.27799 198.376 7.12199C198.665 6.96599 198.983 6.85 199.331 6.774C199.682 6.695 200.035 6.63201 200.39 6.58501C200.854 6.52601 201.23 6.481 201.518 6.451C201.81 6.418 202.022 6.363 202.155 6.287C202.291 6.211 202.359 6.07801 202.359 5.88901V5.849C202.359 5.359 202.224 4.97799 201.956 4.70599C201.691 4.43399 201.288 4.298 200.748 4.298C200.188 4.298 199.749 4.421 199.43 4.666C199.112 4.911 198.888 5.173 198.759 5.452L197.646 5.054C197.844 4.59 198.11 4.229 198.441 3.97C198.776 3.708 199.14 3.526 199.535 3.423C199.933 3.317 200.324 3.26401 200.708 3.26401C200.953 3.26401 201.235 3.294 201.553 3.354C201.875 3.41 202.185 3.528 202.483 3.707C202.785 3.886 203.035 4.156 203.234 4.517C203.433 4.878 203.532 5.36199 203.532 5.96899V11H202.359V9.966H202.299C202.219 10.132 202.087 10.309 201.901 10.498C201.716 10.687 201.469 10.848 201.161 10.98C200.852 11.113 200.476 11.179 200.032 11.179ZM200.211 10.125C200.675 10.125 201.066 10.034 201.384 9.85201C201.706 9.66901 201.948 9.434 202.11 9.146C202.276 8.857 202.359 8.55399 202.359 8.23599V7.162C202.309 7.222 202.2 7.276 202.031 7.326C201.865 7.372 201.673 7.414 201.454 7.45C201.238 7.483 201.028 7.51299 200.822 7.53999C200.62 7.56299 200.456 7.583 200.33 7.599C200.025 7.639 199.74 7.704 199.475 7.793C199.213 7.879 199.001 8.01 198.839 8.186C198.68 8.358 198.6 8.594 198.6 8.892C198.6 9.3 198.751 9.608 199.053 9.817C199.357 10.022 199.744 10.125 200.211 10.125ZM210.784 0.817993V11H209.611V0.817993H210.784ZM212.933 11V3.364H214.107V11H212.933ZM213.53 2.091C213.301 2.091 213.104 2.01299 212.938 1.85699C212.776 1.70099 212.695 1.514 212.695 1.295C212.695 1.077 212.776 0.888994 212.938 0.733994C213.104 0.577994 213.301 0.5 213.53 0.5C213.759 0.5 213.954 0.577994 214.116 0.733994C214.282 0.888994 214.365 1.077 214.365 1.295C214.365 1.514 214.282 1.70099 214.116 1.85699C213.954 2.01299 213.759 2.091 213.53 2.091ZM216.256 11V3.364H217.389V4.55701H217.488C217.648 4.14901 217.904 3.83299 218.259 3.60699C218.614 3.37899 219.04 3.26401 219.537 3.26401C220.041 3.26401 220.46 3.37899 220.795 3.60699C221.133 3.83299 221.396 4.14901 221.585 4.55701H221.665C221.86 4.16201 222.153 3.849 222.545 3.617C222.936 3.382 223.405 3.26401 223.952 3.26401C224.634 3.26401 225.193 3.47801 225.627 3.90601C226.061 4.33001 226.278 4.99101 226.278 5.88901V11H225.105V5.88901C225.105 5.32601 224.951 4.923 224.643 4.681C224.334 4.439 223.971 4.31799 223.554 4.31799C223.017 4.31799 222.601 4.48099 222.306 4.80499C222.011 5.12699 221.863 5.535 221.863 6.028V11H220.67V5.77C220.67 5.336 220.529 4.98599 220.248 4.72099C219.966 4.45199 219.603 4.31799 219.159 4.31799C218.854 4.31799 218.569 4.399 218.304 4.562C218.042 4.724 217.83 4.95001 217.667 5.23801C217.508 5.52301 217.429 5.853 217.429 6.22701V11H216.256ZM228.423 11V3.364H229.597V11H228.423ZM229.02 2.091C228.791 2.091 228.594 2.01299 228.428 1.85699C228.266 1.70099 228.185 1.514 228.185 1.295C228.185 1.077 228.266 0.888994 228.428 0.733994C228.594 0.577994 228.791 0.5 229.02 0.5C229.249 0.5 229.444 0.577994 229.607 0.733994C229.772 0.888994 229.855 1.077 229.855 1.295C229.855 1.514 229.772 1.70099 229.607 1.85699C229.444 2.01299 229.249 2.091 229.02 2.091ZM235.067 3.364V4.358H231.109V3.364H235.067ZM232.263 1.534H233.436V8.812C233.436 9.144 233.484 9.393 233.58 9.558C233.68 9.721 233.806 9.83 233.958 9.886C234.114 9.939 234.278 9.966 234.45 9.966C234.58 9.966 234.686 9.959 234.768 9.946C234.851 9.929 234.918 9.91601 234.967 9.90601L235.206 10.96C235.126 10.99 235.015 11.02 234.873 11.05C234.73 11.083 234.55 11.099 234.331 11.099C234 11.099 233.675 11.028 233.357 10.886C233.042 10.743 232.78 10.526 232.571 10.234C232.366 9.94299 232.263 9.575 232.263 9.131V1.534ZM239.951 11.159C239.216 11.159 238.581 10.997 238.047 10.672C237.517 10.344 237.108 9.886 236.819 9.3C236.534 8.71 236.392 8.024 236.392 7.241C236.392 6.459 236.534 5.77 236.819 5.173C237.108 4.573 237.509 4.106 238.022 3.771C238.539 3.433 239.143 3.26401 239.832 3.26401C240.23 3.26401 240.623 3.33 241.01 3.463C241.398 3.596 241.751 3.81099 242.069 4.10899C242.387 4.40399 242.641 4.795 242.83 5.283C243.019 5.77 243.113 6.37 243.113 7.082V7.58H237.227V6.565H241.92C241.92 6.134 241.834 5.75 241.662 5.412C241.493 5.074 241.251 4.807 240.936 4.612C240.624 4.416 240.256 4.31799 239.832 4.31799C239.365 4.31799 238.96 4.434 238.619 4.666C238.281 4.895 238.021 5.193 237.838 5.561C237.656 5.929 237.565 6.323 237.565 6.744V7.42C237.565 7.997 237.664 8.48599 237.863 8.88699C238.065 9.28499 238.346 9.588 238.703 9.797C239.061 10.002 239.477 10.105 239.951 10.105C240.26 10.105 240.538 10.062 240.787 9.976C241.038 9.886 241.256 9.754 241.438 9.578C241.62 9.399 241.761 9.177 241.86 8.912L242.994 9.23C242.875 9.615 242.674 9.953 242.392 10.244C242.111 10.533 241.763 10.758 241.348 10.92C240.934 11.08 240.468 11.159 239.951 11.159ZM247.782 11.159C247.145 11.159 246.583 10.998 246.096 10.677C245.609 10.352 245.228 9.89499 244.953 9.30499C244.678 8.71099 244.54 8.01 244.54 7.202C244.54 6.4 244.678 5.704 244.953 5.114C245.228 4.524 245.611 4.068 246.101 3.746C246.592 3.425 247.158 3.26401 247.801 3.26401C248.299 3.26401 248.691 3.347 248.98 3.513C249.271 3.675 249.493 3.86101 249.646 4.07001C249.802 4.27501 249.923 4.444 250.009 4.577H250.108V0.817993H251.282V11H250.148V9.827H250.009C249.923 9.966 249.8 10.142 249.641 10.354C249.482 10.562 249.255 10.75 248.96 10.915C248.665 11.078 248.272 11.159 247.782 11.159ZM247.941 10.105C248.411 10.105 248.809 9.982 249.134 9.737C249.459 9.489 249.706 9.14599 249.875 8.70799C250.044 8.26699 250.128 7.75901 250.128 7.18201C250.128 6.61201 250.045 6.113 249.88 5.685C249.714 5.254 249.469 4.92 249.144 4.681C248.819 4.439 248.418 4.31799 247.941 4.31799C247.444 4.31799 247.029 4.446 246.698 4.701C246.37 4.953 246.123 5.296 245.957 5.73C245.795 6.161 245.713 6.64501 245.713 7.18201C245.713 7.72501 245.796 8.21899 245.962 8.66299C246.131 9.10399 246.38 9.455 246.708 9.717C247.039 9.976 247.45 10.105 247.941 10.105ZM260.852 3.364V4.358H256.895V3.364H260.852ZM258.048 1.534H259.221V8.812C259.221 9.144 259.269 9.393 259.365 9.558C259.465 9.721 259.591 9.83 259.743 9.886C259.899 9.939 260.063 9.966 260.235 9.966C260.365 9.966 260.471 9.959 260.554 9.946C260.636 9.929 260.703 9.91601 260.752 9.90601L260.991 10.96C260.912 10.99 260.801 11.02 260.658 11.05C260.516 11.083 260.335 11.099 260.116 11.099C259.785 11.099 259.46 11.028 259.142 10.886C258.827 10.743 258.565 10.526 258.356 10.234C258.151 9.94299 258.048 9.575 258.048 9.131V1.534ZM262.617 11V3.364H263.79V11H262.617ZM263.213 2.091C262.985 2.091 262.788 2.01299 262.622 1.85699C262.459 1.70099 262.378 1.514 262.378 1.295C262.378 1.077 262.459 0.888994 262.622 0.733994C262.788 0.577994 262.985 0.5 263.213 0.5C263.442 0.5 263.638 0.577994 263.8 0.733994C263.966 0.888994 264.049 1.077 264.049 1.295C264.049 1.514 263.966 1.70099 263.8 1.85699C263.638 2.01299 263.442 2.091 263.213 2.091ZM265.939 11V3.364H267.073V4.55701H267.172C267.331 4.14901 267.588 3.83299 267.943 3.60699C268.297 3.37899 268.723 3.26401 269.22 3.26401C269.724 3.26401 270.143 3.37899 270.478 3.60699C270.816 3.83299 271.08 4.14901 271.269 4.55701H271.348C271.544 4.16201 271.837 3.849 272.228 3.617C272.619 3.382 273.088 3.26401 273.635 3.26401C274.318 3.26401 274.876 3.47801 275.311 3.90601C275.745 4.33001 275.962 4.99101 275.962 5.88901V11H274.789V5.88901C274.789 5.32601 274.634 4.923 274.326 4.681C274.018 4.439 273.655 4.31799 273.237 4.31799C272.7 4.31799 272.285 4.48099 271.99 4.80499C271.695 5.12699 271.547 5.535 271.547 6.028V11H270.354V5.77C270.354 5.336 270.213 4.98599 269.931 4.72099C269.65 4.45199 269.287 4.31799 268.843 4.31799C268.538 4.31799 268.253 4.399 267.987 4.562C267.726 4.724 267.513 4.95001 267.351 5.23801C267.192 5.52301 267.112 5.853 267.112 6.22701V11H265.939ZM281.309 11.159C280.573 11.159 279.938 10.997 279.405 10.672C278.874 10.344 278.465 9.886 278.177 9.3C277.892 8.71 277.749 8.024 277.749 7.241C277.749 6.459 277.892 5.77 278.177 5.173C278.465 4.573 278.866 4.106 279.38 3.771C279.897 3.433 280.5 3.26401 281.189 3.26401C281.587 3.26401 281.98 3.33 282.368 3.463C282.756 3.596 283.108 3.81099 283.427 4.10899C283.745 4.40399 283.998 4.795 284.187 5.283C284.376 5.77 284.471 6.37 284.471 7.082V7.58H278.584V6.565H283.278C283.278 6.134 283.191 5.75 283.019 5.412C282.85 5.074 282.608 4.807 282.293 4.612C281.982 4.416 281.614 4.31799 281.189 4.31799C280.722 4.31799 280.318 4.434 279.976 4.666C279.638 4.895 279.378 5.193 279.196 5.561C279.014 5.929 278.922 6.323 278.922 6.744V7.42C278.922 7.997 279.022 8.48599 279.221 8.88699C279.423 9.28499 279.703 9.588 280.061 9.797C280.419 10.002 280.835 10.105 281.309 10.105C281.617 10.105 281.895 10.062 282.144 9.976C282.396 9.886 282.613 9.754 282.795 9.578C282.978 9.399 283.118 9.177 283.218 8.912L284.351 9.23C284.232 9.615 284.032 9.953 283.75 10.244C283.468 10.533 283.12 10.758 282.706 10.92C282.291 11.08 281.826 11.159 281.309 11.159Z" fill="white"/>
</svg>
