<svg width="25" height="10" viewBox="0 0 25 10" fill="none" xmlns="http://www.w3.org/2000/svg">
<path d="M2.53302 9L0.145996 0.27301H1.21997L3.04401 7.38098H3.12903L4.987 0.27301H6.17999L8.03802 7.38098H8.12402L9.94702 0.27301H11.021L8.63501 9H7.54401L5.61798 2.04498H5.54999L3.62402 9H2.53302ZM14.337 9.13599C13.706 9.13599 13.162 8.99699 12.705 8.71899C12.25 8.43799 11.899 8.04503 11.652 7.54303C11.408 7.03703 11.286 6.44902 11.286 5.77802C11.286 5.10802 11.408 4.51698 11.652 4.00598C11.899 3.49098 12.243 3.09102 12.683 2.80402C13.126 2.51402 13.643 2.36902 14.234 2.36902C14.575 2.36902 14.912 2.42598 15.244 2.53998C15.577 2.65298 15.879 2.83799 16.152 3.09399C16.425 3.34699 16.642 3.682 16.804 4.099C16.966 4.517 17.047 5.03103 17.047 5.64203V6.06799H12.001V5.19897H16.024C16.024 4.82997 15.95 4.50002 15.803 4.21002C15.658 3.92002 15.45 3.69199 15.18 3.52399C14.913 3.35699 14.598 3.27301 14.234 3.27301C13.834 3.27301 13.487 3.37198 13.195 3.57098C12.905 3.76698 12.682 4.02301 12.526 4.33801C12.369 4.65301 12.291 4.99099 12.291 5.35199V5.93201C12.291 6.42601 12.376 6.84503 12.547 7.18903C12.72 7.53003 12.96 7.78999 13.267 7.96899C13.574 8.14499 13.93 8.23297 14.337 8.23297C14.601 8.23297 14.839 8.19601 15.053 8.12201C15.268 8.04501 15.455 7.93201 15.611 7.78101C15.767 7.62801 15.888 7.43702 15.973 7.21002L16.945 7.48297C16.842 7.81197 16.67 8.10199 16.429 8.35199C16.188 8.59899 15.889 8.79301 15.534 8.93201C15.179 9.06801 14.78 9.13599 14.337 9.13599ZM21.048 9.13599C20.503 9.13599 20.021 8.99902 19.604 8.72302C19.186 8.44502 18.859 8.053 18.624 7.547C18.388 7.038 18.27 6.43802 18.27 5.74402C18.27 5.05702 18.388 4.46002 18.624 3.95502C18.859 3.44902 19.188 3.05802 19.608 2.78302C20.028 2.50702 20.514 2.36902 21.065 2.36902C21.491 2.36902 21.828 2.43997 22.075 2.58197C22.325 2.72197 22.516 2.881 22.646 3.06C22.78 3.236 22.884 3.38102 22.957 3.49402H23.043V0.27301H24.048V9H23.077V7.99402H22.957C22.884 8.11402 22.778 8.26398 22.642 8.44598C22.506 8.62498 22.311 8.78598 22.058 8.92798C21.805 9.06698 21.469 9.13599 21.048 9.13599ZM21.185 8.23297C21.588 8.23297 21.929 8.12803 22.207 7.91803C22.486 7.70503 22.697 7.41101 22.842 7.03601C22.987 6.65801 23.06 6.22199 23.06 5.72699C23.06 5.23899 22.989 4.81101 22.847 4.44501C22.705 4.07501 22.494 3.78798 22.216 3.58398C21.938 3.37598 21.594 3.27301 21.185 3.27301C20.759 3.27301 20.403 3.38201 20.119 3.60101C19.838 3.81701 19.626 4.11097 19.484 4.48297C19.345 4.85197 19.276 5.26699 19.276 5.72699C19.276 6.19299 19.347 6.61601 19.489 6.99701C19.634 7.37501 19.847 7.676 20.128 7.901C20.412 8.122 20.764 8.23297 21.185 8.23297Z" fill="#9D9FA2"/>
</svg>
