<svg width="42" height="12" viewBox="0 0 42 12" fill="none" xmlns="http://www.w3.org/2000/svg">
<path d="M1.37201 11L5.92603 1.98999V1.91003H0.676025V0.819946H7.19897V1.96997L2.66498 11H1.37201ZM12.214 11.14C11.796 11.13 11.379 11.05 10.961 10.9C10.544 10.75 10.162 10.49 9.81799 10.13C9.47299 9.77001 9.196 9.27002 8.987 8.65002C8.779 8.03002 8.67401 7.25006 8.67401 6.31006C8.67401 5.41006 8.75898 4.61003 8.92798 3.91003C9.09698 3.21003 9.342 2.62002 9.664 2.15002C9.985 1.67002 10.373 1.30005 10.827 1.05005C11.284 0.800049 11.8 0.680054 12.373 0.680054C12.943 0.680054 13.45 0.79002 13.894 1.02002C14.342 1.25002 14.706 1.55997 14.988 1.96997C15.27 2.36997 15.452 2.83999 15.535 3.35999H14.322C14.209 2.90999 13.99 2.52998 13.666 2.22998C13.341 1.91998 12.91 1.77002 12.373 1.77002C11.584 1.77002 10.963 2.12005 10.509 2.80005C10.058 3.49005 9.831 4.44994 9.828 5.68994H9.90698C10.093 5.40994 10.313 5.16997 10.568 4.96997C10.827 4.76997 11.112 4.61 11.423 4.5C11.735 4.39 12.065 4.33997 12.413 4.33997C12.996 4.33997 13.53 4.48003 14.014 4.78003C14.498 5.06003 14.885 5.45997 15.177 5.96997C15.469 6.47997 15.615 7.05997 15.615 7.71997C15.615 8.34997 15.474 8.92995 15.192 9.44995C14.91 9.96995 14.514 10.3799 14.004 10.6899C13.497 10.9999 12.9 11.15 12.214 11.14ZM12.214 10.05C12.632 10.05 13.006 9.93998 13.338 9.72998C13.672 9.51998 13.936 9.24002 14.128 8.89001C14.324 8.54001 14.421 8.14997 14.421 7.71997C14.421 7.29997 14.327 6.91995 14.138 6.56995C13.952 6.21995 13.695 5.94999 13.367 5.73999C13.043 5.52999 12.671 5.43005 12.254 5.43005C11.939 5.43005 11.646 5.49 11.374 5.62C11.102 5.74 10.863 5.91001 10.658 6.13C10.456 6.34 10.297 6.58999 10.181 6.87C10.065 7.14 10.007 7.42999 10.007 7.73999C10.007 8.13999 10.101 8.52 10.29 8.87C10.482 9.22 10.744 9.50997 11.075 9.71997C11.41 9.93997 11.79 10.05 12.214 10.05ZM17.57 11V10.11L20.93 6.43005C21.325 6.00005 21.65 5.62005 21.905 5.30005C22.16 4.98005 22.349 4.68002 22.472 4.40002C22.598 4.11002 22.661 3.81 22.661 3.5C22.661 3.14 22.574 2.82995 22.402 2.56995C22.233 2.30995 22.001 2.10997 21.706 1.96997C21.411 1.81997 21.08 1.75 20.712 1.75C20.321 1.75 19.979 1.83 19.688 2C19.399 2.16 19.175 2.38004 19.016 2.67004C18.861 2.96004 18.783 3.29005 18.783 3.68005H17.609C17.609 3.09005 17.747 2.55999 18.022 2.10999C18.297 1.65999 18.672 1.31006 19.146 1.06006C19.623 0.800059 20.158 0.680054 20.751 0.680054C21.348 0.680054 21.877 0.800059 22.337 1.06006C22.798 1.31006 23.159 1.64996 23.421 2.07996C23.683 2.49996 23.814 2.98 23.814 3.5C23.814 3.88 23.746 4.23998 23.61 4.59998C23.478 4.95998 23.246 5.35004 22.914 5.79004C22.586 6.22004 22.13 6.75 21.547 7.38L19.26 9.82996V9.91003H23.993V11H17.57ZM26.046 11V10.11L29.407 6.43005C29.801 6.00005 30.126 5.62005 30.381 5.30005C30.637 4.98005 30.826 4.68002 30.948 4.40002C31.074 4.11002 31.137 3.81 31.137 3.5C31.137 3.14 31.051 2.82995 30.879 2.56995C30.71 2.30995 30.478 2.10997 30.183 1.96997C29.888 1.81997 29.556 1.75 29.188 1.75C28.797 1.75 28.456 1.83 28.164 2C27.876 2.16 27.652 2.38004 27.493 2.67004C27.337 2.96004 27.259 3.29005 27.259 3.68005H26.086C26.086 3.09005 26.223 2.55999 26.499 2.10999C26.774 1.65999 27.148 1.31006 27.622 1.06006C28.099 0.800059 28.635 0.680054 29.228 0.680054C29.825 0.680054 30.353 0.800059 30.814 1.06006C31.275 1.31006 31.636 1.64996 31.898 2.07996C32.16 2.49996 32.29 2.98 32.29 3.5C32.29 3.88 32.223 4.23998 32.087 4.59998C31.954 4.95998 31.722 5.35004 31.391 5.79004C31.062 6.22004 30.607 6.75 30.023 7.38L27.737 9.82996V9.91003H32.469V11H26.046ZM37.963 11.14C37.307 11.14 36.722 11.03 36.208 10.8C35.698 10.58 35.292 10.26 34.99 9.85999C34.692 9.45999 34.529 8.98995 34.503 8.44995H35.756C35.782 8.77995 35.895 9.07005 36.094 9.30005C36.293 9.54005 36.553 9.71998 36.874 9.84998C37.196 9.97998 37.552 10.05 37.943 10.05C38.381 10.05 38.768 9.96995 39.107 9.81995C39.445 9.65995 39.71 9.45005 39.902 9.18005C40.094 8.91005 40.19 8.58999 40.19 8.23999C40.19 7.85999 40.098 7.53 39.912 7.25C39.726 6.96 39.455 6.72995 39.097 6.56995C38.739 6.40995 38.301 6.32996 37.784 6.32996H36.969V5.22998H37.784C38.188 5.22998 38.543 5.16001 38.848 5.01001C39.156 4.87001 39.397 4.66002 39.569 4.40002C39.745 4.13002 39.832 3.81996 39.832 3.45996C39.832 3.11996 39.756 2.82006 39.604 2.56006C39.451 2.31006 39.236 2.10997 38.957 1.96997C38.682 1.81997 38.357 1.75 37.983 1.75C37.632 1.75 37.3 1.81995 36.989 1.94995C36.68 2.06995 36.429 2.26 36.233 2.5C36.037 2.74 35.931 3.02999 35.915 3.35999H34.722C34.741 2.82999 34.902 2.35996 35.204 1.95996C35.505 1.55996 35.9 1.24002 36.387 1.02002C36.878 0.79002 37.416 0.680054 38.003 0.680054C38.633 0.680054 39.173 0.810059 39.624 1.06006C40.074 1.31006 40.421 1.65006 40.663 2.06006C40.905 2.48006 41.026 2.92002 41.026 3.40002C41.026 3.98002 40.875 4.47 40.573 4.87C40.275 5.27 39.869 5.54996 39.355 5.70996V5.79004C39.998 5.90004 40.5 6.16999 40.862 6.60999C41.223 7.04999 41.403 7.58999 41.403 8.23999C41.403 8.78999 41.253 9.28998 40.951 9.72998C40.653 10.16 40.245 10.51 39.728 10.76C39.211 11.01 38.623 11.14 37.963 11.14Z" fill="#5F6980"/>
</svg>
