<svg width="50" height="14" viewBox="0 0 50 14" fill="none" xmlns="http://www.w3.org/2000/svg">
<path d="M0.815002 11V9.84998L6.03601 2.35999H0.786011V0.819946H8.32199V1.96997L3.10699 9.44995H8.35199V11H0.815002ZM13.438 11.15C12.673 11.15 12.011 10.99 11.455 10.67C10.901 10.35 10.475 9.90006 10.177 9.31006C9.879 8.72006 9.729 8.02998 9.729 7.22998C9.729 6.43998 9.879 5.75003 10.177 5.16003C10.478 4.56003 10.899 4.10002 11.44 3.77002C11.98 3.43002 12.615 3.26001 13.344 3.26001C13.814 3.26001 14.259 3.33999 14.676 3.48999C15.097 3.63999 15.468 3.86994 15.79 4.18994C16.115 4.49994 16.37 4.90001 16.555 5.39001C16.741 5.88001 16.834 6.45 16.834 7.12V7.67004H10.575V6.45996H15.109C15.105 6.11996 15.031 5.81004 14.885 5.54004C14.739 5.27004 14.535 5.06002 14.273 4.90002C14.015 4.74002 13.713 4.67004 13.369 4.67004C13.001 4.67004 12.678 4.76005 12.399 4.93005C12.121 5.11005 11.904 5.34 11.748 5.63C11.595 5.92 11.518 6.22995 11.514 6.56995V7.63C11.514 8.07 11.595 8.45002 11.758 8.77002C11.92 9.09002 12.147 9.33 12.439 9.5C12.731 9.66 13.072 9.75 13.463 9.75C13.725 9.75 13.962 9.71001 14.174 9.64001C14.386 9.56001 14.57 9.45005 14.726 9.30005C14.882 9.16005 14.999 8.98001 15.079 8.76001L16.759 8.94995C16.653 9.39995 16.451 9.77999 16.153 10.12C15.858 10.44 15.48 10.7 15.019 10.88C14.558 11.06 14.031 11.15 13.438 11.15ZM18.356 13.86V3.35999H20.126V4.63H20.231C20.323 4.44 20.454 4.24003 20.623 4.03003C20.792 3.82003 21.021 3.63999 21.309 3.48999C21.598 3.33999 21.966 3.26001 22.413 3.26001C23.003 3.26001 23.535 3.41997 24.009 3.71997C24.486 4.00997 24.864 4.46004 25.143 5.04004C25.424 5.63004 25.565 6.33994 25.565 7.18994C25.565 8.02994 25.428 8.73996 25.153 9.32996C24.877 9.91996 24.503 10.36 24.029 10.67C23.555 10.98 23.018 11.13 22.418 11.13C21.981 11.13 21.618 11.06 21.329 10.92C21.041 10.77 20.809 10.59 20.633 10.39C20.461 10.18 20.327 9.98005 20.231 9.80005H20.156V13.86H18.356ZM20.121 7.18005C20.121 7.68005 20.191 8.10998 20.33 8.47998C20.473 8.84998 20.676 9.13998 20.942 9.34998C21.21 9.54998 21.535 9.66003 21.916 9.66003C22.314 9.66003 22.647 9.54997 22.915 9.33997C23.184 9.11997 23.386 8.82996 23.522 8.45996C23.661 8.07996 23.731 7.66005 23.731 7.18005C23.731 6.71005 23.663 6.29004 23.527 5.92004C23.391 5.55004 23.189 5.26005 22.92 5.05005C22.652 4.85005 22.317 4.73999 21.916 4.73999C21.532 4.73999 21.205 4.84004 20.937 5.04004C20.668 5.25004 20.464 5.53001 20.325 5.89001C20.189 6.26001 20.121 6.69005 20.121 7.18005ZM27.106 13.86V3.35999H28.876V4.63H28.981C29.073 4.44 29.204 4.24003 29.373 4.03003C29.542 3.82003 29.771 3.63999 30.059 3.48999C30.348 3.33999 30.716 3.26001 31.163 3.26001C31.753 3.26001 32.285 3.41997 32.759 3.71997C33.236 4.00997 33.614 4.46004 33.893 5.04004C34.174 5.63004 34.315 6.33994 34.315 7.18994C34.315 8.02994 34.178 8.73996 33.903 9.32996C33.627 9.91996 33.253 10.36 32.779 10.67C32.305 10.98 31.768 11.13 31.168 11.13C30.731 11.13 30.368 11.06 30.079 10.92C29.791 10.77 29.559 10.59 29.383 10.39C29.211 10.18 29.077 9.98005 28.981 9.80005H28.906V13.86H27.106ZM28.871 7.18005C28.871 7.68005 28.941 8.10998 29.08 8.47998C29.223 8.84998 29.426 9.13998 29.692 9.34998C29.96 9.54998 30.285 9.66003 30.666 9.66003C31.064 9.66003 31.397 9.54997 31.665 9.33997C31.934 9.11997 32.136 8.82996 32.272 8.45996C32.411 8.07996 32.481 7.66005 32.481 7.18005C32.481 6.71005 32.413 6.29004 32.277 5.92004C32.141 5.55004 31.939 5.26005 31.67 5.05005C31.402 4.85005 31.067 4.73999 30.666 4.73999C30.282 4.73999 29.955 4.84004 29.687 5.04004C29.418 5.25004 29.214 5.53001 29.075 5.89001C28.939 6.26001 28.871 6.69005 28.871 7.18005ZM37.656 0.819946V11H35.856V0.819946H37.656ZM39.507 11V3.35999H41.306V11H39.507ZM40.412 2.28003C40.127 2.28003 39.881 2.19 39.676 2C39.47 1.8 39.368 1.57006 39.368 1.31006C39.368 1.03006 39.47 0.799985 39.676 0.609985C39.881 0.419985 40.127 0.329956 40.412 0.329956C40.7 0.329956 40.945 0.419985 41.147 0.609985C41.353 0.799985 41.456 1.03006 41.456 1.31006C41.456 1.57006 41.353 1.8 41.147 2C40.945 2.19 40.7 2.28003 40.412 2.28003ZM44.957 6.53003V11H43.157V3.35999H44.877V4.66003H44.967C45.142 4.23003 45.423 3.89001 45.807 3.64001C46.195 3.39001 46.674 3.26001 47.244 3.26001C47.771 3.26001 48.23 3.37998 48.621 3.59998C49.015 3.82998 49.32 4.14996 49.536 4.57996C49.754 5.00996 49.862 5.53001 49.859 6.14001V11H48.059V6.42004C48.059 5.91004 47.927 5.50997 47.661 5.21997C47.4 4.92997 47.037 4.79004 46.573 4.79004C46.258 4.79004 45.978 4.85999 45.732 4.98999C45.49 5.12999 45.3 5.32997 45.161 5.58997C45.025 5.83997 44.957 6.16003 44.957 6.53003Z" fill="#282828"/>
</svg>
