<svg width="47" height="12" viewBox="0 0 47 12" fill="none" xmlns="http://www.w3.org/2000/svg">
<path d="M4.31499 11.14C3.63299 11.14 3.029 11.02 2.506 10.78C1.985 10.53 1.57898 10.19 1.28798 9.77002C0.99598 9.34002 0.851997 8.85005 0.854997 8.30005C0.851997 7.86005 0.935995 7.46998 1.10899 7.09998C1.28099 6.72998 1.51599 6.43005 1.81499 6.18005C2.11599 5.93005 2.45299 5.77996 2.82399 5.70996V5.65002C2.33699 5.52002 1.949 5.24996 1.661 4.82996C1.372 4.40996 1.22999 3.92 1.23299 3.38C1.22999 2.87 1.36099 2.4 1.62599 2C1.89099 1.59 2.25498 1.27003 2.71898 1.03003C3.18698 0.800029 3.71899 0.680054 4.31499 0.680054C4.90499 0.680054 5.43198 0.800029 5.89598 1.03003C6.35998 1.27003 6.72498 1.59 6.98998 2C7.25898 2.4 7.394 2.87 7.398 3.38C7.394 3.92 7.24697 4.40996 6.95497 4.82996C6.66697 5.24996 6.28399 5.52002 5.80699 5.65002V5.70996C6.17499 5.77996 6.50598 5.93005 6.80098 6.18005C7.09598 6.43005 7.33097 6.72998 7.50697 7.09998C7.68297 7.46998 7.77199 7.86005 7.77599 8.30005C7.77199 8.85005 7.62299 9.34002 7.32799 9.77002C7.03599 10.19 6.62997 10.53 6.10997 10.78C5.59297 11.02 4.99499 11.14 4.31499 11.14ZM4.31499 10.05C4.77599 10.05 5.17399 9.96995 5.50899 9.81995C5.84299 9.66995 6.10198 9.45994 6.28398 9.18994C6.46598 8.91994 6.559 8.59999 6.562 8.23999C6.559 7.84999 6.45999 7.50997 6.26399 7.21997C6.06899 6.91997 5.80198 6.69002 5.46398 6.52002C5.12898 6.35002 4.74599 6.27002 4.31499 6.27002C3.88099 6.27002 3.49299 6.35002 3.15199 6.52002C2.81399 6.69002 2.54698 6.91997 2.35198 7.21997C2.15898 7.50997 2.06498 7.84999 2.06798 8.23999C2.06498 8.59999 2.15299 8.91994 2.33199 9.18994C2.51399 9.45994 2.77399 9.66995 3.11199 9.81995C3.44999 9.96995 3.85099 10.05 4.31499 10.05ZM4.31499 5.20996C4.67999 5.20996 5.00299 5.13999 5.28499 4.98999C5.56999 4.84999 5.79398 4.64 5.95598 4.38C6.11798 4.12 6.20097 3.80996 6.20497 3.45996C6.20097 3.11996 6.11998 2.82006 5.96098 2.56006C5.80198 2.30006 5.58097 2.10997 5.29997 1.96997C5.01797 1.81997 4.68999 1.75 4.31499 1.75C3.93399 1.75 3.601 1.81997 3.316 1.96997C3.031 2.10997 2.81098 2.30006 2.65498 2.56006C2.49898 2.82006 2.42298 3.11996 2.42598 3.45996C2.42298 3.80996 2.50099 4.12 2.65999 4.38C2.82199 4.64 3.04598 4.84999 3.33098 4.98999C3.61598 5.13999 3.94399 5.20996 4.31499 5.20996ZM13.062 11.14C12.644 11.13 12.226 11.05 11.809 10.9C11.391 10.75 11.01 10.49 10.665 10.13C10.321 9.77001 10.044 9.27002 9.83498 8.65002C9.62598 8.03002 9.52199 7.25006 9.52199 6.31006C9.52199 5.41006 9.60598 4.61003 9.77498 3.91003C9.94398 3.21003 10.19 2.62002 10.511 2.15002C10.833 1.67002 11.22 1.30005 11.675 1.05005C12.132 0.800049 12.647 0.680054 13.221 0.680054C13.791 0.680054 14.298 0.79002 14.742 1.02002C15.189 1.25002 15.554 1.55997 15.836 1.96997C16.117 2.36997 16.3 2.83999 16.383 3.35999H15.17C15.057 2.90999 14.838 2.52998 14.513 2.22998C14.189 1.91998 13.758 1.77002 13.221 1.77002C12.432 1.77002 11.81 2.12005 11.356 2.80005C10.906 3.49005 10.679 4.44994 10.675 5.68994H10.755C10.94 5.40994 11.161 5.16997 11.416 4.96997C11.675 4.76997 11.96 4.61 12.271 4.5C12.583 4.39 12.912 4.33997 13.26 4.33997C13.844 4.33997 14.377 4.48003 14.861 4.78003C15.345 5.06003 15.733 5.45997 16.025 5.96997C16.316 6.47997 16.462 7.05997 16.462 7.71997C16.462 8.34997 16.321 8.92995 16.04 9.44995C15.758 9.96995 15.362 10.3799 14.851 10.6899C14.344 10.9999 13.748 11.15 13.062 11.14ZM13.062 10.05C13.479 10.05 13.854 9.93998 14.185 9.72998C14.52 9.51998 14.783 9.24002 14.976 8.89001C15.171 8.54001 15.269 8.14997 15.269 7.71997C15.269 7.29997 15.175 6.91995 14.986 6.56995C14.8 6.21995 14.543 5.94999 14.215 5.73999C13.89 5.52999 13.519 5.43005 13.101 5.43005C12.787 5.43005 12.493 5.49 12.221 5.62C11.95 5.74 11.711 5.91001 11.506 6.13C11.303 6.34 11.144 6.58999 11.028 6.87C10.912 7.14 10.854 7.42999 10.854 7.73999C10.854 8.13999 10.949 8.52 11.138 8.87C11.33 9.22 11.592 9.50997 11.923 9.71997C12.258 9.93997 12.637 10.05 13.062 10.05ZM18.179 8.91003V7.90002L22.653 0.819946H23.389V2.39001H22.892L19.511 7.73999V7.81995H25.537V8.91003H18.179ZM22.971 11V8.59998V8.13V0.819946H24.145V11H22.971ZM27.796 11.08C27.551 11.08 27.34 10.9899 27.165 10.8199C26.989 10.6399 26.901 10.4301 26.901 10.1801C26.901 9.94005 26.989 9.73005 27.165 9.55005C27.34 9.38005 27.551 9.29004 27.796 9.29004C28.041 9.29004 28.252 9.38005 28.428 9.55005C28.603 9.73005 28.691 9.94005 28.691 10.1801C28.691 10.3501 28.65 10.5 28.567 10.63C28.487 10.77 28.379 10.88 28.244 10.96C28.111 11.04 27.962 11.08 27.796 11.08ZM33.742 11.14C32.993 11.14 32.355 10.94 31.828 10.53C31.301 10.12 30.898 9.51999 30.62 8.73999C30.342 7.95999 30.202 7.02003 30.202 5.91003C30.202 4.81003 30.342 3.86997 30.62 3.08997C30.902 2.30997 31.306 1.71005 31.833 1.30005C32.363 0.890049 33 0.680054 33.742 0.680054C34.485 0.680054 35.119 0.890049 35.646 1.30005C36.177 1.71005 36.581 2.30997 36.859 3.08997C37.141 3.86997 37.282 4.81003 37.282 5.91003C37.282 7.02003 37.143 7.95999 36.864 8.73999C36.586 9.51999 36.183 10.12 35.656 10.53C35.129 10.94 34.491 11.14 33.742 11.14ZM33.742 10.05C34.485 10.05 35.061 9.68997 35.472 8.96997C35.883 8.25997 36.089 7.23003 36.089 5.91003C36.089 5.03003 35.994 4.28003 35.805 3.66003C35.62 3.04003 35.351 2.55999 35 2.23999C34.652 1.91999 34.233 1.75 33.742 1.75C33.006 1.75 32.431 2.11997 32.017 2.83997C31.603 3.55997 31.396 4.59003 31.396 5.91003C31.396 6.79003 31.488 7.54003 31.674 8.16003C31.86 8.77003 32.126 9.24006 32.474 9.56006C32.826 9.88006 33.248 10.05 33.742 10.05ZM42.492 11.14C41.743 11.14 41.105 10.94 40.578 10.53C40.051 10.12 39.648 9.51999 39.37 8.73999C39.092 7.95999 38.952 7.02003 38.952 5.91003C38.952 4.81003 39.092 3.86997 39.37 3.08997C39.652 2.30997 40.056 1.71005 40.583 1.30005C41.113 0.890049 41.75 0.680054 42.492 0.680054C43.235 0.680054 43.869 0.890049 44.396 1.30005C44.927 1.71005 45.331 2.30997 45.609 3.08997C45.891 3.86997 46.032 4.81003 46.032 5.91003C46.032 7.02003 45.893 7.95999 45.614 8.73999C45.336 9.51999 44.933 10.12 44.406 10.53C43.879 10.94 43.241 11.14 42.492 11.14ZM42.492 10.05C43.235 10.05 43.811 9.68997 44.222 8.96997C44.633 8.25997 44.839 7.23003 44.839 5.91003C44.839 5.03003 44.744 4.28003 44.555 3.66003C44.37 3.04003 44.101 2.55999 43.75 2.23999C43.402 1.91999 42.983 1.75 42.492 1.75C41.756 1.75 41.181 2.11997 40.767 2.83997C40.353 3.55997 40.146 4.59003 40.146 5.91003C40.146 6.79003 40.238 7.54003 40.424 8.16003C40.61 8.77003 40.876 9.24006 41.224 9.56006C41.576 9.88006 41.998 10.05 42.492 10.05Z" fill="#5F6980"/>
</svg>
