<svg width="21" height="10" viewBox="0 0 21 10" fill="none" xmlns="http://www.w3.org/2000/svg">
<path d="M6.00699 2.45502C5.95599 2.02302 5.74901 1.68797 5.38501 1.44897C5.02101 1.20997 4.575 1.091 4.047 1.091C3.661 1.091 3.32299 1.15302 3.03299 1.27802C2.74599 1.40302 2.52099 1.57501 2.35999 1.79401C2.19999 2.01301 2.121 2.26098 2.121 2.53998C2.121 2.77298 2.17599 2.97299 2.28699 3.14099C2.40099 3.30499 2.54598 3.44302 2.72198 3.55402C2.89798 3.66202 3.083 3.75102 3.276 3.82202C3.469 3.89102 3.64601 3.94601 3.80801 3.98901L4.69501 4.22699C4.92201 4.28699 5.175 4.369 5.453 4.474C5.735 4.58 6.003 4.72303 6.259 4.90503C6.517 5.08403 6.73001 5.31397 6.89801 5.59497C7.06601 5.87597 7.14899 6.22198 7.14899 6.63098C7.14899 7.10198 7.02599 7.528 6.77899 7.909C6.53399 8.29 6.17599 8.59202 5.70499 8.81702C5.23599 9.04102 4.666 9.15302 3.996 9.15302C3.371 9.15302 2.83001 9.05301 2.37201 8.85101C1.91801 8.64901 1.56 8.36802 1.298 8.00702C1.04 7.64602 0.893985 7.227 0.859985 6.75H1.95001C1.97901 7.08 2.08999 7.35199 2.28299 7.56799C2.47899 7.78099 2.72599 7.93998 3.02399 8.04498C3.32499 8.14798 3.649 8.19897 3.996 8.19897C4.399 8.19897 4.76201 8.13399 5.08301 8.00299C5.40401 7.86899 5.658 7.68497 5.845 7.44897C6.033 7.20997 6.12701 6.93201 6.12701 6.61401C6.12701 6.32401 6.046 6.08801 5.884 5.90601C5.722 5.72401 5.50899 5.57701 5.24399 5.46301C4.97999 5.34901 4.695 5.24998 4.388 5.16498L3.314 4.85797C2.632 4.66197 2.09301 4.38201 1.69501 4.01801C1.29701 3.65501 1.09799 3.179 1.09799 2.591C1.09799 2.102 1.22999 1.67601 1.49399 1.31201C1.76199 0.946012 2.11899 0.662022 2.56799 0.460022C3.01999 0.256022 3.52399 0.153015 4.08099 0.153015C4.64399 0.153015 5.14399 0.253994 5.58099 0.455994C6.01899 0.654994 6.365 0.927987 6.621 1.27399C6.879 1.62099 7.016 2.01402 7.03 2.45502H6.00699ZM12.876 6.32397V2.45502H13.881V9H12.876V7.89203H12.807C12.654 8.22403 12.415 8.50699 12.091 8.73999C11.768 8.96999 11.358 9.08502 10.864 9.08502C10.455 9.08502 10.091 8.99602 9.77301 8.81702C9.45501 8.63502 9.20501 8.36202 9.02301 7.99902C8.84101 7.63202 8.75101 7.17001 8.75101 6.61401V2.45502H9.75601V6.54498C9.75601 7.02298 9.89001 7.40299 10.157 7.68799C10.427 7.97199 10.77 8.11401 11.188 8.11401C11.438 8.11401 11.692 8.05 11.951 7.922C12.212 7.794 12.431 7.59798 12.607 7.33398C12.786 7.06998 12.876 6.73297 12.876 6.32397ZM16.729 5.06201V9H15.723V2.45502H16.695V3.47699H16.78C16.933 3.14499 17.166 2.87803 17.479 2.67603C17.791 2.47203 18.195 2.36902 18.689 2.36902C19.132 2.36902 19.52 2.46003 19.852 2.64203C20.185 2.82103 20.443 3.09402 20.628 3.46002C20.813 3.82402 20.905 4.284 20.905 4.841V9H19.899V4.909C19.899 4.395 19.766 3.99397 19.499 3.70697C19.232 3.41797 18.865 3.27301 18.399 3.27301C18.078 3.27301 17.791 3.34199 17.539 3.48199C17.289 3.62099 17.091 3.824 16.946 4.091C16.801 4.358 16.729 4.68201 16.729 5.06201Z" fill="#9D9FA2"/>
</svg>
