<svg width="18" height="20" viewBox="0 0 18 20" fill="none" xmlns="http://www.w3.org/2000/svg">
<path d="M6 15V16C6 16.7956 6.31 17.5587 6.88 18.1213C7.44 18.6839 8.2 19 9 19C9.79 19 10.56 18.6839 11.12 18.1213C11.68 17.5587 12 16.7956 12 16V15M7 3C7 2.4696 7.20996 1.9609 7.57996 1.5858C7.95996 1.2107 8.47 1 9 1C9.53 1 10.04 1.2107 10.41 1.5858C10.79 1.9609 11 2.4696 11 3C12.15 3.543 13.13 4.3883 13.83 5.4453C14.54 6.5023 14.94 7.7311 15 9V12C15.07 12.6217 15.29 13.2171 15.64 13.7381C15.99 14.2592 16.45 14.6914 17 15H1C1.54 14.6914 2.00999 14.2592 2.35999 13.7381C2.69999 13.2171 2.92 12.6217 3 12V9C3.06 7.7311 3.46004 6.5023 4.17004 5.4453C4.87004 4.3883 5.85 3.543 7 3Z" stroke="#5F6980" stroke-width="1.38462" stroke-linecap="round" stroke-linejoin="round"/>
</svg>
