<svg width="20" height="10" viewBox="0 0 20 10" fill="none" xmlns="http://www.w3.org/2000/svg">
<path d="M0.362976 1.21002V0.27301H6.909V1.21002H4.164V9H3.10797V1.21002H0.362976ZM11.638 6.32397V2.45502H12.644V9H11.638V7.89203H11.57C11.416 8.22403 11.178 8.50699 10.854 8.73999C10.53 8.96999 10.121 9.08502 9.62598 9.08502C9.21698 9.08502 8.85401 8.99602 8.53601 8.81702C8.21701 8.63502 7.96701 8.36202 7.78601 7.99902C7.60401 7.63202 7.513 7.17001 7.513 6.61401V2.45502H8.51898V6.54498C8.51898 7.02298 8.65201 7.40299 8.91901 7.68799C9.18901 7.97199 9.53301 8.11401 9.95001 8.11401C10.2 8.11401 10.455 8.05 10.713 7.922C10.975 7.794 11.193 7.59798 11.369 7.33398C11.548 7.06998 11.638 6.73297 11.638 6.32397ZM17.23 9.13599C16.599 9.13599 16.055 8.99699 15.598 8.71899C15.143 8.43799 14.792 8.04503 14.545 7.54303C14.301 7.03703 14.179 6.44902 14.179 5.77802C14.179 5.10802 14.301 4.51698 14.545 4.00598C14.792 3.49098 15.136 3.09102 15.576 2.80402C16.02 2.51402 16.537 2.36902 17.128 2.36902C17.468 2.36902 17.805 2.42598 18.138 2.53998C18.47 2.65298 18.772 2.83799 19.045 3.09399C19.318 3.34699 19.535 3.682 19.697 4.099C19.859 4.517 19.94 5.03103 19.94 5.64203V6.06799H14.895V5.19897H18.917C18.917 4.82997 18.843 4.50002 18.696 4.21002C18.551 3.92002 18.343 3.69199 18.074 3.52399C17.807 3.35699 17.491 3.27301 17.128 3.27301C16.727 3.27301 16.38 3.37198 16.088 3.57098C15.798 3.76698 15.575 4.02301 15.419 4.33801C15.263 4.65301 15.184 4.99099 15.184 5.35199V5.93201C15.184 6.42601 15.27 6.84503 15.44 7.18903C15.613 7.53003 15.853 7.78999 16.16 7.96899C16.467 8.14499 16.824 8.23297 17.23 8.23297C17.494 8.23297 17.733 8.19601 17.946 8.12201C18.162 8.04501 18.348 7.93201 18.504 7.78101C18.66 7.62801 18.781 7.43702 18.866 7.21002L19.838 7.48297C19.736 7.81197 19.564 8.10199 19.322 8.35199C19.081 8.59899 18.782 8.79301 18.427 8.93201C18.072 9.06801 17.673 9.13599 17.23 9.13599Z" fill="#9D9FA2"/>
</svg>
