<svg width="17" height="16" viewBox="0 0 17 16" fill="none" xmlns="http://www.w3.org/2000/svg">
<path fill-rule="evenodd" clip-rule="evenodd" d="M8.91797 0.0310059C8.80497 0.0310059 8.69397 0.0330249 8.58197 0.0380249C8.51097 0.0260249 8.43897 0.0299878 8.37097 0.0499878C4.22497 0.330988 0.948975 3.783 0.948975 8C0.948975 12.22 4.22497 15.67 8.37097 15.95C8.43897 15.97 8.51097 15.97 8.58197 15.96C8.69397 15.97 8.80497 15.97 8.91797 15.97C9.02997 15.97 9.14197 15.97 9.25397 15.96C9.32497 15.97 9.39697 15.97 9.46497 15.95C13.611 15.67 16.887 12.22 16.887 8C16.887 3.783 13.611 0.331011 9.46497 0.0490112C9.39697 0.0300112 9.32497 0.0260249 9.25397 0.0380249C9.14197 0.0330249 9.02997 0.0310059 8.91797 0.0310059ZM9.07297 0.971008C9.02097 0.970008 8.96997 0.968994 8.91797 0.968994C8.86597 0.968994 8.81497 0.970008 8.76297 0.971008C7.99897 2.24901 7.45997 3.62101 7.14697 5.03101H10.689C10.376 3.62101 9.83697 2.24901 9.07297 0.971008ZM10.863 5.96899H6.97298C6.77098 7.31999 6.77098 8.69003 6.97298 10.03H10.863C11.064 8.69003 11.064 7.31999 10.863 5.96899ZM11.81 10.03C11.999 8.68003 11.999 7.31999 11.81 5.96899H15.651C15.845 6.60999 15.949 7.29 15.949 8C15.949 8.71 15.845 9.39003 15.651 10.03H11.81ZM10.688 10.97H7.14697C7.45997 12.38 7.99897 13.75 8.76297 15.03C8.81497 15.03 8.86597 15.03 8.91797 15.03C8.96997 15.03 9.02097 15.03 9.07297 15.03C9.83697 13.75 10.376 12.38 10.688 10.97ZM10.217 14.91C10.89 13.66 11.366 12.33 11.648 10.97H15.293C14.35 12.99 12.473 14.49 10.217 14.91ZM11.648 5.03101C11.366 3.67201 10.89 2.34299 10.217 1.08899C12.473 1.50999 14.35 3.00901 15.293 5.03101H11.648ZM7.61797 14.91C6.94597 13.66 6.46897 12.33 6.18797 10.97H2.54297C3.48597 12.99 5.36297 14.49 7.61797 14.91ZM6.02496 10.03C5.83696 8.68003 5.83696 7.31999 6.02496 5.96899H2.18497C1.99097 6.60999 1.88696 7.29 1.88696 8C1.88696 8.71 1.99097 9.39003 2.18497 10.03H6.02496ZM6.18797 5.03101C6.46897 3.67201 6.94597 2.34299 7.61797 1.08899C5.36197 1.50999 3.48597 3.00901 2.54297 5.03101H6.18797Z" fill="#5F6980"/>
</svg>
