<svg width="40" height="12" viewBox="0 0 40 12" fill="none" xmlns="http://www.w3.org/2000/svg">
<path d="M0.22998 0.819946H1.69995L5.16003 9.27002H5.28003L8.73999 0.819946H10.22V11H9.06006V3.26001H8.95996L5.78003 11H4.67004L1.48999 3.26001H1.39001V11H0.22998V0.819946ZM14.78 11.1801C14.29 11.1801 13.85 11.09 13.46 10.91C13.06 10.72 12.75 10.45 12.52 10.11C12.29 9.74999 12.17 9.32996 12.17 8.82996C12.17 8.38996 12.2601 8.04002 12.4301 7.77002C12.6001 7.49002 12.83 7.27999 13.12 7.12C13.41 6.97 13.73 6.85002 14.08 6.77002C14.43 6.69002 14.78 6.62997 15.13 6.58997C15.6 6.52997 15.97 6.47995 16.26 6.44995C16.55 6.41995 16.77 6.36004 16.9 6.29004C17.03 6.21004 17.1 6.08001 17.1 5.89001V5.84998C17.1 5.35998 16.97 4.97996 16.7 4.70996C16.43 4.42996 16.03 4.30005 15.49 4.30005C14.93 4.30005 14.49 4.42004 14.17 4.67004C13.86 4.91004 13.63 5.16995 13.5 5.44995L12.39 5.05005C12.59 4.59005 12.8499 4.22997 13.1899 3.96997C13.5199 3.70997 13.88 3.53004 14.28 3.42004C14.68 3.32004 15.07 3.26001 15.45 3.26001C15.7 3.26001 15.98 3.28998 16.3 3.34998C16.62 3.40998 16.93 3.52996 17.23 3.70996C17.53 3.88996 17.78 4.16002 17.98 4.52002C18.18 4.88002 18.28 5.35997 18.28 5.96997V11H17.1V9.96997H17.04C16.96 10.13 16.83 10.31 16.65 10.5C16.46 10.69 16.21 10.85 15.9 10.98C15.6 11.11 15.22 11.1801 14.78 11.1801ZM14.96 10.12C15.42 10.12 15.81 10.03 16.13 9.84998C16.45 9.66998 16.69 9.43002 16.85 9.15002C17.02 8.86002 17.1 8.54999 17.1 8.23999V7.16003C17.05 7.22003 16.94 7.27996 16.77 7.32996C16.61 7.36996 16.42 7.40995 16.2 7.44995C15.98 7.47995 15.7699 7.51004 15.5699 7.54004C15.3599 7.56004 15.1999 7.57998 15.0699 7.59998C14.7699 7.63998 14.48 7.70004 14.22 7.79004C13.96 7.88004 13.75 8.00994 13.58 8.18994C13.42 8.35994 13.34 8.59001 13.34 8.89001C13.34 9.30001 13.5 9.60995 13.8 9.81995C14.1 10.0199 14.49 10.12 14.96 10.12ZM20.42 11V3.35999H21.55V4.52002H21.63C21.77 4.14002 22.02 3.82998 22.39 3.59998C22.75 3.35998 23.16 3.23999 23.62 3.23999C23.71 3.23999 23.8099 3.25 23.9399 3.25C24.0699 3.25 24.17 3.26001 24.24 3.26001V4.45996C24.2 4.44996 24.1 4.43003 23.96 4.41003C23.82 4.39003 23.68 4.38 23.52 4.38C23.15 4.38 22.82 4.45999 22.53 4.60999C22.24 4.75999 22.01 4.98 21.84 5.25C21.67 5.52 21.59 5.82004 21.59 6.17004V11H20.42ZM28.5 11.16C27.78 11.16 27.16 10.99 26.65 10.65C26.13 10.31 25.73 9.85 25.45 9.25C25.18 8.66 25.04 7.97997 25.04 7.21997C25.04 6.44997 25.18 5.76004 25.46 5.17004C25.75 4.57004 26.15 4.11002 26.67 3.77002C27.18 3.43002 27.79 3.26001 28.48 3.26001C29.01 3.26001 29.5001 3.36006 29.9301 3.56006C30.3601 3.76006 30.71 4.04002 30.99 4.40002C31.26 4.76002 31.43 5.17002 31.5 5.65002H30.33C30.24 5.30002 30.04 4.98998 29.73 4.72998C29.42 4.44998 29.01 4.31995 28.5 4.31995C28.04 4.31995 27.64 4.44005 27.29 4.68005C26.95 4.91005 26.69 5.24005 26.49 5.68005C26.3 6.10005 26.21 6.61005 26.21 7.18005C26.21 7.77005 26.3 8.28997 26.49 8.71997C26.68 9.15997 26.94 9.49999 27.28 9.73999C27.63 9.97999 28.03 10.11 28.5 10.11C28.8 10.11 29.08 10.05 29.33 9.94995C29.58 9.83995 29.79 9.68999 29.96 9.48999C30.13 9.28999 30.25 9.05002 30.33 8.77002H31.5C31.43 9.22002 31.27 9.62999 31.01 9.98999C30.75 10.35 30.41 10.63 29.98 10.85C29.55 11.05 29.06 11.16 28.5 11.16ZM34.39 6.41003V11H33.21V0.819946H34.39V4.56006H34.49C34.67 4.16006 34.93 3.85 35.29 3.62C35.65 3.38 36.13 3.26001 36.73 3.26001C37.25 3.26001 37.71 3.36996 38.1 3.57996C38.49 3.77996 38.8 4.10003 39.01 4.53003C39.23 4.95003 39.34 5.49002 39.34 6.15002V11H38.17V6.22998C38.17 5.61998 38.0099 5.14995 37.6899 4.81995C37.3799 4.48995 36.95 4.31995 36.4 4.31995C36.01 4.31995 35.67 4.40006 35.36 4.56006C35.06 4.72006 34.82 4.96002 34.65 5.27002C34.47 5.58002 34.39 5.96003 34.39 6.41003Z" fill="#5F6980"/>
</svg>
