<svg width="19" height="10" viewBox="0 0 19 10" fill="none" xmlns="http://www.w3.org/2000/svg">
<path d="M5.93994 2.45502C5.88994 2.02302 5.67995 1.68797 5.31995 1.44897C4.95995 1.20997 4.50998 1.091 3.97998 1.091C3.59998 1.091 3.25997 1.15302 2.96997 1.27802C2.67997 1.40302 2.46005 1.57501 2.30005 1.79401C2.14005 2.01301 2.06006 2.26098 2.06006 2.53998C2.06006 2.77298 2.10997 2.97299 2.21997 3.14099C2.33997 3.30499 2.48003 3.44302 2.66003 3.55402C2.83003 3.66202 3.01996 3.75102 3.20996 3.82202C3.39996 3.89102 3.57999 3.94601 3.73999 3.98901L4.63 4.22699C4.86 4.28699 5.11001 4.369 5.39001 4.474C5.67001 4.58 5.93994 4.72303 6.18994 4.90503C6.44994 5.08403 6.66996 5.31397 6.82996 5.59497C6.99996 5.87597 7.07996 6.22198 7.07996 6.63098C7.07996 7.10198 6.95996 7.528 6.70996 7.909C6.46996 8.29 6.11001 8.59202 5.64001 8.81702C5.17001 9.04102 4.60005 9.15302 3.93005 9.15302C3.31005 9.15302 2.77006 9.05301 2.31006 8.85101C1.85006 8.64901 1.49998 8.36802 1.22998 8.00702C0.97998 7.64602 0.830049 7.227 0.800049 6.75H1.89001C1.91001 7.08 2.02997 7.35199 2.21997 7.56799C2.40997 7.78099 2.65996 7.93998 2.95996 8.04498C3.25996 8.14798 3.58005 8.19897 3.93005 8.19897C4.33005 8.19897 4.70002 8.13399 5.02002 8.00299C5.34002 7.86899 5.59003 7.68497 5.78003 7.44897C5.97003 7.20997 6.06006 6.93201 6.06006 6.61401C6.06006 6.32401 5.97995 6.08801 5.81995 5.90601C5.65995 5.72401 5.44005 5.57701 5.18005 5.46301C4.92005 5.34901 4.62995 5.24998 4.31995 5.16498L3.25 4.85797C2.57 4.66197 2.03 4.38201 1.63 4.01801C1.23 3.65501 1.03003 3.179 1.03003 2.591C1.03003 2.102 1.17005 1.67601 1.43005 1.31201C1.70005 0.946012 2.06 0.662022 2.5 0.460022C2.96 0.256022 3.46002 0.153015 4.02002 0.153015C4.58002 0.153015 5.08002 0.253994 5.52002 0.455994C5.95002 0.654994 6.30006 0.927987 6.56006 1.27399C6.81006 1.62099 6.94997 2.01402 6.96997 2.45502H5.93994ZM10.61 9.15302C10.2 9.15302 9.81998 9.07501 9.47998 8.91901C9.13998 8.76001 8.88005 8.53097 8.68005 8.23297C8.48005 7.93197 8.38 7.56803 8.38 7.14203C8.38 6.76703 8.44998 6.46298 8.59998 6.22998C8.74998 5.99398 8.94994 5.81003 9.18994 5.67603C9.43994 5.54303 9.71001 5.44299 10.01 5.37799C10.31 5.30999 10.62 5.256 10.92 5.216C11.32 5.165 11.64 5.12601 11.89 5.10101C12.14 5.07201 12.3201 5.02602 12.4301 4.96002C12.5501 4.89502 12.61 4.78102 12.61 4.61902V4.58502C12.61 4.16502 12.49 3.83798 12.26 3.60498C12.03 3.37198 11.69 3.25598 11.23 3.25598C10.75 3.25598 10.37 3.36098 10.1 3.57098C9.81998 3.78098 9.63002 4.00602 9.52002 4.24402L8.56995 3.90302C8.73995 3.50602 8.96 3.196 9.25 2.974C9.54 2.75 9.84994 2.59398 10.1899 2.50598C10.5299 2.41498 10.8599 2.36902 11.1899 2.36902C11.3999 2.36902 11.64 2.39498 11.92 2.44598C12.19 2.49398 12.46 2.59502 12.71 2.74902C12.97 2.90202 13.19 3.13399 13.36 3.44299C13.53 3.75299 13.61 4.16799 13.61 4.68799V9H12.61V8.11401H12.5601C12.4901 8.25601 12.37 8.40801 12.21 8.57001C12.06 8.73201 11.84 8.86897 11.58 8.98297C11.32 9.09697 10.99 9.15302 10.61 9.15302ZM10.77 8.25C11.16 8.25 11.5 8.17199 11.77 8.01599C12.05 7.85899 12.25 7.65801 12.39 7.41101C12.54 7.16301 12.61 6.90298 12.61 6.63098V5.71002C12.56 5.76102 12.47 5.80801 12.33 5.85101C12.18 5.89101 12.02 5.92597 11.83 5.95697C11.65 5.98597 11.47 6.011 11.29 6.034C11.12 6.054 10.98 6.07102 10.87 6.08502C10.61 6.11902 10.36 6.17498 10.13 6.25098C9.91 6.32498 9.72997 6.43701 9.58997 6.58801C9.44997 6.73601 9.38 6.93699 9.38 7.19299C9.38 7.54299 9.51002 7.80702 9.77002 7.98602C10.03 8.16202 10.37 8.25 10.77 8.25ZM18.29 2.45502V3.30701H14.9V2.45502H18.29ZM15.89 0.885986H16.9V7.125C16.9 7.409 16.94 7.62198 17.02 7.76398C17.11 7.90298 17.21 7.99698 17.34 8.04498C17.48 8.09098 17.62 8.11401 17.77 8.11401C17.88 8.11401 17.97 8.10799 18.04 8.09698C18.11 8.08198 18.17 8.07101 18.21 8.06201L18.41 8.966C18.35 8.991 18.25 9.01703 18.13 9.04303C18.01 9.07103 17.85 9.08502 17.66 9.08502C17.38 9.08502 17.1 9.02398 16.83 8.90198C16.56 8.77998 16.33 8.59399 16.16 8.34399C15.98 8.09399 15.89 7.77801 15.89 7.39801V0.885986Z" fill="#9D9FA2"/>
</svg>
