<svg width="52" height="10" viewBox="0 0 52 10" fill="none" xmlns="http://www.w3.org/2000/svg">
<path d="M0.860779 9V0.27301H4.13348C4.80398 0.27301 5.36648 0.39801 5.82098 0.64801C6.27838 0.89801 6.62358 1.24099 6.85648 1.67899C7.09228 2.11399 7.21018 2.60799 7.21018 3.16199C7.21018 3.72199 7.09228 4.21902 6.85648 4.65302C6.62068 5.08802 6.27268 5.42999 5.81248 5.67999C5.35228 5.92799 4.78548 6.05099 4.11218 6.05099H1.94318V4.75101H3.89908C4.29118 4.75101 4.61218 4.683 4.86218 4.547C5.11218 4.411 5.29688 4.22301 5.41618 3.98401C5.53838 3.74601 5.59938 3.47199 5.59938 3.16199C5.59938 2.85199 5.53838 2.57999 5.41618 2.34399C5.29688 2.10799 5.11078 1.92501 4.85798 1.79401C4.60798 1.66101 4.28548 1.59399 3.89058 1.59399H2.44178V9H0.860779ZM12.6808 9H10.9933L14.0657 0.27301H16.0174L19.0941 9H17.4066L15.0756 2.06201H15.0075L12.6808 9ZM12.7362 5.578H17.3384V6.84799H12.7362V5.578ZM29.0668 3.06C28.9957 2.83 28.8977 2.62399 28.7727 2.44199C28.6506 2.25699 28.5028 2.09899 28.3295 1.96899C28.1591 1.83799 27.9631 1.73999 27.7415 1.67499C27.5199 1.60699 27.2784 1.57199 27.017 1.57199C26.5483 1.57199 26.1307 1.68999 25.7642 1.92599C25.3977 2.16199 25.1094 2.509 24.8991 2.966C24.6918 3.42 24.5881 3.97399 24.5881 4.62799C24.5881 5.28699 24.6918 5.84501 24.8991 6.30301C25.1065 6.76001 25.3949 7.10799 25.7642 7.34698C26.1335 7.58198 26.5625 7.70001 27.0511 7.70001C27.4943 7.70001 27.8778 7.61501 28.2017 7.44501C28.5284 7.27401 28.7798 7.033 28.956 6.72C29.1321 6.405 29.2202 6.036 29.2202 5.612L29.5781 5.668H27.2088V4.43201H30.75V5.48001C30.75 6.22701 30.5909 6.87401 30.2727 7.41901C29.9545 7.96401 29.517 8.38499 28.9602 8.67999C28.4034 8.97299 27.7642 9.11899 27.0426 9.11899C26.2386 9.11899 25.5327 8.939 24.9247 8.578C24.3196 8.214 23.8466 7.69901 23.5057 7.03101C23.1676 6.36101 22.9986 5.56499 22.9986 4.64499C22.9986 3.93999 23.098 3.31099 23.2969 2.75699C23.4986 2.20299 23.7798 1.73298 24.1406 1.34698C24.5014 0.956985 24.9247 0.661991 25.4105 0.459991C25.8963 0.255991 26.4247 0.153015 26.9957 0.153015C27.4787 0.153015 27.929 0.223997 28.3466 0.365997C28.7642 0.505997 29.1349 0.705013 29.4588 0.963013C29.7855 1.22201 30.054 1.528 30.2642 1.884C30.4744 2.239 30.6122 2.631 30.6776 3.06H29.0668ZM35.2553 9V0.27301H40.9315V1.59799H36.8363V3.96701H40.6374V5.293H36.8363V7.67499H40.9656V9H35.2553ZM50.2638 2.672C50.2241 2.3 50.0565 2.01001 49.761 1.80301C49.4684 1.59501 49.0877 1.491 48.619 1.491C48.2894 1.491 48.0067 1.54099 47.771 1.64099C47.5352 1.73999 47.3548 1.87501 47.2298 2.04501C47.1048 2.21601 47.0408 2.411 47.038 2.629C47.038 2.811 47.0792 2.96899 47.1616 3.10199C47.2468 3.23599 47.3619 3.34899 47.5067 3.44299C47.6516 3.53399 47.8121 3.611 47.9883 3.673C48.1644 3.736 48.342 3.78799 48.521 3.83099L49.3391 4.03601C49.6687 4.11201 49.9854 4.21598 50.2894 4.34698C50.5962 4.47698 50.8704 4.642 51.1119 4.841C51.3562 5.04 51.5494 5.28 51.6914 5.561C51.8335 5.842 51.9045 6.17199 51.9045 6.54999C51.9045 7.06099 51.7738 7.511 51.5124 7.901C51.2511 8.287 50.8732 8.58901 50.3789 8.80801C49.8874 9.02401 49.2923 9.13199 48.5934 9.13199C47.9144 9.13199 47.3249 9.02699 46.8249 8.81699C46.3278 8.60699 45.9386 8.3 45.6573 7.896C45.3789 7.493 45.2283 7.001 45.2056 6.422H46.761C46.7837 6.726 46.8775 6.97899 47.0423 7.17999C47.207 7.38199 47.4215 7.53299 47.6857 7.63199C47.9528 7.73199 48.2511 7.78101 48.5806 7.78101C48.9244 7.78101 49.2255 7.72999 49.484 7.62799C49.7454 7.52299 49.9499 7.37799 50.0977 7.19299C50.2454 7.00599 50.3207 6.78699 50.3235 6.53699C50.3207 6.30999 50.2539 6.122 50.1232 5.974C49.9925 5.824 49.8093 5.699 49.5735 5.599C49.3406 5.497 49.0678 5.406 48.7553 5.327L47.7624 5.07101C47.0437 4.88601 46.4755 4.60699 46.0579 4.23199C45.6431 3.85399 45.4357 3.35199 45.4357 2.72699C45.4357 2.21299 45.5749 1.76301 45.8533 1.37601C46.1346 0.990007 46.5167 0.68999 46.9996 0.47699C47.4826 0.26099 48.0295 0.153015 48.6403 0.153015C49.2596 0.153015 49.8022 0.26099 50.2681 0.47699C50.7369 0.68999 51.1048 0.987011 51.3718 1.36801C51.6388 1.74601 51.7766 2.18 51.7852 2.672H50.2638Z" fill="#9D9FA2"/>
</svg>
