<svg width="47" height="12" viewBox="0 0 47 12" fill="none" xmlns="http://www.w3.org/2000/svg">
<path d="M4.29501 0.680034C4.71301 0.680034 5.131 0.760025 5.548 0.920025C5.966 1.07002 6.34699 1.32992 6.69199 1.68992C7.03599 2.04992 7.313 2.54001 7.522 3.16001C7.731 3.78001 7.83499 4.55997 7.83499 5.48997C7.83499 6.39997 7.749 7.20001 7.577 7.9C7.408 8.6 7.162 9.19003 6.841 9.67002C6.523 10.15 6.13501 10.52 5.67801 10.77C5.22301 11.01 4.70999 11.14 4.13599 11.14C3.56599 11.14 3.05799 11.03 2.60999 10.8C2.16599 10.57 1.80099 10.26 1.51599 9.84996C1.23499 9.43996 1.054 8.97003 0.973999 8.43003H2.18799C2.29699 8.90003 2.51399 9.28995 2.83899 9.58995C3.16699 9.88995 3.59899 10.05 4.13599 10.05C4.92199 10.05 5.542 9.7 5.996 9.02C6.453 8.33 6.68201 7.35997 6.68201 6.10997H6.60199C6.41699 6.38997 6.19601 6.62994 5.94101 6.82994C5.68601 7.02994 5.402 7.19003 5.091 7.30003C4.779 7.41003 4.44798 7.45994 4.09698 7.45994C3.51298 7.45994 2.978 7.32001 2.491 7.03001C2.007 6.74001 1.619 6.33994 1.327 5.82994C1.039 5.31994 0.894989 4.73994 0.894989 4.07994C0.894989 3.45994 1.03401 2.88998 1.31201 2.36998C1.59401 1.84998 1.989 1.42999 2.496 1.12999C3.006 0.819985 3.60601 0.670034 4.29501 0.680034ZM4.29501 1.77C3.87801 1.77 3.50199 1.87995 3.16699 2.08995C2.83499 2.28995 2.57201 2.57002 2.37601 2.92002C2.18401 3.27002 2.08801 3.65994 2.08801 4.07994C2.08801 4.49994 2.181 4.88997 2.366 5.23997C2.555 5.57997 2.81199 5.86004 3.13699 6.06004C3.46499 6.27004 3.83801 6.36998 4.25601 6.36998C4.57101 6.36998 4.86399 6.31003 5.13599 6.18003C5.40699 6.06003 5.64398 5.89002 5.84698 5.67002C6.05198 5.45002 6.21301 5.20003 6.32901 4.93003C6.44501 4.65003 6.50299 4.36004 6.50299 4.06004C6.50299 3.66004 6.40699 3.28992 6.21399 2.93992C6.02599 2.58992 5.76399 2.30996 5.42899 2.09996C5.09799 1.87996 4.72001 1.77 4.29501 1.77ZM13.032 0.680034C13.449 0.680034 13.867 0.760025 14.285 0.920025C14.702 1.07002 15.083 1.32992 15.428 1.68992C15.773 2.04992 16.05 2.54001 16.258 3.16001C16.467 3.78001 16.572 4.55997 16.572 5.48997C16.572 6.39997 16.485 7.20001 16.313 7.9C16.144 8.6 15.899 9.19003 15.577 9.67002C15.259 10.15 14.871 10.52 14.414 10.77C13.96 11.01 13.446 11.14 12.873 11.14C12.303 11.14 11.794 11.03 11.346 10.8C10.902 10.57 10.538 10.26 10.253 9.84996C9.97099 9.43996 9.79 8.97003 9.711 8.43003H10.924C11.033 8.90003 11.25 9.28995 11.575 9.58995C11.903 9.88995 12.336 10.05 12.873 10.05C13.658 10.05 14.278 9.7 14.732 9.02C15.189 8.33 15.418 7.35997 15.418 6.10997H15.339C15.153 6.38997 14.933 6.62994 14.677 6.82994C14.422 7.02994 14.139 7.19003 13.827 7.30003C13.516 7.41003 13.184 7.45994 12.833 7.45994C12.25 7.45994 11.714 7.32001 11.227 7.03001C10.743 6.74001 10.355 6.33994 10.064 5.82994C9.775 5.31994 9.63101 4.73994 9.63101 4.07994C9.63101 3.45994 9.77001 2.88998 10.049 2.36998C10.331 1.84998 10.725 1.42999 11.232 1.12999C11.742 0.819985 12.342 0.670034 13.032 0.680034ZM13.032 1.77C12.614 1.77 12.238 1.87995 11.903 2.08995C11.572 2.28995 11.308 2.57002 11.113 2.92002C10.921 3.27002 10.824 3.65994 10.824 4.07994C10.824 4.49994 10.917 4.88997 11.103 5.23997C11.292 5.57997 11.549 5.86004 11.873 6.06004C12.202 6.27004 12.574 6.36998 12.992 6.36998C13.307 6.36998 13.6 6.31003 13.872 6.18003C14.144 6.06003 14.381 5.89002 14.583 5.67002C14.788 5.45002 14.949 5.20003 15.065 4.93003C15.181 4.65003 15.239 4.36004 15.239 4.06004C15.239 3.66004 15.143 3.28992 14.951 2.93992C14.762 2.58992 14.5 2.30996 14.165 2.09996C13.834 1.87996 13.456 1.77 13.032 1.77ZM21.768 0.680034C22.186 0.680034 22.603 0.760025 23.021 0.920025C23.439 1.07002 23.82 1.32992 24.164 1.68992C24.509 2.04992 24.786 2.54001 24.995 3.16001C25.203 3.78001 25.308 4.55997 25.308 5.48997C25.308 6.39997 25.222 7.20001 25.049 7.9C24.88 8.6 24.635 9.19003 24.314 9.67002C23.995 10.15 23.608 10.52 23.15 10.77C22.696 11.01 22.182 11.14 21.609 11.14C21.039 11.14 20.53 11.03 20.083 10.8C19.639 10.57 19.274 10.26 18.989 9.84996C18.707 9.43996 18.527 8.97003 18.447 8.43003H19.66C19.77 8.90003 19.987 9.28995 20.311 9.58995C20.64 9.88995 21.072 10.05 21.609 10.05C22.395 10.05 23.014 9.7 23.468 9.02C23.926 8.33 24.154 7.35997 24.154 6.10997H24.075C23.889 6.38997 23.669 6.62994 23.414 6.82994C23.158 7.02994 22.875 7.19003 22.564 7.30003C22.252 7.41003 21.921 7.45994 21.569 7.45994C20.986 7.45994 20.451 7.32001 19.963 7.03001C19.48 6.74001 19.092 6.33994 18.8 5.82994C18.512 5.31994 18.368 4.73994 18.368 4.07994C18.368 3.45994 18.507 2.88998 18.785 2.36998C19.067 1.84998 19.461 1.42999 19.968 1.12999C20.479 0.819985 21.079 0.670034 21.768 0.680034ZM21.768 1.77C21.35 1.77 20.974 1.87995 20.64 2.08995C20.308 2.28995 20.045 2.57002 19.849 2.92002C19.657 3.27002 19.561 3.65994 19.561 4.07994C19.561 4.49994 19.654 4.88997 19.839 5.23997C20.028 5.57997 20.285 5.86004 20.61 6.06004C20.938 6.27004 21.311 6.36998 21.728 6.36998C22.043 6.36998 22.337 6.31003 22.608 6.18003C22.88 6.06003 23.117 5.89002 23.319 5.67002C23.525 5.45002 23.685 5.20003 23.801 4.93003C23.917 4.65003 23.975 4.36004 23.975 4.06004C23.975 3.66004 23.879 3.28992 23.687 2.93992C23.498 2.58992 23.236 2.30996 22.902 2.09996C22.57 1.87996 22.192 1.77 21.768 1.77ZM27.782 11.0799C27.537 11.0799 27.327 10.9899 27.151 10.8199C26.975 10.6399 26.888 10.43 26.888 10.18C26.888 9.94003 26.975 9.73003 27.151 9.55003C27.327 9.38003 27.537 9.29002 27.782 9.29002C28.028 9.29002 28.238 9.38003 28.414 9.55003C28.59 9.73003 28.677 9.94003 28.677 10.18C28.677 10.35 28.636 10.5 28.553 10.63C28.474 10.77 28.366 10.8799 28.23 10.9599C28.097 11.0399 27.948 11.0799 27.782 11.0799ZM33.729 11.14C32.979 11.14 32.341 10.94 31.814 10.53C31.287 10.12 30.885 9.51997 30.606 8.73997C30.328 7.95997 30.189 7.02001 30.189 5.91001C30.189 4.81001 30.328 3.86995 30.606 3.08995C30.888 2.30995 31.292 1.71003 31.819 1.30003C32.35 0.890029 32.986 0.680034 33.729 0.680034C34.471 0.680034 35.106 0.890029 35.633 1.30003C36.163 1.71003 36.567 2.30995 36.846 3.08995C37.127 3.86995 37.268 4.81001 37.268 5.91001C37.268 7.02001 37.129 7.95997 36.851 8.73997C36.572 9.51997 36.17 10.12 35.643 10.53C35.116 10.94 34.478 11.14 33.729 11.14ZM33.729 10.05C34.471 10.05 35.048 9.68995 35.459 8.96995C35.87 8.25995 36.075 7.23001 36.075 5.91001C36.075 5.03001 35.981 4.28001 35.792 3.66001C35.606 3.04001 35.338 2.55997 34.986 2.23997C34.638 1.91997 34.219 1.74998 33.729 1.74998C32.993 1.74998 32.418 2.11995 32.003 2.83995C31.589 3.55995 31.382 4.59001 31.382 5.91001C31.382 6.79001 31.475 7.54001 31.66 8.16001C31.846 8.77001 32.113 9.24004 32.461 9.56004C32.812 9.88004 33.235 10.05 33.729 10.05ZM42.479 11.14C41.729 11.14 41.091 10.94 40.564 10.53C40.037 10.12 39.635 9.51997 39.356 8.73997C39.078 7.95997 38.939 7.02001 38.939 5.91001C38.939 4.81001 39.078 3.86995 39.356 3.08995C39.638 2.30995 40.042 1.71003 40.569 1.30003C41.1 0.890029 41.736 0.680034 42.479 0.680034C43.221 0.680034 43.856 0.890029 44.383 1.30003C44.913 1.71003 45.317 2.30995 45.596 3.08995C45.877 3.86995 46.018 4.81001 46.018 5.91001C46.018 7.02001 45.879 7.95997 45.601 8.73997C45.322 9.51997 44.92 10.12 44.393 10.53C43.866 10.94 43.228 11.14 42.479 11.14ZM42.479 10.05C43.221 10.05 43.798 9.68995 44.209 8.96995C44.62 8.25995 44.825 7.23001 44.825 5.91001C44.825 5.03001 44.731 4.28001 44.542 3.66001C44.356 3.04001 44.088 2.55997 43.736 2.23997C43.388 1.91997 42.969 1.74998 42.479 1.74998C41.743 1.74998 41.168 2.11995 40.753 2.83995C40.339 3.55995 40.132 4.59001 40.132 5.91001C40.132 6.79001 40.225 7.54001 40.41 8.16001C40.596 8.77001 40.863 9.24004 41.211 9.56004C41.562 9.88004 41.985 10.05 42.479 10.05Z" fill="#5F6980"/>
</svg>
