<svg width="43" height="12" viewBox="0 0 43 12" fill="none" xmlns="http://www.w3.org/2000/svg">
<path d="M4.634 0.819946V11H3.401V2.10999H3.341L0.855011 3.76001V2.51001L3.401 0.819946H4.634ZM7.88 11L12.434 1.98999V1.91003H7.18399V0.819946H13.707V1.96997L9.173 11H7.88ZM18.722 11.14C18.304 11.13 17.887 11.05 17.469 10.9C17.051 10.75 16.67 10.49 16.325 10.13C15.981 9.77001 15.704 9.27002 15.495 8.65002C15.286 8.03002 15.182 7.25006 15.182 6.31006C15.182 5.41006 15.267 4.61003 15.436 3.91003C15.605 3.21003 15.85 2.62002 16.171 2.15002C16.493 1.67002 16.881 1.30005 17.335 1.05005C17.792 0.800049 18.307 0.680054 18.881 0.680054C19.451 0.680054 19.958 0.79002 20.402 1.02002C20.85 1.25002 21.214 1.55997 21.496 1.96997C21.778 2.36997 21.96 2.83999 22.043 3.35999H20.83C20.717 2.90999 20.498 2.52998 20.173 2.22998C19.849 1.91998 19.418 1.77002 18.881 1.77002C18.092 1.77002 17.471 2.12005 17.017 2.80005C16.566 3.49005 16.339 4.44994 16.335 5.68994H16.415C16.601 5.40994 16.821 5.16997 17.076 4.96997C17.335 4.76997 17.62 4.61 17.931 4.5C18.243 4.39 18.573 4.33997 18.921 4.33997C19.504 4.33997 20.038 4.48003 20.521 4.78003C21.005 5.06003 21.393 5.45997 21.685 5.96997C21.977 6.47997 22.122 7.05997 22.122 7.71997C22.122 8.34997 21.981 8.92995 21.7 9.44995C21.418 9.96995 21.022 10.3799 20.512 10.6899C20.004 10.9999 19.408 11.15 18.722 11.14ZM18.722 10.05C19.139 10.05 19.514 9.93998 19.845 9.72998C20.18 9.51998 20.444 9.24002 20.636 8.89001C20.831 8.54001 20.929 8.14997 20.929 7.71997C20.929 7.29997 20.835 6.91995 20.646 6.56995C20.46 6.21995 20.203 5.94999 19.875 5.73999C19.55 5.52999 19.179 5.43005 18.762 5.43005C18.447 5.43005 18.153 5.49 17.882 5.62C17.61 5.74 17.371 5.91001 17.166 6.13C16.963 6.34 16.804 6.58999 16.688 6.87C16.572 7.14 16.514 7.42999 16.514 7.73999C16.514 8.13999 16.609 8.52 16.798 8.87C16.99 9.22 17.252 9.50997 17.583 9.71997C17.918 9.93997 18.298 10.05 18.722 10.05ZM24.474 11.08C24.229 11.08 24.018 10.9899 23.843 10.8199C23.667 10.6399 23.579 10.4301 23.579 10.1801C23.579 9.94005 23.667 9.73005 23.843 9.55005C24.018 9.38005 24.229 9.29004 24.474 9.29004C24.719 9.29004 24.93 9.38005 25.105 9.55005C25.281 9.73005 25.369 9.94005 25.369 10.1801C25.369 10.3501 25.327 10.5 25.244 10.63C25.165 10.77 25.057 10.88 24.921 10.96C24.789 11.04 24.64 11.08 24.474 11.08ZM30.42 11.14C29.671 11.14 29.033 10.94 28.506 10.53C27.979 10.12 27.576 9.51999 27.298 8.73999C27.019 7.95999 26.88 7.02003 26.88 5.91003C26.88 4.81003 27.019 3.86997 27.298 3.08997C27.579 2.30997 27.984 1.71005 28.511 1.30005C29.041 0.890049 29.677 0.680054 30.42 0.680054C31.162 0.680054 31.797 0.890049 32.324 1.30005C32.854 1.71005 33.259 2.30997 33.537 3.08997C33.819 3.86997 33.96 4.81003 33.96 5.91003C33.96 7.02003 33.82 7.95999 33.542 8.73999C33.264 9.51999 32.861 10.12 32.334 10.53C31.807 10.94 31.169 11.14 30.42 11.14ZM30.42 10.05C31.162 10.05 31.739 9.68997 32.15 8.96997C32.561 8.25997 32.767 7.23003 32.767 5.91003C32.767 5.03003 32.672 4.28003 32.483 3.66003C32.298 3.04003 32.029 2.55999 31.678 2.23999C31.33 1.91999 30.91 1.75 30.42 1.75C29.684 1.75 29.109 2.11997 28.695 2.83997C28.28 3.55997 28.073 4.59003 28.073 5.91003C28.073 6.79003 28.166 7.54003 28.352 8.16003C28.537 8.77003 28.804 9.24006 29.152 9.56006C29.503 9.88006 29.926 10.05 30.42 10.05ZM39.17 11.14C38.421 11.14 37.783 10.94 37.256 10.53C36.729 10.12 36.326 9.51999 36.048 8.73999C35.769 7.95999 35.63 7.02003 35.63 5.91003C35.63 4.81003 35.769 3.86997 36.048 3.08997C36.329 2.30997 36.734 1.71005 37.261 1.30005C37.791 0.890049 38.427 0.680054 39.17 0.680054C39.912 0.680054 40.547 0.890049 41.074 1.30005C41.604 1.71005 42.009 2.30997 42.287 3.08997C42.569 3.86997 42.71 4.81003 42.71 5.91003C42.71 7.02003 42.57 7.95999 42.292 8.73999C42.014 9.51999 41.611 10.12 41.084 10.53C40.557 10.94 39.919 11.14 39.17 11.14ZM39.17 10.05C39.912 10.05 40.489 9.68997 40.9 8.96997C41.311 8.25997 41.517 7.23003 41.517 5.91003C41.517 5.03003 41.422 4.28003 41.233 3.66003C41.048 3.04003 40.779 2.55999 40.428 2.23999C40.08 1.91999 39.66 1.75 39.17 1.75C38.434 1.75 37.859 2.11997 37.445 2.83997C37.03 3.55997 36.823 4.59003 36.823 5.91003C36.823 6.79003 36.916 7.54003 37.102 8.16003C37.287 8.77003 37.554 9.24006 37.902 9.56006C38.253 9.88006 38.676 10.05 39.17 10.05Z" fill="#5F6980"/>
</svg>
