<svg width="64" height="12" viewBox="0 0 64 12" fill="none" xmlns="http://www.w3.org/2000/svg">
<path d="M0.232971 11V0.817993H6.33801V1.91199H1.466V5.35199H5.88098V6.44598H1.466V11H0.232971ZM10.538 11.179C10.054 11.179 9.61497 11.088 9.21997 10.906C8.82597 10.72 8.51301 10.453 8.28101 10.105C8.04901 9.75398 7.93298 9.32997 7.93298 8.83197C7.93298 8.39497 8.01898 8.04001 8.19098 7.76801C8.36398 7.49301 8.59402 7.27801 8.88202 7.12201C9.17102 6.96601 9.48898 6.84999 9.83698 6.77399C10.188 6.69499 10.541 6.63202 10.896 6.58502C11.36 6.52602 11.736 6.48099 12.024 6.45099C12.316 6.41799 12.528 6.36299 12.661 6.28699C12.797 6.21099 12.865 6.07798 12.865 5.88898V5.849C12.865 5.359 12.73 4.97799 12.462 4.70599C12.197 4.43399 11.794 4.29797 11.254 4.29797C10.694 4.29797 10.254 4.42102 9.93597 4.66602C9.61797 4.91102 9.39401 5.17303 9.26501 5.45203L8.151 5.05402C8.35 4.59002 8.61502 4.22897 8.94702 3.96997C9.28202 3.70797 9.64602 3.52597 10.041 3.42297C10.438 3.31697 10.829 3.26398 11.214 3.26398C11.459 3.26398 11.741 3.294 12.059 3.354C12.381 3.41 12.691 3.52797 12.989 3.70697C13.29 3.88597 13.541 4.15603 13.74 4.51703C13.938 4.87803 14.038 5.36199 14.038 5.96899V11H12.865V9.966H12.805C12.725 10.132 12.593 10.309 12.407 10.498C12.222 10.687 11.975 10.848 11.666 10.98C11.358 11.113 10.982 11.179 10.538 11.179ZM10.717 10.125C11.181 10.125 11.572 10.034 11.89 9.85199C12.212 9.66899 12.454 9.434 12.616 9.146C12.782 8.857 12.865 8.55402 12.865 8.23602V7.16199C12.815 7.22199 12.705 7.27599 12.536 7.32599C12.371 7.37199 12.178 7.41401 11.96 7.45001C11.744 7.48301 11.534 7.51298 11.328 7.53998C11.126 7.56298 10.962 7.583 10.836 7.599C10.531 7.639 10.246 7.70403 9.98102 7.79303C9.71902 7.87903 9.50697 8.00997 9.34497 8.18597C9.18597 8.35797 9.10602 8.59403 9.10602 8.89203C9.10602 9.30003 9.25698 9.60802 9.55798 9.81702C9.86298 10.022 10.249 10.125 10.717 10.125ZM19.282 11.159C18.566 11.159 17.949 10.99 17.432 10.652C16.915 10.314 16.517 9.84801 16.239 9.255C15.961 8.662 15.821 7.98398 15.821 7.22198C15.821 6.44598 15.964 5.76203 16.249 5.16803C16.537 4.57203 16.938 4.106 17.452 3.771C17.969 3.433 18.572 3.26398 19.262 3.26398C19.799 3.26398 20.283 3.36401 20.713 3.56201C21.144 3.76101 21.497 4.04001 21.772 4.39801C22.047 4.75601 22.218 5.173 22.284 5.651H21.111C21.022 5.303 20.823 4.99401 20.515 4.72601C20.21 4.45401 19.799 4.31799 19.282 4.31799C18.824 4.31799 18.423 4.43703 18.078 4.67603C17.737 4.91103 17.47 5.24499 17.278 5.67499C17.089 6.10299 16.995 6.60501 16.995 7.18201C16.995 7.77201 17.087 8.28602 17.273 8.72302C17.462 9.16102 17.727 9.5 18.069 9.742C18.413 9.984 18.818 10.105 19.282 10.105C19.587 10.105 19.863 10.052 20.112 9.94598C20.36 9.83998 20.571 9.68801 20.743 9.48901C20.916 9.29001 21.038 9.05101 21.111 8.77301H22.284C22.218 9.22301 22.054 9.62903 21.792 9.99103C21.534 10.349 21.191 10.634 20.763 10.846C20.339 11.055 19.845 11.159 19.282 11.159ZM27.201 11.159C26.466 11.159 25.831 10.997 25.297 10.672C24.767 10.344 24.358 9.88599 24.069 9.29999C23.784 8.70999 23.642 8.02403 23.642 7.24103C23.642 6.45903 23.784 5.76997 24.069 5.17297C24.358 4.57297 24.759 4.106 25.272 3.771C25.789 3.433 26.393 3.26398 27.082 3.26398C27.48 3.26398 27.873 3.33001 28.26 3.46301C28.648 3.59601 29.001 3.81101 29.319 4.10901C29.637 4.40401 29.891 4.79502 30.08 5.28302C30.269 5.77002 30.363 6.36997 30.363 7.08197V7.58002H24.477V6.565H29.17C29.17 6.134 29.084 5.74999 28.912 5.41199C28.743 5.07399 28.501 4.807 28.186 4.612C27.874 4.416 27.506 4.31799 27.082 4.31799C26.615 4.31799 26.21 4.43402 25.869 4.66602C25.531 4.89502 25.271 5.19297 25.088 5.56097C24.906 5.92897 24.815 6.32302 24.815 6.74402V7.41998C24.815 7.99698 24.914 8.48602 25.113 8.88702C25.315 9.28502 25.596 9.588 25.953 9.797C26.311 10.002 26.727 10.105 27.201 10.105C27.51 10.105 27.788 10.062 28.037 9.97601C28.288 9.88601 28.506 9.754 28.688 9.578C28.87 9.399 29.011 9.17699 29.11 8.91199L30.244 9.22998C30.125 9.61498 29.924 9.95302 29.642 10.244C29.361 10.533 29.013 10.758 28.598 10.92C28.184 11.08 27.718 11.159 27.201 11.159ZM32.307 11V0.817993H33.48V4.57703H33.58C33.666 4.44403 33.785 4.27501 33.938 4.07001C34.094 3.86101 34.316 3.675 34.604 3.513C34.896 3.347 35.29 3.26398 35.787 3.26398C36.43 3.26398 36.997 3.42497 37.488 3.74597C37.978 4.06797 38.361 4.52401 38.636 5.11401C38.911 5.70401 39.049 6.40003 39.049 7.20203C39.049 8.01003 38.911 8.71099 38.636 9.30499C38.361 9.89499 37.98 10.352 37.493 10.677C37.005 10.998 36.444 11.159 35.807 11.159C35.317 11.159 34.924 11.078 34.629 10.915C34.334 10.75 34.107 10.562 33.948 10.354C33.789 10.142 33.666 9.96603 33.58 9.82703H33.441V11H32.307ZM33.461 7.18201C33.461 7.75901 33.545 8.26701 33.714 8.70801C33.883 9.14601 34.13 9.489 34.455 9.737C34.78 9.982 35.177 10.105 35.648 10.105C36.139 10.105 36.548 9.97598 36.876 9.71698C37.208 9.45498 37.456 9.10402 37.622 8.66302C37.791 8.21902 37.875 7.72501 37.875 7.18201C37.875 6.64501 37.792 6.16098 37.627 5.72998C37.464 5.29598 37.217 4.95299 36.886 4.70099C36.558 4.44599 36.145 4.31799 35.648 4.31799C35.171 4.31799 34.77 4.43903 34.445 4.68103C34.12 4.92003 33.875 5.254 33.709 5.685C33.543 6.113 33.461 6.61201 33.461 7.18201ZM43.946 11.159C43.256 11.159 42.651 10.995 42.131 10.667C41.614 10.339 41.21 9.87998 40.918 9.28998C40.63 8.69998 40.485 8.00998 40.485 7.22198C40.485 6.42598 40.63 5.732 40.918 5.138C41.21 4.545 41.614 4.08498 42.131 3.75598C42.651 3.42798 43.256 3.26398 43.946 3.26398C44.635 3.26398 45.238 3.42798 45.755 3.75598C46.276 4.08498 46.68 4.545 46.968 5.138C47.26 5.732 47.406 6.42598 47.406 7.22198C47.406 8.00998 47.26 8.69998 46.968 9.28998C46.68 9.87998 46.276 10.339 45.755 10.667C45.238 10.995 44.635 11.159 43.946 11.159ZM43.946 10.105C44.469 10.105 44.9 9.97103 45.238 9.70203C45.576 9.43403 45.827 9.08101 45.989 8.64301C46.151 8.20601 46.233 7.73199 46.233 7.22198C46.233 6.71098 46.151 6.23598 45.989 5.79498C45.827 5.35398 45.576 4.99801 45.238 4.72601C44.9 4.45401 44.469 4.31799 43.946 4.31799C43.422 4.31799 42.991 4.45401 42.653 4.72601C42.315 4.99801 42.065 5.35398 41.902 5.79498C41.74 6.23598 41.659 6.71098 41.659 7.22198C41.659 7.73199 41.74 8.20601 41.902 8.64301C42.065 9.08101 42.315 9.43403 42.653 9.70203C42.991 9.97103 43.422 10.105 43.946 10.105ZM52.299 11.159C51.61 11.159 51.005 10.995 50.485 10.667C49.968 10.339 49.563 9.87998 49.271 9.28998C48.983 8.69998 48.839 8.00998 48.839 7.22198C48.839 6.42598 48.983 5.732 49.271 5.138C49.563 4.545 49.968 4.08498 50.485 3.75598C51.005 3.42798 51.61 3.26398 52.299 3.26398C52.989 3.26398 53.592 3.42798 54.109 3.75598C54.629 4.08498 55.034 4.545 55.322 5.138C55.614 5.732 55.759 6.42598 55.759 7.22198C55.759 8.00998 55.614 8.69998 55.322 9.28998C55.034 9.87998 54.629 10.339 54.109 10.667C53.592 10.995 52.989 11.159 52.299 11.159ZM52.299 10.105C52.823 10.105 53.254 9.97103 53.592 9.70203C53.93 9.43403 54.18 9.08101 54.343 8.64301C54.505 8.20601 54.586 7.73199 54.586 7.22198C54.586 6.71098 54.505 6.23598 54.343 5.79498C54.18 5.35398 53.93 4.99801 53.592 4.72601C53.254 4.45401 52.823 4.31799 52.299 4.31799C51.776 4.31799 51.345 4.45401 51.007 4.72601C50.669 4.99801 50.418 5.35398 50.256 5.79498C50.093 6.23598 50.012 6.71098 50.012 7.22198C50.012 7.73199 50.093 8.20601 50.256 8.64301C50.418 9.08101 50.669 9.43403 51.007 9.70203C51.345 9.97103 51.776 10.105 52.299 10.105ZM58.644 8.216L58.624 6.76398H58.863L62.204 3.36401H63.656L60.096 6.96301H59.996L58.644 8.216ZM57.55 11V0.817993H58.724V11H57.55ZM62.403 11L59.42 7.22198L60.255 6.40601L63.894 11H62.403Z" fill="#5F6980"/>
</svg>
