<svg width="4" height="18" viewBox="0 0 4 18" fill="none" xmlns="http://www.w3.org/2000/svg">
<path d="M1 9C1 9.265 1.11004 9.51897 1.29004 9.70697C1.48004 9.89397 1.74 10 2 10C2.27 10 2.51996 9.89397 2.70996 9.70697C2.89996 9.51897 3 9.265 3 9C3 8.734 2.89996 8.48003 2.70996 8.29303C2.51996 8.10503 2.27 8 2 8C1.74 8 1.48004 8.10503 1.29004 8.29303C1.11004 8.48003 1 8.734 1 9ZM1 16C1 16.265 1.11004 16.519 1.29004 16.707C1.48004 16.894 1.74 17 2 17C2.27 17 2.51996 16.894 2.70996 16.707C2.89996 16.519 3 16.265 3 16C3 15.734 2.89996 15.48 2.70996 15.293C2.51996 15.105 2.27 15 2 15C1.74 15 1.48004 15.105 1.29004 15.293C1.11004 15.48 1 15.734 1 16ZM1 2C1 2.265 1.11004 2.51897 1.29004 2.70697C1.48004 2.89397 1.74 3 2 3C2.27 3 2.51996 2.89397 2.70996 2.70697C2.89996 2.51897 3 2.265 3 2C3 1.734 2.89996 1.48003 2.70996 1.29303C2.51996 1.10503 2.27 1 2 1C1.74 1 1.48004 1.10503 1.29004 1.29303C1.11004 1.48003 1 1.734 1 2Z" stroke="#9D9FA2" stroke-width="1.38462" stroke-linecap="round" stroke-linejoin="round"/>
</svg>
