<svg width="281" height="28" viewBox="0 0 281 28" fill="none" xmlns="http://www.w3.org/2000/svg">
<path d="M12.845 1.63599H16.534V14.94C16.534 16.399 16.189 17.681 15.5 18.788C14.817 19.895 13.856 20.76 12.616 21.384C11.377 22 9.92903 22.308 8.27103 22.308C6.60703 22.308 5.15602 22 3.91602 21.384C2.67702 20.76 1.71502 19.895 1.03302 18.788C0.35002 17.681 0.0090332 16.399 0.0090332 14.94V1.63599H3.69702V14.632C3.69702 15.481 3.88303 16.236 4.25403 16.899C4.63203 17.562 5.16203 18.082 5.84503 18.46C6.52803 18.831 7.33703 19.017 8.27103 19.017C9.20603 19.017 10.015 18.831 10.697 18.46C11.387 18.082 11.917 17.562 12.288 16.899C12.66 16.236 12.845 15.481 12.845 14.632V1.63599ZM23.384 13.051V22H19.785V6.72699H23.225V9.32199H23.404C23.755 8.46699 24.315 7.78798 25.084 7.28398C25.86 6.77998 26.818 6.52798 27.958 6.52798C29.012 6.52798 29.93 6.75399 30.712 7.20499C31.501 7.65499 32.111 8.30798 32.542 9.16298C32.979 10.018 33.195 11.056 33.188 12.276V22H29.589V12.832C29.589 11.812 29.323 11.013 28.793 10.436C28.269 9.85899 27.544 9.57098 26.616 9.57098C25.986 9.57098 25.426 9.70998 24.935 9.98898C24.451 10.26 24.07 10.655 23.792 11.172C23.52 11.689 23.384 12.315 23.384 13.051ZM39.847 1.63599V22H36.247V1.63599H39.847ZM49.61 22.298C48.118 22.298 46.826 21.97 45.732 21.314C44.638 20.658 43.79 19.74 43.187 18.56C42.59 17.38 42.292 16.001 42.292 14.423C42.292 12.846 42.59 11.464 43.187 10.277C43.79 9.08998 44.638 8.16899 45.732 7.51299C46.826 6.85699 48.118 6.52798 49.61 6.52798C51.101 6.52798 52.394 6.85699 53.488 7.51299C54.581 8.16899 55.427 9.08998 56.023 10.277C56.626 11.464 56.928 12.846 56.928 14.423C56.928 16.001 56.626 17.38 56.023 18.56C55.427 19.74 54.581 20.658 53.488 21.314C52.394 21.97 51.101 22.298 49.61 22.298ZM49.63 19.415C50.438 19.415 51.115 19.193 51.658 18.749C52.202 18.298 52.606 17.695 52.871 16.939C53.143 16.183 53.279 15.341 53.279 14.413C53.279 13.479 53.143 12.634 52.871 11.878C52.606 11.116 52.202 10.509 51.658 10.058C51.115 9.60698 50.438 9.38199 49.63 9.38199C48.801 9.38199 48.112 9.60698 47.562 10.058C47.018 10.509 46.61 11.116 46.338 11.878C46.073 12.634 45.941 13.479 45.941 14.413C45.941 15.341 46.073 16.183 46.338 16.939C46.61 17.695 47.018 18.298 47.562 18.749C48.112 19.193 48.801 19.415 49.63 19.415ZM66.045 22.298C64.52 22.298 63.211 21.964 62.117 21.294C61.03 20.625 60.192 19.7 59.602 18.52C59.018 17.333 58.727 15.968 58.727 14.423C58.727 12.872 59.025 11.503 59.622 10.317C60.218 9.12399 61.06 8.19599 62.147 7.53299C63.241 6.86299 64.534 6.52798 66.025 6.52798C67.265 6.52798 68.362 6.75699 69.316 7.21399C70.277 7.66499 71.043 8.30499 71.613 9.13399C72.183 9.95499 72.508 10.917 72.588 12.017H69.147C69.008 11.281 68.677 10.668 68.153 10.178C67.636 9.67998 66.943 9.43199 66.075 9.43199C65.339 9.43199 64.693 9.63098 64.136 10.028C63.579 10.42 63.145 10.983 62.833 11.719C62.528 12.455 62.376 13.336 62.376 14.364C62.376 15.404 62.528 16.299 62.833 17.048C63.138 17.791 63.566 18.364 64.116 18.768C64.673 19.166 65.326 19.365 66.075 19.365C66.605 19.365 67.079 19.266 67.497 19.067C67.921 18.861 68.276 18.566 68.561 18.182C68.846 17.797 69.041 17.33 69.147 16.78H72.588C72.501 17.86 72.183 18.818 71.633 19.653C71.083 20.482 70.334 21.132 69.386 21.602C68.438 22.066 67.324 22.298 66.045 22.298ZM78.224 17.207L78.214 12.862H78.791L84.28 6.72699H88.486L81.734 14.244H80.989L78.224 17.207ZM74.943 22V1.63599H78.543V22H74.943ZM84.528 22L79.557 15.05L81.983 12.514L88.834 22H84.528ZM96.63 27.727V6.72699H100.17V9.25299H100.378C100.564 8.88199 100.826 8.48699 101.164 8.06999C101.502 7.64499 101.959 7.28398 102.536 6.98598C103.113 6.68098 103.849 6.52798 104.744 6.52798C105.923 6.52798 106.987 6.82998 107.935 7.43298C108.89 8.02998 109.646 8.91498 110.202 10.088C110.766 11.255 111.048 12.687 111.048 14.384C111.048 16.061 110.772 17.486 110.222 18.659C109.672 19.832 108.923 20.727 107.975 21.344C107.027 21.96 105.953 22.268 104.753 22.268C103.878 22.268 103.153 22.123 102.576 21.831C101.999 21.539 101.535 21.188 101.184 20.777C100.839 20.359 100.571 19.965 100.378 19.594H100.229V27.727H96.63ZM100.16 14.364C100.16 15.351 100.299 16.216 100.577 16.959C100.862 17.701 101.27 18.281 101.8 18.699C102.337 19.11 102.987 19.315 103.749 19.315C104.545 19.315 105.211 19.103 105.748 18.679C106.285 18.248 106.689 17.661 106.961 16.919C107.239 16.17 107.378 15.318 107.378 14.364C107.378 13.416 107.243 12.574 106.971 11.838C106.699 11.102 106.295 10.526 105.758 10.108C105.221 9.68999 104.551 9.48198 103.749 9.48198C102.98 9.48198 102.327 9.68398 101.79 10.088C101.253 10.492 100.846 11.059 100.567 11.788C100.296 12.518 100.16 13.376 100.16 14.364ZM113.53 22V6.72699H117.02V9.27298H117.179C117.457 8.39098 117.935 7.71198 118.611 7.23398C119.294 6.74998 120.073 6.50899 120.948 6.50899C121.146 6.50899 121.368 6.51798 121.614 6.53798C121.866 6.55198 122.074 6.57499 122.24 6.60799V9.91899C122.088 9.86599 121.846 9.81998 121.514 9.77998C121.189 9.73298 120.875 9.70999 120.57 9.70999C119.913 9.70999 119.323 9.85299 118.8 10.138C118.283 10.416 117.875 10.804 117.577 11.301C117.278 11.798 117.129 12.372 117.129 13.021V22H113.53ZM130.164 22.298C128.633 22.298 127.31 21.98 126.197 21.344C125.09 20.701 124.238 19.793 123.641 18.619C123.045 17.439 122.746 16.051 122.746 14.453C122.746 12.882 123.045 11.503 123.641 10.317C124.244 9.12399 125.086 8.19599 126.167 7.53299C127.247 6.86299 128.517 6.52798 129.975 6.52798C130.916 6.52798 131.805 6.68098 132.64 6.98598C133.482 7.28398 134.224 7.74799 134.867 8.37799C135.517 9.00799 136.027 9.80998 136.398 10.784C136.77 11.752 136.955 12.905 136.955 14.244V15.348H124.437V12.922H133.505C133.498 12.232 133.349 11.619 133.057 11.082C132.766 10.539 132.358 10.111 131.834 9.79999C131.317 9.48799 130.714 9.33199 130.025 9.33199C129.289 9.33199 128.643 9.51099 128.086 9.86899C127.529 10.221 127.095 10.685 126.783 11.261C126.478 11.831 126.323 12.458 126.316 13.141V15.259C126.316 16.147 126.478 16.909 126.803 17.545C127.128 18.175 127.582 18.659 128.165 18.997C128.749 19.329 129.431 19.494 130.214 19.494C130.737 19.494 131.211 19.421 131.636 19.276C132.06 19.123 132.428 18.901 132.739 18.609C133.051 18.318 133.286 17.956 133.445 17.526L136.806 17.903C136.594 18.792 136.189 19.567 135.593 20.23C135.003 20.886 134.247 21.397 133.326 21.761C132.404 22.119 131.35 22.298 130.164 22.298ZM139.4 22V6.72699H142.841V9.32199H143.02C143.338 8.44699 143.865 7.76499 144.6 7.27399C145.336 6.77699 146.215 6.52798 147.235 6.52798C148.27 6.52798 149.141 6.77998 149.85 7.28398C150.566 7.78098 151.07 8.46099 151.362 9.32199H151.521C151.859 8.47399 152.429 7.79799 153.231 7.29399C154.04 6.78399 154.998 6.52798 156.105 6.52798C157.51 6.52798 158.657 6.97298 159.545 7.86098C160.433 8.74898 160.877 10.045 160.877 11.749V22H157.268V12.305C157.268 11.357 157.016 10.665 156.512 10.227C156.009 9.78299 155.392 9.56099 154.663 9.56099C153.795 9.56099 153.115 9.83299 152.625 10.376C152.141 10.913 151.899 11.613 151.899 12.474V22H148.369V12.156C148.369 11.367 148.13 10.738 147.653 10.267C147.182 9.79598 146.566 9.56099 145.804 9.56099C145.287 9.56099 144.816 9.69398 144.392 9.95898C143.967 10.217 143.629 10.585 143.377 11.062C143.126 11.533 143 12.083 143 12.713V22H139.4ZM163.929 22V6.72699H167.529V22H163.929ZM165.739 4.55998C165.169 4.55998 164.678 4.37098 164.267 3.99298C163.856 3.60798 163.651 3.14798 163.651 2.61098C163.651 2.06698 163.856 1.60699 164.267 1.22899C164.678 0.843989 165.169 0.651978 165.739 0.651978C166.315 0.651978 166.806 0.843989 167.21 1.22899C167.621 1.60699 167.827 2.06698 167.827 2.61098C167.827 3.14798 167.621 3.60798 167.21 3.99298C166.806 4.37098 166.315 4.55998 165.739 4.55998ZM180.364 15.577V6.72699H183.964V22H180.474V19.286H180.315C179.97 20.141 179.403 20.84 178.614 21.384C177.832 21.927 176.868 22.199 175.721 22.199C174.72 22.199 173.835 21.977 173.066 21.533C172.304 21.082 171.707 20.429 171.276 19.574C170.845 18.712 170.63 17.671 170.63 16.452V6.72699H174.229V15.895C174.229 16.863 174.494 17.632 175.025 18.202C175.555 18.772 176.251 19.057 177.113 19.057C177.643 19.057 178.157 18.928 178.654 18.669C179.151 18.411 179.559 18.026 179.877 17.516C180.202 16.999 180.364 16.352 180.364 15.577ZM187.065 22V6.72699H190.505V9.32199H190.684C191.003 8.44699 191.53 7.76499 192.265 7.27399C193.001 6.77699 193.879 6.52798 194.9 6.52798C195.934 6.52798 196.806 6.77998 197.515 7.28398C198.231 7.78098 198.735 8.46099 199.027 9.32199H199.186C199.524 8.47399 200.094 7.79799 200.896 7.29399C201.705 6.78399 202.663 6.52798 203.77 6.52798C205.175 6.52798 206.322 6.97298 207.21 7.86098C208.098 8.74898 208.542 10.045 208.542 11.749V22H204.933V12.305C204.933 11.357 204.681 10.665 204.177 10.227C203.673 9.78299 203.057 9.56099 202.328 9.56099C201.459 9.56099 200.78 9.83299 200.289 10.376C199.806 10.913 199.564 11.613 199.564 12.474V22H196.034V12.156C196.034 11.367 195.795 10.738 195.318 10.267C194.847 9.79598 194.231 9.56099 193.468 9.56099C192.951 9.56099 192.481 9.69398 192.057 9.95898C191.632 10.217 191.294 10.585 191.042 11.062C190.79 11.533 190.664 12.083 190.664 12.713V22H187.065ZM230.01 10.764L226.729 11.122C226.636 10.791 226.474 10.479 226.242 10.188C226.016 9.89599 225.712 9.66098 225.327 9.48198C224.943 9.30298 224.472 9.21298 223.915 9.21298C223.166 9.21298 222.536 9.37498 222.026 9.69998C221.522 10.025 221.274 10.446 221.28 10.963C221.274 11.407 221.436 11.768 221.767 12.047C222.105 12.325 222.662 12.554 223.438 12.733L226.043 13.29C227.488 13.601 228.562 14.095 229.265 14.771C229.974 15.447 230.332 16.332 230.338 17.426C230.332 18.387 230.05 19.236 229.493 19.972C228.943 20.701 228.177 21.271 227.196 21.682C226.215 22.093 225.088 22.298 223.816 22.298C221.946 22.298 220.442 21.907 219.301 21.125C218.161 20.336 217.482 19.239 217.263 17.834L220.773 17.496C220.932 18.185 221.27 18.705 221.787 19.057C222.304 19.408 222.977 19.584 223.806 19.584C224.661 19.584 225.347 19.408 225.864 19.057C226.388 18.705 226.65 18.271 226.65 17.754C226.65 17.317 226.48 16.955 226.142 16.67C225.811 16.385 225.294 16.167 224.591 16.014L221.986 15.467C220.521 15.162 219.437 14.649 218.735 13.926C218.032 13.197 217.684 12.276 217.691 11.162C217.684 10.221 217.939 9.40499 218.456 8.71599C218.98 8.01999 219.706 7.48298 220.634 7.10498C221.569 6.72098 222.646 6.52798 223.865 6.52798C225.655 6.52798 227.064 6.90998 228.091 7.67198C229.125 8.43398 229.765 9.46499 230.01 10.764ZM240.333 6.72699V9.51099H231.553V6.72699H240.333ZM233.721 3.06798H237.32V17.406C237.32 17.89 237.393 18.261 237.539 18.52C237.691 18.772 237.89 18.944 238.135 19.037C238.381 19.13 238.652 19.176 238.951 19.176C239.176 19.176 239.382 19.16 239.567 19.126C239.759 19.093 239.905 19.063 240.005 19.037L240.611 21.851C240.419 21.917 240.144 21.99 239.786 22.07C239.435 22.149 239.004 22.196 238.493 22.209C237.592 22.235 236.78 22.099 236.057 21.801C235.335 21.496 234.761 21.026 234.337 20.389C233.92 19.753 233.714 18.957 233.721 18.003V3.06798ZM247.138 22.308C246.17 22.308 245.299 22.136 244.523 21.791C243.754 21.44 243.144 20.923 242.693 20.24C242.249 19.557 242.027 18.715 242.027 17.714C242.027 16.853 242.186 16.14 242.505 15.577C242.823 15.013 243.257 14.562 243.807 14.224C244.357 13.886 244.977 13.631 245.666 13.459C246.363 13.28 247.082 13.151 247.824 13.071C248.719 12.978 249.445 12.895 250.002 12.822C250.559 12.743 250.963 12.624 251.215 12.464C251.473 12.299 251.603 12.044 251.603 11.699V11.639C251.603 10.89 251.38 10.31 250.936 9.89899C250.492 9.48799 249.853 9.28299 249.017 9.28299C248.136 9.28299 247.436 9.47498 246.919 9.85898C246.409 10.244 246.064 10.698 245.885 11.222L242.524 10.744C242.79 9.81599 243.227 9.04098 243.837 8.41798C244.447 7.78798 245.193 7.31698 246.074 7.00598C246.956 6.68798 247.93 6.52798 248.997 6.52798C249.733 6.52798 250.466 6.61499 251.195 6.78699C251.924 6.95899 252.59 7.24398 253.193 7.64198C253.797 8.03298 254.281 8.56698 254.645 9.24298C255.016 9.91898 255.202 10.764 255.202 11.778V22H251.742V19.902H251.622C251.404 20.326 251.095 20.724 250.698 21.095C250.307 21.46 249.813 21.755 249.216 21.98C248.626 22.199 247.934 22.308 247.138 22.308ZM248.073 19.663C248.795 19.663 249.422 19.521 249.952 19.236C250.482 18.944 250.89 18.56 251.175 18.082C251.467 17.605 251.613 17.085 251.613 16.521V14.722C251.5 14.814 251.308 14.901 251.036 14.98C250.771 15.06 250.472 15.129 250.141 15.189C249.809 15.249 249.481 15.302 249.157 15.348C248.832 15.394 248.55 15.434 248.311 15.467C247.774 15.54 247.294 15.66 246.87 15.825C246.445 15.991 246.111 16.223 245.865 16.521C245.62 16.813 245.497 17.191 245.497 17.655C245.497 18.318 245.739 18.818 246.223 19.156C246.707 19.494 247.324 19.663 248.073 19.663ZM265.848 6.72699V9.51099H257.068V6.72699H265.848ZM259.236 3.06798H262.835V17.406C262.835 17.89 262.908 18.261 263.054 18.52C263.206 18.772 263.405 18.944 263.65 19.037C263.896 19.13 264.167 19.176 264.466 19.176C264.691 19.176 264.897 19.16 265.082 19.126C265.274 19.093 265.42 19.063 265.52 19.037L266.126 21.851C265.934 21.917 265.659 21.99 265.301 22.07C264.95 22.149 264.519 22.196 264.008 22.209C263.107 22.235 262.295 22.099 261.572 21.801C260.85 21.496 260.276 21.026 259.852 20.389C259.434 19.753 259.229 18.957 259.236 18.003V3.06798ZM280.11 10.764L276.829 11.122C276.736 10.791 276.574 10.479 276.342 10.188C276.116 9.89599 275.812 9.66098 275.427 9.48198C275.043 9.30298 274.572 9.21298 274.015 9.21298C273.266 9.21298 272.636 9.37498 272.126 9.69998C271.622 10.025 271.374 10.446 271.38 10.963C271.374 11.407 271.536 11.768 271.867 12.047C272.205 12.325 272.762 12.554 273.538 12.733L276.143 13.29C277.588 13.601 278.662 14.095 279.365 14.771C280.074 15.447 280.432 16.332 280.438 17.426C280.432 18.387 280.15 19.236 279.593 19.972C279.043 20.701 278.277 21.271 277.296 21.682C276.315 22.093 275.188 22.298 273.916 22.298C272.046 22.298 270.542 21.907 269.401 21.125C268.261 20.336 267.582 19.239 267.363 17.834L270.873 17.496C271.032 18.185 271.37 18.705 271.887 19.057C272.404 19.408 273.077 19.584 273.906 19.584C274.761 19.584 275.447 19.408 275.964 19.057C276.488 18.705 276.75 18.271 276.75 17.754C276.75 17.317 276.58 16.955 276.242 16.67C275.911 16.385 275.394 16.167 274.691 16.014L272.086 15.467C270.621 15.162 269.537 14.649 268.835 13.926C268.132 13.197 267.784 12.276 267.791 11.162C267.784 10.221 268.039 9.40499 268.556 8.71599C269.08 8.01999 269.806 7.48298 270.734 7.10498C271.669 6.72098 272.746 6.52798 273.965 6.52798C275.755 6.52798 277.164 6.90998 278.191 7.67198C279.225 8.43398 279.865 9.46499 280.11 10.764Z" fill="white"/>
</svg>
