<svg width="40" height="15" viewBox="0 0 40 15" fill="none" xmlns="http://www.w3.org/2000/svg">
<path d="M0.0039978 11V0.819946H6.52701V2.35999H1.849V5.13H6.07999V6.67004H1.849V11H0.0039978ZM8.12799 11V3.35999H9.92801V11H8.12799ZM9.03299 2.28003C8.74799 2.28003 8.502 2.19 8.297 2C8.091 1.8 7.98901 1.57006 7.98901 1.31006C7.98901 1.03006 8.091 0.799985 8.297 0.609985C8.502 0.419985 8.74799 0.329956 9.03299 0.329956C9.32099 0.329956 9.56601 0.419985 9.76801 0.609985C9.97401 0.799985 10.077 1.03006 10.077 1.31006C10.077 1.57006 9.97401 1.8 9.76801 2C9.56601 2.19 9.32099 2.28003 9.03299 2.28003ZM15.099 14.02C14.453 14.02 13.898 13.93 13.434 13.76C12.97 13.59 12.597 13.3501 12.315 13.0601C12.033 12.7701 11.838 12.45 11.729 12.09L13.349 11.7C13.422 11.85 13.528 12 13.667 12.14C13.807 12.29 13.994 12.42 14.229 12.51C14.468 12.61 14.768 12.66 15.129 12.66C15.64 12.66 16.062 12.54 16.397 12.29C16.732 12.04 16.899 11.6399 16.899 11.0699V9.63H16.809C16.717 9.81001 16.581 9.99995 16.402 10.2C16.226 10.4 15.992 10.5599 15.701 10.6899C15.412 10.8199 15.05 10.89 14.612 10.89C14.025 10.89 13.493 10.75 13.016 10.48C12.542 10.2 12.164 9.78999 11.883 9.23999C11.604 8.67999 11.465 7.99003 11.465 7.16003C11.465 6.32003 11.604 5.61003 11.883 5.03003C12.164 4.45003 12.544 4.00997 13.021 3.71997C13.498 3.41997 14.03 3.26001 14.617 3.26001C15.064 3.26001 15.432 3.33999 15.721 3.48999C16.012 3.63999 16.244 3.82003 16.417 4.03003C16.589 4.24003 16.72 4.44 16.809 4.63H16.909V3.35999H18.684V11.12C18.684 11.78 18.528 12.32 18.216 12.75C17.905 13.17 17.479 13.49 16.939 13.7C16.398 13.92 15.785 14.02 15.099 14.02ZM15.114 9.47998C15.495 9.47998 15.82 9.38995 16.089 9.19995C16.357 9.00995 16.561 8.75002 16.7 8.40002C16.839 8.05002 16.909 7.63002 16.909 7.15002C16.909 6.67002 16.839 6.25 16.7 5.88C16.564 5.52 16.362 5.24004 16.094 5.04004C15.828 4.84004 15.502 4.73999 15.114 4.73999C14.713 4.73999 14.378 4.85005 14.11 5.05005C13.841 5.26005 13.639 5.55003 13.503 5.91003C13.367 6.28003 13.3 6.69002 13.3 7.15002C13.3 7.61002 13.367 8.02 13.503 8.38C13.643 8.72001 13.846 8.98994 14.115 9.18994C14.387 9.37994 14.72 9.47998 15.114 9.47998ZM20.528 11V3.35999H22.248V4.66003H22.338C22.497 4.22003 22.76 3.88001 23.128 3.64001C23.496 3.39001 23.935 3.26001 24.446 3.26001C24.963 3.26001 25.399 3.39001 25.753 3.64001C26.111 3.89001 26.363 4.23003 26.509 4.66003H26.589C26.758 4.24003 27.043 3.90002 27.444 3.65002C27.848 3.39002 28.327 3.26001 28.881 3.26001C29.583 3.26001 30.157 3.49005 30.601 3.93005C31.045 4.37005 31.267 5.02 31.267 5.87V11H29.462V6.15002C29.462 5.68002 29.336 5.32999 29.084 5.10999C28.832 4.88999 28.524 4.78003 28.16 4.78003C27.725 4.78003 27.386 4.91994 27.14 5.18994C26.898 5.45994 26.778 5.80999 26.778 6.23999V11H25.013V6.07996C25.013 5.67996 24.893 5.37 24.655 5.13C24.419 4.9 24.111 4.78003 23.73 4.78003C23.471 4.78003 23.236 4.84998 23.024 4.97998C22.812 5.10998 22.643 5.29003 22.517 5.53003C22.391 5.77003 22.328 6.03999 22.328 6.35999V11H20.528ZM35.29 11.15C34.806 11.15 34.37 11.07 33.983 10.9C33.598 10.72 33.293 10.46 33.068 10.12C32.846 9.77999 32.735 9.35999 32.735 8.85999C32.735 8.42999 32.814 8.07004 32.973 7.79004C33.132 7.51004 33.35 7.27999 33.625 7.10999C33.9 6.93999 34.21 6.81998 34.554 6.72998C34.902 6.63998 35.262 6.58004 35.633 6.54004C36.081 6.49004 36.444 6.45003 36.722 6.41003C37 6.37003 37.203 6.30998 37.328 6.22998C37.458 6.14998 37.522 6.01998 37.522 5.84998V5.81995C37.522 5.44995 37.411 5.15995 37.189 4.94995C36.967 4.73995 36.647 4.64001 36.23 4.64001C35.789 4.64001 35.439 4.74005 35.181 4.93005C34.926 5.12005 34.753 5.34999 34.664 5.60999L32.983 5.37C33.116 4.91 33.335 4.51996 33.64 4.20996C33.944 3.88996 34.317 3.66 34.758 3.5C35.199 3.34 35.686 3.26001 36.22 3.26001C36.588 3.26001 36.954 3.31001 37.319 3.39001C37.683 3.48001 38.016 3.61995 38.318 3.81995C38.619 4.01995 38.861 4.28 39.044 4.62C39.229 4.96 39.322 5.38001 39.322 5.89001V11H37.592V9.94995H37.532C37.423 10.16 37.269 10.36 37.07 10.55C36.874 10.73 36.627 10.88 36.329 10.99C36.034 11.1 35.688 11.15 35.29 11.15ZM35.757 9.82996C36.119 9.82996 36.432 9.76 36.697 9.62C36.962 9.47 37.166 9.28004 37.309 9.04004C37.454 8.80004 37.527 8.54001 37.527 8.26001V7.35999C37.471 7.40999 37.375 7.44999 37.239 7.48999C37.106 7.52999 36.957 7.55997 36.792 7.58997C36.626 7.61997 36.462 7.65004 36.299 7.67004C36.137 7.70004 35.996 7.71998 35.877 7.72998C35.608 7.76998 35.368 7.83003 35.156 7.91003C34.944 8.00003 34.776 8.11001 34.654 8.26001C34.531 8.41001 34.47 8.59996 34.47 8.82996C34.47 9.15996 34.591 9.40996 34.833 9.57996C35.075 9.74996 35.383 9.82996 35.757 9.82996Z" fill="#282828"/>
</svg>
