<svg width="100" height="23" viewBox="0 0 100 23" fill="none" xmlns="http://www.w3.org/2000/svg">
<path fill-rule="evenodd" clip-rule="evenodd" d="M4.9919 5.26093C4.9919 2.50263 7.2228 0.260925 9.9835 0.260925C12.7441 0.260925 14.9749 2.50242 14.9751 5.26073C17.7357 5.26083 19.9664 7.50243 19.9664 10.2607H17.4706C17.4706 8.88503 16.3482 7.76073 14.9748 7.76073L14.9751 5.26073L12.4793 5.26093C12.4793 3.88523 11.3569 2.76093 9.9835 2.76093C8.6101 2.76093 7.4877 3.88523 7.4877 5.26093H4.9919ZM31.6585 18.0988C29.6147 18.0988 27.9954 17.5297 26.8006 16.3915C25.6058 15.2374 25.0083 13.5933 25.0083 11.4591V7.47532C25.0083 5.34112 25.6058 3.70493 26.8006 2.56663C27.9954 1.41263 29.6147 0.835625 31.6585 0.835625C33.6866 0.835625 35.2509 1.39682 36.3514 2.51922C37.4676 3.62582 38.0257 5.15142 38.0257 7.09592V7.23812H34.9601V7.00102C34.9601 6.02092 34.6849 5.21462 34.1347 4.58232C33.6001 3.94992 32.7748 3.63372 31.6585 3.63372C30.558 3.63372 29.6934 3.97363 29.0645 4.65343C28.4356 5.33323 28.1212 6.25803 28.1212 7.42793V11.5065C28.1212 12.6606 28.4356 13.5854 29.0645 14.281C29.6934 14.9608 30.558 15.3007 31.6585 15.3007C32.7748 15.3007 33.6001 14.9845 34.1347 14.3521C34.6849 13.704 34.9601 12.8977 34.9601 11.9334V11.5065H38.0257V11.8385C38.0257 13.783 37.4676 15.3165 36.3514 16.4389C35.2509 17.5455 33.6866 18.0988 31.6585 18.0988ZM39.9144 17.7668V1.16763H42.8858V17.7668H39.9144ZM47.8654 17.3874C48.793 17.8617 49.8384 18.0988 51.0018 18.0988C52.1652 18.0988 53.2107 17.8617 54.1383 17.3874C55.0658 16.9132 55.7969 16.2255 56.3314 15.3244C56.8659 14.4233 57.1332 13.3404 57.1332 12.0757V11.6962C57.1332 10.4315 56.8659 9.34863 56.3314 8.44753C55.7969 7.54642 55.0658 6.85873 54.1383 6.38453C53.2107 5.91023 52.1652 5.67312 51.0018 5.67312C49.8384 5.67312 48.793 5.91023 47.8654 6.38453C46.9378 6.85873 46.2068 7.54642 45.6722 8.44753C45.1377 9.34863 44.8704 10.4315 44.8704 11.6962V12.0757C44.8704 13.3404 45.1377 14.4233 45.6722 15.3244C46.2068 16.2255 46.9378 16.9132 47.8654 17.3874ZM53.2657 14.5655C52.6683 15.1505 51.9137 15.4429 51.0018 15.4429C50.09 15.4429 49.3353 15.1505 48.7379 14.5655C48.1405 13.9648 47.8418 13.1111 47.8418 12.0045V11.7674C47.8418 10.6608 48.1405 9.81502 48.7379 9.23012C49.3353 8.62932 50.09 8.32903 51.0018 8.32903C51.9294 8.32903 52.684 8.62932 53.2657 9.23012C53.8631 9.81502 54.1618 10.6608 54.1618 11.7674V12.0045C54.1618 13.1111 53.8631 13.9648 53.2657 14.5655ZM59.1339 17.7668V6.00513H62.0581V7.54642H62.4826C62.6712 7.13542 63.025 6.74813 63.5438 6.38453C64.0626 6.00513 64.8487 5.81542 65.902 5.81542C66.8139 5.81542 67.6078 6.02883 68.2838 6.45563C68.9756 6.86663 69.5101 7.44373 69.8874 8.18673C70.2647 8.91393 70.4534 9.76762 70.4534 10.7477V17.7668H67.482V10.9848C67.482 10.0995 67.2619 9.43563 66.8217 8.99293C66.3972 8.55033 65.7841 8.32903 64.9823 8.32903C64.0704 8.32903 63.363 8.63722 62.8599 9.25382C62.3568 9.85452 62.1053 10.7003 62.1053 11.7911V17.7668H59.1339ZM72.9235 6.00513V17.7668H75.8949V6.00513H72.9235ZM73.0414 4.10802C73.4187 4.45582 73.8746 4.62972 74.4092 4.62972C74.9594 4.62972 75.4154 4.45582 75.7769 4.10802C76.1385 3.76022 76.3193 3.30182 76.3193 2.73262C76.3193 2.16352 76.1385 1.70512 75.7769 1.35732C75.4154 1.00952 74.9594 0.835625 74.4092 0.835625C73.8746 0.835625 73.4187 1.00952 73.0414 1.35732C72.6798 1.70512 72.499 2.16352 72.499 2.73262C72.499 3.30182 72.6798 3.76022 73.0414 4.10802ZM80.379 17.7668V8.47123H77.4079V6.00513H80.379V3.82343C80.379 3.01723 80.615 2.37693 81.087 1.90273C81.574 1.41263 82.203 1.16763 82.973 1.16763H86.039V3.63372H84.011C83.571 3.63372 83.351 3.87093 83.351 4.34513V6.00513H86.416V8.47123H83.351V17.7668H80.379ZM89.248 19.901V22.5095H96.606C97.392 22.5095 98.021 22.2644 98.492 21.7744C98.964 21.3001 99.2 20.6598 99.2 19.8536V6.00513H96.228V11.9808C96.228 13.0716 95.977 13.9253 95.474 14.5418C94.971 15.1426 94.263 15.4429 93.351 15.4429C92.55 15.4429 91.929 15.2216 91.488 14.779C91.064 14.3363 90.852 13.6723 90.852 12.787V6.00513H87.88V13.0242C87.88 13.9885 88.069 14.8422 88.446 15.5852C88.824 16.3282 89.35 16.9132 90.026 17.34C90.718 17.751 91.52 17.9565 92.432 17.9565C93.139 17.9565 93.721 17.8696 94.177 17.6957C94.633 17.5218 94.994 17.3005 95.262 17.0317C95.529 16.763 95.725 16.4942 95.851 16.2255H96.276V19.1896C96.276 19.6639 96.055 19.901 95.615 19.901H89.248ZM14.9748 15.2607V12.7607C16.3482 12.7607 17.4706 11.6364 17.4706 10.2607H19.9664C19.9664 13.0261 17.7356 15.2607 14.9748 15.2607ZM9.9843 14.926C12.5637 14.926 14.6412 12.831 14.6412 10.2612C14.6412 7.67742 12.5637 5.59642 9.9843 5.59642C7.4048 5.59642 5.3273 7.67742 5.3273 10.2612C5.3273 12.831 7.4048 14.926 9.9843 14.926ZM9.9843 12.5936C8.7015 12.5936 7.6558 11.5461 7.6558 10.2612C7.6558 8.97633 8.7015 7.92883 9.9843 7.92883C11.267 7.92883 12.3127 8.97633 12.3127 10.2612C12.3127 11.5461 11.267 12.5936 9.9843 12.5936ZM0 10.2607H2.4958C2.4958 11.6364 3.6182 12.7607 4.9916 12.7607V15.2607C2.2309 15.2607 0 13.0261 0 10.2607ZM0 10.2607H2.4958C2.4958 8.88503 3.6182 7.76073 4.9916 7.76073L4.9919 5.26093C2.2312 5.26093 0 7.50233 0 10.2607ZM7.4877 15.2611C7.4877 16.6368 8.6101 17.7611 9.9835 17.7611C11.3569 17.7611 12.4793 16.6368 12.4793 15.2611L14.9748 15.2607C14.9748 18.026 12.7442 20.2611 9.9835 20.2611C7.2228 20.2611 4.9916 18.026 4.9916 15.2607L7.4877 15.2611Z" fill="#282828"/>
</svg>
