<svg width="43" height="12" viewBox="0 0 43 12" fill="none" xmlns="http://www.w3.org/2000/svg">
<path d="M4.31502 11.14C3.63302 11.14 3.029 11.02 2.506 10.78C1.985 10.53 1.57904 10.19 1.28804 9.77C0.996041 9.34 0.851997 8.85003 0.854997 8.30003C0.851997 7.86003 0.936025 7.46996 1.10903 7.09996C1.28103 6.72996 1.51602 6.43003 1.81502 6.18003C2.11602 5.93003 2.45299 5.77994 2.82399 5.70994V5.65C2.33699 5.52 1.94903 5.24994 1.66103 4.82994C1.37203 4.40994 1.22999 3.91999 1.23299 3.37999C1.22999 2.86999 1.36099 2.39998 1.62599 1.99998C1.89099 1.58998 2.25501 1.27001 2.71901 1.03001C3.18701 0.80001 3.71902 0.680034 4.31502 0.680034C4.90502 0.680034 5.43201 0.80001 5.89601 1.03001C6.36001 1.27001 6.72501 1.58998 6.99001 1.99998C7.25901 2.39998 7.39403 2.86999 7.39803 3.37999C7.39403 3.91999 7.24703 4.40994 6.95503 4.82994C6.66703 5.24994 6.28402 5.52 5.80702 5.65V5.70994C6.17502 5.77994 6.50604 5.93003 6.80104 6.18003C7.09604 6.43003 7.33104 6.72996 7.50704 7.09996C7.68304 7.46996 7.77202 7.86003 7.77602 8.30003C7.77202 8.85003 7.62302 9.34 7.32802 9.77C7.03602 10.19 6.63 10.53 6.11 10.78C5.593 11.02 4.99502 11.14 4.31502 11.14ZM4.31502 10.05C4.77602 10.05 5.17399 9.96993 5.50899 9.81993C5.84299 9.66993 6.10201 9.45992 6.28401 9.18992C6.46601 8.91992 6.55903 8.59997 6.56203 8.23997C6.55903 7.84997 6.45999 7.50995 6.26399 7.21995C6.06899 6.91995 5.80201 6.69 5.46401 6.52C5.12901 6.35 4.74602 6.27 4.31502 6.27C3.88102 6.27 3.49299 6.35 3.15199 6.52C2.81399 6.69 2.54701 6.91995 2.35201 7.21995C2.15901 7.50995 2.06501 7.84997 2.06801 8.23997C2.06501 8.59997 2.15299 8.91992 2.33199 9.18992C2.51399 9.45992 2.77402 9.66993 3.11202 9.81993C3.45002 9.96993 3.85102 10.05 4.31502 10.05ZM4.31502 5.20994C4.68002 5.20994 5.00299 5.13997 5.28499 4.98997C5.56999 4.84997 5.79401 4.63999 5.95601 4.37999C6.11801 4.11999 6.20103 3.80994 6.20503 3.45994C6.20103 3.11994 6.12002 2.82004 5.96102 2.56004C5.80202 2.30004 5.581 2.10995 5.3 1.96995C5.018 1.81995 4.69002 1.74998 4.31502 1.74998C3.93402 1.74998 3.601 1.81995 3.316 1.96995C3.031 2.10995 2.81105 2.30004 2.65505 2.56004C2.49905 2.82004 2.42304 3.11994 2.42604 3.45994C2.42304 3.80994 2.50099 4.11999 2.65999 4.37999C2.82199 4.63999 3.04601 4.84997 3.33101 4.98997C3.61601 5.13997 3.94402 5.20994 4.31502 5.20994ZM12.922 0.680034C13.34 0.680034 13.758 0.760025 14.175 0.920025C14.593 1.07002 14.974 1.32992 15.319 1.68992C15.663 2.04992 15.94 2.54001 16.149 3.16001C16.358 3.78001 16.462 4.55997 16.462 5.48997C16.462 6.39997 16.376 7.20001 16.204 7.9C16.035 8.6 15.789 9.19003 15.468 9.67002C15.15 10.15 14.762 10.52 14.305 10.77C13.85 11.01 13.337 11.14 12.763 11.14C12.193 11.14 11.684 11.03 11.237 10.8C10.793 10.57 10.428 10.26 10.143 9.84996C9.86202 9.43996 9.68103 8.97003 9.60103 8.43003H10.814C10.924 8.90003 11.141 9.28995 11.466 9.58995C11.794 9.88995 12.226 10.05 12.763 10.05C13.549 10.05 14.169 9.7 14.623 9.02C15.08 8.33 15.309 7.35997 15.309 6.10997H15.229C15.044 6.38997 14.823 6.62994 14.568 6.82994C14.313 7.02994 14.029 7.19003 13.718 7.30003C13.406 7.41003 13.075 7.45994 12.724 7.45994C12.14 7.45994 11.605 7.32001 11.118 7.03001C10.634 6.74001 10.246 6.33994 9.954 5.82994C9.666 5.31994 9.52199 4.73994 9.52199 4.07994C9.52199 3.45994 9.66104 2.88998 9.93904 2.36998C10.221 1.84998 10.616 1.42999 11.123 1.12999C11.633 0.819985 12.233 0.670034 12.922 0.680034ZM12.922 1.77C12.505 1.77 12.129 1.87995 11.794 2.08995C11.462 2.28995 11.199 2.57002 11.003 2.92002C10.811 3.27002 10.715 3.65994 10.715 4.07994C10.715 4.49994 10.808 4.88997 10.993 5.23997C11.182 5.57997 11.439 5.86004 11.764 6.06004C12.092 6.27004 12.465 6.36998 12.883 6.36998C13.198 6.36998 13.491 6.31003 13.763 6.18003C14.034 6.06003 14.271 5.89002 14.474 5.67002C14.679 5.45002 14.84 5.20003 14.956 4.93003C15.072 4.65003 15.13 4.36004 15.13 4.06004C15.13 3.66004 15.034 3.28992 14.841 2.93992C14.653 2.58992 14.391 2.30996 14.056 2.09996C13.724 1.87996 13.347 1.77 12.922 1.77ZM18.179 8.91002V7.9L22.653 0.819927H23.389V2.39H22.892L19.511 7.73997V7.81993H25.537V8.91002H18.179ZM22.971 11V8.59996V8.12999V0.819927H24.145V11H22.971ZM30.581 11.14C29.998 11.14 29.473 11.02 29.006 10.79C28.538 10.56 28.164 10.2399 27.882 9.83995C27.6 9.42995 27.446 8.96993 27.42 8.44993H28.613C28.659 8.91993 28.868 9.29996 29.239 9.59996C29.614 9.89996 30.061 10.05 30.581 10.05C30.999 10.05 31.37 9.94998 31.695 9.74998C32.023 9.55998 32.28 9.28993 32.466 8.94993C32.655 8.59993 32.749 8.21001 32.749 7.78001C32.749 7.33001 32.651 6.93995 32.456 6.58995C32.264 6.23995 31.998 5.95999 31.66 5.75999C31.322 5.55999 30.936 5.45993 30.502 5.44993C30.19 5.44993 29.871 5.49996 29.542 5.59996C29.214 5.68996 28.944 5.81995 28.732 5.96995L27.579 5.82994L28.195 0.819927H33.485V1.91001H29.229L28.871 4.91001H28.931C29.14 4.75001 29.402 4.60998 29.716 4.49998C30.031 4.38998 30.359 4.33995 30.701 4.33995C31.324 4.33995 31.879 4.49002 32.366 4.79002C32.857 5.08002 33.241 5.47998 33.52 5.99998C33.801 6.50998 33.942 7.09999 33.942 7.75999C33.942 8.40999 33.796 8.98998 33.505 9.49998C33.216 10.01 32.819 10.4099 32.312 10.6999C31.805 10.9899 31.228 11.14 30.581 11.14ZM39.358 11.14C38.701 11.14 38.116 11.03 37.603 10.8C37.092 10.58 36.686 10.26 36.385 9.85997C36.086 9.45997 35.924 8.98993 35.897 8.44993H37.15C37.177 8.77993 37.289 9.07003 37.488 9.30003C37.687 9.54003 37.947 9.71996 38.269 9.84996C38.59 9.97996 38.947 10.05 39.338 10.05C39.775 10.05 40.163 9.96993 40.501 9.81993C40.839 9.65993 41.104 9.45004 41.297 9.18003C41.489 8.91003 41.585 8.58997 41.585 8.23997C41.585 7.85997 41.492 7.52998 41.306 7.24998C41.121 6.95998 40.849 6.72993 40.491 6.56993C40.133 6.40993 39.696 6.32994 39.179 6.32994H38.363V5.22996H39.179C39.583 5.22996 39.938 5.15999 40.243 5.00999C40.551 4.86999 40.791 4.66001 40.963 4.40001C41.139 4.13001 41.227 3.81994 41.227 3.45994C41.227 3.11994 41.151 2.82004 40.998 2.56004C40.846 2.31004 40.63 2.10995 40.352 1.96995C40.077 1.81995 39.752 1.74998 39.377 1.74998C39.026 1.74998 38.695 1.81993 38.383 1.94993C38.075 2.06993 37.823 2.25998 37.627 2.49998C37.432 2.73998 37.326 3.02997 37.309 3.35997H36.116C36.136 2.82997 36.297 2.35994 36.598 1.95994C36.9 1.55994 37.294 1.24 37.782 1.02C38.272 0.79 38.811 0.680034 39.397 0.680034C40.027 0.680034 40.567 0.810039 41.018 1.06004C41.469 1.31004 41.815 1.65004 42.057 2.06004C42.299 2.48004 42.42 2.92001 42.42 3.40001C42.42 3.98001 42.269 4.46998 41.968 4.86998C41.669 5.26998 41.263 5.54994 40.75 5.70994V5.79002C41.393 5.90002 41.895 6.16997 42.256 6.60997C42.617 7.04997 42.798 7.58997 42.798 8.23997C42.798 8.78997 42.647 9.28996 42.346 9.72996C42.047 10.16 41.64 10.51 41.123 10.76C40.605 11.01 40.017 11.14 39.358 11.14Z" fill="#5F6980"/>
</svg>
