<svg width="19" height="20" viewBox="0 0 19 20" fill="none" xmlns="http://www.w3.org/2000/svg">
<path fill-rule="evenodd" clip-rule="evenodd" d="M14.28 1C14.28 0.5858 13.95 0.25 13.53 0.25C13.12 0.25 12.78 0.5858 12.78 1V2.25H6.28003V1C6.28003 0.5858 5.95003 0.25 5.53003 0.25C5.12003 0.25 4.78003 0.5858 4.78003 1V2.25H3.53003C2.01003 2.25 0.780029 3.4812 0.780029 5V9V17C0.780029 18.5188 2.01003 19.75 3.53003 19.75H15.53C17.05 19.75 18.28 18.5188 18.28 17V9V5C18.28 3.4812 17.05 2.25 15.53 2.25H14.28V1ZM16.78 8.25V5C16.78 4.3096 16.22 3.75 15.53 3.75H14.28V5C14.28 5.4142 13.95 5.75 13.53 5.75C13.12 5.75 12.78 5.4142 12.78 5V3.75H6.28003V5C6.28003 5.4142 5.95003 5.75 5.53003 5.75C5.12003 5.75 4.78003 5.4142 4.78003 5V3.75H3.53003C2.84003 3.75 2.28003 4.3096 2.28003 5V8.25H16.78ZM2.28003 9.75H16.78V17C16.78 17.6904 16.22 18.25 15.53 18.25H3.53003C2.84003 18.25 2.28003 17.6904 2.28003 17V9.75Z" fill="#5F6980"/>
</svg>
