<svg width="80" height="14" viewBox="0 0 80 14" fill="none" xmlns="http://www.w3.org/2000/svg">
<path d="M0.00427246 11V0.817993H1.84867V5.12903H6.56677V0.817993H8.41617V11H6.56677V6.67499H1.84867V11H0.00427246ZM13.7234 11.149C12.9577 11.149 12.2965 10.99 11.7397 10.672C11.1862 10.35 10.7603 9.896 10.462 9.31C10.1637 8.72 10.0146 8.02499 10.0146 7.22699C10.0146 6.44099 10.1637 5.75202 10.462 5.15802C10.7636 4.56202 11.1845 4.09799 11.7248 3.76599C12.265 3.43199 12.8997 3.26398 13.6289 3.26398C14.0996 3.26398 14.5437 3.33998 14.9613 3.49298C15.3822 3.64198 15.7534 3.87403 16.0749 4.18903C16.3997 4.50403 16.6549 4.90503 16.8406 5.39203C17.0262 5.87603 17.119 6.45301 17.119 7.12201V7.67401H10.8597V6.461H15.3938C15.3905 6.116 15.3159 5.81002 15.1701 5.54102C15.0243 5.26902 14.8204 5.05602 14.5586 4.90002C14.3001 4.74402 13.9985 4.66602 13.6538 4.66602C13.2859 4.66602 12.9627 4.756 12.6843 4.935C12.4059 5.11 12.1888 5.34198 12.033 5.63098C11.8806 5.91598 11.8027 6.22901 11.7994 6.57001V7.62903C11.7994 8.07303 11.8806 8.45501 12.043 8.77301C12.2054 9.08801 12.4324 9.33002 12.7241 9.49902C13.0157 9.66402 13.3571 9.74701 13.7482 9.74701C14.0101 9.74701 14.247 9.711 14.4592 9.638C14.6713 9.562 14.8552 9.45099 15.011 9.30499C15.1668 9.15899 15.2844 8.978 15.364 8.763L17.0444 8.95203C16.9383 9.39603 16.7362 9.78399 16.4379 10.115C16.1429 10.443 15.765 10.698 15.3043 10.881C14.8436 11.06 14.3166 11.149 13.7234 11.149ZM20.4412 0.817993V11H18.6415V0.817993H20.4412ZM22.2919 13.864V3.36401H24.0618V4.62598H24.1662C24.259 4.44098 24.3899 4.24397 24.5589 4.03497C24.728 3.82297 24.9567 3.64198 25.245 3.49298C25.5334 3.33998 25.9013 3.26398 26.3487 3.26398C26.9387 3.26398 27.4706 3.41498 27.9446 3.71698C28.4219 4.01498 28.7997 4.45701 29.0781 5.04401C29.3598 5.62701 29.5007 6.34302 29.5007 7.19202C29.5007 8.03002 29.3632 8.74302 29.0881 9.33002C28.813 9.91602 28.4384 10.364 27.9645 10.672C27.4905 10.98 26.9536 11.134 26.3537 11.134C25.9162 11.134 25.5533 11.061 25.2649 10.915C24.9766 10.77 24.7446 10.594 24.5689 10.388C24.3965 10.18 24.2623 9.982 24.1662 9.797H24.0916V13.864H22.2919ZM24.0568 7.18201C24.0568 7.67601 24.1264 8.108 24.2656 8.479C24.4081 8.851 24.612 9.141 24.8771 9.349C25.1456 9.555 25.4704 9.65802 25.8516 9.65802C26.2493 9.65802 26.5824 9.55199 26.8509 9.33899C27.1193 9.12399 27.3215 8.83102 27.4574 8.46002C27.5966 8.08502 27.6662 7.65901 27.6662 7.18201C27.6662 6.70801 27.5982 6.28701 27.4624 5.91901C27.3265 5.55101 27.1243 5.26302 26.8558 5.05402C26.5874 4.84502 26.2526 4.74103 25.8516 4.74103C25.4671 4.74103 25.1406 4.84201 24.8722 5.04401C24.6037 5.24601 24.3999 5.52998 24.2607 5.89398C24.1248 6.25898 24.0568 6.68801 24.0568 7.18201ZM43.3093 4.25403H41.4499C41.3969 3.94903 41.2991 3.67899 41.1566 3.44299C41.0141 3.20499 40.8368 3.00198 40.6246 2.83698C40.4125 2.67098 40.1706 2.54699 39.8988 2.46399C39.6303 2.37799 39.3403 2.33502 39.0288 2.33502C38.4753 2.33502 37.9847 2.47401 37.5572 2.75201C37.1296 3.02701 36.7949 3.43203 36.5529 3.96503C36.311 4.49603 36.19 5.143 36.19 5.909C36.19 6.688 36.311 7.34399 36.5529 7.87799C36.7982 8.40799 37.1329 8.80899 37.5572 9.08099C37.9847 9.34899 38.4736 9.48401 39.0238 9.48401C39.3287 9.48401 39.6138 9.44401 39.8789 9.36401C40.1474 9.28101 40.3877 9.16098 40.5998 9.00098C40.8152 8.84198 40.9959 8.64698 41.1417 8.41498C41.2908 8.18298 41.3936 7.91802 41.4499 7.61902L43.3093 7.62903C43.2397 8.11303 43.0889 8.56703 42.8569 8.99103C42.6282 9.41603 42.3282 9.78999 41.957 10.115C41.5858 10.437 41.1516 10.688 40.6545 10.871C40.1573 11.05 39.6055 11.139 38.9989 11.139C38.104 11.139 37.3053 10.932 36.6026 10.518C35.9 10.103 35.3465 9.50502 34.9421 8.72302C34.5378 7.94102 34.3356 7.003 34.3356 5.909C34.3356 4.812 34.5394 3.87397 34.9471 3.09497C35.3548 2.31297 35.9099 1.71499 36.6126 1.29999C37.3152 0.885988 38.1107 0.679016 38.9989 0.679016C39.5657 0.679016 40.0927 0.75903 40.5799 0.91803C41.0671 1.07703 41.5013 1.31002 41.8825 1.61902C42.2636 1.92402 42.5768 2.298 42.8221 2.742C43.0707 3.183 43.2331 3.68703 43.3093 4.25403ZM48.2995 11.149C47.5339 11.149 46.8727 10.99 46.3159 10.672C45.7624 10.35 45.3365 9.896 45.0382 9.31C44.7399 8.72 44.5907 8.02499 44.5907 7.22699C44.5907 6.44099 44.7399 5.75202 45.0382 5.15802C45.3398 4.56202 45.7607 4.09799 46.301 3.76599C46.8412 3.43199 47.4759 3.26398 48.2051 3.26398C48.6757 3.26398 49.1199 3.33998 49.5375 3.49298C49.9584 3.64198 50.3296 3.87403 50.6511 4.18903C50.9759 4.50403 51.231 4.90503 51.417 5.39203C51.602 5.87603 51.695 6.45301 51.695 7.12201V7.67401H45.4359V6.461H49.97C49.9667 6.116 49.8921 5.81002 49.7463 5.54102C49.6004 5.26902 49.3966 5.05602 49.1348 4.90002C48.8762 4.74402 48.5746 4.66602 48.2299 4.66602C47.862 4.66602 47.5389 4.756 47.2605 4.935C46.9821 5.11 46.765 5.34198 46.6092 5.63098C46.4567 5.91598 46.3788 6.22901 46.3755 6.57001V7.62903C46.3755 8.07303 46.4567 8.45501 46.6191 8.77301C46.7815 9.08801 47.0086 9.33002 47.3002 9.49902C47.5919 9.66402 47.9333 9.74701 48.3244 9.74701C48.5862 9.74701 48.8232 9.711 49.0353 9.638C49.2475 9.562 49.4314 9.45099 49.5872 9.30499C49.743 9.15899 49.8606 8.978 49.9402 8.763L51.621 8.95203C51.515 9.39603 51.312 9.78399 51.014 10.115C50.719 10.443 50.3412 10.698 49.8805 10.881C49.4198 11.06 48.8928 11.149 48.2995 11.149ZM55.017 6.526V11H53.218V3.36401H54.938V4.66101H55.027C55.203 4.23401 55.483 3.89403 55.868 3.64203C56.255 3.39003 56.734 3.26398 57.304 3.26398C57.831 3.26398 58.29 3.37699 58.681 3.60199C59.076 3.82799 59.381 4.15397 59.596 4.58197C59.815 5.00897 59.923 5.528 59.919 6.138V11H58.12V6.41602C58.12 5.90602 57.987 5.50602 57.722 5.21802C57.46 4.93002 57.097 4.78601 56.633 4.78601C56.318 4.78601 56.038 4.85502 55.793 4.99402C55.551 5.13002 55.36 5.327 55.221 5.586C55.085 5.844 55.017 6.158 55.017 6.526ZM65.562 3.36401V4.75598H61.172V3.36401H65.562ZM62.256 1.534H64.056V8.703C64.056 8.945 64.092 9.13101 64.165 9.26001C64.241 9.38601 64.341 9.47201 64.463 9.51801C64.586 9.56501 64.722 9.58801 64.871 9.58801C64.984 9.58801 65.087 9.57999 65.179 9.56299C65.275 9.54699 65.348 9.53201 65.398 9.51801L65.701 10.925C65.605 10.959 65.468 10.995 65.289 11.035C65.113 11.075 64.898 11.098 64.642 11.104C64.192 11.118 63.786 11.05 63.424 10.901C63.063 10.748 62.776 10.513 62.564 10.195C62.355 9.87601 62.253 9.47898 62.256 9.00098V1.534ZM70.366 11.149C69.6 11.149 68.939 10.99 68.382 10.672C67.829 10.35 67.403 9.896 67.105 9.31C66.806 8.72 66.657 8.02499 66.657 7.22699C66.657 6.44099 66.806 5.75202 67.105 5.15802C67.406 4.56202 67.827 4.09799 68.367 3.76599C68.908 3.43199 69.542 3.26398 70.271 3.26398C70.742 3.26398 71.186 3.33998 71.604 3.49298C72.025 3.64198 72.396 3.87403 72.718 4.18903C73.042 4.50403 73.298 4.90503 73.483 5.39203C73.669 5.87603 73.762 6.45301 73.762 7.12201V7.67401H67.502V6.461H72.036C72.033 6.116 71.959 5.81002 71.813 5.54102C71.667 5.26902 71.463 5.05602 71.201 4.90002C70.943 4.74402 70.641 4.66602 70.296 4.66602C69.928 4.66602 69.605 4.756 69.327 4.935C69.048 5.11 68.831 5.34198 68.676 5.63098C68.523 5.91598 68.445 6.22901 68.442 6.57001V7.62903C68.442 8.07303 68.523 8.45501 68.686 8.77301C68.848 9.08801 69.075 9.33002 69.367 9.49902C69.658 9.66402 70 9.74701 70.391 9.74701C70.653 9.74701 70.89 9.711 71.102 9.638C71.314 9.562 71.498 9.45099 71.654 9.30499C71.809 9.15899 71.927 8.978 72.007 8.763L73.687 8.95203C73.581 9.39603 73.379 9.78399 73.08 10.115C72.785 10.443 72.408 10.698 71.947 10.881C71.486 11.06 70.959 11.149 70.366 11.149ZM75.284 11V3.36401H77.029V4.63599H77.109C77.248 4.19599 77.487 3.856 77.825 3.617C78.166 3.375 78.555 3.25403 78.993 3.25403C79.092 3.25403 79.203 3.25898 79.326 3.26898C79.452 3.27598 79.556 3.28702 79.639 3.30402V4.96002C79.563 4.93302 79.442 4.91001 79.276 4.89001C79.114 4.86701 78.956 4.85498 78.804 4.85498C78.476 4.85498 78.181 4.92597 77.919 5.06897C77.661 5.20797 77.457 5.402 77.308 5.651C77.158 5.899 77.084 6.18599 77.084 6.51099V11H75.284Z" fill="#5F6980"/>
</svg>
