<svg width="7" height="10" viewBox="0 0 7 10" fill="none" xmlns="http://www.w3.org/2000/svg">
<path d="M3.75 9.11902C3.108 9.11902 2.56101 8.94497 2.10901 8.59497C1.65801 8.24297 1.31301 7.733 1.07401 7.065C0.835005 6.395 0.716003 5.58499 0.716003 4.63599C0.716003 3.69299 0.835005 2.88797 1.07401 2.21997C1.31501 1.54997 1.66201 1.03797 2.11401 0.685974C2.56801 0.330974 3.114 0.153015 3.75 0.153015C4.386 0.153015 4.92999 0.330974 5.38199 0.685974C5.83699 1.03797 6.183 1.54997 6.422 2.21997C6.663 2.88797 6.784 3.69299 6.784 4.63599C6.784 5.58499 6.66499 6.395 6.42599 7.065C6.18799 7.733 5.84199 8.24297 5.39099 8.59497C4.93899 8.94497 4.392 9.11902 3.75 9.11902ZM3.75 8.18201C4.386 8.18201 4.881 7.87499 5.233 7.26099C5.585 6.64799 5.76099 5.77299 5.76099 4.63599C5.76099 3.88099 5.68001 3.23699 5.51801 2.70599C5.35901 2.17499 5.129 1.77003 4.828 1.49103C4.53 1.21303 4.17 1.07397 3.75 1.07397C3.119 1.07397 2.626 1.38502 2.271 2.00702C1.916 2.62602 1.73901 3.50299 1.73901 4.63599C1.73901 5.39199 1.81799 6.03401 1.97699 6.56201C2.13599 7.09101 2.36499 7.49301 2.66299 7.76801C2.96399 8.04401 3.327 8.18201 3.75 8.18201Z" fill="#9D9FA2"/>
</svg>
