<svg width="51" height="12" viewBox="0 0 51 12" fill="none" xmlns="http://www.w3.org/2000/svg">
<path d="M1.651 11H0.358002L4.09698 0.819946H5.36899L9.108 11H7.815L4.77301 2.43005H4.69299L1.651 11ZM2.12799 7.02002H7.33801V8.12H2.12799V7.02002ZM10.535 11V3.35999H11.668V4.56006H11.768C11.927 4.15006 12.184 3.82999 12.538 3.60999C12.893 3.37999 13.319 3.26001 13.816 3.26001C14.32 3.26001 14.739 3.37999 15.074 3.60999C15.412 3.82999 15.675 4.15006 15.864 4.56006H15.944C16.139 4.16006 16.433 3.85 16.824 3.62C17.215 3.38 17.684 3.26001 18.231 3.26001C18.914 3.26001 19.472 3.48003 19.906 3.91003C20.34 4.33003 20.558 4.99001 20.558 5.89001V11H19.384V5.89001C19.384 5.33001 19.23 4.92005 18.922 4.68005C18.614 4.44005 18.251 4.31995 17.833 4.31995C17.296 4.31995 16.88 4.48006 16.585 4.81006C16.29 5.13006 16.143 5.53003 16.143 6.03003V11H14.95V5.77002C14.95 5.34002 14.809 4.98997 14.527 4.71997C14.245 4.44997 13.882 4.31995 13.438 4.31995C13.133 4.31995 12.848 4.40006 12.583 4.56006C12.321 4.72006 12.109 4.94999 11.947 5.23999C11.788 5.51999 11.708 5.84998 11.708 6.22998V11H10.535ZM25.805 11.16C25.116 11.16 24.511 11 23.99 10.67C23.473 10.34 23.069 9.88004 22.777 9.29004C22.489 8.70004 22.345 8.00997 22.345 7.21997C22.345 6.42997 22.489 5.73001 22.777 5.14001C23.069 4.55001 23.473 4.08001 23.99 3.76001C24.511 3.43001 25.116 3.26001 25.805 3.26001C26.494 3.26001 27.098 3.43001 27.615 3.76001C28.135 4.08001 28.539 4.55001 28.828 5.14001C29.119 5.73001 29.265 6.42997 29.265 7.21997C29.265 8.00997 29.119 8.70004 28.828 9.29004C28.539 9.88004 28.135 10.34 27.615 10.67C27.098 11 26.494 11.16 25.805 11.16ZM25.805 10.11C26.329 10.11 26.76 9.96995 27.098 9.69995C27.436 9.42995 27.686 9.08001 27.848 8.64001C28.011 8.21001 28.092 7.72997 28.092 7.21997C28.092 6.70997 28.011 6.24004 27.848 5.79004C27.686 5.35004 27.436 4.99998 27.098 4.72998C26.76 4.44998 26.329 4.31995 25.805 4.31995C25.281 4.31995 24.85 4.44998 24.512 4.72998C24.174 4.99998 23.924 5.35004 23.762 5.79004C23.599 6.24004 23.518 6.70997 23.518 7.21997C23.518 7.72997 23.599 8.21001 23.762 8.64001C23.924 9.08001 24.174 9.42995 24.512 9.69995C24.85 9.96995 25.281 10.11 25.805 10.11ZM35.869 7.88V3.35999H37.042V11H35.869V9.70996H35.789C35.61 10.1 35.332 10.42 34.954 10.7C34.576 10.97 34.099 11.1 33.522 11.1C33.045 11.1 32.621 11 32.249 10.79C31.878 10.57 31.587 10.26 31.374 9.82996C31.162 9.39996 31.056 8.86997 31.056 8.21997V3.35999H32.23V8.14001C32.23 8.69001 32.385 9.13997 32.697 9.46997C33.012 9.79997 33.413 9.96997 33.9 9.96997C34.192 9.96997 34.488 9.88999 34.79 9.73999C35.095 9.58999 35.35 9.36006 35.556 9.06006C35.764 8.75006 35.869 8.36 35.869 7.88ZM40.364 6.41003V11H39.191V3.35999H40.325V4.56006H40.424C40.603 4.17006 40.875 3.86 41.239 3.62C41.604 3.38 42.075 3.26001 42.651 3.26001C43.168 3.26001 43.621 3.36996 44.009 3.57996C44.396 3.78996 44.698 4.11004 44.913 4.54004C45.129 4.96004 45.237 5.50002 45.237 6.15002V11H44.063V6.22998C44.063 5.62998 43.907 5.15996 43.596 4.82996C43.284 4.48996 42.857 4.31995 42.313 4.31995C41.939 4.31995 41.604 4.40006 41.309 4.56006C41.017 4.72006 40.787 4.96002 40.618 5.27002C40.449 5.58002 40.364 5.96003 40.364 6.41003ZM50.702 3.35999V4.35999H46.744V3.35999H50.702ZM47.898 1.53003H49.071V8.81006C49.071 9.14006 49.119 9.39006 49.215 9.56006C49.314 9.72006 49.44 9.83001 49.593 9.89001C49.749 9.94001 49.913 9.96997 50.085 9.96997C50.214 9.96997 50.32 9.95995 50.403 9.94995C50.486 9.92995 50.552 9.92003 50.602 9.91003L50.841 10.96C50.761 10.99 50.65 11.02 50.508 11.05C50.365 11.08 50.184 11.1 49.966 11.1C49.634 11.1 49.309 11.03 48.991 10.89C48.676 10.74 48.415 10.53 48.206 10.23C48 9.93998 47.898 9.57 47.898 9.13V1.53003Z" fill="#5F6980"/>
</svg>
