<svg width="38" height="12" viewBox="0 0 38 12" fill="none" xmlns="http://www.w3.org/2000/svg">
<path d="M4.63397 0.819946V11H3.401V2.10999H3.341L0.85498 3.76001V2.51001L3.401 0.819946H4.63397ZM11.141 0.819946V11H9.90802V2.10999H9.849L7.36298 3.76001V2.51001L9.90802 0.819946H11.141ZM13.831 8.91003V7.90002L18.305 0.819946H19.041V2.39001H18.544L15.163 7.73999V7.81995H21.189V8.91003H13.831ZM18.624 11V8.59998V8.13V0.819946H19.797V11H18.624ZM26.433 11.14C26.015 11.13 25.597 11.05 25.18 10.9C24.762 10.75 24.381 10.49 24.036 10.13C23.692 9.77001 23.415 9.27002 23.206 8.65002C22.997 8.03002 22.893 7.25006 22.893 6.31006C22.893 5.41006 22.977 4.61003 23.146 3.91003C23.316 3.21003 23.561 2.62002 23.882 2.15002C24.204 1.67002 24.592 1.30005 25.046 1.05005C25.503 0.800049 26.018 0.680054 26.592 0.680054C27.162 0.680054 27.669 0.79002 28.113 1.02002C28.561 1.25002 28.925 1.55997 29.207 1.96997C29.489 2.36997 29.671 2.83999 29.754 3.35999H28.541C28.428 2.90999 28.209 2.52998 27.884 2.22998C27.56 1.91998 27.129 1.77002 26.592 1.77002C25.803 1.77002 25.182 2.12005 24.727 2.80005C24.277 3.49005 24.05 4.44994 24.046 5.68994H24.126C24.311 5.40994 24.532 5.16997 24.787 4.96997C25.046 4.76997 25.331 4.61 25.642 4.5C25.954 4.39 26.284 4.33997 26.632 4.33997C27.215 4.33997 27.749 4.48003 28.232 4.78003C28.716 5.06003 29.104 5.45997 29.396 5.96997C29.687 6.47997 29.833 7.05997 29.833 7.71997C29.833 8.34997 29.692 8.92995 29.411 9.44995C29.129 9.96995 28.733 10.3799 28.222 10.6899C27.715 10.9999 27.119 11.15 26.433 11.14ZM26.433 10.05C26.85 10.05 27.225 9.93998 27.556 9.72998C27.891 9.51998 28.155 9.24002 28.347 8.89001C28.542 8.54001 28.64 8.14997 28.64 7.71997C28.64 7.29997 28.546 6.91995 28.357 6.56995C28.171 6.21995 27.914 5.94999 27.586 5.73999C27.261 5.52999 26.89 5.43005 26.472 5.43005C26.158 5.43005 25.864 5.49 25.593 5.62C25.321 5.74 25.082 5.91001 24.877 6.13C24.674 6.34 24.515 6.58999 24.399 6.87C24.283 7.14 24.225 7.42999 24.225 7.73999C24.225 8.13999 24.32 8.52 24.509 8.87C24.701 9.22 24.963 9.50997 25.294 9.71997C25.629 9.93997 26.008 10.05 26.433 10.05ZM32.107 11L36.661 1.98999V1.91003H31.411V0.819946H37.933V1.96997L33.399 11H32.107Z" fill="#5F6980"/>
</svg>
