<svg width="46" height="13" viewBox="0 0 46 13" fill="none" xmlns="http://www.w3.org/2000/svg">
<path d="M0.0830078 10V1.27002H3.35602C4.02702 1.27002 4.58901 1.40002 5.04401 1.65002C5.50101 1.90002 5.84598 2.24005 6.07898 2.68005C6.31498 3.11005 6.43298 3.61003 6.43298 4.16003C6.43298 4.72003 6.31498 5.22002 6.07898 5.65002C5.84298 6.09002 5.49497 6.43005 5.03497 6.68005C4.57497 6.93005 4.00802 7.05005 3.33502 7.05005H1.16602V5.75H3.12201C3.51401 5.75 3.83502 5.68005 4.08502 5.55005C4.33502 5.41005 4.51998 5.21998 4.63898 4.97998C4.76098 4.74998 4.82202 4.47003 4.82202 4.16003C4.82202 3.85003 4.76098 3.57997 4.63898 3.33997C4.51998 3.10997 4.33299 2.92004 4.08099 2.79004C3.83099 2.66004 3.50798 2.58997 3.11298 2.58997H1.664V10H0.0830078ZM10.542 10.13C9.88599 10.13 9.31898 9.98997 8.84198 9.71997C8.36698 9.43997 8.00197 9.05005 7.74597 8.55005C7.49097 8.05005 7.36298 7.45002 7.36298 6.77002C7.36298 6.09002 7.49097 5.49999 7.74597 4.98999C8.00497 4.47999 8.36598 4.08005 8.82898 3.80005C9.29198 3.51005 9.836 3.37 10.461 3.37C10.864 3.37 11.245 3.42995 11.603 3.56995C11.964 3.68995 12.282 3.89003 12.558 4.16003C12.836 4.43003 13.055 4.77994 13.214 5.18994C13.373 5.60994 13.452 6.10005 13.452 6.68005V7.15002H8.08698V6.10999H11.974C11.971 5.80999 11.907 5.54995 11.782 5.31995C11.657 5.08995 11.482 4.90002 11.258 4.77002C11.036 4.64002 10.778 4.56995 10.482 4.56995C10.167 4.56995 9.89 4.65005 9.651 4.80005C9.413 4.95005 9.22702 5.15002 9.09302 5.40002C8.96202 5.64002 8.89601 5.90995 8.89301 6.19995V7.10999C8.89301 7.48999 8.96199 7.81997 9.10199 8.08997C9.24099 8.35997 9.435 8.56996 9.685 8.70996C9.935 8.85996 10.228 8.93005 10.563 8.93005C10.788 8.93005 10.991 8.88996 11.173 8.82996C11.354 8.76996 11.512 8.67005 11.646 8.55005C11.779 8.42005 11.88 8.26996 11.948 8.07996L13.388 8.23999C13.298 8.61999 13.124 8.95999 12.869 9.23999C12.616 9.51999 12.292 9.74002 11.897 9.90002C11.502 10.05 11.05 10.13 10.542 10.13ZM16.3 6.16003V10H14.757V3.44995H16.232V4.56995H16.309C16.459 4.19995 16.699 3.90994 17.029 3.68994C17.361 3.47994 17.772 3.37 18.26 3.37C18.712 3.37 19.105 3.47003 19.441 3.66003C19.779 3.85003 20.04 4.13 20.225 4.5C20.412 4.87 20.505 5.30996 20.502 5.82996V10H18.959V6.06995C18.959 5.62995 18.846 5.29004 18.618 5.04004C18.394 4.80004 18.083 4.67004 17.685 4.67004C17.415 4.67004 17.175 4.72998 16.965 4.84998C16.757 4.96998 16.594 5.13999 16.475 5.35999C16.358 5.57999 16.3 5.85003 16.3 6.16003ZM24.499 10.12C23.985 10.12 23.525 9.97997 23.118 9.71997C22.712 9.44997 22.391 9.06995 22.155 8.56995C21.919 8.06995 21.801 7.44999 21.801 6.73999C21.801 6.00999 21.921 5.39001 22.159 4.89001C22.401 4.39001 22.726 4.01001 23.135 3.76001C23.544 3.50001 24 3.37 24.503 3.37C24.887 3.37 25.202 3.42995 25.449 3.56995C25.696 3.68995 25.892 3.85003 26.037 4.03003C26.182 4.21003 26.294 4.38004 26.374 4.54004H26.438V1.27002H27.985V10H26.468V8.96997H26.374C26.294 9.12997 26.179 9.29998 26.029 9.47998C25.878 9.64998 25.679 9.80005 25.432 9.93005C25.185 10.0501 24.874 10.12 24.499 10.12ZM24.929 8.84998C25.256 8.84998 25.534 8.75997 25.765 8.58997C25.995 8.40997 26.169 8.15997 26.289 7.83997C26.408 7.51997 26.468 7.14998 26.468 6.72998C26.468 6.29998 26.408 5.94 26.289 5.62C26.172 5.31 25.999 5.07001 25.769 4.89001C25.542 4.72001 25.262 4.63 24.929 4.63C24.586 4.63 24.299 4.72002 24.069 4.90002C23.838 5.08002 23.665 5.33001 23.549 5.64001C23.432 5.96001 23.374 6.31998 23.374 6.72998C23.374 7.13998 23.432 7.49995 23.549 7.81995C23.668 8.13995 23.843 8.38996 24.073 8.57996C24.306 8.75996 24.591 8.84998 24.929 8.84998ZM29.629 10V3.44995H31.171V10H29.629ZM30.404 2.53003C30.16 2.53003 29.95 2.44003 29.773 2.28003C29.597 2.12003 29.509 1.91994 29.509 1.68994C29.509 1.45994 29.597 1.25998 29.773 1.09998C29.95 0.929976 30.16 0.849976 30.404 0.849976C30.651 0.849976 30.862 0.929976 31.035 1.09998C31.211 1.25998 31.299 1.45994 31.299 1.68994C31.299 1.91994 31.211 2.12003 31.035 2.28003C30.862 2.44003 30.651 2.53003 30.404 2.53003ZM34.3 6.16003V10H32.757V3.44995H34.232V4.56995H34.309C34.459 4.19995 34.699 3.90994 35.029 3.68994C35.361 3.47994 35.772 3.37 36.26 3.37C36.712 3.37 37.105 3.47003 37.441 3.66003C37.779 3.85003 38.04 4.13 38.225 4.5C38.412 4.87 38.505 5.30996 38.502 5.82996V10H36.959V6.06995C36.959 5.62995 36.846 5.29004 36.618 5.04004C36.394 4.80004 36.083 4.67004 35.685 4.67004C35.415 4.67004 35.175 4.72998 34.965 4.84998C34.757 4.96998 34.594 5.13999 34.475 5.35999C34.358 5.57999 34.3 5.85003 34.3 6.16003ZM42.917 12.59C42.363 12.59 41.887 12.52 41.489 12.37C41.091 12.22 40.772 12.02 40.53 11.77C40.289 11.52 40.121 11.2399 40.027 10.9399L41.417 10.6C41.479 10.73 41.57 10.86 41.689 10.98C41.809 11.11 41.969 11.21 42.171 11.3C42.375 11.38 42.632 11.42 42.942 11.42C43.38 11.42 43.742 11.32 44.029 11.1C44.316 10.89 44.459 10.5501 44.459 10.0601V8.81995H44.382C44.303 8.97995 44.186 9.15006 44.033 9.31006C43.882 9.48006 43.682 9.61999 43.432 9.73999C43.185 9.84999 42.874 9.91003 42.499 9.91003C41.996 9.91003 41.54 9.79005 41.131 9.55005C40.725 9.31005 40.401 8.95999 40.159 8.48999C39.921 8.00999 39.801 7.41996 39.801 6.70996C39.801 5.98996 39.921 5.38001 40.159 4.89001C40.401 4.39001 40.726 4.01001 41.135 3.76001C41.544 3.50001 42 3.37 42.503 3.37C42.887 3.37 43.202 3.42995 43.449 3.56995C43.699 3.68995 43.898 3.85003 44.046 4.03003C44.194 4.21003 44.306 4.38004 44.382 4.54004H44.468V3.44995H45.989V10.11C45.989 10.67 45.855 11.13 45.588 11.5C45.321 11.86 44.956 12.1399 44.493 12.3199C44.03 12.4999 43.505 12.59 42.917 12.59ZM42.929 8.69995C43.256 8.69995 43.534 8.61996 43.765 8.45996C43.995 8.29996 44.169 8.07002 44.289 7.77002C44.408 7.47002 44.468 7.11995 44.468 6.69995C44.468 6.28995 44.408 5.92 44.289 5.62C44.172 5.31 43.999 5.07001 43.769 4.89001C43.542 4.72001 43.262 4.63 42.929 4.63C42.586 4.63 42.299 4.72002 42.069 4.90002C41.838 5.08002 41.665 5.33001 41.549 5.64001C41.432 5.95001 41.374 6.29995 41.374 6.69995C41.374 7.09995 41.432 7.45 41.549 7.75C41.668 8.05 41.843 8.27995 42.073 8.44995C42.306 8.60995 42.591 8.69995 42.929 8.69995Z" fill="#FD7E14"/>
</svg>
