<svg width="68" height="15" viewBox="0 0 68 15" fill="none" xmlns="http://www.w3.org/2000/svg">
<path d="M0.00427246 0.817993H2.26137L5.28407 8.19601H5.40337L8.42607 0.817993H10.6832V11H8.91337V4.005H8.81887L6.00497 10.97H4.68247L1.86857 3.98999H1.77407V11H0.00427246V0.817993ZM15.9929 11.149C15.2273 11.149 14.5661 10.99 14.0092 10.672C13.4557 10.35 13.0298 9.896 12.7315 9.31C12.4332 8.72 12.2841 8.02499 12.2841 7.22699C12.2841 6.44099 12.4332 5.75199 12.7315 5.15799C13.0331 4.56199 13.4541 4.09799 13.9943 3.76599C14.5346 3.43199 15.1693 3.26401 15.8984 3.26401C16.3691 3.26401 16.8132 3.34001 17.2308 3.49301C17.6518 3.64201 18.023 3.874 18.3445 4.189C18.6693 4.504 18.9245 4.905 19.1101 5.392C19.2957 5.876 19.3885 6.45301 19.3885 7.12201V7.67401H13.1293V6.461H17.6634C17.66 6.116 17.5855 5.80999 17.4396 5.54099C17.2938 5.26899 17.09 5.05599 16.8281 4.89999C16.5696 4.74399 16.268 4.66599 15.9233 4.66599C15.5554 4.66599 15.2322 4.756 14.9538 4.935C14.6754 5.11 14.4583 5.34201 14.3026 5.63101C14.1501 5.91601 14.0722 6.22901 14.0689 6.57001V7.629C14.0689 8.073 14.1501 8.45501 14.3125 8.77301C14.4749 9.08801 14.7019 9.32999 14.9936 9.49899C15.2853 9.66399 15.6267 9.74701 16.0178 9.74701C16.2796 9.74701 16.5166 9.711 16.7287 9.638C16.9408 9.562 17.1248 9.45099 17.2805 9.30499C17.4363 9.15899 17.554 8.978 17.6335 8.763L19.3139 8.952C19.2079 9.396 19.0057 9.78399 18.7074 10.115C18.4124 10.443 18.0346 10.698 17.5739 10.881C17.1132 11.06 16.5862 11.149 15.9929 11.149ZM26.9466 5.38199L25.3059 5.561C25.2595 5.395 25.1783 5.23999 25.0623 5.09399C24.9496 4.94799 24.7972 4.83 24.6049 4.741C24.4127 4.651 24.1774 4.60699 23.899 4.60699C23.5244 4.60699 23.2096 4.68801 22.9544 4.85001C22.7025 5.01301 22.5782 5.22299 22.5815 5.48199C22.5782 5.70399 22.6594 5.88401 22.8251 6.02301C22.9941 6.16301 23.2725 6.277 23.6603 6.366L24.9629 6.64499C25.6854 6.80099 26.2224 7.04799 26.5737 7.38599C26.9283 7.72399 27.1073 8.16601 27.1106 8.71301C27.1073 9.19401 26.9664 9.61799 26.688 9.98599C26.4129 10.35 26.0301 10.635 25.5396 10.841C25.0491 11.046 24.4856 11.149 23.8493 11.149C22.9146 11.149 22.1622 10.954 21.5922 10.562C21.0221 10.168 20.6824 9.61999 20.573 8.91699L22.3279 8.74799C22.4075 9.09299 22.5765 9.35301 22.835 9.52802C23.0936 9.70401 23.43 9.79199 23.8443 9.79199C24.2718 9.79199 24.6149 9.70401 24.8734 9.52802C25.1352 9.35301 25.2662 9.13601 25.2662 8.87701C25.2662 8.65801 25.1816 8.47799 25.0126 8.33499C24.8469 8.19299 24.5884 8.08299 24.237 8.00699L22.9345 7.73401C22.202 7.58101 21.6601 7.32401 21.3088 6.96301C20.9574 6.59801 20.7834 6.13799 20.7868 5.58099C20.7834 5.10999 20.911 4.703 21.1696 4.358C21.4314 4.01 21.7943 3.74101 22.2583 3.55301C22.7257 3.36001 23.2643 3.26401 23.8741 3.26401C24.769 3.26401 25.4733 3.455 25.987 3.836C26.5041 4.217 26.8239 4.73199 26.9466 5.38199ZM34.6301 5.38199L32.9895 5.561C32.9431 5.395 32.8619 5.23999 32.7459 5.09399C32.6332 4.94799 32.4808 4.83 32.2885 4.741C32.0963 4.651 31.861 4.60699 31.5826 4.60699C31.208 4.60699 30.8932 4.68801 30.638 4.85001C30.3861 5.01301 30.2618 5.22299 30.2651 5.48199C30.2618 5.70399 30.343 5.88401 30.5087 6.02301C30.6777 6.16301 30.9561 6.277 31.3439 6.366L32.6465 6.64499C33.369 6.80099 33.906 7.04799 34.2573 7.38599C34.6119 7.72399 34.7909 8.16601 34.7942 8.71301C34.7909 9.19401 34.65 9.61799 34.3716 9.98599C34.0965 10.35 33.7137 10.635 33.2232 10.841C32.7327 11.046 32.1692 11.149 31.5328 11.149C30.5982 11.149 29.8458 10.954 29.2757 10.562C28.7057 10.168 28.3659 9.61999 28.2566 8.91699L30.0115 8.74799C30.0911 9.09299 30.2601 9.35301 30.5186 9.52802C30.7772 9.70401 31.1136 9.79199 31.5279 9.79199C31.9554 9.79199 32.2985 9.70401 32.557 9.52802C32.8188 9.35301 32.9498 9.13601 32.9498 8.87701C32.9498 8.65801 32.8652 8.47799 32.6962 8.33499C32.5305 8.19299 32.272 8.08299 31.9206 8.00699L30.6181 7.73401C29.8856 7.58101 29.3437 7.32401 28.9924 6.96301C28.641 6.59801 28.467 6.13799 28.4703 5.58099C28.467 5.10999 28.5946 4.703 28.8532 4.358C29.115 4.01 29.4779 3.74101 29.9419 3.55301C30.4093 3.36001 30.9479 3.26401 31.5577 3.26401C32.4526 3.26401 33.1569 3.455 33.6706 3.836C34.1877 4.217 34.5075 4.73199 34.6301 5.38199ZM38.4757 11.154C37.9918 11.154 37.5559 11.068 37.1681 10.896C36.7837 10.72 36.4788 10.461 36.2534 10.12C36.0313 9.779 35.9203 9.358 35.9203 8.85699C35.9203 8.42599 35.9998 8.06999 36.1589 7.78799C36.318 7.50699 36.5351 7.281 36.8102 7.112C37.0853 6.943 37.3952 6.816 37.7399 6.729C38.0879 6.64 38.4475 6.57501 38.8187 6.53601C39.2662 6.48901 39.6291 6.44801 39.9075 6.41101C40.1859 6.37101 40.3881 6.31199 40.514 6.23199C40.6433 6.14899 40.7079 6.022 40.7079 5.849V5.82001C40.7079 5.44501 40.5969 5.15501 40.3748 4.95001C40.1528 4.74401 39.8329 4.64099 39.4153 4.64099C38.9745 4.64099 38.6248 4.73699 38.3663 4.92999C38.1111 5.12199 37.9387 5.34899 37.8493 5.61099L36.1689 5.37201C36.3014 4.90801 36.5202 4.52001 36.8251 4.20901C37.13 3.89401 37.5029 3.65899 37.9437 3.50299C38.3845 3.34399 38.8717 3.26401 39.4054 3.26401C39.7733 3.26401 40.1395 3.30701 40.5041 3.39301C40.8687 3.48001 41.2018 3.62201 41.5034 3.82101C41.805 4.01701 42.0469 4.283 42.2292 4.621C42.4148 4.96 42.5076 5.38201 42.5076 5.88901V11H40.7775V9.95099H40.7179C40.6085 10.163 40.4544 10.362 40.2555 10.548C40.06 10.73 39.813 10.877 39.5147 10.99C39.2198 11.099 38.8734 11.154 38.4757 11.154ZM38.943 9.832C39.3043 9.832 39.6175 9.76001 39.8826 9.61801C40.1478 9.47201 40.3516 9.27999 40.4941 9.04099C40.64 8.80299 40.7129 8.54199 40.7129 8.26099V7.36099C40.6565 7.40699 40.5604 7.44999 40.4245 7.48999C40.292 7.52999 40.1428 7.56499 39.9771 7.59399C39.8114 7.62399 39.6473 7.65101 39.4849 7.67401C39.3225 7.69701 39.1816 7.71701 39.0623 7.73401C38.7939 7.77001 38.5536 7.82999 38.3414 7.91299C38.1293 7.99599 37.9619 8.11199 37.8393 8.26099C37.7167 8.40599 37.6554 8.595 37.6554 8.827C37.6554 9.159 37.7763 9.409 38.0183 9.578C38.2602 9.747 38.5685 9.832 38.943 9.832ZM47.6383 14.023C46.992 14.023 46.4368 13.935 45.9728 13.759C45.5088 13.587 45.1359 13.355 44.8542 13.063C44.5725 12.772 44.377 12.448 44.2676 12.094L45.8883 11.701C45.9612 11.85 46.0673 11.998 46.2065 12.143C46.3457 12.293 46.533 12.415 46.7683 12.511C47.0069 12.611 47.3069 12.661 47.6681 12.661C48.1786 12.661 48.6011 12.536 48.9359 12.288C49.2707 12.042 49.438 11.638 49.438 11.075V9.62799H49.3485C49.2557 9.81299 49.1199 10.004 48.9409 10.2C48.7652 10.395 48.5315 10.559 48.2399 10.692C47.9515 10.824 47.5886 10.891 47.1511 10.891C46.5645 10.891 46.0325 10.753 45.5552 10.478C45.0813 10.2 44.7034 9.78499 44.4217 9.23499C44.1433 8.68199 44.0041 7.98901 44.0041 7.15701C44.0041 6.31801 44.1433 5.611 44.4217 5.034C44.7034 4.454 45.0829 4.01501 45.5602 3.71701C46.0375 3.41501 46.5694 3.26401 47.1561 3.26401C47.6035 3.26401 47.9714 3.34001 48.2598 3.49301C48.5514 3.64201 48.7834 3.823 48.9558 4.035C49.1281 4.244 49.2591 4.44101 49.3485 4.62601H49.448V3.36401H51.223V11.124C51.223 11.777 51.067 12.317 50.7555 12.745C50.444 13.173 50.0181 13.492 49.4778 13.705C48.9376 13.917 48.3244 14.023 47.6383 14.023ZM47.6532 9.479C48.0344 9.479 48.3592 9.38601 48.6277 9.20001C48.8961 9.01501 49.1 8.74799 49.2392 8.39999C49.3784 8.05199 49.448 7.634 49.448 7.147C49.448 6.666 49.3784 6.246 49.2392 5.884C49.1033 5.523 48.9011 5.24301 48.6326 5.04401C48.3675 4.84201 48.041 4.741 47.6532 4.741C47.2522 4.741 46.9174 4.84499 46.649 5.05399C46.3805 5.26299 46.1783 5.549 46.0424 5.914C45.9065 6.275 45.8386 6.686 45.8386 7.147C45.8386 7.614 45.9065 8.024 46.0424 8.375C46.1816 8.723 46.3855 8.995 46.6539 9.19C46.9257 9.383 47.2588 9.479 47.6532 9.479ZM56.448 11.149C55.682 11.149 55.021 10.99 54.464 10.672C53.911 10.35 53.485 9.896 53.187 9.31C52.888 8.72 52.739 8.02499 52.739 7.22699C52.739 6.44099 52.888 5.75199 53.187 5.15799C53.488 4.56199 53.909 4.09799 54.449 3.76599C54.99 3.43199 55.624 3.26401 56.354 3.26401C56.824 3.26401 57.268 3.34001 57.686 3.49301C58.107 3.64201 58.478 3.874 58.8 4.189C59.124 4.504 59.38 4.905 59.565 5.392C59.751 5.876 59.844 6.45301 59.844 7.12201V7.67401H53.584V6.461H58.118C58.115 6.116 58.041 5.80999 57.895 5.54099C57.749 5.26899 57.545 5.05599 57.283 4.89999C57.025 4.74399 56.723 4.66599 56.378 4.66599C56.01 4.66599 55.687 4.756 55.409 4.935C55.131 5.11 54.913 5.34201 54.758 5.63101C54.605 5.91601 54.527 6.22901 54.524 6.57001V7.629C54.524 8.073 54.605 8.45501 54.768 8.77301C54.93 9.08801 55.157 9.32999 55.449 9.49899C55.74 9.66399 56.082 9.74701 56.473 9.74701C56.735 9.74701 56.972 9.711 57.184 9.638C57.396 9.562 57.58 9.45099 57.736 9.30499C57.891 9.15899 58.009 8.978 58.089 8.763L59.769 8.952C59.663 9.396 59.461 9.78399 59.162 10.115C58.867 10.443 58.49 10.698 58.029 10.881C57.568 11.06 57.041 11.149 56.448 11.149ZM67.402 5.38199L65.761 5.561C65.715 5.395 65.633 5.23999 65.517 5.09399C65.405 4.94799 65.252 4.83 65.06 4.741C64.868 4.651 64.632 4.60699 64.354 4.60699C63.98 4.60699 63.665 4.68801 63.409 4.85001C63.158 5.01301 63.033 5.22299 63.037 5.48199C63.033 5.70399 63.114 5.88401 63.28 6.02301C63.449 6.16301 63.728 6.277 64.115 6.366L65.418 6.64499C66.141 6.80099 66.677 7.04799 67.029 7.38599C67.383 7.72399 67.562 8.16601 67.566 8.71301C67.562 9.19401 67.422 9.61799 67.143 9.98599C66.868 10.35 66.485 10.635 65.995 10.841C65.504 11.046 64.941 11.149 64.304 11.149C63.37 11.149 62.617 10.954 62.047 10.562C61.477 10.168 61.137 9.61999 61.028 8.91699L62.783 8.74799C62.863 9.09299 63.032 9.35301 63.29 9.52802C63.549 9.70401 63.885 9.79199 64.299 9.79199C64.727 9.79199 65.07 9.70401 65.328 9.52802C65.59 9.35301 65.721 9.13601 65.721 8.87701C65.721 8.65801 65.637 8.47799 65.468 8.33499C65.302 8.19299 65.043 8.08299 64.692 8.00699L63.39 7.73401C62.657 7.58101 62.115 7.32401 61.764 6.96301C61.413 6.59801 61.239 6.13799 61.242 5.58099C61.239 5.10999 61.366 4.703 61.625 4.358C61.886 4.01 62.249 3.74101 62.713 3.55301C63.181 3.36001 63.719 3.26401 64.329 3.26401C65.224 3.26401 65.928 3.455 66.442 3.836C66.959 4.217 67.279 4.73199 67.402 5.38199Z" fill="#5F6980"/>
</svg>
