<svg width="57" height="12" viewBox="0 0 57 12" fill="none" xmlns="http://www.w3.org/2000/svg">
<path d="M6.80103 3.36362C6.74103 2.85982 6.50004 2.46882 6.07504 2.19032C5.65104 1.91192 5.13104 1.77271 4.51404 1.77271C4.06304 1.77271 3.66902 1.84562 3.33102 1.99152C2.99602 2.13732 2.73404 2.33782 2.54504 2.59302C2.36004 2.84822 2.26703 3.13832 2.26703 3.46312C2.26703 3.73482 2.33203 3.96852 2.46103 4.16412C2.59403 4.35632 2.76302 4.51701 2.96802 4.64631C3.17402 4.77231 3.38904 4.87671 3.61404 4.95951C3.84004 5.03911 4.04702 5.10372 4.23602 5.15342L5.27002 5.43182C5.53502 5.50142 5.83003 5.59751 6.15503 5.72021C6.48303 5.84281 6.79602 6.01022 7.09402 6.22232C7.39602 6.43112 7.64503 6.69961 7.84003 7.02771C8.03603 7.35581 8.13403 7.75852 8.13403 8.23582C8.13403 8.78602 7.98902 9.28311 7.70102 9.72731C7.41602 10.1714 6.99803 10.5244 6.44803 10.7862C5.90103 11.0481 5.23702 11.179 4.45502 11.179C3.72502 11.179 3.09403 11.0613 2.56003 10.826C2.03003 10.5907 1.61204 10.2625 1.30804 9.84161C1.00604 9.42071 0.835044 8.93182 0.795044 8.37502H2.06802C2.10102 8.75951 2.23102 9.07771 2.45602 9.32951C2.68502 9.57811 2.97304 9.76371 3.32104 9.88641C3.67204 10.0057 4.05002 10.0653 4.45502 10.0653C4.92502 10.0653 5.34802 9.98912 5.72202 9.83662C6.09702 9.68092 6.39303 9.46542 6.61203 9.19032C6.83103 8.91191 6.94003 8.58712 6.94003 8.21592C6.94003 7.87782 6.84604 7.60271 6.65704 7.39061C6.46804 7.17851 6.21904 7.00622 5.91104 6.87362C5.60304 6.74102 5.27002 6.62502 4.91202 6.52562L3.65903 6.16761C2.86403 5.93891 2.23402 5.61252 1.77002 5.18822C1.30602 4.76402 1.07404 4.20881 1.07404 3.52271C1.07404 2.95271 1.22804 2.45552 1.53604 2.03122C1.84804 1.60372 2.26503 1.27231 2.78903 1.03691C3.31603 0.798315 3.90402 0.679016 4.55402 0.679016C5.21002 0.679016 5.79402 0.796615 6.30402 1.03201C6.81402 1.26401 7.21903 1.58212 7.51703 1.98652C7.81903 2.39092 7.97802 2.84992 7.99402 3.36362H6.80103ZM13.203 11.1591C12.468 11.1591 11.833 10.9967 11.299 10.6719C10.769 10.3438 10.36 9.88642 10.071 9.29972C9.78605 8.70982 9.64404 8.02372 9.64404 7.24152C9.64404 6.45932 9.78605 5.76992 10.071 5.17332C10.36 4.57342 10.761 4.10611 11.274 3.77131C11.791 3.43321 12.395 3.26422 13.084 3.26422C13.482 3.26422 13.874 3.33052 14.262 3.46312C14.65 3.59562 15.003 3.81112 15.321 4.10942C15.639 4.40442 15.893 4.79552 16.082 5.28271C16.271 5.76991 16.365 6.36982 16.365 7.08242V7.57951H10.479V6.56532H15.172C15.172 6.13452 15.086 5.75001 14.914 5.41191C14.744 5.07392 14.503 4.80712 14.188 4.61152C13.876 4.41602 13.508 4.31821 13.084 4.31821C12.617 4.31821 12.212 4.43422 11.871 4.66622C11.533 4.89492 11.273 5.19322 11.09 5.56112C10.908 5.92902 10.817 6.32342 10.817 6.74432V7.42052C10.817 7.99722 10.916 8.48602 11.115 8.88712C11.317 9.28482 11.597 9.58812 11.955 9.79692C12.313 10.0024 12.729 10.1051 13.203 10.1051C13.512 10.1051 13.79 10.062 14.039 9.97591C14.29 9.88641 14.508 9.75381 14.69 9.57811C14.872 9.39911 15.013 9.17711 15.112 8.91191L16.246 9.23011C16.127 9.61461 15.926 9.95272 15.644 10.2443C15.363 10.5327 15.015 10.758 14.6 10.9205C14.186 11.0795 13.72 11.1591 13.203 11.1591ZM20.397 11.179C19.913 11.179 19.474 11.0878 19.08 10.9055C18.685 10.7199 18.372 10.4531 18.14 10.1051C17.908 9.75381 17.792 9.32952 17.792 8.83242C17.792 8.39492 17.878 8.04022 18.051 7.76852C18.223 7.49342 18.453 7.27792 18.742 7.12222C19.03 6.96642 19.348 6.85042 19.696 6.77412C20.048 6.69462 20.401 6.63162 20.755 6.58522C21.219 6.52562 21.595 6.48082 21.884 6.45102C22.175 6.41792 22.387 6.36321 22.52 6.28691C22.656 6.21071 22.724 6.07811 22.724 5.88921V5.84941C22.724 5.35891 22.59 4.97771 22.321 4.70601C22.056 4.43421 21.653 4.29832 21.113 4.29832C20.553 4.29832 20.114 4.42092 19.796 4.66622C19.477 4.91152 19.254 5.17331 19.124 5.45171L18.011 5.05402C18.21 4.59002 18.475 4.22871 18.806 3.97021C19.141 3.70831 19.506 3.52602 19.9 3.42332C20.298 3.31721 20.689 3.26422 21.073 3.26422C21.319 3.26422 21.6 3.29402 21.919 3.35372C22.24 3.41002 22.55 3.52771 22.848 3.70671C23.15 3.88571 23.4 4.15582 23.599 4.51702C23.798 4.87832 23.897 5.36222 23.897 5.96881V11H22.724V9.96592H22.664C22.585 10.1316 22.452 10.3089 22.267 10.4979C22.081 10.6868 21.834 10.8475 21.526 10.9801C21.218 11.1127 20.841 11.179 20.397 11.179ZM20.576 10.125C21.04 10.125 21.431 10.0339 21.749 9.85162C22.071 9.66932 22.313 9.43391 22.475 9.14561C22.641 8.85721 22.724 8.55402 22.724 8.23582V7.16191C22.674 7.22161 22.565 7.27632 22.396 7.32602C22.23 7.37242 22.038 7.41381 21.819 7.45031C21.604 7.48341 21.393 7.51331 21.188 7.53981C20.985 7.56301 20.821 7.58291 20.695 7.59941C20.391 7.63921 20.106 7.70382 19.84 7.79332C19.579 7.87952 19.366 8.01042 19.204 8.18612C19.045 8.35842 18.965 8.59371 18.965 8.89201C18.965 9.29971 19.116 9.60801 19.418 9.81681C19.723 10.0223 20.109 10.125 20.576 10.125ZM26.039 11V3.36362H27.172V4.51702H27.252C27.391 4.13922 27.643 3.83261 28.007 3.59731C28.372 3.36201 28.783 3.24432 29.24 3.24432C29.327 3.24432 29.434 3.24602 29.564 3.24932C29.693 3.25262 29.791 3.25762 29.857 3.26422V4.45741C29.817 4.44741 29.726 4.43251 29.583 4.41261C29.444 4.38941 29.297 4.37782 29.141 4.37782C28.77 4.37782 28.438 4.45571 28.147 4.61152C27.858 4.76402 27.63 4.97611 27.461 5.24791C27.295 5.51631 27.212 5.82291 27.212 6.16761V11H26.039ZM34.118 11.1591C33.402 11.1591 32.785 10.9901 32.268 10.652C31.751 10.3139 31.353 9.84822 31.075 9.25502C30.797 8.66172 30.657 7.98391 30.657 7.22161C30.657 6.44601 30.8 5.76162 31.085 5.16832C31.373 4.57172 31.774 4.10611 32.288 3.77131C32.805 3.43321 33.408 3.26422 34.098 3.26422C34.635 3.26422 35.118 3.36362 35.549 3.56252C35.98 3.76142 36.333 4.03981 36.608 4.39771C36.883 4.75571 37.054 5.17332 37.12 5.65062H35.947C35.858 5.30262 35.659 4.99432 35.35 4.72592C35.046 4.45412 34.635 4.31821 34.118 4.31821C33.66 4.31821 33.259 4.43752 32.914 4.67612C32.573 4.91152 32.306 5.24462 32.114 5.67542C31.925 6.10301 31.831 6.60512 31.831 7.18182C31.831 7.77182 31.923 8.28551 32.109 8.72301C32.298 9.16051 32.563 9.50021 32.904 9.74221C33.249 9.98411 33.654 10.1051 34.118 10.1051C34.422 10.1051 34.699 10.0521 34.948 9.94601C35.196 9.84001 35.407 9.68752 35.579 9.48862C35.752 9.28982 35.874 9.05112 35.947 8.77272H37.12C37.054 9.22352 36.89 9.62951 36.628 9.99081C36.37 10.3487 36.027 10.6338 35.599 10.8459C35.175 11.0547 34.681 11.1591 34.118 11.1591ZM40.009 6.40622V11H38.836V0.818214H40.009V4.55682H40.108C40.287 4.16242 40.556 3.84922 40.914 3.61722C41.275 3.38192 41.756 3.26422 42.355 3.26422C42.876 3.26422 43.332 3.36862 43.723 3.57742C44.114 3.78292 44.417 4.09942 44.632 4.52702C44.851 4.95122 44.961 5.49152 44.961 6.14772V11H43.787V6.22731C43.787 5.62071 43.63 5.15181 43.315 4.82031C43.003 4.48561 42.571 4.31821 42.017 4.31821C41.633 4.31821 41.288 4.39942 40.983 4.56182C40.682 4.72422 40.443 4.96122 40.267 5.27272C40.095 5.58432 40.009 5.96212 40.009 6.40622ZM47.962 11.0795C47.717 11.0795 47.506 10.9917 47.331 10.8161C47.155 10.6404 47.067 10.4299 47.067 10.1847C47.067 9.93941 47.155 9.72891 47.331 9.55331C47.506 9.37761 47.717 9.28981 47.962 9.28981C48.207 9.28981 48.418 9.37761 48.594 9.55331C48.769 9.72891 48.857 9.93941 48.857 10.1847C48.857 10.3471 48.816 10.4962 48.733 10.6321C48.653 10.768 48.546 10.8774 48.41 10.9602C48.277 11.0398 48.128 11.0795 47.962 11.0795ZM51.818 11.0795C51.572 11.0795 51.362 10.9917 51.186 10.8161C51.011 10.6404 50.923 10.4299 50.923 10.1847C50.923 9.93941 51.011 9.72891 51.186 9.55331C51.362 9.37761 51.572 9.28981 51.818 9.28981C52.063 9.28981 52.273 9.37761 52.449 9.55331C52.625 9.72891 52.713 9.93941 52.713 10.1847C52.713 10.3471 52.671 10.4962 52.588 10.6321C52.509 10.768 52.401 10.8774 52.265 10.9602C52.133 11.0398 51.983 11.0795 51.818 11.0795ZM55.673 11.0795C55.428 11.0795 55.217 10.9917 55.042 10.8161C54.866 10.6404 54.778 10.4299 54.778 10.1847C54.778 9.93941 54.866 9.72891 55.042 9.55331C55.217 9.37761 55.428 9.28981 55.673 9.28981C55.918 9.28981 56.129 9.37761 56.305 9.55331C56.48 9.72891 56.568 9.93941 56.568 10.1847C56.568 10.3471 56.527 10.4962 56.444 10.6321C56.364 10.768 56.256 10.8774 56.121 10.9602C55.988 11.0398 55.839 11.0795 55.673 11.0795Z" fill="#9D9FA2"/>
</svg>
