<svg width="53" height="15" viewBox="0 0 53 15" fill="none" xmlns="http://www.w3.org/2000/svg">
<path d="M2.31201 11H0.342987L3.92801 0.819946H6.20499L9.79401 11H7.82501L5.10599 2.91003H5.026L2.31201 11ZM2.37601 7.01001H7.746V8.48999H2.37601V7.01001ZM12.855 6.53003V11H11.056V3.35999H12.776V4.66003H12.865C13.041 4.23003 13.321 3.89001 13.705 3.64001C14.093 3.39001 14.572 3.26001 15.142 3.26001C15.669 3.26001 16.128 3.37998 16.519 3.59998C16.914 3.82998 17.219 4.14996 17.434 4.57996C17.653 5.00996 17.761 5.53001 17.757 6.14001V11H15.958V6.42004C15.958 5.91004 15.825 5.50997 15.56 5.21997C15.298 4.92997 14.935 4.79004 14.471 4.79004C14.156 4.79004 13.876 4.85999 13.631 4.98999C13.389 5.12999 13.198 5.32997 13.059 5.58997C12.923 5.83997 12.855 6.16003 12.855 6.53003ZM22.908 14.02C22.262 14.02 21.706 13.93 21.242 13.76C20.778 13.59 20.405 13.3501 20.124 13.0601C19.842 12.7701 19.646 12.45 19.537 12.09L21.158 11.7C21.231 11.85 21.337 12 21.476 12.14C21.615 12.29 21.802 12.42 22.038 12.51C22.276 12.61 22.576 12.66 22.938 12.66C23.448 12.66 23.871 12.54 24.205 12.29C24.54 12.04 24.708 11.6399 24.708 11.0699V9.63H24.618C24.525 9.81001 24.389 9.99995 24.21 10.2C24.035 10.4 23.801 10.5599 23.509 10.6899C23.221 10.8199 22.858 10.89 22.421 10.89C21.834 10.89 21.302 10.75 20.825 10.48C20.351 10.2 19.973 9.78999 19.691 9.23999C19.413 8.67999 19.274 7.99003 19.274 7.16003C19.274 6.32003 19.413 5.61003 19.691 5.03003C19.973 4.45003 20.352 4.00997 20.83 3.71997C21.307 3.41997 21.839 3.26001 22.426 3.26001C22.873 3.26001 23.241 3.33999 23.529 3.48999C23.821 3.63999 24.053 3.82003 24.225 4.03003C24.398 4.24003 24.529 4.44 24.618 4.63H24.718V3.35999H26.492V11.12C26.492 11.78 26.337 12.32 26.025 12.75C25.713 13.17 25.288 13.49 24.747 13.7C24.207 13.92 23.594 14.02 22.908 14.02ZM22.923 9.47998C23.304 9.47998 23.629 9.38995 23.897 9.19995C24.166 9.00995 24.369 8.75002 24.509 8.40002C24.648 8.05002 24.718 7.63002 24.718 7.15002C24.718 6.67002 24.648 6.25 24.509 5.88C24.373 5.52 24.171 5.24004 23.902 5.04004C23.637 4.84004 23.311 4.73999 22.923 4.73999C22.522 4.73999 22.187 4.85005 21.919 5.05005C21.65 5.26005 21.448 5.55003 21.312 5.91003C21.176 6.28003 21.108 6.69002 21.108 7.15002C21.108 7.61002 21.176 8.02 21.312 8.38C21.451 8.72001 21.655 8.98994 21.923 9.18994C22.195 9.37994 22.528 9.47998 22.923 9.47998ZM33.204 7.79004V3.35999H35.004V11H33.259V9.64001H33.179C33.007 10.07 32.723 10.4199 32.329 10.6899C31.938 10.9599 31.456 11.1 30.882 11.1C30.382 11.1 29.939 10.99 29.555 10.77C29.174 10.54 28.875 10.21 28.66 9.79004C28.445 9.36004 28.337 8.83998 28.337 8.22998V3.35999H30.137V7.94995C30.137 8.42995 30.269 8.81998 30.534 9.09998C30.799 9.38998 31.147 9.53003 31.578 9.53003C31.843 9.53003 32.1 9.45996 32.349 9.32996C32.597 9.20996 32.801 9.01001 32.96 8.76001C33.123 8.50001 33.204 8.18004 33.204 7.79004ZM38.654 0.819946V11H36.854V0.819946H38.654ZM42.702 11.15C42.218 11.15 41.782 11.07 41.395 10.9C41.01 10.72 40.705 10.46 40.48 10.12C40.258 9.77999 40.147 9.35999 40.147 8.85999C40.147 8.42999 40.226 8.07004 40.385 7.79004C40.545 7.51004 40.762 7.27999 41.037 7.10999C41.312 6.93999 41.622 6.81998 41.966 6.72998C42.314 6.63998 42.674 6.58004 43.045 6.54004C43.493 6.49004 43.856 6.45003 44.134 6.41003C44.412 6.37003 44.615 6.30998 44.741 6.22998C44.87 6.14998 44.934 6.01998 44.934 5.84998V5.81995C44.934 5.44995 44.823 5.15995 44.601 4.94995C44.379 4.73995 44.059 4.64001 43.642 4.64001C43.201 4.64001 42.851 4.74005 42.593 4.93005C42.338 5.12005 42.165 5.34999 42.076 5.60999L40.395 5.37C40.528 4.91 40.747 4.51996 41.052 4.20996C41.357 3.88996 41.729 3.66 42.17 3.5C42.611 3.34 43.098 3.26001 43.632 3.26001C44 3.26001 44.366 3.31001 44.731 3.39001C45.095 3.48001 45.428 3.61995 45.73 3.81995C46.032 4.01995 46.273 4.28 46.456 4.62C46.641 4.96 46.734 5.38001 46.734 5.89001V11H45.004V9.94995H44.944C44.835 10.16 44.681 10.36 44.482 10.55C44.287 10.73 44.04 10.88 43.741 10.99C43.446 11.1 43.1 11.15 42.702 11.15ZM43.17 9.82996C43.531 9.82996 43.844 9.76 44.109 9.62C44.374 9.47 44.578 9.28004 44.721 9.04004C44.867 8.80004 44.939 8.54001 44.939 8.26001V7.35999C44.883 7.40999 44.787 7.44999 44.651 7.48999C44.519 7.52999 44.369 7.55997 44.204 7.58997C44.038 7.61997 43.874 7.65004 43.711 7.67004C43.549 7.70004 43.408 7.71998 43.289 7.72998C43.02 7.76998 42.78 7.83003 42.568 7.91003C42.356 8.00003 42.189 8.11001 42.066 8.26001C41.943 8.41001 41.882 8.59996 41.882 8.82996C41.882 9.15996 42.003 9.40996 42.245 9.57996C42.487 9.74996 42.795 9.82996 43.17 9.82996ZM48.544 11V3.35999H50.289V4.64001H50.368C50.508 4.20001 50.746 3.86 51.084 3.62C51.426 3.38 51.815 3.25 52.253 3.25C52.352 3.25 52.463 3.26002 52.586 3.27002C52.712 3.28002 52.816 3.29005 52.899 3.30005V4.95996C52.823 4.92996 52.702 4.91001 52.536 4.89001C52.374 4.87001 52.216 4.85999 52.064 4.85999C51.736 4.85999 51.441 4.92995 51.179 5.06995C50.92 5.20995 50.716 5.40002 50.567 5.65002C50.418 5.90002 50.344 6.19001 50.344 6.51001V11H48.544Z" fill="#282828"/>
</svg>
