<svg width="44" height="15" viewBox="0 0 44 15" fill="none" xmlns="http://www.w3.org/2000/svg">
<path d="M3.38 11H0.22998V0.819946H3.51001C4.50001 0.819946 5.35005 1.02005 6.05005 1.43005C6.75005 1.83005 7.29004 2.42004 7.67004 3.17004C8.04004 3.93004 8.22998 4.84001 8.22998 5.89001C8.22998 6.95001 8.04003 7.86 7.66003 8.63C7.28003 9.39001 6.73001 9.98001 6.01001 10.39C5.29001 10.8 4.41 11 3.38 11ZM1.46997 9.91003H3.30005C4.14005 9.91003 4.83001 9.74004 5.39001 9.42004C5.94001 9.09004 6.35 8.63003 6.63 8.03003C6.9 7.43003 7.03003 6.72001 7.03003 5.89001C7.03003 5.07001 6.9 4.36002 6.63 3.77002C6.36 3.17002 5.96005 2.71001 5.43005 2.39001C4.89005 2.07001 4.23005 1.91003 3.43005 1.91003H1.46997V9.91003ZM13.34 11.16C12.6 11.16 11.9701 11 11.4301 10.67C10.9001 10.34 10.49 9.89005 10.21 9.30005C9.91996 8.71005 9.78003 8.01999 9.78003 7.23999C9.78003 6.45999 9.91996 5.77004 10.21 5.17004C10.49 4.57004 10.9 4.11002 11.41 3.77002C11.93 3.43002 12.53 3.26001 13.22 3.26001C13.62 3.26001 14.01 3.32996 14.4 3.45996C14.78 3.59996 15.14 3.80999 15.46 4.10999C15.77 4.39999 16.03 4.80003 16.22 5.28003C16.41 5.77003 16.5 6.36996 16.5 7.07996V7.57996H10.61V6.56995H15.3101C15.3101 6.12995 15.22 5.75003 15.05 5.41003C14.88 5.07003 14.6399 4.80999 14.3199 4.60999C14.0099 4.41999 13.64 4.31995 13.22 4.31995C12.75 4.31995 12.35 4.43004 12.01 4.67004C11.67 4.89004 11.41 5.19006 11.23 5.56006C11.04 5.93006 10.95 6.31999 10.95 6.73999V7.42004C10.95 8.00004 11.05 8.49001 11.25 8.89001C11.45 9.28001 11.73 9.59005 12.09 9.80005C12.45 10 12.86 10.11 13.34 10.11C13.65 10.11 13.92 10.06 14.17 9.97998C14.43 9.88998 14.6399 9.74996 14.8199 9.57996C15.0099 9.39996 15.15 9.18003 15.25 8.91003L16.38 9.22998C16.26 9.60998 16.06 9.94999 15.78 10.24C15.5 10.53 15.15 10.76 14.74 10.92C14.32 11.08 13.86 11.16 13.34 11.16ZM23.6899 5.06995L22.64 5.37C22.57 5.2 22.48 5.02999 22.35 4.85999C22.22 4.68999 22.05 4.54994 21.83 4.43994C21.61 4.32994 21.33 4.28003 20.99 4.28003C20.52 4.28003 20.1299 4.38998 19.8199 4.59998C19.5099 4.80998 19.36 5.08003 19.36 5.41003C19.36 5.70003 19.4601 5.92998 19.6801 6.09998C19.8901 6.26998 20.22 6.41003 20.67 6.53003L21.8 6.80005C22.49 6.97005 23 7.22006 23.33 7.56006C23.67 7.90006 23.83 8.34 23.83 8.87C23.83 9.30999 23.71 9.70005 23.46 10.05C23.21 10.39 22.86 10.66 22.41 10.86C21.96 11.06 21.44 11.16 20.85 11.16C20.07 11.16 19.43 10.99 18.92 10.65C18.41 10.31 18.08 9.82004 17.95 9.17004L19.0601 8.89001C19.1701 9.30001 19.37 9.60995 19.66 9.81995C19.96 10.0199 20.35 10.12 20.83 10.12C21.38 10.12 21.81 10.01 22.13 9.78003C22.46 9.54003 22.62 9.26005 22.62 8.93005C22.62 8.67005 22.53 8.44002 22.34 8.27002C22.16 8.08002 21.87 7.94999 21.49 7.85999L20.21 7.56006C19.51 7.39006 19 7.14004 18.67 6.79004C18.35 6.44004 18.1899 5.99997 18.1899 5.46997C18.1899 5.03997 18.31 4.65996 18.55 4.32996C18.79 3.99996 19.13 3.74005 19.55 3.55005C19.97 3.36005 20.45 3.26001 20.99 3.26001C21.75 3.26001 22.34 3.43001 22.77 3.76001C23.2 4.09001 23.5099 4.52995 23.6899 5.06995ZM25.6 11V3.35999H26.77V11H25.6ZM26.2 2.08997C25.97 2.08997 25.77 2.00999 25.6 1.85999C25.44 1.69999 25.36 1.51005 25.36 1.30005C25.36 1.08005 25.44 0.88998 25.6 0.72998C25.77 0.57998 25.97 0.5 26.2 0.5C26.42 0.5 26.62 0.57998 26.78 0.72998C26.95 0.88998 27.03 1.08005 27.03 1.30005C27.03 1.51005 26.95 1.69999 26.78 1.85999C26.62 2.00999 26.42 2.08997 26.2 2.08997ZM32 14.02C31.44 14.02 30.95 13.95 30.54 13.8C30.13 13.66 29.79 13.47 29.52 13.24C29.25 13.01 29.04 12.76 28.88 12.49L29.8199 11.84C29.9199 11.97 30.06 12.1301 30.22 12.3101C30.38 12.4901 30.6 12.65 30.89 12.78C31.17 12.92 31.54 12.99 32 12.99C32.62 12.99 33.13 12.84 33.53 12.54C33.93 12.24 34.13 11.78 34.13 11.14V9.58997H34.03C33.95 9.72997 33.82 9.89999 33.66 10.11C33.51 10.31 33.28 10.49 32.99 10.65C32.7 10.8 32.3001 10.88 31.8101 10.88C31.1901 10.88 30.64 10.7299 30.14 10.4399C29.66 10.1499 29.27 9.73004 28.99 9.17004C28.7 8.61004 28.5601 7.94001 28.5601 7.14001C28.5601 6.36001 28.7 5.67998 28.98 5.09998C29.25 4.51998 29.63 4.06 30.12 3.75C30.62 3.42 31.1799 3.26001 31.8199 3.26001C32.3199 3.26001 32.72 3.35001 33.01 3.51001C33.3 3.68001 33.5301 3.85995 33.6801 4.06995C33.8401 4.27995 33.97 4.43996 34.05 4.57996H34.17V3.35999H35.3101V11.22C35.3101 11.88 35.16 12.4099 34.86 12.8199C34.56 13.2299 34.16 13.54 33.66 13.73C33.17 13.92 32.61 14.02 32 14.02ZM31.96 9.82996C32.43 9.82996 32.83 9.72 33.16 9.5C33.48 9.29 33.73 8.97995 33.9 8.56995C34.07 8.16995 34.15 7.69 34.15 7.12C34.15 6.56999 34.07 6.09004 33.9 5.67004C33.74 5.24004 33.49 4.91005 33.17 4.68005C32.84 4.44005 32.44 4.31995 31.96 4.31995C31.47 4.31995 31.05 4.43995 30.72 4.69995C30.39 4.94995 30.15 5.28996 29.98 5.70996C29.82 6.12996 29.74 6.60999 29.74 7.12C29.74 7.64999 29.82 8.12003 29.99 8.53003C30.15 8.93003 30.4 9.24998 30.73 9.47998C31.06 9.70998 31.47 9.82996 31.96 9.82996ZM38.63 6.41003V11H37.45V3.35999H38.59V4.56006H38.6899C38.8599 4.17006 39.14 3.86 39.5 3.62C39.87 3.38 40.34 3.26001 40.91 3.26001C41.43 3.26001 41.88 3.36996 42.27 3.57996C42.66 3.78996 42.9601 4.11004 43.1801 4.54004C43.3901 4.96004 43.5 5.50002 43.5 6.15002V11H42.3199V6.22998C42.3199 5.62998 42.17 5.15996 41.86 4.82996C41.55 4.48996 41.1199 4.31995 40.5699 4.31995C40.1999 4.31995 39.8699 4.40006 39.5699 4.56006C39.2799 4.72006 39.05 4.96002 38.88 5.27002C38.71 5.58002 38.63 5.96003 38.63 6.41003Z" fill="#5F6980"/>
</svg>
