<svg width="15" height="15" viewBox="0 0 15 15" fill="none" xmlns="http://www.w3.org/2000/svg">
<path fill-rule="evenodd" clip-rule="evenodd" d="M2.138 6.5099C2.138 4.143 4.05701 2.2243 6.42401 2.2243C8.79101 2.2243 10.709 4.143 10.709 6.5099C10.709 8.8768 8.79101 10.7955 6.42401 10.7955C4.05701 10.7955 2.138 8.8768 2.138 6.5099ZM6.42401 0.974304C3.36601 0.974304 0.888 3.4527 0.888 6.5099C0.888 9.5672 3.36601 12.0455 6.42401 12.0455C7.72701 12.0455 8.925 11.595 9.871 10.8413L13.698 14.6683C13.942 14.9124 14.338 14.9124 14.582 14.6683C14.826 14.4242 14.826 14.0285 14.582 13.7844L10.755 9.95741C11.509 9.01161 11.959 7.8134 11.959 6.5099C11.959 3.4527 9.48101 0.974304 6.42401 0.974304Z" fill="#282828"/>
</svg>
