<svg width="19" height="18" viewBox="0 0 19 18" fill="none" xmlns="http://www.w3.org/2000/svg">
<path fill-rule="evenodd" clip-rule="evenodd" d="M2.02002 1.948C2.02002 1.8099 2.13002 1.698 2.27002 1.698H6.27002C6.41002 1.698 6.52002 1.8099 6.52002 1.948V5.948C6.52002 6.0861 6.41002 6.198 6.27002 6.198H2.27002C2.13002 6.198 2.02002 6.0861 2.02002 5.948V1.948ZM2.27002 0.197998C1.31002 0.197998 0.52002 0.981498 0.52002 1.948V5.948C0.52002 6.9145 1.31002 7.698 2.27002 7.698H6.27002C7.24002 7.698 8.02002 6.9145 8.02002 5.948V1.948C8.02002 0.981498 7.24002 0.197998 6.27002 0.197998H2.27002ZM12.02 1.948C12.02 1.8099 12.13 1.698 12.27 1.698H16.27C16.41 1.698 16.52 1.8099 16.52 1.948V5.948C16.52 6.0861 16.41 6.198 16.27 6.198H12.27C12.13 6.198 12.02 6.0861 12.02 5.948V1.948ZM12.27 0.197998C11.31 0.197998 10.52 0.981498 10.52 1.948V5.948C10.52 6.9145 11.31 7.698 12.27 7.698H16.27C17.24 7.698 18.02 6.9145 18.02 5.948V1.948C18.02 0.981498 17.24 0.197998 16.27 0.197998H12.27ZM2.27002 11.698C2.13002 11.698 2.02002 11.8099 2.02002 11.948V15.948C2.02002 16.0861 2.13002 16.198 2.27002 16.198H6.27002C6.41002 16.198 6.52002 16.0861 6.52002 15.948V11.948C6.52002 11.8099 6.41002 11.698 6.27002 11.698H2.27002ZM0.52002 11.948C0.52002 10.9815 1.31002 10.198 2.27002 10.198H6.27002C7.24002 10.198 8.02002 10.9815 8.02002 11.948V15.948C8.02002 16.9145 7.24002 17.698 6.27002 17.698H2.27002C1.31002 17.698 0.52002 16.9145 0.52002 15.948V11.948ZM12.02 11.948C12.02 11.8099 12.13 11.698 12.27 11.698H16.27C16.41 11.698 16.52 11.8099 16.52 11.948V15.948C16.52 16.0861 16.41 16.198 16.27 16.198H12.27C12.13 16.198 12.02 16.0861 12.02 15.948V11.948ZM12.27 10.198C11.31 10.198 10.52 10.9815 10.52 11.948V15.948C10.52 16.9145 11.31 17.698 12.27 17.698H16.27C17.24 17.698 18.02 16.9145 18.02 15.948V11.948C18.02 10.9815 17.24 10.198 16.27 10.198H12.27Z" fill="#5F6980"/>
</svg>
