<svg width="44" height="12" viewBox="0 0 44 12" fill="none" xmlns="http://www.w3.org/2000/svg">
<path d="M5.13 0.819946H6.35999V8.09998C6.35999 8.74998 6.24001 9.3 6.01001 9.75C5.77001 10.21 5.43 10.55 5 10.79C4.56 11.02 4.04996 11.14 3.45996 11.14C2.89996 11.14 2.40997 11.04 1.96997 10.84C1.53997 10.63 1.19995 10.34 0.949951 9.95996C0.699951 9.57996 0.579956 9.12999 0.579956 8.60999H1.79004C1.79004 8.89999 1.86 9.14999 2 9.37C2.15 9.58 2.34998 9.75 2.59998 9.87C2.84998 9.99 3.13996 10.05 3.45996 10.05C3.80996 10.05 4.12 9.96995 4.37 9.81995C4.60999 9.66995 4.80005 9.45004 4.93005 9.17004C5.06005 8.87004 5.13 8.51998 5.13 8.09998V0.819946ZM11.78 11.16C11.09 11.16 10.48 11 9.95996 10.67C9.44996 10.34 9.04 9.88004 8.75 9.29004C8.46 8.70004 8.31995 8.00997 8.31995 7.21997C8.31995 6.42997 8.46 5.73001 8.75 5.14001C9.04 4.55001 9.44996 4.08001 9.95996 3.76001C10.48 3.43001 11.09 3.26001 11.78 3.26001C12.47 3.26001 13.07 3.43001 13.59 3.76001C14.11 4.08001 14.51 4.55001 14.8 5.14001C15.09 5.73001 15.24 6.42997 15.24 7.21997C15.24 8.00997 15.09 8.70004 14.8 9.29004C14.51 9.88004 14.11 10.34 13.59 10.67C13.07 11 12.47 11.16 11.78 11.16ZM11.78 10.11C12.3 10.11 12.7299 9.96995 13.0699 9.69995C13.4099 9.42995 13.6599 9.08001 13.8199 8.64001C13.9799 8.21001 14.0601 7.72997 14.0601 7.21997C14.0601 6.70997 13.9799 6.24004 13.8199 5.79004C13.6599 5.35004 13.4099 4.99998 13.0699 4.72998C12.7299 4.44998 12.3 4.31995 11.78 4.31995C11.25 4.31995 10.82 4.44998 10.49 4.72998C10.15 4.99998 9.89998 5.35004 9.72998 5.79004C9.56998 6.24004 9.48999 6.70997 9.48999 7.21997C9.48999 7.72997 9.56998 8.21001 9.72998 8.64001C9.89998 9.08001 10.15 9.42995 10.49 9.69995C10.82 9.96995 11.25 10.11 11.78 10.11ZM17.03 11V3.35999H18.2V11H17.03ZM17.63 2.08997C17.4 2.08997 17.2 2.00999 17.03 1.85999C16.87 1.69999 16.79 1.51005 16.79 1.30005C16.79 1.08005 16.87 0.88998 17.03 0.72998C17.2 0.57998 17.4 0.5 17.63 0.5C17.85 0.5 18.05 0.57998 18.21 0.72998C18.38 0.88998 18.46 1.08005 18.46 1.30005C18.46 1.51005 18.38 1.69999 18.21 1.85999C18.05 2.00999 17.85 2.08997 17.63 2.08997ZM21.52 6.41003V11H20.35V3.35999H21.48V4.56006H21.58C21.76 4.17006 22.03 3.86 22.4 3.62C22.76 3.38 23.2301 3.26001 23.8101 3.26001C24.3301 3.26001 24.78 3.36996 25.17 3.57996C25.56 3.78996 25.8599 4.11004 26.0699 4.54004C26.2899 4.96004 26.4 5.50002 26.4 6.15002V11H25.22V6.22998C25.22 5.62998 25.07 5.15996 24.76 4.82996C24.44 4.48996 24.02 4.31995 23.47 4.31995C23.1 4.31995 22.76 4.40006 22.47 4.56006C22.18 4.72006 21.95 4.96002 21.78 5.27002C21.61 5.58002 21.52 5.96003 21.52 6.41003ZM31.74 11.16C31.01 11.16 30.37 11 29.84 10.67C29.31 10.34 28.9 9.89005 28.61 9.30005C28.33 8.71005 28.1801 8.01999 28.1801 7.23999C28.1801 6.45999 28.33 5.77004 28.61 5.17004C28.9 4.57004 29.3001 4.11002 29.8101 3.77002C30.3301 3.43002 30.93 3.26001 31.62 3.26001C32.02 3.26001 32.41 3.32996 32.8 3.45996C33.19 3.59996 33.54 3.80999 33.86 4.10999C34.18 4.39999 34.43 4.80003 34.62 5.28003C34.81 5.77003 34.9 6.36996 34.9 7.07996V7.57996H29.02V6.56995H33.71C33.71 6.12995 33.6199 5.75003 33.45 5.41003C33.28 5.07003 33.04 4.80999 32.73 4.60999C32.42 4.41999 32.05 4.31995 31.62 4.31995C31.16 4.31995 30.75 4.43004 30.41 4.67004C30.07 4.89004 29.81 5.19006 29.63 5.56006C29.45 5.93006 29.36 6.31999 29.36 6.73999V7.42004C29.36 8.00004 29.46 8.49001 29.65 8.89001C29.86 9.28001 30.14 9.59005 30.49 9.80005C30.85 10 31.27 10.11 31.74 10.11C32.05 10.11 32.33 10.06 32.58 9.97998C32.83 9.88998 33.05 9.74996 33.23 9.57996C33.41 9.39996 33.55 9.18003 33.65 8.91003L34.78 9.22998C34.67 9.60998 34.4701 9.94999 34.1801 10.24C33.9001 10.53 33.55 10.76 33.14 10.92C32.73 11.08 32.26 11.16 31.74 11.16ZM39.5699 11.16C38.9399 11.16 38.37 11.0001 37.89 10.6801C37.4 10.3501 37.02 9.89005 36.74 9.30005C36.47 8.71005 36.33 8.00995 36.33 7.19995C36.33 6.39995 36.47 5.69999 36.74 5.10999C37.02 4.51999 37.4 4.07 37.89 3.75C38.38 3.42 38.95 3.26001 39.59 3.26001C40.09 3.26001 40.48 3.35001 40.77 3.51001C41.06 3.68001 41.2799 3.85995 41.4399 4.06995C41.5899 4.27995 41.71 4.43996 41.8 4.57996H41.9V0.819946H43.0699V11H41.9399V9.82996H41.8C41.71 9.96996 41.5901 10.14 41.4301 10.35C41.2701 10.56 41.05 10.75 40.75 10.92C40.46 11.08 40.0599 11.16 39.5699 11.16ZM39.73 10.11C40.2 10.11 40.6 9.97999 40.92 9.73999C41.25 9.48999 41.5 9.14996 41.67 8.70996C41.83 8.26996 41.92 7.76005 41.92 7.18005C41.92 6.61005 41.84 6.10994 41.67 5.68994C41.5 5.24994 41.2601 4.92005 40.9301 4.68005C40.6101 4.44005 40.21 4.31995 39.73 4.31995C39.23 4.31995 38.82 4.44995 38.49 4.69995C38.16 4.94995 37.91 5.29998 37.75 5.72998C37.59 6.15998 37.5 6.64005 37.5 7.18005C37.5 7.73005 37.59 8.22003 37.75 8.66003C37.92 9.10003 38.17 9.45997 38.5 9.71997C38.83 9.97997 39.24 10.11 39.73 10.11Z" fill="#5F6980"/>
</svg>
