<svg width="100" height="10" viewBox="0 0 100 10" fill="none" xmlns="http://www.w3.org/2000/svg">
<path d="M3.81818 9.00002H0.860779V0.273018H3.87778C4.74428 0.273018 5.48858 0.447012 6.11078 0.797012C6.73578 1.14301 7.21588 1.64201 7.55108 2.29301C7.88638 2.94301 8.05398 3.72201 8.05398 4.62801C8.05398 5.53701 7.88488 6.31802 7.54688 6.97202C7.21158 7.62502 6.72728 8.12601 6.09378 8.47601C5.46308 8.82501 4.70448 9.00002 3.81818 9.00002ZM2.44178 7.63202H3.74148C4.34938 7.63202 4.85648 7.52102 5.26278 7.30002C5.66898 7.07502 5.97438 6.74101 6.17898 6.29801C6.38348 5.85201 6.48578 5.29501 6.48578 4.62801C6.48578 3.96001 6.38348 3.40602 6.17898 2.96602C5.97438 2.52302 5.67188 2.19201 5.27128 1.97301C4.87358 1.75101 4.37928 1.64101 3.78838 1.64101H2.44178V7.63202ZM13.6534 9.00002H11.9659L15.0384 0.273018H16.9901L20.0668 9.00002H18.3793L16.0483 2.06201H15.9801L13.6534 9.00002ZM13.7088 5.57802H18.3111V6.84801H13.7088V5.57802ZM28.9357 2.67201C28.896 2.30001 28.7283 2.01002 28.4329 1.80302C28.1403 1.59502 27.7596 1.49101 27.2908 1.49101C26.9613 1.49101 26.6786 1.54101 26.4428 1.64101C26.207 1.74001 26.0266 1.87501 25.9016 2.04501C25.7766 2.21601 25.7127 2.41101 25.7099 2.62901C25.7099 2.81101 25.7511 2.96901 25.8335 3.10201C25.9187 3.23601 26.0337 3.34902 26.1786 3.44302C26.3235 3.53402 26.484 3.61101 26.6602 3.67301C26.8363 3.73601 27.0138 3.78802 27.1928 3.83102L28.011 4.03602C28.3406 4.11202 28.6573 4.21602 28.9613 4.34702C29.2681 4.47702 29.5423 4.64202 29.7837 4.84102C30.0281 5.04002 30.2212 5.28001 30.3633 5.56101C30.5053 5.84201 30.5763 6.17202 30.5763 6.55002C30.5763 7.06102 30.4457 7.51102 30.1843 7.90102C29.9229 8.28702 29.5451 8.58901 29.0508 8.80801C28.5593 9.02401 27.9641 9.13202 27.2653 9.13202C26.5863 9.13202 25.9968 9.02702 25.4968 8.81702C24.9996 8.60702 24.6104 8.30002 24.3292 7.89602C24.0508 7.49302 23.9002 7.00101 23.8775 6.42201H25.4329C25.4556 6.72601 25.5494 6.97902 25.7141 7.18002C25.8789 7.38202 26.0934 7.53302 26.3576 7.63202C26.6246 7.73202 26.9229 7.78101 27.2525 7.78101C27.5962 7.78101 27.8974 7.73001 28.1559 7.62801C28.4173 7.52301 28.6218 7.37802 28.7695 7.19302C28.9173 7.00602 28.9925 6.78702 28.9954 6.53702C28.9925 6.31002 28.9258 6.12201 28.7951 5.97401C28.6644 5.82401 28.4812 5.69901 28.2454 5.59901C28.0124 5.49701 27.7397 5.40602 27.4272 5.32702L26.4343 5.07101C25.7156 4.88601 25.1474 4.60702 24.7298 4.23202C24.315 3.85402 24.1076 3.35201 24.1076 2.72701C24.1076 2.21301 24.2468 1.76301 24.5252 1.37601C24.8065 0.990015 25.1886 0.690013 25.6715 0.477013C26.1545 0.261013 26.7013 0.153015 27.3121 0.153015C27.9315 0.153015 28.4741 0.261013 28.94 0.477013C29.4087 0.690013 29.7766 0.987011 30.0437 1.36801C30.3107 1.74601 30.4485 2.18001 30.457 2.67201H28.9357ZM34.9624 9.00002V0.273018H36.5433V3.96702H40.5874V0.273018H42.1726V9.00002H40.5874V5.29301H36.5433V9.00002H34.9624ZM46.8686 9.00002V0.273018H50.2095C50.8402 0.273018 51.3643 0.372014 51.782 0.571014C52.2024 0.767014 52.5163 1.03601 52.7237 1.37601C52.9339 1.71701 53.0391 2.10402 53.0391 2.53602C53.0391 2.89102 52.9709 3.19501 52.8345 3.44701C52.6982 3.69701 52.5149 3.90101 52.2848 4.05701C52.0547 4.21301 51.7976 4.32501 51.5135 4.39301V4.47901C51.8232 4.49601 52.12 4.59102 52.4041 4.76402C52.6911 4.93502 52.9254 5.17601 53.1072 5.48901C53.2891 5.80101 53.38 6.17902 53.38 6.62202C53.38 7.07402 53.2706 7.48002 53.0518 7.84102C52.8331 8.19902 52.5036 8.48202 52.0632 8.68902C51.6229 8.89602 51.0689 9.00002 50.4013 9.00002H46.8686ZM48.4496 7.67902H50.1499C50.7237 7.67902 51.1371 7.57001 51.3899 7.35101C51.6456 7.12901 51.7734 6.84502 51.7734 6.49902C51.7734 6.24002 51.7095 6.00702 51.5817 5.80002C51.4538 5.58902 51.272 5.42502 51.0362 5.30502C50.8004 5.18302 50.5192 5.12202 50.1925 5.12202H48.4496V7.67902ZM48.4496 3.98402H50.0135C50.2862 3.98402 50.532 3.93501 50.7507 3.83501C50.9695 3.73301 51.1413 3.58901 51.2663 3.40501C51.3942 3.21701 51.4581 2.99601 51.4581 2.74001C51.4581 2.40201 51.3388 2.12401 51.1001 1.90501C50.8643 1.68601 50.5135 1.57702 50.0476 1.57702H48.4496V3.98402ZM65.5302 4.63602C65.5302 5.57702 65.354 6.38202 65.0018 7.05302C64.6523 7.72002 64.1751 8.23201 63.57 8.58701C62.9677 8.94201 62.2844 9.11902 61.5202 9.11902C60.756 9.11902 60.0714 8.94201 59.4663 8.58701C58.864 8.22901 58.3867 7.71601 58.0344 7.04801C57.685 6.37801 57.5103 5.57402 57.5103 4.63602C57.5103 3.69602 57.685 2.89201 58.0344 2.22401C58.3867 1.55401 58.864 1.04101 59.4663 0.686012C60.0714 0.331012 60.756 0.153015 61.5202 0.153015C62.2844 0.153015 62.9677 0.331012 63.57 0.686012C64.1751 1.04101 64.6523 1.55401 65.0018 2.22401C65.354 2.89201 65.5302 3.69602 65.5302 4.63602ZM63.9407 4.63602C63.9407 3.97402 63.837 3.41601 63.6296 2.96201C63.4251 2.50401 63.141 2.15902 62.7773 1.92602C62.4137 1.69002 61.9947 1.57201 61.5202 1.57201C61.0458 1.57201 60.6268 1.69002 60.2631 1.92602C59.8995 2.15902 59.614 2.50401 59.4066 2.96201C59.2021 3.41601 59.0998 3.97402 59.0998 4.63602C59.0998 5.29802 59.2021 5.85802 59.4066 6.31502C59.614 6.77002 59.8995 7.11501 60.2631 7.35101C60.6268 7.58401 61.0458 7.70001 61.5202 7.70001C61.9947 7.70001 62.4137 7.58401 62.7773 7.35101C63.141 7.11501 63.4251 6.77002 63.6296 6.31502C63.837 5.85802 63.9407 5.29802 63.9407 4.63602ZM71.1222 9.00002H69.4347L72.5071 0.273018H74.4588L77.5355 9.00002H75.848L73.517 2.06201H73.4489L71.1222 9.00002ZM71.1776 5.57802H75.7798V6.84801H71.1776V5.57802ZM81.662 9.00002V0.273018H84.934C85.605 0.273018 86.167 0.389017 86.622 0.622017C87.079 0.855017 87.424 1.18201 87.657 1.60201C87.893 2.02001 88.011 2.50702 88.011 3.06402C88.011 3.62402 87.892 4.10902 87.653 4.52102C87.417 4.93002 87.069 5.24702 86.609 5.47202C86.149 5.69302 85.583 5.80402 84.913 5.80402H82.582V4.49101H84.7C85.092 4.49101 85.413 4.43702 85.663 4.33002C85.913 4.21902 86.098 4.05801 86.217 3.84801C86.339 3.63501 86.4 3.37402 86.4 3.06402C86.4 2.75402 86.339 2.49002 86.217 2.27102C86.095 2.05002 85.909 1.88201 85.659 1.76801C85.409 1.65201 85.086 1.59402 84.691 1.59402H83.243V9.00002H81.662ZM86.17 5.04501L88.331 9.00002H86.566L84.444 5.04501H86.17ZM95.4 9.00002H92.443V0.273018H95.46C96.326 0.273018 97.071 0.447012 97.693 0.797012C98.318 1.14301 98.798 1.64201 99.133 2.29301C99.468 2.94301 99.636 3.72201 99.636 4.62801C99.636 5.53701 99.467 6.31802 99.129 6.97202C98.794 7.62502 98.309 8.12601 97.676 8.47601C97.045 8.82501 96.287 9.00002 95.4 9.00002ZM94.024 7.63202H95.324C95.931 7.63202 96.439 7.52102 96.845 7.30002C97.251 7.07502 97.556 6.74101 97.761 6.29801C97.966 5.85201 98.068 5.29501 98.068 4.62801C98.068 3.96001 97.966 3.40602 97.761 2.96602C97.556 2.52302 97.254 2.19201 96.853 1.97301C96.456 1.75101 95.961 1.64101 95.37 1.64101H94.024V7.63202Z" fill="#9D9FA2"/>
</svg>
