<svg width="14" height="9" viewBox="0 0 14 9" fill="none" xmlns="http://www.w3.org/2000/svg">
<path d="M0.579956 9V0.27301H5.81006V1.21002H1.64001V4.159H5.42004V5.09698H1.64001V9H0.579956ZM7.42004 9V2.45502H8.39001V3.44299H8.45996C8.57996 3.11899 8.78998 2.85703 9.09998 2.65503C9.41998 2.45303 9.77003 2.35199 10.16 2.35199C10.24 2.35199 10.3299 2.35399 10.4399 2.35699C10.5499 2.35899 10.6299 2.36402 10.6899 2.36902V3.39203C10.6599 3.38403 10.58 3.371 10.46 3.354C10.34 3.334 10.21 3.32397 10.08 3.32397C9.75996 3.32397 9.46997 3.39099 9.21997 3.52399C8.97997 3.65499 8.78001 3.83701 8.64001 4.07001C8.49001 4.30001 8.42004 4.56197 8.42004 4.85797V9H7.42004ZM11.88 9V2.45502H12.89V9H11.88ZM12.39 1.36401C12.2 1.36401 12.03 1.29702 11.89 1.16302C11.75 1.03002 11.6801 0.869007 11.6801 0.682007C11.6801 0.494007 11.75 0.334012 11.89 0.200012C12.03 0.0670122 12.2 0 12.39 0C12.59 0 12.76 0.0670122 12.9 0.200012C13.04 0.334012 13.11 0.494007 13.11 0.682007C13.11 0.869007 13.04 1.03002 12.9 1.16302C12.76 1.29702 12.59 1.36401 12.39 1.36401Z" fill="#9D9FA2"/>
</svg>
