<svg width="32" height="12" viewBox="0 0 32 12" fill="none" xmlns="http://www.w3.org/2000/svg">
<path d="M5.13 0.819946H6.35999V8.09998C6.35999 8.74998 6.24001 9.3 6.01001 9.75C5.77001 10.21 5.43 10.55 5 10.79C4.56 11.02 4.04996 11.14 3.45996 11.14C2.89996 11.14 2.40997 11.04 1.96997 10.84C1.53997 10.63 1.19995 10.34 0.949951 9.95996C0.699951 9.57996 0.579956 9.12999 0.579956 8.60999H1.79004C1.79004 8.89999 1.86 9.14999 2 9.37C2.15 9.58 2.34998 9.75 2.59998 9.87C2.84998 9.99 3.13996 10.05 3.45996 10.05C3.80996 10.05 4.12 9.96995 4.37 9.81995C4.60999 9.66995 4.80005 9.45004 4.93005 9.17004C5.06005 8.87004 5.13 8.51998 5.13 8.09998V0.819946ZM13.49 7.88V3.35999H14.66V11H13.49V9.70996H13.41C13.23 10.1 12.9499 10.42 12.5699 10.7C12.1999 10.97 11.72 11.1 11.14 11.1C10.66 11.1 10.24 11 9.87 10.79C9.5 10.57 9.20999 10.26 8.98999 9.82996C8.77999 9.39996 8.68005 8.86997 8.68005 8.21997V3.35999H9.84998V8.14001C9.84998 8.69001 9.99995 9.13997 10.3199 9.46997C10.6299 9.79997 11.03 9.96997 11.52 9.96997C11.81 9.96997 12.11 9.88999 12.41 9.73999C12.71 9.58999 12.97 9.36006 13.17 9.06006C13.38 8.75006 13.49 8.36 13.49 7.88ZM17.98 6.41003V11H16.8101V3.35999H17.9399V4.56006H18.04C18.22 4.17006 18.49 3.86 18.86 3.62C19.22 3.38 19.69 3.26001 20.27 3.26001C20.79 3.26001 21.24 3.36996 21.63 3.57996C22.02 3.78996 22.32 4.11004 22.53 4.54004C22.75 4.96004 22.86 5.50002 22.86 6.15002V11H21.6801V6.22998C21.6801 5.62998 21.53 5.15996 21.22 4.82996C20.9 4.48996 20.4801 4.31995 19.9301 4.31995C19.5601 4.31995 19.2201 4.40006 18.9301 4.56006C18.6401 4.72006 18.41 4.96002 18.24 5.27002C18.07 5.58002 17.98 5.96003 17.98 6.41003ZM28.2 11.16C27.47 11.16 26.83 11 26.3 10.67C25.77 10.34 25.3599 9.89005 25.0699 9.30005C24.7799 8.71005 24.64 8.01999 24.64 7.23999C24.64 6.45999 24.7799 5.77004 25.0699 5.17004C25.3599 4.57004 25.76 4.11002 26.27 3.77002C26.79 3.43002 27.39 3.26001 28.08 3.26001C28.48 3.26001 28.87 3.32996 29.26 3.45996C29.65 3.59996 29.9999 3.80999 30.3199 4.10999C30.6399 4.39999 30.89 4.80003 31.08 5.28003C31.27 5.77003 31.36 6.36996 31.36 7.07996V7.57996H25.48V6.56995H30.17C30.17 6.12995 30.08 5.75003 29.91 5.41003C29.74 5.07003 29.4999 4.80999 29.1899 4.60999C28.8699 4.41999 28.51 4.31995 28.08 4.31995C27.61 4.31995 27.21 4.43004 26.87 4.67004C26.53 4.89004 26.27 5.19006 26.09 5.56006C25.91 5.93006 25.8101 6.31999 25.8101 6.73999V7.42004C25.8101 8.00004 25.91 8.49001 26.11 8.89001C26.32 9.28001 26.6 9.59005 26.95 9.80005C27.31 10 27.73 10.11 28.2 10.11C28.51 10.11 28.79 10.06 29.04 9.97998C29.29 9.88998 29.5099 9.74996 29.6899 9.57996C29.8699 9.39996 30.01 9.18003 30.11 8.91003L31.24 9.22998C31.12 9.60998 30.92 9.94999 30.64 10.24C30.36 10.53 30.01 10.76 29.6 10.92C29.18 11.08 28.72 11.16 28.2 11.16Z" fill="#5F6980"/>
</svg>
