<svg width="63" height="14" viewBox="0 0 63 14" fill="none" xmlns="http://www.w3.org/2000/svg">
<path d="M2.31182 11H0.343018L3.92762 0.817978H6.20452L9.79402 11H7.82532L5.10582 2.90599H5.02632L2.31182 11ZM2.37642 7.00798H7.74572V8.48898H2.37642V7.00798ZM12.8553 6.52599V11H11.0556V3.36398H12.7757V4.66098H12.8652C13.0409 4.23398 13.321 3.89398 13.7054 3.64198C14.0932 3.38998 14.5721 3.26399 15.1422 3.26399C15.6692 3.26399 16.1283 3.37699 16.5194 3.60199C16.9138 3.82799 17.2187 4.15399 17.4341 4.58199C17.6529 5.00899 17.7606 5.52799 17.7573 6.13799V11H15.9576V6.41599C15.9576 5.90598 15.825 5.50599 15.5598 5.21799C15.298 4.92999 14.9351 4.78598 14.4711 4.78598C14.1562 4.78598 13.8761 4.85499 13.6309 4.99399C13.3889 5.12999 13.1983 5.32698 13.0591 5.58598C12.9232 5.84398 12.8553 6.15799 12.8553 6.52599ZM21.7843 11.154C21.3004 11.154 20.8645 11.068 20.4767 10.896C20.0923 10.72 19.7873 10.461 19.562 10.12C19.3399 9.77898 19.2289 9.35798 19.2289 8.85698C19.2289 8.42598 19.3084 8.06998 19.4675 7.78798C19.6266 7.50698 19.8437 7.28098 20.1188 7.11198C20.3939 6.94298 20.7038 6.81599 21.0485 6.72899C21.3965 6.63999 21.7561 6.57498 22.1273 6.53598C22.5748 6.48898 22.9377 6.44798 23.2161 6.41098C23.4945 6.37098 23.6967 6.31198 23.8226 6.23198C23.9519 6.14898 24.0165 6.02198 24.0165 5.84898V5.81999C24.0165 5.44499 23.9055 5.15498 23.6834 4.94998C23.4614 4.74398 23.1415 4.64099 22.7239 4.64099C22.2831 4.64099 21.9334 4.73698 21.6749 4.92998C21.4197 5.12198 21.2473 5.34898 21.1578 5.61098L19.4775 5.37198C19.61 4.90798 19.8288 4.51998 20.1337 4.20898C20.4386 3.89398 20.8115 3.65899 21.2523 3.50299C21.6931 3.34399 22.1803 3.26399 22.714 3.26399C23.0819 3.26399 23.4481 3.30699 23.8127 3.39299C24.1773 3.47999 24.5104 3.62198 24.812 3.82098C25.1136 4.01698 25.3555 4.28299 25.5378 4.62099C25.7234 4.95999 25.8162 5.38199 25.8162 5.88899V11H24.0861V9.95099H24.0265C23.9171 10.163 23.763 10.362 23.5641 10.548C23.3685 10.73 23.1216 10.877 22.8233 10.99C22.5283 11.099 22.182 11.154 21.7843 11.154ZM22.2516 9.83199C22.6129 9.83199 22.9261 9.75998 23.1912 9.61798C23.4564 9.47198 23.6602 9.27999 23.8027 9.04099C23.9486 8.80299 24.0215 8.54199 24.0215 8.26099V7.36098C23.9651 7.40698 23.869 7.44999 23.7331 7.48999C23.6006 7.52999 23.4514 7.56498 23.2857 7.59398C23.12 7.62398 22.9559 7.65098 22.7935 7.67398C22.6311 7.69698 22.4902 7.71698 22.3709 7.73398C22.1025 7.76998 21.8622 7.82998 21.65 7.91298C21.4379 7.99598 21.2705 8.11199 21.1479 8.26099C21.0253 8.40599 20.964 8.59498 20.964 8.82698C20.964 9.15898 21.0849 9.40899 21.3269 9.57799C21.5688 9.74699 21.8771 9.83199 22.2516 9.83199ZM29.4256 0.817978V11H27.6259V0.817978H29.4256ZM32.3949 13.864C32.1496 13.864 31.9226 13.844 31.7138 13.804C31.5083 13.768 31.3442 13.724 31.2216 13.675L31.6392 12.273C31.901 12.349 32.1347 12.385 32.3402 12.382C32.5457 12.379 32.7263 12.314 32.8821 12.188C33.0412 12.066 33.1754 11.86 33.2848 11.572L33.4389 11.159L30.6697 3.36398H32.5788L34.3388 9.13098H34.4183L36.1832 3.36398H38.0973L35.0398 11.925C34.8973 12.329 34.7083 12.675 34.473 12.964C34.2377 13.255 33.9493 13.478 33.608 13.63C33.2699 13.786 32.8655 13.864 32.3949 13.864ZM43.1559 3.36398V4.75598H38.766V3.36398H43.1559ZM39.8498 1.53398H41.6495V8.70299C41.6495 8.94499 41.686 9.13098 41.7589 9.25998C41.8351 9.38598 41.9345 9.47199 42.0572 9.51799C42.1798 9.56499 42.3157 9.58798 42.4648 9.58798C42.5775 9.58798 42.6803 9.57999 42.7731 9.56299C42.8692 9.54699 42.9421 9.53199 42.9918 9.51799L43.2951 10.925C43.199 10.959 43.0614 10.995 42.8825 11.035C42.7068 11.075 42.4914 11.098 42.2362 11.104C41.7854 11.118 41.3794 11.05 41.0181 10.901C40.6568 10.748 40.3701 10.513 40.158 10.195C39.9492 9.87599 39.8465 9.47899 39.8498 9.00099V1.53398ZM44.661 11V3.36398H46.4608V11H44.661ZM45.5659 2.27998C45.2808 2.27998 45.0356 2.18499 44.8301 1.99599C44.6246 1.80399 44.5218 1.57398 44.5218 1.30498C44.5218 1.03398 44.6246 0.802983 44.8301 0.613983C45.0356 0.421983 45.2808 0.325989 45.5659 0.325989C45.8542 0.325989 46.0995 0.421983 46.3017 0.613983C46.5072 0.802983 46.6099 1.03398 46.6099 1.30498C46.6099 1.57398 46.5072 1.80399 46.3017 1.99599C46.0995 2.18499 45.8542 2.27998 45.5659 2.27998ZM51.6424 11.149C50.8801 11.149 50.2255 10.982 49.6786 10.647C49.1351 10.312 48.7158 9.84998 48.4208 9.25998C48.1291 8.66698 47.9833 7.98399 47.9833 7.21199C47.9833 6.43599 48.1325 5.75199 48.4308 5.15799C48.729 4.56199 49.15 4.09799 49.6935 3.76599C50.2404 3.43199 50.8867 3.26399 51.6325 3.26399C52.252 3.26399 52.801 3.37898 53.278 3.60698C53.759 3.83298 54.141 4.15199 54.426 4.56699C54.712 4.97799 54.874 5.45799 54.914 6.00899H53.194C53.124 5.64099 52.958 5.33399 52.696 5.08899C52.438 4.83999 52.092 4.71599 51.6573 4.71599C51.2894 4.71599 50.9663 4.81499 50.6879 5.01399C50.4094 5.20999 50.1924 5.49098 50.0366 5.85898C49.8841 6.22698 49.8079 6.66799 49.8079 7.18199C49.8079 7.70199 49.8841 8.14999 50.0366 8.52399C50.189 8.89499 50.4028 9.18199 50.6779 9.38399C50.9563 9.58299 51.2828 9.68298 51.6573 9.68298C51.9225 9.68298 52.159 9.63299 52.368 9.53299C52.58 9.43099 52.758 9.28299 52.9 9.09099C53.043 8.89899 53.141 8.66498 53.194 8.38998H54.914C54.871 8.92998 54.712 9.40898 54.436 9.82698C54.161 10.241 53.787 10.566 53.313 10.801C52.839 11.033 52.282 11.149 51.6424 11.149ZM62.427 5.38199L60.786 5.56099C60.74 5.39499 60.659 5.23998 60.543 5.09398C60.43 4.94798 60.278 4.82998 60.085 4.74098C59.893 4.65098 59.658 4.60698 59.379 4.60698C59.005 4.60698 58.69 4.68799 58.435 4.84999C58.183 5.01299 58.059 5.22298 58.062 5.48198C58.059 5.70398 58.14 5.88398 58.306 6.02298C58.475 6.16298 58.753 6.27698 59.141 6.36598L60.443 6.64499C61.166 6.80099 61.703 7.04799 62.054 7.38599C62.409 7.72399 62.588 8.16598 62.591 8.71298C62.588 9.19398 62.447 9.61798 62.169 9.98598C61.893 10.35 61.511 10.635 61.02 10.841C60.53 11.046 59.966 11.149 59.33 11.149C58.395 11.149 57.643 10.954 57.073 10.562C56.503 10.168 56.163 9.61999 56.053 8.91699L57.808 8.74799C57.888 9.09299 58.057 9.35298 58.316 9.52798C58.574 9.70398 58.91 9.79199 59.325 9.79199C59.752 9.79199 60.095 9.70398 60.354 9.52798C60.616 9.35298 60.747 9.13598 60.747 8.87698C60.747 8.65798 60.662 8.47799 60.493 8.33499C60.327 8.19299 60.069 8.08299 59.718 8.00699L58.415 7.73398C57.682 7.58098 57.141 7.32398 56.789 6.96298C56.438 6.59798 56.264 6.13798 56.267 5.58098C56.264 5.10998 56.392 4.70299 56.65 4.35799C56.912 4.00999 57.275 3.74098 57.739 3.55298C58.206 3.35998 58.745 3.26399 59.355 3.26399C60.249 3.26399 60.954 3.45498 61.468 3.83598C61.985 4.21698 62.304 4.73199 62.427 5.38199Z" fill="#282828"/>
</svg>
