<svg width="112" height="15" viewBox="0 0 112 15" fill="none" xmlns="http://www.w3.org/2000/svg">
<path d="M0.291016 14V0.908997H5.20004C6.20604 0.908997 7.05002 1.09698 7.73203 1.47198C8.41803 1.84698 8.93503 2.36201 9.28503 3.01801C9.63803 3.67001 9.81503 4.41201 9.81503 5.24301C9.81503 6.08201 9.63803 6.82801 9.28503 7.48001C8.93103 8.13201 8.40902 8.646 7.71902 9.021C7.02802 9.391 6.17803 9.577 5.16803 9.577H1.91504V7.62701H4.84903C5.43703 7.62701 5.91803 7.52501 6.29303 7.32001C6.66803 7.11601 6.94502 6.83499 7.12402 6.47699C7.30802 6.11899 7.39902 5.70701 7.39902 5.24301C7.39902 4.77801 7.30802 4.36899 7.12402 4.01599C6.94502 3.66199 6.66602 3.38701 6.28702 3.19101C5.91202 2.99101 5.42803 2.89099 4.83603 2.89099H2.66302V14H0.291016ZM15.979 14.192C14.994 14.192 14.144 13.987 13.428 13.578C12.717 13.165 12.169 12.581 11.786 11.827C11.402 11.068 11.21 10.175 11.21 9.14801C11.21 8.13801 11.402 7.25201 11.786 6.48901C12.173 5.72201 12.715 5.12601 13.409 4.70001C14.104 4.26901 14.92 4.05399 15.857 4.05399C16.463 4.05399 17.034 4.15199 17.57 4.34799C18.112 4.53999 18.589 4.83801 19.002 5.24301C19.42 5.64801 19.748 6.16301 19.987 6.79001C20.225 7.41201 20.345 8.15301 20.345 9.01401V9.724H12.297V8.164H18.127C18.122 7.721 18.026 7.32699 17.839 6.98199C17.651 6.63199 17.389 6.35701 17.053 6.15701C16.72 5.95701 16.333 5.85699 15.889 5.85699C15.416 5.85699 15.001 5.972 14.643 6.202C14.285 6.428 14.006 6.72599 13.806 7.09698C13.61 7.46299 13.509 7.86599 13.505 8.30499V9.66599C13.505 10.237 13.61 10.727 13.818 11.136C14.027 11.541 14.319 11.852 14.694 12.07C15.069 12.283 15.508 12.389 16.011 12.389C16.347 12.389 16.652 12.342 16.925 12.249C17.198 12.151 17.434 12.008 17.634 11.82C17.835 11.633 17.986 11.401 18.088 11.124L20.249 11.366C20.112 11.937 19.852 12.436 19.469 12.862C19.09 13.284 18.604 13.612 18.012 13.847C17.419 14.077 16.742 14.192 15.979 14.192ZM22.302 14V4.18201H24.546V5.81799H24.648C24.827 5.25099 25.134 4.815 25.569 4.508C26.007 4.197 26.508 4.04099 27.071 4.04099C27.199 4.04099 27.341 4.048 27.499 4.06C27.661 4.069 27.795 4.08401 27.902 4.10501V6.23401C27.804 6.20001 27.648 6.17001 27.435 6.14401C27.226 6.11401 27.024 6.099 26.828 6.099C26.406 6.099 26.027 6.19099 25.69 6.37399C25.358 6.55299 25.096 6.80301 24.904 7.12201C24.712 7.44201 24.616 7.81 24.616 8.228V14H22.302ZM34.939 4.18201V5.97198H29.135V4.18201H34.939ZM30.586 14V3.255C30.586 2.594 30.723 2.04499 30.995 1.60599C31.272 1.16699 31.643 0.839002 32.108 0.621002C32.572 0.404002 33.088 0.295013 33.654 0.295013C34.055 0.295013 34.411 0.326991 34.722 0.390991C35.033 0.454991 35.263 0.512995 35.412 0.563995L34.952 2.354C34.854 2.324 34.73 2.29401 34.581 2.26401C34.432 2.23001 34.266 2.21301 34.083 2.21301C33.652 2.21301 33.348 2.317 33.169 2.526C32.994 2.731 32.907 3.02499 32.907 3.40799V14H30.586ZM40.665 14.192C39.706 14.192 38.875 13.981 38.172 13.559C37.469 13.137 36.923 12.547 36.536 11.788C36.152 11.03 35.96 10.143 35.96 9.129C35.96 8.115 36.152 7.22699 36.536 6.46399C36.923 5.70099 37.469 5.10901 38.172 4.68701C38.875 4.26501 39.706 4.05399 40.665 4.05399C41.624 4.05399 42.455 4.26501 43.158 4.68701C43.861 5.10901 44.404 5.70099 44.788 6.46399C45.176 7.22699 45.369 8.115 45.369 9.129C45.369 10.143 45.176 11.03 44.788 11.788C44.404 12.547 43.861 13.137 43.158 13.559C42.455 13.981 41.624 14.192 40.665 14.192ZM40.678 12.338C41.198 12.338 41.632 12.195 41.982 11.91C42.331 11.62 42.591 11.232 42.762 10.746C42.936 10.261 43.024 9.71899 43.024 9.12299C43.024 8.52199 42.936 7.97901 42.762 7.49301C42.591 7.00301 42.331 6.613 41.982 6.323C41.632 6.033 41.198 5.888 40.678 5.888C40.145 5.888 39.702 6.033 39.348 6.323C38.999 6.613 38.737 7.00301 38.562 7.49301C38.392 7.97901 38.306 8.52199 38.306 9.12299C38.306 9.71899 38.392 10.261 38.562 10.746C38.737 11.232 38.999 11.62 39.348 11.91C39.702 12.195 40.145 12.338 40.678 12.338ZM47.333 14V4.18201H49.577V5.81799H49.679C49.858 5.25099 50.165 4.815 50.6 4.508C51.039 4.197 51.539 4.04099 52.102 4.04099C52.23 4.04099 52.373 4.048 52.53 4.06C52.692 4.069 52.826 4.08401 52.933 4.10501V6.23401C52.835 6.20001 52.679 6.17001 52.466 6.14401C52.257 6.11401 52.055 6.099 51.859 6.099C51.437 6.099 51.058 6.19099 50.721 6.37399C50.389 6.55299 50.127 6.80301 49.935 7.12201C49.743 7.44201 49.647 7.81 49.647 8.228V14H47.333ZM54.47 14V4.18201H56.682V5.85001H56.797C57.001 5.28801 57.34 4.84899 57.813 4.53299C58.286 4.21399 58.851 4.05399 59.507 4.05399C60.172 4.05399 60.732 4.21601 61.188 4.54001C61.648 4.85901 61.972 5.29601 62.16 5.85001H62.262C62.479 5.30501 62.846 4.86999 63.362 4.54599C63.881 4.21799 64.497 4.05399 65.209 4.05399C66.112 4.05399 66.849 4.33901 67.42 4.91101C67.991 5.48201 68.277 6.315 68.277 7.41V14H65.957V7.76801C65.957 7.15801 65.795 6.71301 65.471 6.43201C65.147 6.14601 64.751 6.004 64.282 6.004C63.724 6.004 63.287 6.17802 62.972 6.52802C62.661 6.87301 62.505 7.32201 62.505 7.87601V14H60.236V7.672C60.236 7.165 60.082 6.76 59.776 6.457C59.473 6.155 59.077 6.004 58.587 6.004C58.254 6.004 57.952 6.089 57.679 6.259C57.406 6.425 57.189 6.66199 57.027 6.96899C56.865 7.27099 56.784 7.625 56.784 8.03V14H54.47ZM73.45 14.198C72.828 14.198 72.267 14.087 71.769 13.866C71.274 13.64 70.882 13.308 70.593 12.869C70.307 12.43 70.164 11.888 70.164 11.245C70.164 10.691 70.267 10.233 70.471 9.871C70.676 9.509 70.955 9.21901 71.308 9.00101C71.662 8.78401 72.061 8.62 72.504 8.509C72.951 8.394 73.414 8.31101 73.891 8.26001C74.466 8.20001 74.933 8.14701 75.291 8.10001C75.649 8.04901 75.909 7.972 76.07 7.87C76.237 7.763 76.32 7.59899 76.32 7.37799V7.33899C76.32 6.85799 76.177 6.48501 75.892 6.22101C75.606 5.95701 75.195 5.82501 74.658 5.82501C74.091 5.82501 73.642 5.94801 73.309 6.19501C72.981 6.44201 72.759 6.73401 72.644 7.07101L70.484 6.76401C70.654 6.16801 70.936 5.66901 71.328 5.26801C71.72 4.86401 72.199 4.56099 72.766 4.36099C73.333 4.15599 73.959 4.05399 74.645 4.05399C75.118 4.05399 75.589 4.109 76.058 4.22C76.526 4.331 76.955 4.51399 77.343 4.76999C77.73 5.02099 78.041 5.36401 78.276 5.79901C78.514 6.23401 78.634 6.77699 78.634 7.42899V14H76.409V12.651H76.333C76.192 12.924 75.994 13.18 75.738 13.418C75.487 13.653 75.169 13.842 74.786 13.987C74.406 14.128 73.961 14.198 73.45 14.198ZM74.051 12.498C74.515 12.498 74.918 12.406 75.259 12.223C75.6 12.036 75.862 11.788 76.045 11.482C76.232 11.175 76.326 10.84 76.326 10.478V9.32101C76.254 9.38101 76.13 9.436 75.955 9.487C75.785 9.538 75.593 9.583 75.38 9.621C75.167 9.66 74.956 9.694 74.747 9.724C74.539 9.754 74.357 9.77899 74.204 9.79999C73.859 9.84699 73.55 9.92401 73.277 10.031C73.004 10.137 72.789 10.286 72.632 10.478C72.474 10.665 72.395 10.908 72.395 11.207C72.395 11.633 72.551 11.955 72.862 12.172C73.173 12.389 73.569 12.498 74.051 12.498ZM83.274 8.24701V14H80.96V4.18201H83.172V5.85001H83.287C83.513 5.30001 83.873 4.86401 84.367 4.54001C84.866 4.21601 85.482 4.05399 86.215 4.05399C86.892 4.05399 87.482 4.19901 87.985 4.48901C88.492 4.77801 88.884 5.19799 89.161 5.74799C89.443 6.29799 89.581 6.96399 89.577 7.74899V14H87.263V8.10699C87.263 7.44999 87.093 6.93701 86.752 6.56601C86.415 6.19501 85.948 6.01001 85.352 6.01001C84.947 6.01001 84.587 6.09902 84.271 6.27802C83.96 6.45302 83.715 6.707 83.536 7.039C83.362 7.371 83.274 7.77401 83.274 8.24701ZM96.212 14.192C95.232 14.192 94.39 13.977 93.687 13.546C92.988 13.116 92.449 12.521 92.07 11.763C91.695 11 91.507 10.122 91.507 9.129C91.507 8.132 91.699 7.25201 92.083 6.48901C92.466 5.72201 93.007 5.12601 93.706 4.70001C94.409 4.26901 95.24 4.05399 96.199 4.05399C96.996 4.05399 97.701 4.201 98.315 4.495C98.933 4.785 99.425 5.196 99.791 5.729C100.158 6.257 100.367 6.875 100.418 7.582H98.206C98.117 7.109 97.904 6.71499 97.567 6.39999C97.235 6.07999 96.789 5.92001 96.231 5.92001C95.758 5.92001 95.343 6.04799 94.985 6.30399C94.627 6.55499 94.347 6.91799 94.147 7.39099C93.951 7.86399 93.853 8.43 93.853 9.091C93.853 9.76 93.951 10.335 94.147 10.817C94.343 11.294 94.618 11.663 94.972 11.923C95.33 12.178 95.749 12.306 96.231 12.306C96.572 12.306 96.877 12.242 97.145 12.114C97.418 11.982 97.646 11.793 97.829 11.545C98.012 11.298 98.138 10.998 98.206 10.644H100.418C100.362 11.339 100.158 11.955 99.804 12.491C99.45 13.024 98.969 13.442 98.36 13.744C97.75 14.043 97.034 14.192 96.212 14.192ZM106.664 14.192C105.68 14.192 104.83 13.987 104.114 13.578C103.402 13.165 102.855 12.581 102.471 11.827C102.088 11.068 101.896 10.175 101.896 9.14801C101.896 8.13801 102.088 7.25201 102.471 6.48901C102.859 5.72201 103.4 5.12601 104.095 4.70001C104.789 4.26901 105.605 4.05399 106.543 4.05399C107.148 4.05399 107.719 4.15199 108.256 4.34799C108.797 4.53999 109.275 4.83801 109.688 5.24301C110.105 5.64801 110.434 6.16301 110.672 6.79001C110.911 7.41201 111.03 8.15301 111.03 9.01401V9.724H102.983V8.164H108.812C108.808 7.721 108.712 7.32699 108.525 6.98199C108.337 6.63199 108.075 6.35701 107.738 6.15701C107.406 5.95701 107.018 5.85699 106.575 5.85699C106.102 5.85699 105.686 5.972 105.328 6.202C104.971 6.428 104.691 6.72599 104.491 7.09698C104.295 7.46299 104.195 7.86599 104.191 8.30499V9.66599C104.191 10.237 104.295 10.727 104.504 11.136C104.713 11.541 105.005 11.852 105.38 12.07C105.755 12.283 106.194 12.389 106.696 12.389C107.033 12.389 107.338 12.342 107.61 12.249C107.883 12.151 108.12 12.008 108.32 11.82C108.52 11.633 108.672 11.401 108.774 11.124L110.934 11.366C110.798 11.937 110.538 12.436 110.154 12.862C109.775 13.284 109.289 13.612 108.697 13.847C108.105 14.077 107.427 14.192 106.664 14.192Z" fill="#282828"/>
</svg>
