<svg width="18" height="16" viewBox="0 0 18 16" fill="none" xmlns="http://www.w3.org/2000/svg">
<path fill-rule="evenodd" clip-rule="evenodd" d="M3.141 0.664978C2.533 0.664978 1.95 0.906975 1.52 1.33698C1.09 1.76598 0.848999 2.34897 0.848999 2.95697V12.96C0.848999 13.56 1.09 14.15 1.52 14.58C1.95 15.01 2.533 15.25 3.141 15.25H8.974C9.582 15.25 10.165 15.01 10.594 14.58C11.024 14.15 11.266 13.56 11.266 12.96V11.29C11.266 10.95 10.986 10.67 10.641 10.67C10.295 10.67 10.016 10.95 10.016 11.29V12.96C10.016 13.23 9.906 13.5 9.711 13.69C9.515 13.89 9.25 14 8.974 14H3.141C2.864 14 2.599 13.89 2.404 13.69C2.209 13.5 2.099 13.23 2.099 12.96V2.95697C2.099 2.68097 2.209 2.41597 2.404 2.21997C2.599 2.02497 2.864 1.91498 3.141 1.91498H8.974C9.25 1.91498 9.515 2.02497 9.711 2.21997C9.906 2.41597 10.016 2.68097 10.016 2.95697V4.62402C10.016 4.96902 10.295 5.24902 10.641 5.24902C10.986 5.24902 11.266 4.96902 11.266 4.62402V2.95697C11.266 2.34897 11.024 1.76598 10.594 1.33698C10.165 0.906975 9.582 0.664978 8.974 0.664978H3.141ZM14.416 5.01501C14.172 4.77101 13.776 4.77101 13.532 5.01501C13.288 5.25901 13.288 5.65499 13.532 5.89899L14.965 7.33002H4.807C4.462 7.33002 4.182 7.61002 4.182 7.96002C4.182 8.30002 4.462 8.58002 4.807 8.58002H14.965L13.532 10.02C13.288 10.26 13.288 10.65 13.532 10.9C13.776 11.14 14.172 11.14 14.416 10.9L16.913 8.40002C16.925 8.39002 16.936 8.38 16.947 8.37C17.03 8.27 17.079 8.14998 17.094 8.03998C17.099 7.99998 17.1 7.95998 17.098 7.91998C17.088 7.76998 17.028 7.63002 16.916 7.52002L14.416 5.01501Z" fill="#5F6980"/>
</svg>
