<svg width="33" height="12" viewBox="0 0 33 12" fill="none" xmlns="http://www.w3.org/2000/svg">
<path d="M0.0039978 0.819946H2.26099L5.284 8.19995H5.40302L8.42599 0.819946H10.683V11H8.91299V4H8.819L6.005 10.97H4.68301L1.86899 3.98999H1.77399V11H0.0039978V0.819946ZM15.993 11.15C15.227 11.15 14.566 10.99 14.009 10.67C13.456 10.35 13.03 9.90006 12.732 9.31006C12.433 8.72006 12.284 8.02998 12.284 7.22998C12.284 6.43998 12.433 5.75003 12.732 5.16003C13.033 4.56003 13.454 4.10002 13.994 3.77002C14.535 3.43002 15.169 3.26001 15.898 3.26001C16.369 3.26001 16.813 3.33999 17.231 3.48999C17.652 3.63999 18.023 3.86994 18.344 4.18994C18.669 4.49994 18.924 4.90001 19.11 5.39001C19.296 5.88001 19.388 6.45 19.388 7.12V7.67004H13.129V6.45996H17.663C17.66 6.11996 17.585 5.81004 17.44 5.54004C17.294 5.27004 17.09 5.06002 16.828 4.90002C16.57 4.74002 16.268 4.67004 15.923 4.67004C15.555 4.67004 15.232 4.76005 14.954 4.93005C14.675 5.11005 14.458 5.34 14.303 5.63C14.15 5.92 14.072 6.22995 14.069 6.56995V7.63C14.069 8.07 14.15 8.45002 14.312 8.77002C14.475 9.09002 14.702 9.33 14.994 9.5C15.285 9.66 15.627 9.75 16.018 9.75C16.28 9.75 16.517 9.71001 16.729 9.64001C16.941 9.56001 17.125 9.45005 17.281 9.30005C17.436 9.16005 17.554 8.98001 17.634 8.76001L19.314 8.94995C19.208 9.39995 19.006 9.77999 18.707 10.12C18.412 10.44 18.035 10.7 17.574 10.88C17.113 11.06 16.586 11.15 15.993 11.15ZM24.724 3.35999V4.76001H20.334V3.35999H24.724ZM21.418 1.53003H23.218V8.69995C23.218 8.94995 23.254 9.13001 23.327 9.26001C23.403 9.39001 23.503 9.47002 23.626 9.52002C23.748 9.56002 23.884 9.58997 24.033 9.58997C24.146 9.58997 24.249 9.58006 24.341 9.56006C24.438 9.55006 24.51 9.53002 24.56 9.52002L24.863 10.9301C24.767 10.9601 24.63 11 24.451 11.03C24.275 11.07 24.06 11.1 23.805 11.1C23.354 11.12 22.948 11.05 22.586 10.9C22.225 10.75 21.939 10.5099 21.726 10.1899C21.518 9.87994 21.415 9.48 21.418 9V1.53003ZM28.427 11.15C27.943 11.15 27.507 11.07 27.119 10.9C26.735 10.72 26.43 10.46 26.205 10.12C25.982 9.77999 25.871 9.35999 25.871 8.85999C25.871 8.42999 25.951 8.07004 26.11 7.79004C26.269 7.51004 26.486 7.27999 26.761 7.10999C27.036 6.93999 27.346 6.81998 27.691 6.72998C28.039 6.63998 28.399 6.58004 28.77 6.54004C29.217 6.49004 29.58 6.45003 29.859 6.41003C30.137 6.37003 30.339 6.30998 30.465 6.22998C30.594 6.14998 30.659 6.01998 30.659 5.84998V5.81995C30.659 5.44995 30.548 5.15995 30.326 4.94995C30.104 4.73995 29.784 4.64001 29.366 4.64001C28.926 4.64001 28.576 4.74005 28.317 4.93005C28.062 5.12005 27.89 5.34999 27.8 5.60999L26.12 5.37C26.253 4.91 26.471 4.51996 26.776 4.20996C27.081 3.88996 27.454 3.66 27.895 3.5C28.336 3.34 28.823 3.26001 29.357 3.26001C29.724 3.26001 30.091 3.31001 30.455 3.39001C30.82 3.48001 31.153 3.61995 31.455 3.81995C31.756 4.01995 31.998 4.28 32.18 4.62C32.366 4.96 32.459 5.38001 32.459 5.89001V11H30.729V9.94995H30.669C30.56 10.16 30.406 10.36 30.207 10.55C30.011 10.73 29.764 10.88 29.466 10.99C29.171 11.1 28.825 11.15 28.427 11.15ZM28.894 9.82996C29.255 9.82996 29.569 9.76 29.834 9.62C30.099 9.47 30.303 9.28004 30.445 9.04004C30.591 8.80004 30.664 8.54001 30.664 8.26001V7.35999C30.608 7.40999 30.512 7.44999 30.376 7.48999C30.243 7.52999 30.094 7.55997 29.928 7.58997C29.763 7.61997 29.598 7.65004 29.436 7.67004C29.274 7.70004 29.133 7.71998 29.013 7.72998C28.745 7.76998 28.505 7.83003 28.293 7.91003C28.08 8.00003 27.913 8.11001 27.79 8.26001C27.668 8.41001 27.607 8.59996 27.607 8.82996C27.607 9.15996 27.728 9.40996 27.969 9.57996C28.211 9.74996 28.52 9.82996 28.894 9.82996Z" fill="#282828"/>
</svg>
