<svg width="16" height="16" viewBox="0 0 16 16" fill="none" xmlns="http://www.w3.org/2000/svg">
<path fill-rule="evenodd" clip-rule="evenodd" d="M2.18488 2.12399C2.18488 2.00899 2.27818 1.91501 2.39318 1.91501H5.72658C5.84158 1.91501 5.93488 2.00899 5.93488 2.12399V5.457C5.93488 5.572 5.84158 5.66501 5.72658 5.66501H2.39318C2.27818 5.66501 2.18488 5.572 2.18488 5.457V2.12399ZM2.39318 0.665009C1.58778 0.665009 0.934875 1.31799 0.934875 2.12399V5.457C0.934875 6.262 1.58778 6.91501 2.39318 6.91501H5.72658C6.53198 6.91501 7.18488 6.262 7.18488 5.457V2.12399C7.18488 1.31799 6.53198 0.665009 5.72658 0.665009H2.39318ZM10.5182 2.12399C10.5182 2.00899 10.6115 1.91501 10.7266 1.91501H14.0599C14.175 1.91501 14.2682 2.00899 14.2682 2.12399V5.457C14.2682 5.572 14.175 5.66501 14.0599 5.66501H10.7266C10.6115 5.66501 10.5182 5.572 10.5182 5.457V2.12399ZM10.7266 0.665009C9.92108 0.665009 9.26818 1.31799 9.26818 2.12399V5.457C9.26818 6.262 9.92108 6.91501 10.7266 6.91501H14.0599C14.8653 6.91501 15.5182 6.262 15.5182 5.457V2.12399C15.5182 1.31799 14.8653 0.665009 14.0599 0.665009H10.7266ZM2.39318 10.249C2.27818 10.249 2.18488 10.342 2.18488 10.457V13.79C2.18488 13.905 2.27818 13.999 2.39318 13.999H5.72658C5.84158 13.999 5.93488 13.905 5.93488 13.79V10.457C5.93488 10.342 5.84158 10.249 5.72658 10.249H2.39318ZM0.934875 10.457C0.934875 9.652 1.58778 8.99899 2.39318 8.99899H5.72658C6.53198 8.99899 7.18488 9.652 7.18488 10.457V13.79C7.18488 14.596 6.53198 15.249 5.72658 15.249H2.39318C1.58778 15.249 0.934875 14.596 0.934875 13.79V10.457ZM10.5182 10.457C10.5182 10.342 10.6115 10.249 10.7266 10.249H14.0599C14.175 10.249 14.2682 10.342 14.2682 10.457V13.79C14.2682 13.905 14.175 13.999 14.0599 13.999H10.7266C10.6115 13.999 10.5182 13.905 10.5182 13.79V10.457ZM10.7266 8.99899C9.92108 8.99899 9.26818 9.652 9.26818 10.457V13.79C9.26818 14.596 9.92108 15.249 10.7266 15.249H14.0599C14.8653 15.249 15.5182 14.596 15.5182 13.79V10.457C15.5182 9.652 14.8653 8.99899 14.0599 8.99899H10.7266Z" fill="#5F6980"/>
</svg>
