<svg width="86" height="15" viewBox="0 0 86 15" fill="none" xmlns="http://www.w3.org/2000/svg">
<path d="M0.00427246 11V0.817993H6.52697V2.36401H1.84867V5.12903H6.07947V6.67499H1.84867V11H0.00427246ZM8.12777 11V3.36401H9.92757V11H8.12777ZM9.03267 2.28003C8.74757 2.28003 8.50237 2.18497 8.29688 1.99597C8.09138 1.80397 7.98857 1.57399 7.98857 1.30499C7.98857 1.03399 8.09138 0.803014 8.29688 0.614014C8.50237 0.422014 8.74757 0.325989 9.03267 0.325989C9.32097 0.325989 9.56627 0.422014 9.76847 0.614014C9.97397 0.803014 10.0767 1.03399 10.0767 1.30499C10.0767 1.57399 9.97397 1.80397 9.76847 1.99597C9.56627 2.18497 9.32097 2.28003 9.03267 2.28003ZM13.5779 0.817993V11H11.7782V0.817993H13.5779ZM18.8093 11.149C18.0437 11.149 17.3825 10.99 16.8256 10.672C16.2721 10.35 15.8462 9.896 15.5479 9.31C15.2496 8.72 15.1005 8.02499 15.1005 7.22699C15.1005 6.44099 15.2496 5.75202 15.5479 5.15802C15.8496 4.56202 16.2705 4.09799 16.8107 3.76599C17.351 3.43199 17.9857 3.26398 18.7148 3.26398C19.1855 3.26398 19.6296 3.33998 20.0472 3.49298C20.4682 3.64198 20.8394 3.87403 21.1609 4.18903C21.4857 4.50403 21.7409 4.90503 21.9265 5.39203C22.1121 5.87603 22.2049 6.45301 22.2049 7.12201V7.67401H15.9457V6.461H20.4798C20.4764 6.116 20.4019 5.81002 20.256 5.54102C20.1102 5.26902 19.9064 5.05602 19.6445 4.90002C19.386 4.74402 19.0844 4.66602 18.7397 4.66602C18.3718 4.66602 18.0487 4.756 17.7702 4.935C17.4918 5.11 17.2747 5.34198 17.119 5.63098C16.9665 5.91598 16.8886 6.22901 16.8853 6.57001V7.62903C16.8853 8.07303 16.9665 8.45501 17.1289 8.77301C17.2913 9.08801 17.5183 9.33002 17.81 9.49902C18.1017 9.66402 18.4431 9.74701 18.8342 9.74701C19.096 9.74701 19.333 9.711 19.5451 9.638C19.7572 9.562 19.9412 9.45099 20.0969 9.30499C20.2527 9.15899 20.3704 8.978 20.4499 8.763L22.1303 8.95203C22.0243 9.39603 21.8221 9.78399 21.5238 10.115C21.2288 10.443 20.851 10.698 20.3903 10.881C19.9296 11.06 19.4026 11.149 18.8093 11.149ZM27.2797 0.817993H29.5368L32.5595 8.19598H32.6788L35.7015 0.817993H37.9586V11H36.1887V4.005H36.0943L33.2804 10.97H31.9579L29.144 3.98999H29.0495V11H27.2797V0.817993ZM42.085 11.154C41.6011 11.154 41.1653 11.068 40.7775 10.896C40.3931 10.72 40.0881 10.461 39.8627 10.12C39.6407 9.779 39.5297 9.358 39.5297 8.85699C39.5297 8.42599 39.6092 8.07002 39.7683 7.78802C39.9274 7.50702 40.1445 7.281 40.4196 7.112C40.6947 6.943 41.0046 6.816 41.3493 6.729C41.6973 6.64 42.0569 6.57501 42.4281 6.53601C42.8755 6.48901 43.2385 6.44801 43.5169 6.41101C43.7953 6.37101 43.9975 6.31199 44.1234 6.23199C44.2527 6.14899 44.3173 6.022 44.3173 5.849V5.82001C44.3173 5.44501 44.2063 5.15501 43.9842 4.95001C43.7621 4.74401 43.4423 4.64099 43.0247 4.64099C42.5839 4.64099 42.2342 4.73699 41.9757 4.92999C41.7205 5.12199 41.5481 5.34902 41.4586 5.61102L39.7782 5.37201C39.9108 4.90801 40.1296 4.51998 40.4345 4.20898C40.7394 3.89398 41.1123 3.65899 41.5531 3.50299C41.9939 3.34399 42.4811 3.26398 43.0147 3.26398C43.3826 3.26398 43.7489 3.30701 44.1135 3.39301C44.478 3.48001 44.8111 3.62198 45.1127 3.82098C45.4144 4.01698 45.6563 4.28297 45.8386 4.62097C46.0242 4.95997 46.117 5.38198 46.117 5.88898V11H44.3869V9.95099H44.3272C44.2179 10.163 44.0637 10.362 43.8649 10.548C43.6693 10.73 43.4224 10.877 43.1241 10.99C42.8291 11.099 42.4828 11.154 42.085 11.154ZM42.5524 9.83197C42.9136 9.83197 43.2269 9.75998 43.492 9.61798C43.7572 9.47198 43.961 9.28002 44.1035 9.04102C44.2493 8.80302 44.3223 8.54199 44.3223 8.26099V7.36102C44.2659 7.40702 44.1698 7.44999 44.0339 7.48999C43.9013 7.52999 43.7522 7.56499 43.5865 7.59399C43.4208 7.62399 43.2567 7.65101 43.0943 7.67401C42.9319 7.69701 42.791 7.71701 42.6717 7.73401C42.4032 7.77001 42.1629 7.83002 41.9508 7.91302C41.7387 7.99603 41.5713 8.11199 41.4487 8.26099C41.3261 8.40599 41.2647 8.59503 41.2647 8.82703C41.2647 9.15903 41.3857 9.409 41.6277 9.578C41.8696 9.747 42.1779 9.83197 42.5524 9.83197ZM49.7264 6.526V11H47.9267V3.36401H49.6468V4.66101H49.7363C49.912 4.23401 50.1921 3.89403 50.5765 3.64203C50.9643 3.39003 51.443 3.26398 52.013 3.26398C52.54 3.26398 52.999 3.37699 53.39 3.60199C53.785 3.82799 54.09 4.15397 54.305 4.58197C54.524 5.00897 54.632 5.528 54.628 6.138V11H52.829V6.41602C52.829 5.90602 52.696 5.50602 52.431 5.21802C52.169 4.93002 51.806 4.78601 51.342 4.78601C51.027 4.78601 50.7472 4.85502 50.502 4.99402C50.26 5.13002 50.0694 5.327 49.9302 5.586C49.7943 5.844 49.7264 6.158 49.7264 6.526ZM58.655 11.154C58.171 11.154 57.736 11.068 57.348 10.896C56.963 10.72 56.658 10.461 56.433 10.12C56.211 9.779 56.1 9.358 56.1 8.85699C56.1 8.42599 56.18 8.07002 56.339 7.78802C56.498 7.50702 56.715 7.281 56.99 7.112C57.265 6.943 57.575 6.816 57.92 6.729C58.268 6.64 58.627 6.57501 58.998 6.53601C59.446 6.48901 59.809 6.44801 60.087 6.41101C60.366 6.37101 60.568 6.31199 60.694 6.23199C60.823 6.14899 60.888 6.022 60.888 5.849V5.82001C60.888 5.44501 60.777 5.15501 60.555 4.95001C60.332 4.74401 60.013 4.64099 59.595 4.64099C59.154 4.64099 58.805 4.73699 58.546 4.92999C58.291 5.12199 58.118 5.34902 58.029 5.61102L56.349 5.37201C56.481 4.90801 56.7 4.51998 57.005 4.20898C57.31 3.89398 57.683 3.65899 58.123 3.50299C58.564 3.34399 59.051 3.26398 59.585 3.26398C59.953 3.26398 60.319 3.30701 60.684 3.39301C61.048 3.48001 61.381 3.62198 61.683 3.82098C61.985 4.01698 62.227 4.28297 62.409 4.62097C62.595 4.95997 62.687 5.38198 62.687 5.88898V11H60.957V9.95099H60.898C60.788 10.163 60.634 10.362 60.435 10.548C60.24 10.73 59.993 10.877 59.694 10.99C59.399 11.099 59.053 11.154 58.655 11.154ZM59.123 9.83197C59.484 9.83197 59.797 9.75998 60.062 9.61798C60.327 9.47198 60.531 9.28002 60.674 9.04102C60.82 8.80302 60.893 8.54199 60.893 8.26099V7.36102C60.836 7.40702 60.74 7.44999 60.604 7.48999C60.472 7.52999 60.323 7.56499 60.157 7.59399C59.991 7.62399 59.827 7.65101 59.665 7.67401C59.502 7.69701 59.361 7.71701 59.242 7.73401C58.974 7.77001 58.733 7.83002 58.521 7.91302C58.309 7.99603 58.142 8.11199 58.019 8.26099C57.896 8.40599 57.835 8.59503 57.835 8.82703C57.835 9.15903 57.956 9.409 58.198 9.578C58.44 9.747 58.748 9.83197 59.123 9.83197ZM67.818 14.023C67.172 14.023 66.617 13.935 66.153 13.759C65.689 13.587 65.316 13.355 65.034 13.063C64.752 12.772 64.557 12.448 64.447 12.094L66.068 11.701C66.141 11.85 66.247 11.998 66.386 12.143C66.525 12.293 66.713 12.415 66.948 12.511C67.187 12.611 67.487 12.661 67.848 12.661C68.358 12.661 68.781 12.536 69.116 12.288C69.45 12.042 69.618 11.638 69.618 11.075V9.62799H69.528C69.435 9.81299 69.3 10.004 69.121 10.2C68.945 10.395 68.711 10.559 68.42 10.692C68.131 10.824 67.768 10.891 67.331 10.891C66.744 10.891 66.212 10.753 65.735 10.478C65.261 10.2 64.883 9.78499 64.601 9.23499C64.323 8.68199 64.184 7.98898 64.184 7.15698C64.184 6.31798 64.323 5.611 64.601 5.034C64.883 4.454 65.263 4.01498 65.74 3.71698C66.217 3.41498 66.749 3.26398 67.336 3.26398C67.783 3.26398 68.151 3.33998 68.439 3.49298C68.731 3.64198 68.963 3.82297 69.135 4.03497C69.308 4.24397 69.439 4.44098 69.528 4.62598H69.628V3.36401H71.403V11.124C71.403 11.777 71.247 12.317 70.935 12.745C70.624 13.173 70.198 13.492 69.657 13.705C69.117 13.917 68.504 14.023 67.818 14.023ZM67.833 9.479C68.214 9.479 68.539 9.38601 68.807 9.20001C69.076 9.01501 69.28 8.74802 69.419 8.40002C69.558 8.05202 69.628 7.63397 69.628 7.14697C69.628 6.66597 69.558 6.24597 69.419 5.88397C69.283 5.52297 69.081 5.24301 68.812 5.04401C68.547 4.84201 68.221 4.74103 67.833 4.74103C67.432 4.74103 67.097 4.84502 66.829 5.05402C66.56 5.26302 66.358 5.549 66.222 5.914C66.086 6.275 66.018 6.68597 66.018 7.14697C66.018 7.61397 66.086 8.024 66.222 8.375C66.361 8.723 66.565 8.995 66.834 9.19C67.105 9.383 67.439 9.479 67.833 9.479ZM76.628 11.149C75.862 11.149 75.201 10.99 74.644 10.672C74.09 10.35 73.665 9.896 73.366 9.31C73.068 8.72 72.919 8.02499 72.919 7.22699C72.919 6.44099 73.068 5.75202 73.366 5.15802C73.668 4.56202 74.089 4.09799 74.629 3.76599C75.169 3.43199 75.804 3.26398 76.533 3.26398C77.004 3.26398 77.448 3.33998 77.866 3.49298C78.287 3.64198 78.658 3.87403 78.979 4.18903C79.304 4.50403 79.559 4.90503 79.745 5.39203C79.93 5.87603 80.023 6.45301 80.023 7.12201V7.67401H73.764V6.461H78.298C78.295 6.116 78.22 5.81002 78.074 5.54102C77.929 5.26902 77.725 5.05602 77.463 4.90002C77.204 4.74402 76.903 4.66602 76.558 4.66602C76.19 4.66602 75.867 4.756 75.589 4.935C75.31 5.11 75.093 5.34198 74.937 5.63098C74.785 5.91598 74.707 6.22901 74.704 6.57001V7.62903C74.704 8.07303 74.785 8.45501 74.947 8.77301C75.11 9.08801 75.337 9.33002 75.628 9.49902C75.92 9.66402 76.261 9.74701 76.653 9.74701C76.914 9.74701 77.151 9.711 77.363 9.638C77.576 9.562 77.76 9.45099 77.915 9.30499C78.071 9.15899 78.189 8.978 78.268 8.763L79.949 8.95203C79.843 9.39603 79.64 9.78399 79.342 10.115C79.047 10.443 78.669 10.698 78.209 10.881C77.748 11.06 77.221 11.149 76.628 11.149ZM81.546 11V3.36401H83.291V4.63599H83.37C83.51 4.19599 83.748 3.856 84.086 3.617C84.428 3.375 84.817 3.25403 85.255 3.25403C85.354 3.25403 85.465 3.25898 85.588 3.26898C85.714 3.27598 85.818 3.28702 85.901 3.30402V4.96002C85.825 4.93302 85.704 4.91001 85.538 4.89001C85.376 4.86701 85.218 4.85498 85.066 4.85498C84.738 4.85498 84.443 4.92597 84.181 5.06897C83.922 5.20797 83.718 5.402 83.569 5.651C83.42 5.899 83.346 6.18599 83.346 6.51099V11H81.546Z" fill="#5F6980"/>
</svg>
