<svg width="42" height="12" viewBox="0 0 42 12" fill="none" xmlns="http://www.w3.org/2000/svg">
<path d="M6.80103 3.35999C6.74103 2.85999 6.50001 2.46994 6.07501 2.18994C5.65101 1.90994 5.13098 1.77002 4.51398 1.77002C4.06298 1.77002 3.66899 1.84999 3.33099 1.98999C2.99599 2.13999 2.73398 2.33997 2.54498 2.58997C2.35998 2.84997 2.26703 3.13996 2.26703 3.45996C2.26703 3.72996 2.332 3.97003 2.461 4.16003C2.594 4.36003 2.76302 4.52002 2.96802 4.65002C3.17402 4.77002 3.38901 4.87996 3.61401 4.95996C3.84001 5.03996 4.04702 5.10002 4.23602 5.15002L5.27002 5.43005C5.53502 5.50005 5.83003 5.59997 6.15503 5.71997C6.48303 5.83997 6.79599 6.00997 7.09399 6.21997C7.39599 6.42997 7.64503 6.70003 7.84003 7.03003C8.03603 7.36003 8.13397 7.75999 8.13397 8.23999C8.13397 8.78999 7.98899 9.27998 7.70099 9.72998C7.41599 10.17 6.998 10.52 6.448 10.79C5.901 11.05 5.23702 11.1801 4.45502 11.1801C3.72502 11.1801 3.094 11.06 2.56 10.83C2.03 10.59 1.61198 10.26 1.30798 9.83997C1.00598 9.41997 0.834983 8.93001 0.794983 8.38H2.06799C2.10099 8.76 2.23099 9.07996 2.45599 9.32996C2.68499 9.57996 2.97298 9.76001 3.32098 9.89001C3.67198 10.01 4.05002 10.0699 4.45502 10.0699C4.92502 10.0699 5.34798 9.98997 5.72198 9.83997C6.09698 9.67997 6.393 9.46994 6.612 9.18994C6.831 8.90994 6.94 8.58997 6.94 8.21997C6.94 7.87997 6.84598 7.60001 6.65698 7.39001C6.46798 7.18001 6.21901 7.00999 5.91101 6.87C5.60301 6.74 5.26999 6.62003 4.91199 6.53003L3.659 6.17004C2.864 5.94004 2.23402 5.60994 1.77002 5.18994C1.30602 4.75994 1.07397 4.21002 1.07397 3.52002C1.07397 2.95002 1.22801 2.46003 1.53601 2.03003C1.84801 1.60003 2.265 1.27004 2.789 1.04004C3.316 0.800039 3.90402 0.680054 4.55402 0.680054C5.21002 0.680054 5.79402 0.800029 6.30402 1.03003C6.81402 1.26003 7.21903 1.57999 7.51703 1.98999C7.81903 2.38999 7.97802 2.84999 7.99402 3.35999H6.80103ZM13.323 3.35999V4.35999H9.36499V3.35999H13.323ZM10.519 1.53003H11.692V8.81006C11.692 9.14006 11.74 9.39006 11.836 9.56006C11.936 9.72006 12.061 9.83001 12.214 9.89001C12.37 9.94001 12.534 9.96997 12.706 9.96997C12.835 9.96997 12.941 9.95995 13.024 9.94995C13.107 9.92995 13.173 9.92003 13.223 9.91003L13.462 10.96C13.382 10.99 13.271 11.02 13.129 11.05C12.986 11.08 12.806 11.1 12.587 11.1C12.255 11.1 11.931 11.03 11.612 10.89C11.298 10.74 11.036 10.53 10.827 10.23C10.621 9.93998 10.519 9.57 10.519 9.13V1.53003ZM17.335 11.1801C16.851 11.1801 16.412 11.09 16.017 10.91C15.623 10.72 15.31 10.45 15.078 10.11C14.846 9.74999 14.73 9.32996 14.73 8.82996C14.73 8.38996 14.816 8.04002 14.988 7.77002C15.16 7.49002 15.391 7.27999 15.679 7.12C15.968 6.97 16.286 6.85002 16.634 6.77002C16.985 6.69002 17.338 6.62997 17.693 6.58997C18.157 6.52997 18.533 6.47995 18.821 6.44995C19.113 6.41995 19.325 6.36004 19.458 6.29004C19.593 6.21004 19.661 6.08001 19.661 5.89001V5.84998C19.661 5.35998 19.527 4.97996 19.259 4.70996C18.994 4.42996 18.591 4.30005 18.051 4.30005C17.49 4.30005 17.051 4.42004 16.733 4.67004C16.415 4.91004 16.191 5.16995 16.062 5.44995L14.948 5.05005C15.147 4.59005 15.412 4.22997 15.744 3.96997C16.079 3.70997 16.443 3.53004 16.838 3.42004C17.235 3.32004 17.626 3.26001 18.011 3.26001C18.256 3.26001 18.538 3.28998 18.856 3.34998C19.177 3.40998 19.487 3.52996 19.786 3.70996C20.087 3.88996 20.338 4.16002 20.536 4.52002C20.735 4.88002 20.835 5.35997 20.835 5.96997V11H19.661V9.96997H19.602C19.522 10.13 19.39 10.31 19.204 10.5C19.018 10.69 18.771 10.85 18.463 10.98C18.155 11.11 17.779 11.1801 17.335 11.1801ZM17.514 10.12C17.978 10.12 18.369 10.03 18.687 9.84998C19.008 9.66998 19.25 9.43002 19.413 9.15002C19.579 8.86002 19.661 8.54999 19.661 8.23999V7.16003C19.612 7.22003 19.502 7.27996 19.333 7.32996C19.168 7.36996 18.975 7.40995 18.757 7.44995C18.541 7.47995 18.331 7.51004 18.125 7.54004C17.923 7.56004 17.759 7.57998 17.633 7.59998C17.328 7.63998 17.043 7.70004 16.778 7.79004C16.516 7.88004 16.304 8.00994 16.142 8.18994C15.982 8.35994 15.903 8.59001 15.903 8.89001C15.903 9.30001 16.054 9.60995 16.355 9.81995C16.66 10.0199 17.046 10.12 17.514 10.12ZM26.297 3.35999V4.35999H22.34V3.35999H26.297ZM23.493 1.53003H24.667V8.81006C24.667 9.14006 24.715 9.39006 24.811 9.56006C24.91 9.72006 25.036 9.83001 25.189 9.89001C25.344 9.94001 25.508 9.96997 25.681 9.96997C25.81 9.96997 25.916 9.95995 25.999 9.94995C26.082 9.92995 26.148 9.92003 26.198 9.91003L26.436 10.96C26.357 10.99 26.246 11.02 26.103 11.05C25.961 11.08 25.78 11.1 25.561 11.1C25.23 11.1 24.905 11.03 24.587 10.89C24.272 10.74 24.01 10.53 23.801 10.23C23.596 9.93998 23.493 9.57 23.493 9.13V1.53003ZM32.875 7.88V3.35999H34.048V11H32.875V9.70996H32.795C32.616 10.1 32.338 10.42 31.96 10.7C31.582 10.97 31.105 11.1 30.528 11.1C30.051 11.1 29.627 11 29.255 10.79C28.884 10.57 28.592 10.26 28.38 9.82996C28.168 9.39996 28.062 8.86997 28.062 8.21997V3.35999H29.235V8.14001C29.235 8.69001 29.391 9.13997 29.703 9.46997C30.018 9.79997 30.419 9.96997 30.906 9.96997C31.198 9.96997 31.494 9.88999 31.796 9.73999C32.101 9.58999 32.356 9.36006 32.561 9.06006C32.77 8.75006 32.875 8.36 32.875 7.88ZM41.606 5.06995L40.552 5.37C40.486 5.2 40.388 5.02999 40.259 4.85999C40.133 4.68999 39.96 4.54994 39.742 4.43994C39.523 4.32994 39.243 4.28003 38.901 4.28003C38.434 4.28003 38.045 4.38998 37.733 4.59998C37.425 4.80998 37.271 5.08003 37.271 5.41003C37.271 5.70003 37.377 5.92998 37.589 6.09998C37.801 6.26998 38.133 6.41003 38.583 6.53003L39.717 6.80005C40.4 6.97005 40.908 7.22006 41.243 7.56006C41.578 7.90006 41.745 8.34 41.745 8.87C41.745 9.30999 41.619 9.70005 41.367 10.05C41.119 10.39 40.771 10.66 40.323 10.86C39.876 11.06 39.356 11.16 38.762 11.16C37.983 11.16 37.339 10.99 36.828 10.65C36.318 10.31 35.995 9.82004 35.859 9.17004L36.972 8.89001C37.079 9.30001 37.279 9.60995 37.574 9.81995C37.872 10.0199 38.262 10.12 38.742 10.12C39.289 10.12 39.723 10.01 40.045 9.78003C40.37 9.54003 40.532 9.26005 40.532 8.93005C40.532 8.67005 40.439 8.44002 40.254 8.27002C40.068 8.08002 39.783 7.94999 39.399 7.85999L38.126 7.56006C37.427 7.39006 36.913 7.14004 36.585 6.79004C36.26 6.44004 36.097 5.99997 36.097 5.46997C36.097 5.03997 36.218 4.65996 36.46 4.32996C36.706 3.99996 37.039 3.74005 37.46 3.55005C37.884 3.36005 38.365 3.26001 38.901 3.26001C39.657 3.26001 40.25 3.43001 40.681 3.76001C41.115 4.09001 41.424 4.52995 41.606 5.06995Z" fill="#5F6980"/>
</svg>
