<svg width="21" height="10" viewBox="0 0 21 10" fill="none" xmlns="http://www.w3.org/2000/svg">
<path d="M0.0300293 1.21002V0.27301H6.57996V1.21002H3.82996V9H2.78003V1.21002H0.0300293ZM9.07996 5.06201V9H8.06995V0.27301H9.07996V3.47699H9.16003C9.32003 3.13899 9.54998 2.871 9.84998 2.672C10.16 2.47 10.57 2.36902 11.09 2.36902C11.54 2.36902 11.93 2.459 12.26 2.638C12.6 2.814 12.86 3.08503 13.04 3.45203C13.23 3.81503 13.3199 4.278 13.3199 4.841V9H12.3199V4.909C12.3199 4.389 12.18 3.987 11.91 3.703C11.64 3.416 11.27 3.27301 10.8 3.27301C10.47 3.27301 10.17 3.34199 9.91003 3.48199C9.65003 3.62099 9.45005 3.824 9.30005 4.091C9.15005 4.358 9.07996 4.68201 9.07996 5.06201ZM19.29 6.32397V2.45502H20.29V9H19.29V7.89203H19.22C19.07 8.22403 18.83 8.50699 18.5 8.73999C18.18 8.96999 17.77 9.08502 17.28 9.08502C16.87 9.08502 16.5001 8.99602 16.1801 8.81702C15.8701 8.63502 15.6201 8.36202 15.4301 7.99902C15.2501 7.63202 15.16 7.17001 15.16 6.61401V2.45502H16.17V6.54498C16.17 7.02298 16.2999 7.40299 16.5699 7.68799C16.8399 7.97199 17.18 8.11401 17.6 8.11401C17.85 8.11401 18.1 8.05 18.36 7.922C18.62 7.794 18.84 7.59798 19.02 7.33398C19.2 7.06998 19.29 6.73297 19.29 6.32397Z" fill="#9D9FA2"/>
</svg>
