<svg width="120" height="18" viewBox="0 0 120 18" fill="none" xmlns="http://www.w3.org/2000/svg">
<path d="M2.66302 0.908997V14H0.291016V0.908997H2.66302ZM7.44202 8.24701V14H5.12802V4.18201H7.34003V5.84998H7.45502C7.68102 5.29998 8.04103 4.86398 8.53503 4.53998C9.03403 4.21598 9.65003 4.05402 10.383 4.05402C11.06 4.05402 11.65 4.19901 12.153 4.48901C12.66 4.77801 13.052 5.19799 13.329 5.74799C13.611 6.29799 13.749 6.96402 13.745 7.74902V14H11.431V8.10699C11.431 7.44999 11.26 6.93698 10.92 6.56598C10.583 6.19498 10.116 6.01001 9.52002 6.01001C9.11502 6.01001 8.75503 6.09902 8.43903 6.27802C8.12803 6.45302 7.88304 6.707 7.70404 7.039C7.53004 7.371 7.44202 7.77401 7.44202 8.24701ZM23.857 6.77698L21.748 7.00702C21.688 6.79402 21.584 6.59401 21.434 6.40601C21.29 6.21901 21.094 6.06703 20.846 5.95203C20.599 5.83703 20.297 5.78003 19.939 5.78003C19.457 5.78003 19.052 5.88402 18.724 6.09302C18.4 6.30202 18.241 6.57203 18.245 6.90503C18.241 7.19003 18.345 7.42299 18.558 7.60199C18.775 7.78099 19.133 7.92803 19.632 8.04303L21.307 8.401C22.236 8.601 22.926 8.91803 23.378 9.35303C23.834 9.78803 24.064 10.357 24.068 11.06C24.064 11.678 23.883 12.223 23.525 12.696C23.171 13.165 22.679 13.531 22.048 13.795C21.417 14.06 20.693 14.192 19.875 14.192C18.673 14.192 17.706 13.94 16.973 13.438C16.24 12.93 15.803 12.225 15.662 11.322L17.919 11.104C18.021 11.548 18.238 11.882 18.571 12.108C18.903 12.334 19.336 12.447 19.868 12.447C20.418 12.447 20.859 12.334 21.192 12.108C21.528 11.882 21.697 11.603 21.697 11.271C21.697 10.989 21.588 10.757 21.371 10.574C21.157 10.391 20.825 10.25 20.373 10.152L18.699 9.79999C17.757 9.60399 17.06 9.274 16.608 8.81C16.157 8.341 15.933 7.74902 15.937 7.03302C15.933 6.42802 16.097 5.90302 16.43 5.46002C16.766 5.01302 17.233 4.66799 17.829 4.42499C18.43 4.17799 19.123 4.05402 19.907 4.05402C21.057 4.05402 21.963 4.299 22.623 4.789C23.288 5.279 23.699 5.94198 23.857 6.77698ZM30.879 4.18201V5.97198H25.235V4.18201H30.879ZM26.628 1.83002H28.942V11.047C28.942 11.358 28.989 11.597 29.083 11.763C29.181 11.925 29.308 12.036 29.466 12.095C29.624 12.155 29.798 12.185 29.99 12.185C30.135 12.185 30.267 12.174 30.387 12.153C30.51 12.131 30.604 12.112 30.668 12.095L31.058 13.904C30.934 13.947 30.757 13.994 30.527 14.045C30.301 14.096 30.024 14.126 29.696 14.134C29.117 14.151 28.595 14.064 28.13 13.872C27.666 13.676 27.297 13.374 27.024 12.964C26.756 12.555 26.624 12.044 26.628 11.43V1.83002ZM35.639 14.198C35.017 14.198 34.457 14.087 33.958 13.866C33.464 13.64 33.072 13.308 32.782 12.869C32.496 12.43 32.354 11.888 32.354 11.245C32.354 10.691 32.456 10.233 32.661 9.87097C32.865 9.50897 33.144 9.21898 33.498 9.00098C33.852 8.78398 34.25 8.61997 34.693 8.50897C35.141 8.39397 35.603 8.31101 36.08 8.26001C36.656 8.20001 37.122 8.14698 37.48 8.09998C37.838 8.04898 38.098 7.972 38.26 7.87C38.426 7.763 38.509 7.59899 38.509 7.37799V7.33899C38.509 6.85799 38.366 6.48501 38.081 6.22101C37.795 5.95701 37.384 5.82501 36.847 5.82501C36.281 5.82501 35.831 5.94801 35.499 6.19501C35.17 6.44201 34.949 6.73398 34.834 7.07098L32.673 6.76398C32.844 6.16798 33.125 5.66901 33.517 5.26801C33.909 4.86401 34.388 4.56102 34.955 4.36102C35.522 4.15602 36.148 4.05402 36.835 4.05402C37.308 4.05402 37.778 4.10897 38.247 4.21997C38.716 4.33097 39.144 4.51402 39.532 4.77002C39.92 5.02102 40.231 5.36401 40.465 5.79901C40.704 6.23401 40.823 6.77702 40.823 7.42902V14H38.599V12.651H38.522C38.381 12.924 38.183 13.18 37.928 13.418C37.676 13.653 37.359 13.842 36.975 13.987C36.596 14.128 36.151 14.198 35.639 14.198ZM36.24 12.498C36.705 12.498 37.107 12.406 37.448 12.223C37.789 12.036 38.051 11.788 38.234 11.482C38.422 11.175 38.516 10.84 38.516 10.478V9.32098C38.443 9.38098 38.32 9.436 38.145 9.487C37.974 9.538 37.783 9.58297 37.57 9.62097C37.357 9.65997 37.146 9.694 36.937 9.724C36.728 9.754 36.547 9.77899 36.393 9.79999C36.048 9.84699 35.739 9.92401 35.467 10.031C35.194 10.137 34.979 10.286 34.821 10.478C34.663 10.665 34.585 10.908 34.585 11.207C34.585 11.633 34.74 11.955 35.051 12.172C35.362 12.389 35.759 12.498 36.24 12.498ZM45.464 0.908997V14H43.15V0.908997H45.464ZM50.157 0.908997V14H47.843V0.908997H50.157ZM56.883 14.192C55.899 14.192 55.049 13.987 54.333 13.578C53.621 13.165 53.074 12.581 52.69 11.827C52.306 11.068 52.115 10.175 52.115 9.14801C52.115 8.13801 52.306 7.25201 52.69 6.48901C53.078 5.72201 53.619 5.12601 54.314 4.70001C55.008 4.26901 55.824 4.05402 56.762 4.05402C57.367 4.05402 57.938 4.15202 58.475 4.34802C59.016 4.54002 59.493 4.83798 59.907 5.24298C60.324 5.64798 60.652 6.16298 60.891 6.78998C61.13 7.41198 61.249 8.15298 61.249 9.01398V9.724H53.201V8.164H59.031C59.027 7.721 58.931 7.32699 58.743 6.98199C58.556 6.63199 58.294 6.35698 57.957 6.15698C57.625 5.95698 57.237 5.85699 56.794 5.85699C56.321 5.85699 55.905 5.97203 55.547 6.20203C55.189 6.42803 54.91 6.72599 54.71 7.09698C54.514 7.46299 54.414 7.86599 54.409 8.30499V9.66602C54.409 10.237 54.514 10.727 54.723 11.136C54.931 11.541 55.223 11.852 55.598 12.07C55.973 12.283 56.412 12.389 56.915 12.389C57.252 12.389 57.556 12.342 57.829 12.249C58.102 12.151 58.338 12.008 58.539 11.82C58.739 11.633 58.89 11.401 58.993 11.124L61.153 11.366C61.017 11.937 60.757 12.436 60.373 12.862C59.994 13.284 59.508 13.612 58.916 13.847C58.324 14.077 57.646 14.192 56.883 14.192ZM66.85 14.173C66.079 14.173 65.388 13.974 64.779 13.578C64.17 13.182 63.688 12.607 63.334 11.852C62.981 11.098 62.804 10.182 62.804 9.104C62.804 8.013 62.983 7.09198 63.341 6.34198C63.703 5.58798 64.191 5.01899 64.805 4.63599C65.418 4.24799 66.102 4.05402 66.856 4.05402C67.432 4.05402 67.905 4.15202 68.275 4.34802C68.646 4.54002 68.94 4.77198 69.157 5.04498C69.375 5.31298 69.543 5.56699 69.662 5.80499H69.758V0.908997H72.079V14H69.803V12.453H69.662C69.543 12.692 69.371 12.945 69.145 13.214C68.919 13.478 68.621 13.704 68.25 13.891C67.879 14.079 67.412 14.173 66.85 14.173ZM67.496 12.274C67.986 12.274 68.403 12.142 68.748 11.878C69.094 11.609 69.356 11.237 69.535 10.759C69.714 10.282 69.803 9.726 69.803 9.091C69.803 8.456 69.714 7.904 69.535 7.435C69.36 6.967 69.1 6.60198 68.755 6.34198C68.414 6.08198 67.994 5.95203 67.496 5.95203C66.98 5.95203 66.55 6.08698 66.204 6.35498C65.859 6.62398 65.599 6.99398 65.425 7.46698C65.25 7.93998 65.162 8.482 65.162 9.091C65.162 9.705 65.25 10.252 65.425 10.734C65.604 11.211 65.866 11.588 66.211 11.865C66.56 12.138 66.988 12.274 67.496 12.274ZM81.835 14.198C81.212 14.198 80.652 14.087 80.153 13.866C79.659 13.64 79.267 13.308 78.977 12.869C78.692 12.43 78.549 11.888 78.549 11.245C78.549 10.691 78.651 10.233 78.856 9.87097C79.06 9.50897 79.339 9.21898 79.693 9.00098C80.047 8.78398 80.445 8.61997 80.888 8.50897C81.336 8.39397 81.798 8.31101 82.276 8.26001C82.851 8.20001 83.317 8.14698 83.675 8.09998C84.033 8.04898 84.293 7.972 84.455 7.87C84.621 7.763 84.705 7.59899 84.705 7.37799V7.33899C84.705 6.85799 84.562 6.48501 84.276 6.22101C83.991 5.95701 83.58 5.82501 83.043 5.82501C82.476 5.82501 82.026 5.94801 81.694 6.19501C81.366 6.44201 81.144 6.73398 81.029 7.07098L78.869 6.76398C79.039 6.16798 79.32 5.66901 79.712 5.26801C80.104 4.86401 80.584 4.56102 81.151 4.36102C81.717 4.15602 82.344 4.05402 83.03 4.05402C83.503 4.05402 83.974 4.10897 84.442 4.21997C84.911 4.33097 85.339 4.51402 85.727 4.77002C86.115 5.02102 86.426 5.36401 86.661 5.79901C86.899 6.23401 87.018 6.77702 87.018 7.42902V14H84.794V12.651H84.717C84.577 12.924 84.379 13.18 84.123 13.418C83.871 13.653 83.554 13.842 83.17 13.987C82.791 14.128 82.346 14.198 81.835 14.198ZM82.435 12.498C82.9 12.498 83.303 12.406 83.643 12.223C83.984 12.036 84.246 11.788 84.43 11.482C84.617 11.175 84.711 10.84 84.711 10.478V9.32098C84.638 9.38098 84.515 9.436 84.34 9.487C84.17 9.538 83.978 9.58297 83.765 9.62097C83.552 9.65997 83.341 9.694 83.132 9.724C82.923 9.754 82.742 9.77899 82.589 9.79999C82.244 9.84699 81.935 9.92401 81.662 10.031C81.389 10.137 81.174 10.286 81.016 10.478C80.859 10.665 80.78 10.908 80.78 11.207C80.78 11.633 80.935 11.955 81.246 12.172C81.558 12.389 81.954 12.498 82.435 12.498ZM89.345 17.682V4.18201H91.621V5.80499H91.755C91.874 5.56699 92.043 5.31298 92.26 5.04498C92.477 4.77198 92.771 4.54002 93.142 4.34802C93.513 4.15202 93.986 4.05402 94.561 4.05402C95.32 4.05402 96.004 4.24799 96.613 4.63599C97.227 5.01899 97.712 5.58798 98.07 6.34198C98.433 7.09198 98.614 8.013 98.614 9.104C98.614 10.182 98.437 11.098 98.083 11.852C97.729 12.607 97.248 13.182 96.638 13.578C96.029 13.974 95.339 14.173 94.567 14.173C94.005 14.173 93.538 14.079 93.168 13.891C92.797 13.704 92.499 13.478 92.273 13.214C92.051 12.945 91.879 12.692 91.755 12.453H91.659V17.682H89.345ZM91.614 9.091C91.614 9.726 91.704 10.282 91.883 10.759C92.066 11.237 92.328 11.609 92.669 11.878C93.014 12.142 93.432 12.274 93.922 12.274C94.433 12.274 94.862 12.138 95.207 11.865C95.552 11.588 95.812 11.211 95.987 10.734C96.165 10.252 96.255 9.705 96.255 9.091C96.255 8.482 96.168 7.93998 95.993 7.46698C95.818 6.99398 95.558 6.62398 95.213 6.35498C94.868 6.08698 94.438 5.95203 93.922 5.95203C93.428 5.95203 93.008 6.08198 92.663 6.34198C92.317 6.60198 92.055 6.967 91.876 7.435C91.702 7.904 91.614 8.456 91.614 9.091ZM100.595 17.682V4.18201H102.871V5.80499H103.005C103.124 5.56699 103.293 5.31298 103.51 5.04498C103.727 4.77198 104.021 4.54002 104.392 4.34802C104.763 4.15202 105.236 4.05402 105.811 4.05402C106.57 4.05402 107.254 4.24799 107.863 4.63599C108.477 5.01899 108.962 5.58798 109.32 6.34198C109.683 7.09198 109.864 8.013 109.864 9.104C109.864 10.182 109.687 11.098 109.333 11.852C108.979 12.607 108.498 13.182 107.888 13.578C107.279 13.974 106.589 14.173 105.817 14.173C105.255 14.173 104.788 14.079 104.418 13.891C104.047 13.704 103.749 13.478 103.523 13.214C103.301 12.945 103.129 12.692 103.005 12.453H102.909V17.682H100.595ZM102.864 9.091C102.864 9.726 102.954 10.282 103.133 10.759C103.316 11.237 103.578 11.609 103.919 11.878C104.264 12.142 104.682 12.274 105.172 12.274C105.683 12.274 106.112 12.138 106.457 11.865C106.802 11.588 107.062 11.211 107.237 10.734C107.415 10.252 107.505 9.705 107.505 9.091C107.505 8.482 107.418 7.93998 107.243 7.46698C107.068 6.99398 106.808 6.62398 106.463 6.35498C106.118 6.08698 105.688 5.95203 105.172 5.95203C104.678 5.95203 104.258 6.08198 103.913 6.34198C103.567 6.60198 103.305 6.967 103.126 7.435C102.952 7.904 102.864 8.456 102.864 9.091ZM119.605 6.77698L117.496 7.00702C117.436 6.79402 117.332 6.59401 117.183 6.40601C117.038 6.21901 116.842 6.06703 116.594 5.95203C116.347 5.83703 116.045 5.78003 115.687 5.78003C115.205 5.78003 114.8 5.88402 114.472 6.09302C114.148 6.30202 113.989 6.57203 113.993 6.90503C113.989 7.19003 114.093 7.42299 114.306 7.60199C114.523 7.78099 114.881 7.92803 115.38 8.04303L117.055 8.401C117.984 8.601 118.674 8.91803 119.126 9.35303C119.582 9.78803 119.812 10.357 119.816 11.06C119.812 11.678 119.631 12.223 119.273 12.696C118.919 13.165 118.427 13.531 117.796 13.795C117.165 14.06 116.441 14.192 115.623 14.192C114.421 14.192 113.454 13.94 112.721 13.438C111.988 12.93 111.551 12.225 111.411 11.322L113.667 11.104C113.769 11.548 113.987 11.882 114.319 12.108C114.651 12.334 115.084 12.447 115.616 12.447C116.166 12.447 116.607 12.334 116.94 12.108C117.276 11.882 117.445 11.603 117.445 11.271C117.445 10.989 117.336 10.757 117.119 10.574C116.906 10.391 116.573 10.25 116.121 10.152L114.447 9.79999C113.505 9.60399 112.808 9.274 112.357 8.81C111.905 8.341 111.681 7.74902 111.685 7.03302C111.681 6.42802 111.845 5.90302 112.178 5.46002C112.514 5.01302 112.981 4.66799 113.577 4.42499C114.178 4.17799 114.871 4.05402 115.655 4.05402C116.805 4.05402 117.711 4.299 118.371 4.789C119.036 5.279 119.447 5.94198 119.605 6.77698Z" fill="#282828"/>
</svg>
