<svg width="54" height="12" viewBox="0 0 54 12" fill="none" xmlns="http://www.w3.org/2000/svg">
<path d="M9.81995 5.91003C9.81995 6.98003 9.62999 7.90994 9.23999 8.68994C8.84999 9.47994 8.32002 10.08 7.65002 10.5C6.97002 10.93 6.19996 11.14 5.32996 11.14C4.45996 11.14 3.69001 10.93 3.01001 10.5C2.34001 10.08 1.80004 9.47994 1.42004 8.68994C1.03004 7.90994 0.839966 6.98003 0.839966 5.91003C0.839966 4.84003 1.03004 3.91 1.42004 3.12C1.80004 2.34 2.34001 1.73995 3.01001 1.31995C3.69001 0.889946 4.45996 0.680054 5.32996 0.680054C6.19996 0.680054 6.97002 0.889946 7.65002 1.31995C8.32002 1.73995 8.84999 2.34 9.23999 3.12C9.62999 3.91 9.81995 4.84003 9.81995 5.91003ZM8.63 5.91003C8.63 5.03003 8.47994 4.28005 8.18994 3.68005C7.89994 3.07005 7.5 2.61005 7 2.30005C6.5 1.99005 5.94996 1.82996 5.32996 1.82996C4.70996 1.82996 4.15002 1.99005 3.65002 2.30005C3.16002 2.61005 2.75997 3.07005 2.46997 3.68005C2.16997 4.28005 2.03003 5.03003 2.03003 5.91003C2.03003 6.79003 2.16997 7.53001 2.46997 8.14001C2.75997 8.75001 3.16002 9.21002 3.65002 9.52002C4.15002 9.83002 4.70996 9.98999 5.32996 9.98999C5.94996 9.98999 6.5 9.83002 7 9.52002C7.5 9.21002 7.89994 8.75001 8.18994 8.14001C8.47994 7.53001 8.63 6.79003 8.63 5.91003ZM14.84 11.16C14.12 11.16 13.51 10.99 12.99 10.65C12.47 10.31 12.08 9.85 11.8 9.25C11.52 8.66 11.38 7.97997 11.38 7.21997C11.38 6.44997 11.5201 5.76004 11.8101 5.17004C12.1001 4.57004 12.5 4.11002 13.01 3.77002C13.53 3.43002 14.1299 3.26001 14.8199 3.26001C15.3599 3.26001 15.84 3.36006 16.27 3.56006C16.7 3.76006 17.06 4.04002 17.33 4.40002C17.61 4.76002 17.78 5.17002 17.84 5.65002H16.67C16.58 5.30002 16.3799 4.98998 16.0699 4.72998C15.7699 4.44998 15.36 4.31995 14.84 4.31995C14.38 4.31995 13.98 4.44005 13.64 4.68005C13.3 4.91005 13.03 5.24005 12.84 5.68005C12.65 6.10005 12.55 6.61005 12.55 7.18005C12.55 7.77005 12.65 8.28997 12.83 8.71997C13.02 9.15997 13.29 9.49999 13.63 9.73999C13.97 9.97999 14.38 10.11 14.84 10.11C15.15 10.11 15.42 10.05 15.67 9.94995C15.92 9.83995 16.13 9.68999 16.3 9.48999C16.47 9.28999 16.6 9.05002 16.67 8.77002H17.84C17.78 9.22002 17.61 9.62999 17.35 9.98999C17.09 10.35 16.7499 10.63 16.3199 10.85C15.8999 11.05 15.4 11.16 14.84 11.16ZM22.88 3.35999V4.35999H18.92V3.35999H22.88ZM20.08 1.53003H21.25V8.81006C21.25 9.14006 21.3 9.39006 21.39 9.56006C21.49 9.72006 21.62 9.83001 21.77 9.89001C21.93 9.94001 22.09 9.96997 22.26 9.96997C22.39 9.96997 22.5 9.95995 22.58 9.94995C22.66 9.92995 22.73 9.92003 22.78 9.91003L23.02 10.96C22.94 10.99 22.8299 11.02 22.6899 11.05C22.5399 11.08 22.36 11.1 22.14 11.1C21.81 11.1 21.49 11.03 21.17 10.89C20.85 10.74 20.59 10.53 20.38 10.23C20.18 9.93998 20.08 9.57 20.08 9.13V1.53003ZM27.66 11.16C26.98 11.16 26.37 11 25.85 10.67C25.33 10.34 24.93 9.88004 24.64 9.29004C24.35 8.70004 24.2 8.00997 24.2 7.21997C24.2 6.42997 24.35 5.73001 24.64 5.14001C24.93 4.55001 25.33 4.08001 25.85 3.76001C26.37 3.43001 26.98 3.26001 27.66 3.26001C28.35 3.26001 28.96 3.43001 29.47 3.76001C29.99 4.08001 30.3999 4.55001 30.6899 5.14001C30.9799 5.73001 31.12 6.42997 31.12 7.21997C31.12 8.00997 30.9799 8.70004 30.6899 9.29004C30.3999 9.88004 29.99 10.34 29.47 10.67C28.96 11 28.35 11.16 27.66 11.16ZM27.66 10.11C28.19 10.11 28.62 9.96995 28.96 9.69995C29.3 9.42995 29.55 9.08001 29.71 8.64001C29.87 8.21001 29.95 7.72997 29.95 7.21997C29.95 6.70997 29.87 6.24004 29.71 5.79004C29.55 5.35004 29.3 4.99998 28.96 4.72998C28.62 4.44998 28.19 4.31995 27.66 4.31995C27.14 4.31995 26.71 4.44998 26.37 4.72998C26.03 4.99998 25.78 5.35004 25.62 5.79004C25.46 6.24004 25.38 6.70997 25.38 7.21997C25.38 7.72997 25.46 8.21001 25.62 8.64001C25.78 9.08001 26.03 9.42995 26.37 9.69995C26.71 9.96995 27.14 10.11 27.66 10.11ZM33.0699 11V0.819946H34.25V4.57996H34.35C34.43 4.43996 34.55 4.27995 34.71 4.06995C34.86 3.85995 35.08 3.68001 35.37 3.51001C35.66 3.35001 36.06 3.26001 36.55 3.26001C37.2001 3.26001 37.76 3.42 38.26 3.75C38.75 4.07 39.13 4.51999 39.4 5.10999C39.68 5.69999 39.8199 6.39995 39.8199 7.19995C39.8199 8.00995 39.68 8.71005 39.4 9.30005C39.13 9.89005 38.75 10.3501 38.26 10.6801C37.77 11.0001 37.2099 11.16 36.5699 11.16C36.0799 11.16 35.69 11.08 35.4 10.92C35.1 10.75 34.87 10.56 34.72 10.35C34.56 10.14 34.43 9.96996 34.35 9.82996H34.21V11H33.0699ZM34.23 7.18005C34.23 7.76005 34.31 8.26996 34.48 8.70996C34.65 9.14996 34.9 9.48999 35.22 9.73999C35.55 9.97999 35.95 10.11 36.42 10.11C36.91 10.11 37.32 9.97997 37.64 9.71997C37.98 9.45997 38.22 9.10003 38.39 8.66003C38.56 8.22003 38.64 7.73005 38.64 7.18005C38.64 6.64005 38.56 6.15998 38.39 5.72998C38.23 5.29998 37.99 4.94995 37.65 4.69995C37.33 4.44995 36.91 4.31995 36.42 4.31995C35.94 4.31995 35.54 4.44005 35.21 4.68005C34.89 4.92005 34.64 5.24994 34.48 5.68994C34.31 6.10994 34.23 6.61005 34.23 7.18005ZM44.8101 11.16C44.0801 11.16 43.44 11 42.91 10.67C42.38 10.34 41.9701 9.89005 41.6801 9.30005C41.4001 8.71005 41.25 8.01999 41.25 7.23999C41.25 6.45999 41.4001 5.77004 41.6801 5.17004C41.9701 4.57004 42.37 4.11002 42.88 3.77002C43.4 3.43002 43.9999 3.26001 44.6899 3.26001C45.0899 3.26001 45.48 3.32996 45.87 3.45996C46.26 3.59996 46.6101 3.80999 46.9301 4.10999C47.2501 4.39999 47.4999 4.80003 47.6899 5.28003C47.8799 5.77003 47.97 6.36996 47.97 7.07996V7.57996H42.09V6.56995H46.78C46.78 6.12995 46.7 5.75003 46.52 5.41003C46.35 5.07003 46.1101 4.80999 45.8 4.60999C45.49 4.41999 45.1199 4.31995 44.6899 4.31995C44.2299 4.31995 43.82 4.43004 43.48 4.67004C43.14 4.89004 42.88 5.19006 42.7 5.56006C42.52 5.93006 42.4301 6.31999 42.4301 6.73999V7.42004C42.4301 8.00004 42.53 8.49001 42.72 8.89001C42.93 9.28001 43.2101 9.59005 43.5601 9.80005C43.9201 10 44.3401 10.11 44.8101 10.11C45.1201 10.11 45.4 10.06 45.65 9.97998C45.9 9.88998 46.12 9.74996 46.3 9.57996C46.48 9.39996 46.62 9.18003 46.72 8.91003L47.86 9.22998C47.74 9.60998 47.54 9.94999 47.25 10.24C46.97 10.53 46.62 10.76 46.21 10.92C45.8 11.08 45.3301 11.16 44.8101 11.16ZM49.76 11V3.35999H50.89V4.52002H50.97C51.11 4.14002 51.36 3.82998 51.73 3.59998C52.09 3.35998 52.5 3.23999 52.96 3.23999C53.05 3.23999 53.16 3.25 53.28 3.25C53.41 3.25 53.51 3.26001 53.58 3.26001V4.45996C53.54 4.44996 53.4501 4.43003 53.3 4.41003C53.16 4.39003 53.02 4.38 52.86 4.38C52.49 4.38 52.16 4.45999 51.87 4.60999C51.58 4.75999 51.3501 4.98 51.1801 5.25C51.0201 5.52 50.9301 5.82004 50.9301 6.17004V11H49.76Z" fill="#5F6980"/>
</svg>
