<svg width="65" height="15" viewBox="0 0 65 15" fill="none" xmlns="http://www.w3.org/2000/svg">
<path d="M0.22998 0.819946H1.69995L5.16003 9.27002H5.28003L8.73999 0.819946H10.22V11H9.06006V3.26001H8.95996L5.78003 11H4.67004L1.48999 3.26001H1.39001V11H0.22998V0.819946ZM14.78 11.1801C14.29 11.1801 13.85 11.09 13.46 10.91C13.06 10.72 12.75 10.45 12.52 10.11C12.29 9.74999 12.17 9.32996 12.17 8.82996C12.17 8.38996 12.2601 8.04002 12.4301 7.77002C12.6001 7.49002 12.83 7.27999 13.12 7.12C13.41 6.97 13.73 6.85002 14.08 6.77002C14.43 6.69002 14.78 6.62997 15.13 6.58997C15.6 6.52997 15.97 6.47995 16.26 6.44995C16.55 6.41995 16.77 6.36004 16.9 6.29004C17.03 6.21004 17.1 6.08001 17.1 5.89001V5.84998C17.1 5.35998 16.97 4.97996 16.7 4.70996C16.43 4.42996 16.03 4.30005 15.49 4.30005C14.93 4.30005 14.49 4.42004 14.17 4.67004C13.86 4.91004 13.63 5.16995 13.5 5.44995L12.39 5.05005C12.59 4.59005 12.8499 4.22997 13.1899 3.96997C13.5199 3.70997 13.88 3.53004 14.28 3.42004C14.68 3.32004 15.07 3.26001 15.45 3.26001C15.7 3.26001 15.98 3.28998 16.3 3.34998C16.62 3.40998 16.93 3.52996 17.23 3.70996C17.53 3.88996 17.78 4.16002 17.98 4.52002C18.18 4.88002 18.28 5.35997 18.28 5.96997V11H17.1V9.96997H17.04C16.96 10.13 16.83 10.31 16.65 10.5C16.46 10.69 16.21 10.85 15.9 10.98C15.6 11.11 15.22 11.1801 14.78 11.1801ZM14.96 10.12C15.42 10.12 15.81 10.03 16.13 9.84998C16.45 9.66998 16.69 9.43002 16.85 9.15002C17.02 8.86002 17.1 8.54999 17.1 8.23999V7.16003C17.05 7.22003 16.94 7.27996 16.77 7.32996C16.61 7.36996 16.42 7.40995 16.2 7.44995C15.98 7.47995 15.7699 7.51004 15.5699 7.54004C15.3599 7.56004 15.1999 7.57998 15.0699 7.59998C14.7699 7.63998 14.48 7.70004 14.22 7.79004C13.96 7.88004 13.75 8.00994 13.58 8.18994C13.42 8.35994 13.34 8.59001 13.34 8.89001C13.34 9.30001 13.5 9.60995 13.8 9.81995C14.1 10.0199 14.49 10.12 14.96 10.12ZM20.42 11V3.35999H21.55V4.52002H21.63C21.77 4.14002 22.02 3.82998 22.39 3.59998C22.75 3.35998 23.16 3.23999 23.62 3.23999C23.71 3.23999 23.8099 3.25 23.9399 3.25C24.0699 3.25 24.17 3.26001 24.24 3.26001V4.45996C24.2 4.44996 24.1 4.43003 23.96 4.41003C23.82 4.39003 23.68 4.38 23.52 4.38C23.15 4.38 22.82 4.45999 22.53 4.60999C22.24 4.75999 22.01 4.98 21.84 5.25C21.67 5.52 21.59 5.82004 21.59 6.17004V11H20.42ZM26.72 8.21997L26.7 6.76001H26.9399L30.28 3.35999H31.73L28.17 6.95996H28.0699L26.72 8.21997ZM25.63 11V0.819946H26.8V11H25.63ZM30.48 11L27.5 7.21997L28.33 6.41003L31.97 11H30.48ZM36.13 11.16C35.39 11.16 34.76 11 34.22 10.67C33.69 10.34 33.29 9.89005 33 9.30005C32.71 8.71005 32.5699 8.01999 32.5699 7.23999C32.5699 6.45999 32.71 5.77004 33 5.17004C33.29 4.57004 33.69 4.11002 34.2 3.77002C34.72 3.43002 35.32 3.26001 36.01 3.26001C36.41 3.26001 36.7999 3.32996 37.1899 3.45996C37.5799 3.59996 37.93 3.80999 38.25 4.10999C38.57 4.39999 38.82 4.80003 39.01 5.28003C39.2 5.77003 39.29 6.36996 39.29 7.07996V7.57996H33.4V6.56995H38.1C38.1 6.12995 38.01 5.75003 37.84 5.41003C37.67 5.07003 37.43 4.80999 37.11 4.60999C36.8 4.41999 36.43 4.31995 36.01 4.31995C35.54 4.31995 35.14 4.43004 34.8 4.67004C34.46 4.89004 34.2 5.19006 34.02 5.56006C33.83 5.93006 33.74 6.31999 33.74 6.73999V7.42004C33.74 8.00004 33.84 8.49001 34.04 8.89001C34.24 9.28001 34.52 9.59005 34.88 9.80005C35.24 10 35.66 10.11 36.13 10.11C36.44 10.11 36.72 10.06 36.96 9.97998C37.22 9.88998 37.43 9.74996 37.62 9.57996C37.8 9.39996 37.94 9.18003 38.04 8.91003L39.17 9.22998C39.05 9.60998 38.8499 9.94999 38.5699 10.24C38.2899 10.53 37.94 10.76 37.53 10.92C37.11 11.08 36.65 11.16 36.13 11.16ZM44.4 3.35999V4.35999H40.4399V3.35999H44.4ZM41.59 1.53003H42.77V8.81006C42.77 9.14006 42.81 9.39006 42.91 9.56006C43.01 9.72006 43.14 9.83001 43.29 9.89001C43.44 9.94001 43.61 9.96997 43.78 9.96997C43.91 9.96997 44.02 9.95995 44.1 9.94995C44.18 9.92995 44.25 9.92003 44.3 9.91003L44.54 10.96C44.46 10.99 44.35 11.02 44.2 11.05C44.06 11.08 43.88 11.1 43.66 11.1C43.33 11.1 42.9999 11.03 42.6899 10.89C42.3699 10.74 42.11 10.53 41.9 10.23C41.7 9.93998 41.59 9.57 41.59 9.13V1.53003ZM46.16 11V3.35999H47.34V11H46.16ZM46.76 2.08997C46.53 2.08997 46.33 2.00999 46.17 1.85999C46 1.69999 45.92 1.51005 45.92 1.30005C45.92 1.08005 46 0.88998 46.17 0.72998C46.33 0.57998 46.53 0.5 46.76 0.5C46.99 0.5 47.18 0.57998 47.34 0.72998C47.51 0.88998 47.59 1.08005 47.59 1.30005C47.59 1.51005 47.51 1.69999 47.34 1.85999C47.18 2.00999 46.99 2.08997 46.76 2.08997ZM50.66 6.41003V11H49.48V3.35999H50.62V4.56006H50.72C50.9 4.17006 51.17 3.86 51.53 3.62C51.9 3.38 52.3699 3.26001 52.9399 3.26001C53.4599 3.26001 53.91 3.36996 54.3 3.57996C54.69 3.78996 54.99 4.11004 55.21 4.54004C55.42 4.96004 55.53 5.50002 55.53 6.15002V11H54.36V6.22998C54.36 5.62998 54.2 5.15996 53.89 4.82996C53.58 4.48996 53.15 4.31995 52.61 4.31995C52.23 4.31995 51.9 4.40006 51.6 4.56006C51.31 4.72006 51.08 4.96002 50.91 5.27002C50.74 5.58002 50.66 5.96003 50.66 6.41003ZM60.76 14.02C60.19 14.02 59.7 13.95 59.29 13.8C58.89 13.66 58.55 13.47 58.28 13.24C58.01 13.01 57.79 12.76 57.63 12.49L58.5699 11.84C58.6699 11.97 58.81 12.1301 58.97 12.3101C59.13 12.4901 59.36 12.65 59.64 12.78C59.92 12.92 60.3 12.99 60.76 12.99C61.37 12.99 61.88 12.84 62.28 12.54C62.68 12.24 62.88 11.78 62.88 11.14V9.58997H62.78C62.7 9.72997 62.58 9.89999 62.42 10.11C62.26 10.31 62.04 10.49 61.74 10.65C61.45 10.8 61.0501 10.88 60.5601 10.88C59.9401 10.88 59.39 10.7299 58.9 10.4399C58.41 10.1499 58.02 9.73004 57.74 9.17004C57.46 8.61004 57.3199 7.94001 57.3199 7.14001C57.3199 6.36001 57.45 5.67998 57.73 5.09998C58 4.51998 58.39 4.06 58.88 3.75C59.37 3.42 59.93 3.26001 60.58 3.26001C61.07 3.26001 61.47 3.35001 61.76 3.51001C62.06 3.68001 62.2799 3.85995 62.4399 4.06995C62.5999 4.27995 62.72 4.43996 62.8 4.57996H62.92V3.35999H64.0601V11.22C64.0601 11.88 63.91 12.4099 63.61 12.8199C63.31 13.2299 62.92 13.54 62.42 13.73C61.92 13.92 61.37 14.02 60.76 14.02ZM60.72 9.82996C61.19 9.82996 61.58 9.72 61.91 9.5C62.23 9.29 62.48 8.97995 62.65 8.56995C62.82 8.16995 62.9 7.69 62.9 7.12C62.9 6.56999 62.82 6.09004 62.66 5.67004C62.49 5.24004 62.24 4.91005 61.92 4.68005C61.59 4.44005 61.19 4.31995 60.72 4.31995C60.22 4.31995 59.8 4.43995 59.47 4.69995C59.15 4.94995 58.9 5.28996 58.73 5.70996C58.57 6.12996 58.49 6.60999 58.49 7.12C58.49 7.64999 58.57 8.12003 58.74 8.53003C58.91 8.93003 59.16 9.24998 59.48 9.47998C59.81 9.70998 60.23 9.82996 60.72 9.82996Z" fill="#5F6980"/>
</svg>
