<svg width="58" height="14" viewBox="0 0 58 14" fill="none" xmlns="http://www.w3.org/2000/svg">
<path d="M0.22998 11V0.819946H6.33997V1.91003H1.46997V5.34998H5.88V6.44995H1.46997V11H0.22998ZM10.9301 11.16C10.2001 11.16 9.56003 11 9.03003 10.67C8.50003 10.34 8.09005 9.89005 7.80005 9.30005C7.51005 8.71005 7.37 8.01999 7.37 7.23999C7.37 6.45999 7.51005 5.77004 7.80005 5.17004C8.09005 4.57004 8.49 4.11002 9 3.77002C9.52 3.43002 10.1201 3.26001 10.8101 3.26001C11.2101 3.26001 11.6 3.32996 11.99 3.45996C12.38 3.59996 12.73 3.80999 13.05 4.10999C13.37 4.39999 13.6201 4.80003 13.8101 5.28003C14.0001 5.77003 14.09 6.36996 14.09 7.07996V7.57996H8.20996V6.56995H12.9C12.9 6.12995 12.81 5.75003 12.64 5.41003C12.47 5.07003 12.23 4.80999 11.92 4.60999C11.6 4.41999 11.2401 4.31995 10.8101 4.31995C10.3501 4.31995 9.93998 4.43004 9.59998 4.67004C9.25998 4.89004 8.99995 5.19006 8.81995 5.56006C8.63995 5.93006 8.55005 6.31999 8.55005 6.73999V7.42004C8.55005 8.00004 8.63997 8.49001 8.83997 8.89001C9.04997 9.28001 9.33005 9.59005 9.68005 9.80005C10.0401 10 10.4601 10.11 10.9301 10.11C11.2401 10.11 11.52 10.06 11.77 9.97998C12.02 9.88998 12.24 9.74996 12.42 9.57996C12.6 9.39996 12.74 9.18003 12.84 8.91003L13.97 9.22998C13.86 9.60998 13.65 9.94999 13.37 10.24C13.09 10.53 12.74 10.76 12.33 10.92C11.91 11.08 11.4501 11.16 10.9301 11.16ZM16.04 11V0.819946H17.21V4.57996H17.3101C17.4001 4.43996 17.52 4.27995 17.67 4.06995C17.82 3.85995 18.05 3.68001 18.33 3.51001C18.63 3.35001 19.02 3.26001 19.52 3.26001C20.16 3.26001 20.73 3.42 21.22 3.75C21.71 4.07 22.09 4.51999 22.37 5.10999C22.64 5.69999 22.78 6.39995 22.78 7.19995C22.78 8.00995 22.64 8.71005 22.37 9.30005C22.09 9.89005 21.71 10.3501 21.22 10.6801C20.74 11.0001 20.17 11.16 19.54 11.16C19.05 11.16 18.65 11.08 18.36 10.92C18.06 10.75 17.8401 10.56 17.6801 10.35C17.5201 10.14 17.4001 9.96996 17.3101 9.82996H17.17V11H16.04ZM17.1899 7.18005C17.1899 7.76005 17.2799 8.26996 17.4399 8.70996C17.6099 9.14996 17.8599 9.48999 18.1899 9.73999C18.5099 9.97999 18.91 10.11 19.38 10.11C19.87 10.11 20.28 9.97997 20.61 9.71997C20.94 9.45997 21.19 9.10003 21.35 8.66003C21.52 8.22003 21.61 7.73005 21.61 7.18005C21.61 6.64005 21.52 6.15998 21.36 5.72998C21.19 5.29998 20.95 4.94995 20.62 4.69995C20.29 4.44995 19.88 4.31995 19.38 4.31995C18.9 4.31995 18.5001 4.44005 18.1801 4.68005C17.8501 4.92005 17.6099 5.24994 17.4399 5.68994C17.2699 6.10994 17.1899 6.61005 17.1899 7.18005ZM24.5699 11V3.35999H25.71V4.52002H25.79C25.93 4.14002 26.18 3.82998 26.54 3.59998C26.91 3.35998 27.32 3.23999 27.78 3.23999C27.86 3.23999 27.97 3.25 28.1 3.25C28.23 3.25 28.33 3.26001 28.39 3.26001V4.45996C28.35 4.44996 28.26 4.43003 28.12 4.41003C27.98 4.39003 27.8301 4.38 27.6801 4.38C27.3001 4.38 26.9701 4.45999 26.6801 4.60999C26.3901 4.75999 26.16 4.98 26 5.25C25.83 5.52 25.75 5.82004 25.75 6.17004V11H24.5699ZM34.6 7.88V3.35999H35.77V11H34.6V9.70996H34.52C34.34 10.1 34.0601 10.42 33.6801 10.7C33.3001 10.97 32.83 11.1 32.25 11.1C31.77 11.1 31.35 11 30.98 10.79C30.6 10.57 30.31 10.26 30.1 9.82996C29.89 9.39996 29.78 8.86997 29.78 8.21997V3.35999H30.96V8.14001C30.96 8.69001 31.11 9.13997 31.42 9.46997C31.74 9.79997 32.14 9.96997 32.63 9.96997C32.92 9.96997 33.21 9.88999 33.52 9.73999C33.82 9.58999 34.08 9.36006 34.28 9.06006C34.49 8.75006 34.6 8.36 34.6 7.88ZM40.16 11.1801C39.68 11.1801 39.24 11.09 38.85 10.91C38.45 10.72 38.14 10.45 37.91 10.11C37.68 9.74999 37.5601 9.32996 37.5601 8.82996C37.5601 8.38996 37.6499 8.04002 37.8199 7.77002C37.9899 7.49002 38.22 7.27999 38.51 7.12C38.8 6.97 39.12 6.85002 39.46 6.77002C39.82 6.69002 40.17 6.62997 40.52 6.58997C40.99 6.52997 41.36 6.47995 41.65 6.44995C41.94 6.41995 42.16 6.36004 42.29 6.29004C42.42 6.21004 42.49 6.08001 42.49 5.89001V5.84998C42.49 5.35998 42.36 4.97996 42.09 4.70996C41.82 4.42996 41.42 4.30005 40.88 4.30005C40.32 4.30005 39.8801 4.42004 39.5601 4.67004C39.2501 4.91004 39.02 5.16995 38.89 5.44995L37.78 5.05005C37.98 4.59005 38.2399 4.22997 38.5699 3.96997C38.9099 3.70997 39.27 3.53004 39.67 3.42004C40.07 3.32004 40.46 3.26001 40.84 3.26001C41.09 3.26001 41.3699 3.28998 41.6899 3.34998C42.0099 3.40998 42.32 3.52996 42.62 3.70996C42.92 3.88996 43.17 4.16002 43.37 4.52002C43.57 4.88002 43.66 5.35997 43.66 5.96997V11H42.49V9.96997H42.4301C42.3501 10.13 42.22 10.31 42.03 10.5C41.85 10.69 41.6 10.85 41.29 10.98C40.99 11.11 40.61 11.1801 40.16 11.1801ZM40.34 10.12C40.81 10.12 41.2 10.03 41.52 9.84998C41.84 9.66998 42.08 9.43002 42.24 9.15002C42.41 8.86002 42.49 8.54999 42.49 8.23999V7.16003C42.44 7.22003 42.33 7.27996 42.16 7.32996C42 7.36996 41.81 7.40995 41.59 7.44995C41.37 7.47995 41.16 7.51004 40.96 7.54004C40.75 7.56004 40.59 7.57998 40.46 7.59998C40.16 7.63998 39.87 7.70004 39.61 7.79004C39.35 7.88004 39.13 8.00994 38.97 8.18994C38.81 8.35994 38.73 8.59001 38.73 8.89001C38.73 9.30001 38.8799 9.60995 39.1899 9.81995C39.4899 10.0199 39.88 10.12 40.34 10.12ZM45.8101 11V3.35999H46.9399V4.52002H47.02C47.16 4.14002 47.41 3.82998 47.78 3.59998C48.14 3.35998 48.55 3.23999 49.01 3.23999C49.09 3.23999 49.2 3.25 49.33 3.25C49.46 3.25 49.56 3.26001 49.62 3.26001V4.45996C49.58 4.44996 49.49 4.43003 49.35 4.41003C49.21 4.39003 49.06 4.38 48.91 4.38C48.54 4.38 48.21 4.45999 47.91 4.60999C47.63 4.75999 47.4 4.98 47.23 5.25C47.06 5.52 46.98 5.82004 46.98 6.17004V11H45.8101ZM52 13.86C51.8 13.86 51.63 13.8501 51.47 13.8101C51.32 13.7801 51.21 13.75 51.15 13.72L51.45 12.6899C51.7299 12.7599 51.9799 12.79 52.2 12.77C52.42 12.75 52.61 12.65 52.78 12.48C52.96 12.3 53.11 12.02 53.26 11.64L53.47 11.04L50.65 3.35999H51.92L54.03 9.44995H54.11L56.22 3.35999H57.49L54.25 12.11C54.1 12.51 53.92 12.83 53.71 13.09C53.49 13.35 53.24 13.55 52.96 13.67C52.68 13.8 52.36 13.86 52 13.86Z" fill="#5F6980"/>
</svg>
