<svg width="35" height="14" viewBox="0 0 35 14" fill="none" xmlns="http://www.w3.org/2000/svg">
<path d="M2.31182 11H0.343018L3.92762 0.817993H6.20452L9.79402 11H7.82532L5.10582 2.90601H5.02632L2.31182 11ZM2.37642 7.008H7.74572V8.48901H2.37642V7.008ZM11.0556 13.864V3.36401H12.8255V4.62601H12.9299C13.0227 4.44101 13.1536 4.244 13.3226 4.035C13.4917 3.823 13.7203 3.64201 14.0087 3.49301C14.2971 3.34001 14.665 3.26401 15.1124 3.26401C15.7024 3.26401 16.2343 3.41501 16.7083 3.71701C17.1855 4.01501 17.5634 4.45701 17.8418 5.04401C18.1235 5.62701 18.2644 6.34299 18.2644 7.19199C18.2644 8.02999 18.1268 8.74299 17.8517 9.32999C17.5766 9.91599 17.2021 10.364 16.7282 10.672C16.2542 10.98 15.7173 11.134 15.1174 11.134C14.6799 11.134 14.3169 11.061 14.0286 10.915C13.7402 10.77 13.5082 10.594 13.3326 10.388C13.1602 10.18 13.026 9.982 12.9299 9.797H12.8553V13.864H11.0556ZM12.8205 7.18201C12.8205 7.67601 12.8901 8.108 13.0293 8.479C13.1718 8.851 13.3757 9.141 13.6408 9.349C13.9093 9.555 14.2341 9.65799 14.6152 9.65799C15.013 9.65799 15.3461 9.55199 15.6145 9.33899C15.883 9.12399 16.0852 8.83099 16.2211 8.45999C16.3603 8.08499 16.4299 7.65901 16.4299 7.18201C16.4299 6.70801 16.3619 6.28701 16.226 5.91901C16.0901 5.55101 15.888 5.26299 15.6195 5.05399C15.351 4.84499 15.0163 4.741 14.6152 4.741C14.2308 4.741 13.9043 4.84201 13.6358 5.04401C13.3674 5.24601 13.1635 5.53001 13.0243 5.89401C12.8884 6.25901 12.8205 6.68801 12.8205 7.18201ZM19.8056 13.864V3.36401H21.5755V4.62601H21.6799C21.7727 4.44101 21.9036 4.244 22.0726 4.035C22.2417 3.823 22.4703 3.64201 22.7587 3.49301C23.0471 3.34001 23.415 3.26401 23.8624 3.26401C24.4524 3.26401 24.9843 3.41501 25.4583 3.71701C25.9355 4.01501 26.3134 4.45701 26.5918 5.04401C26.8735 5.62701 27.0144 6.34299 27.0144 7.19199C27.0144 8.02999 26.8768 8.74299 26.6017 9.32999C26.3266 9.91599 25.9521 10.364 25.4782 10.672C25.0042 10.98 24.4673 11.134 23.8674 11.134C23.4299 11.134 23.0669 11.061 22.7786 10.915C22.4902 10.77 22.2582 10.594 22.0826 10.388C21.9102 10.18 21.776 9.982 21.6799 9.797H21.6053V13.864H19.8056ZM21.5705 7.18201C21.5705 7.67601 21.6401 8.108 21.7793 8.479C21.9218 8.851 22.1257 9.141 22.3908 9.349C22.6593 9.555 22.9841 9.65799 23.3652 9.65799C23.763 9.65799 24.0961 9.55199 24.3645 9.33899C24.633 9.12399 24.8352 8.83099 24.9711 8.45999C25.1103 8.08499 25.1799 7.65901 25.1799 7.18201C25.1799 6.70801 25.1119 6.28701 24.976 5.91901C24.8401 5.55101 24.638 5.26299 24.3695 5.05399C24.101 4.84499 23.7663 4.741 23.3652 4.741C22.9808 4.741 22.6543 4.84201 22.3858 5.04401C22.1174 5.24601 21.9135 5.53001 21.7743 5.89401C21.6384 6.25901 21.5705 6.68801 21.5705 7.18201ZM34.5911 5.38199L32.9505 5.561C32.9041 5.395 32.8229 5.23999 32.7069 5.09399C32.5942 4.94799 32.4417 4.83 32.2495 4.741C32.0572 4.651 31.8219 4.60699 31.5435 4.60699C31.169 4.60699 30.8541 4.68801 30.5989 4.85001C30.347 5.01301 30.2227 5.22299 30.226 5.48199C30.2227 5.70399 30.3039 5.88401 30.4696 6.02301C30.6387 6.16301 30.9171 6.277 31.3049 6.366L32.6074 6.64499C33.33 6.80099 33.8669 7.04799 34.2182 7.38599C34.5729 7.72399 34.7518 8.16601 34.7551 8.71301C34.7518 9.19401 34.611 9.61799 34.3326 9.98599C34.0575 10.35 33.6747 10.635 33.1841 10.841C32.6936 11.046 32.1301 11.149 31.4938 11.149C30.5591 11.149 29.8068 10.954 29.2367 10.562C28.6666 10.168 28.3269 9.61999 28.2175 8.91699L29.9725 8.74799C30.052 9.09299 30.2211 9.35301 30.4796 9.52802C30.7381 9.70401 31.0745 9.79199 31.4888 9.79199C31.9164 9.79199 32.2594 9.70401 32.5179 9.52802C32.7798 9.35301 32.9107 9.13601 32.9107 8.87701C32.9107 8.65801 32.8262 8.47799 32.6571 8.33499C32.4914 8.19299 32.2329 8.08299 31.8816 8.00699L30.579 7.73401C29.8465 7.58101 29.3046 7.32401 28.9533 6.96301C28.602 6.59801 28.428 6.13799 28.4313 5.58099C28.428 5.10999 28.5556 4.703 28.8141 4.358C29.0759 4.01 29.4389 3.74101 29.9029 3.55301C30.3702 3.36001 30.9088 3.26401 31.5186 3.26401C32.4135 3.26401 33.1178 3.455 33.6316 3.836C34.1486 4.217 34.4685 4.73199 34.5911 5.38199Z" fill="#5F6980"/>
</svg>
