<svg width="51" height="12" viewBox="0 0 51 12" fill="none" xmlns="http://www.w3.org/2000/svg">
<path d="M0.22998 11V0.819946H6.33997V1.91003H1.46997V5.34998H5.88V6.44995H1.46997V11H0.22998ZM8.29004 11V3.35999H9.45996V11H8.29004ZM8.89001 2.08997C8.66002 2.08997 8.46005 2.00999 8.30005 1.85999C8.13005 1.69999 8.05005 1.51005 8.05005 1.30005C8.05005 1.08005 8.13005 0.88998 8.30005 0.72998C8.46005 0.57998 8.66002 0.5 8.89001 0.5C9.12001 0.5 9.30997 0.57998 9.46997 0.72998C9.63997 0.88998 9.71997 1.08005 9.71997 1.30005C9.71997 1.51005 9.63997 1.69999 9.46997 1.85999C9.30997 2.00999 9.12001 2.08997 8.89001 2.08997ZM12.79 6.41003V11H11.61V3.35999H12.75V4.56006H12.85C13.02 4.17006 13.3 3.86 13.66 3.62C14.03 3.38 14.4999 3.26001 15.0699 3.26001C15.5899 3.26001 16.0401 3.36996 16.4301 3.57996C16.8201 3.78996 17.12 4.11004 17.34 4.54004C17.55 4.96004 17.66 5.50002 17.66 6.15002V11H16.49V6.22998C16.49 5.62998 16.33 5.15996 16.02 4.82996C15.71 4.48996 15.28 4.31995 14.74 4.31995C14.36 4.31995 14.03 4.40006 13.73 4.56006C13.44 4.72006 13.21 4.96002 13.04 5.27002C12.87 5.58002 12.79 5.96003 12.79 6.41003ZM22.05 11.1801C21.57 11.1801 21.13 11.09 20.73 10.91C20.34 10.72 20.02 10.45 19.79 10.11C19.56 9.74999 19.4399 9.32996 19.4399 8.82996C19.4399 8.38996 19.53 8.04002 19.7 7.77002C19.88 7.49002 20.11 7.27999 20.39 7.12C20.68 6.97 21 6.85002 21.35 6.77002C21.7 6.69002 22.05 6.62997 22.41 6.58997C22.87 6.52997 23.25 6.47995 23.54 6.44995C23.83 6.41995 24.04 6.36004 24.17 6.29004C24.31 6.21004 24.38 6.08001 24.38 5.89001V5.84998C24.38 5.35998 24.24 4.97996 23.97 4.70996C23.71 4.42996 23.31 4.30005 22.77 4.30005C22.21 4.30005 21.77 4.42004 21.45 4.67004C21.13 4.91004 20.91 5.16995 20.78 5.44995L19.66 5.05005C19.86 4.59005 20.13 4.22997 20.46 3.96997C20.79 3.70997 21.16 3.53004 21.55 3.42004C21.95 3.32004 22.34 3.26001 22.73 3.26001C22.97 3.26001 23.2499 3.28998 23.5699 3.34998C23.8899 3.40998 24.2 3.52996 24.5 3.70996C24.8 3.88996 25.05 4.16002 25.25 4.52002C25.45 4.88002 25.55 5.35997 25.55 5.96997V11H24.38V9.96997H24.3199C24.2399 10.13 24.1 10.31 23.92 10.5C23.73 10.69 23.4901 10.85 23.1801 10.98C22.8701 11.11 22.49 11.1801 22.05 11.1801ZM22.23 10.12C22.69 10.12 23.08 10.03 23.4 9.84998C23.72 9.66998 23.97 9.43002 24.13 9.15002C24.29 8.86002 24.38 8.54999 24.38 8.23999V7.16003C24.33 7.22003 24.22 7.27996 24.05 7.32996C23.88 7.36996 23.69 7.40995 23.47 7.44995C23.26 7.47995 23.05 7.51004 22.84 7.54004C22.64 7.56004 22.47 7.57998 22.35 7.59998C22.04 7.63998 21.76 7.70004 21.49 7.79004C21.23 7.88004 21.02 8.00994 20.86 8.18994C20.7 8.35994 20.62 8.59001 20.62 8.89001C20.62 9.30001 20.7699 9.60995 21.0699 9.81995C21.3799 10.0199 21.76 10.12 22.23 10.12ZM28.86 6.41003V11H27.6899V3.35999H28.8199V4.56006H28.92C29.1 4.17006 29.37 3.86 29.74 3.62C30.1 3.38 30.57 3.26001 31.15 3.26001C31.67 3.26001 32.12 3.36996 32.51 3.57996C32.9 3.78996 33.2 4.11004 33.41 4.54004C33.63 4.96004 33.74 5.50002 33.74 6.15002V11H32.5601V6.22998C32.5601 5.62998 32.41 5.15996 32.1 4.82996C31.78 4.48996 31.3601 4.31995 30.8101 4.31995C30.4401 4.31995 30.1001 4.40006 29.8101 4.56006C29.5201 4.72006 29.29 4.96002 29.12 5.27002C28.95 5.58002 28.86 5.96003 28.86 6.41003ZM38.98 11.16C38.27 11.16 37.65 10.99 37.13 10.65C36.62 10.31 36.2199 9.85 35.9399 9.25C35.6599 8.66 35.52 7.97997 35.52 7.21997C35.52 6.44997 35.67 5.76004 35.95 5.17004C36.24 4.57004 36.64 4.11002 37.15 3.77002C37.67 3.43002 38.27 3.26001 38.96 3.26001C39.5 3.26001 39.98 3.36006 40.41 3.56006C40.85 3.76006 41.2 4.04002 41.47 4.40002C41.75 4.76002 41.92 5.17002 41.99 5.65002H40.8101C40.7201 5.30002 40.52 4.98998 40.22 4.72998C39.91 4.44998 39.5 4.31995 38.98 4.31995C38.53 4.31995 38.12 4.44005 37.78 4.68005C37.44 4.91005 37.17 5.24005 36.98 5.68005C36.79 6.10005 36.7 6.61005 36.7 7.18005C36.7 7.77005 36.79 8.28997 36.97 8.71997C37.16 9.15997 37.43 9.49999 37.77 9.73999C38.11 9.97999 38.52 10.11 38.98 10.11C39.29 10.11 39.5601 10.05 39.8101 9.94995C40.0601 9.83995 40.2699 9.68999 40.4399 9.48999C40.6199 9.28999 40.7401 9.05002 40.8101 8.77002H41.99C41.92 9.22002 41.76 9.62999 41.49 9.98999C41.23 10.35 40.89 10.63 40.46 10.85C40.04 11.05 39.55 11.16 38.98 11.16ZM46.9 11.16C46.17 11.16 45.53 11 45 10.67C44.47 10.34 44.06 9.89005 43.77 9.30005C43.49 8.71005 43.34 8.01999 43.34 7.23999C43.34 6.45999 43.49 5.77004 43.77 5.17004C44.06 4.57004 44.46 4.11002 44.97 3.77002C45.49 3.43002 46.09 3.26001 46.78 3.26001C47.18 3.26001 47.57 3.32996 47.96 3.45996C48.35 3.59996 48.7 3.80999 49.02 4.10999C49.34 4.39999 49.59 4.80003 49.78 5.28003C49.97 5.77003 50.0601 6.36996 50.0601 7.07996V7.57996H44.1801V6.56995H48.87C48.87 6.12995 48.79 5.75003 48.61 5.41003C48.44 5.07003 48.2 4.80999 47.89 4.60999C47.58 4.41999 47.21 4.31995 46.78 4.31995C46.32 4.31995 45.9099 4.43004 45.5699 4.67004C45.2299 4.89004 44.97 5.19006 44.79 5.56006C44.61 5.93006 44.52 6.31999 44.52 6.73999V7.42004C44.52 8.00004 44.6201 8.49001 44.8101 8.89001C45.0201 9.28001 45.3 9.59005 45.65 9.80005C46.01 10 46.43 10.11 46.9 10.11C47.21 10.11 47.49 10.06 47.74 9.97998C47.99 9.88998 48.21 9.74996 48.39 9.57996C48.57 9.39996 48.7101 9.18003 48.8101 8.91003L49.95 9.22998C49.83 9.60998 49.63 9.94999 49.34 10.24C49.06 10.53 48.71 10.76 48.3 10.92C47.89 11.08 47.42 11.16 46.9 11.16Z" fill="#5F6980"/>
</svg>
