<svg width="64" height="15" viewBox="0 0 64 15" fill="none" xmlns="http://www.w3.org/2000/svg">
<path d="M1.466 0.817993V11H0.232971V0.817993H1.466ZM4.95203 6.40601V11H3.77899V3.36401H4.91199V4.55701H5.01202C5.19102 4.16901 5.46303 3.85701 5.82703 3.62201C6.19203 3.38401 6.66201 3.26398 7.23901 3.26398C7.75601 3.26398 8.20901 3.36997 8.59601 3.58197C8.98401 3.79097 9.28598 4.10899 9.50098 4.53699C9.71698 4.96099 9.82397 5.49801 9.82397 6.14801V11H8.651V6.22699C8.651 5.62699 8.49502 5.16001 8.18402 4.82501C7.87202 4.48701 7.445 4.31799 6.901 4.31799C6.527 4.31799 6.19197 4.39901 5.89697 4.56201C5.60497 4.72401 5.37499 4.96101 5.20599 5.27301C5.03699 5.58401 4.95203 5.96201 4.95203 6.40601ZM17.377 5.07397L16.324 5.37201C16.257 5.19601 16.159 5.02599 16.03 4.85999C15.904 4.69099 15.732 4.55202 15.513 4.44202C15.294 4.33302 15.014 4.27802 14.673 4.27802C14.206 4.27802 13.816 4.38599 13.505 4.60199C13.196 4.81399 13.042 5.08399 13.042 5.41199C13.042 5.70399 13.148 5.93403 13.36 6.10303C13.573 6.27203 13.904 6.413 14.355 6.526L15.488 6.80402C16.171 6.97002 16.68 7.223 17.015 7.565C17.349 7.903 17.517 8.33901 17.517 8.87201C17.517 9.31001 17.391 9.70098 17.139 10.045C16.89 10.39 16.542 10.662 16.095 10.861C15.647 11.06 15.127 11.159 14.534 11.159C13.755 11.159 13.11 10.99 12.6 10.652C12.089 10.314 11.766 9.81998 11.63 9.16998L12.744 8.89203C12.85 9.30303 13.051 9.61102 13.346 9.81702C13.644 10.022 14.033 10.125 14.514 10.125C15.061 10.125 15.495 10.009 15.816 9.77698C16.141 9.54198 16.304 9.26001 16.304 8.93201C16.304 8.66701 16.211 8.44499 16.025 8.26599C15.84 8.08299 15.555 7.94697 15.17 7.85797L13.897 7.56C13.198 7.394 12.684 7.137 12.356 6.789C12.031 6.438 11.869 5.99898 11.869 5.47198C11.869 5.04099 11.99 4.66 12.232 4.328C12.477 3.997 12.81 3.73697 13.231 3.54797C13.655 3.35897 14.136 3.26398 14.673 3.26398C15.429 3.26398 16.022 3.42999 16.453 3.76099C16.887 4.09299 17.195 4.52997 17.377 5.07397ZM22.604 3.36401V4.35797H18.646V3.36401H22.604ZM19.8 1.534H20.973V8.81201C20.973 9.14401 21.021 9.39298 21.117 9.55798C21.217 9.72098 21.343 9.82999 21.495 9.88599C21.651 9.93899 21.815 9.966 21.987 9.966C22.117 9.966 22.223 9.95898 22.306 9.94598C22.388 9.92898 22.455 9.91601 22.504 9.90601L22.743 10.96C22.664 10.99 22.552 11.02 22.41 11.05C22.267 11.083 22.087 11.099 21.868 11.099C21.537 11.099 21.212 11.028 20.894 10.886C20.579 10.743 20.317 10.526 20.108 10.234C19.903 9.94301 19.8 9.57498 19.8 9.13098V1.534ZM26.616 11.179C26.132 11.179 25.693 11.088 25.298 10.906C24.904 10.72 24.591 10.453 24.359 10.105C24.127 9.75398 24.011 9.32997 24.011 8.83197C24.011 8.39497 24.097 8.04001 24.269 7.76801C24.442 7.49301 24.672 7.27801 24.96 7.12201C25.249 6.96601 25.567 6.84999 25.915 6.77399C26.266 6.69499 26.619 6.63202 26.974 6.58502C27.438 6.52602 27.814 6.48099 28.102 6.45099C28.394 6.41799 28.606 6.36299 28.739 6.28699C28.875 6.21099 28.943 6.07798 28.943 5.88898V5.849C28.943 5.359 28.808 4.97799 28.54 4.70599C28.275 4.43399 27.872 4.29797 27.332 4.29797C26.772 4.29797 26.333 4.42102 26.014 4.66602C25.696 4.91102 25.472 5.17303 25.343 5.45203L24.23 5.05402C24.428 4.59002 24.694 4.22897 25.025 3.96997C25.36 3.70797 25.724 3.52597 26.119 3.42297C26.517 3.31697 26.908 3.26398 27.292 3.26398C27.537 3.26398 27.819 3.294 28.137 3.354C28.459 3.41 28.769 3.52797 29.067 3.70697C29.369 3.88597 29.619 4.15603 29.818 4.51703C30.017 4.87803 30.116 5.36199 30.116 5.96899V11H28.943V9.966H28.883C28.803 10.132 28.671 10.309 28.485 10.498C28.3 10.687 28.053 10.848 27.744 10.98C27.436 11.113 27.06 11.179 26.616 11.179ZM26.795 10.125C27.259 10.125 27.65 10.034 27.968 9.85199C28.29 9.66899 28.532 9.434 28.694 9.146C28.86 8.857 28.943 8.55402 28.943 8.23602V7.16199C28.893 7.22199 28.784 7.27599 28.615 7.32599C28.449 7.37199 28.257 7.41401 28.038 7.45001C27.822 7.48301 27.612 7.51298 27.406 7.53998C27.204 7.56298 27.04 7.583 26.914 7.599C26.609 7.639 26.324 7.70403 26.059 7.79303C25.797 7.87903 25.585 8.00997 25.423 8.18597C25.264 8.35797 25.184 8.59403 25.184 8.89203C25.184 9.30003 25.335 9.60802 25.637 9.81702C25.941 10.022 26.328 10.125 26.795 10.125ZM35.34 14.023C34.773 14.023 34.286 13.95 33.878 13.804C33.471 13.661 33.131 13.473 32.859 13.237C32.591 13.005 32.377 12.757 32.218 12.491L33.152 11.835C33.258 11.974 33.393 12.134 33.555 12.312C33.717 12.495 33.94 12.652 34.221 12.785C34.506 12.921 34.879 12.989 35.34 12.989C35.956 12.989 36.465 12.839 36.866 12.541C37.267 12.243 37.468 11.776 37.468 11.139V9.58801H37.368C37.282 9.72701 37.159 9.89998 37 10.105C36.845 10.307 36.619 10.488 36.324 10.647C36.033 10.803 35.638 10.881 35.141 10.881C34.525 10.881 33.971 10.735 33.48 10.443C32.993 10.152 32.607 9.72698 32.322 9.16998C32.04 8.61398 31.9 7.93703 31.9 7.14203C31.9 6.36003 32.037 5.679 32.312 5.099C32.587 4.515 32.97 4.06497 33.461 3.74597C33.951 3.42497 34.518 3.26398 35.161 3.26398C35.658 3.26398 36.052 3.347 36.344 3.513C36.639 3.675 36.864 3.86101 37.02 4.07001C37.179 4.27501 37.302 4.44403 37.388 4.57703H37.507V3.36401H38.641V11.219C38.641 11.875 38.492 12.409 38.194 12.82C37.899 13.234 37.501 13.537 37 13.729C36.503 13.925 35.95 14.023 35.34 14.023ZM35.3 9.82703C35.771 9.82703 36.168 9.71903 36.493 9.50403C36.818 9.28803 37.065 8.97797 37.234 8.57397C37.403 8.16997 37.488 7.68601 37.488 7.12201C37.488 6.57201 37.405 6.08598 37.239 5.66498C37.073 5.24498 36.828 4.91503 36.503 4.67603C36.178 4.43703 35.777 4.31799 35.3 4.31799C34.803 4.31799 34.389 4.44398 34.057 4.69598C33.729 4.94798 33.482 5.28602 33.316 5.71002C33.154 6.13402 33.073 6.60501 33.073 7.12201C33.073 7.65201 33.156 8.12099 33.321 8.52899C33.49 8.93299 33.739 9.25201 34.067 9.48401C34.399 9.71201 34.81 9.82703 35.3 9.82703ZM40.789 11V3.36401H41.922V4.51703H42.002C42.141 4.13903 42.393 3.83298 42.757 3.59698C43.122 3.36198 43.533 3.24402 43.99 3.24402C44.077 3.24402 44.184 3.24602 44.314 3.24902C44.443 3.25302 44.541 3.25798 44.607 3.26398V4.45697C44.567 4.44697 44.476 4.43302 44.333 4.41302C44.194 4.38902 44.047 4.37799 43.891 4.37799C43.52 4.37799 43.188 4.456 42.897 4.612C42.608 4.764 42.38 4.97599 42.211 5.24799C42.045 5.51599 41.962 5.82303 41.962 6.16803V11H40.789ZM48.245 11.179C47.761 11.179 47.322 11.088 46.927 10.906C46.533 10.72 46.22 10.453 45.988 10.105C45.756 9.75398 45.64 9.32997 45.64 8.83197C45.64 8.39497 45.726 8.04001 45.898 7.76801C46.071 7.49301 46.301 7.27801 46.589 7.12201C46.878 6.96601 47.196 6.84999 47.544 6.77399C47.895 6.69499 48.248 6.63202 48.603 6.58502C49.067 6.52602 49.443 6.48099 49.731 6.45099C50.023 6.41799 50.235 6.36299 50.368 6.28699C50.504 6.21099 50.572 6.07798 50.572 5.88898V5.849C50.572 5.359 50.437 4.97799 50.169 4.70599C49.904 4.43399 49.501 4.29797 48.961 4.29797C48.401 4.29797 47.961 4.42102 47.643 4.66602C47.325 4.91102 47.101 5.17303 46.972 5.45203L45.858 5.05402C46.057 4.59002 46.323 4.22897 46.654 3.96997C46.989 3.70797 47.353 3.52597 47.748 3.42297C48.145 3.31697 48.537 3.26398 48.921 3.26398C49.166 3.26398 49.448 3.294 49.766 3.354C50.088 3.41 50.398 3.52797 50.696 3.70697C50.997 3.88597 51.248 4.15603 51.447 4.51703C51.645 4.87803 51.745 5.36199 51.745 5.96899V11H50.572V9.966H50.512C50.432 10.132 50.3 10.309 50.114 10.498C49.929 10.687 49.682 10.848 49.373 10.98C49.065 11.113 48.689 11.179 48.245 11.179ZM48.424 10.125C48.888 10.125 49.279 10.034 49.597 9.85199C49.919 9.66899 50.161 9.434 50.323 9.146C50.489 8.857 50.572 8.55402 50.572 8.23602V7.16199C50.522 7.22199 50.412 7.27599 50.243 7.32599C50.078 7.37199 49.885 7.41401 49.667 7.45001C49.451 7.48301 49.241 7.51298 49.035 7.53998C48.833 7.56298 48.669 7.583 48.543 7.599C48.238 7.639 47.953 7.70403 47.688 7.79303C47.426 7.87903 47.214 8.00997 47.052 8.18597C46.893 8.35797 46.813 8.59403 46.813 8.89203C46.813 9.30003 46.964 9.60802 47.265 9.81702C47.57 10.022 47.956 10.125 48.424 10.125ZM53.886 11V3.36401H55.02V4.55701H55.119C55.278 4.14901 55.535 3.83299 55.89 3.60699C56.245 3.37899 56.67 3.26398 57.168 3.26398C57.671 3.26398 58.091 3.37899 58.425 3.60699C58.763 3.83299 59.027 4.14901 59.216 4.55701H59.295C59.491 4.16201 59.784 3.849 60.175 3.617C60.567 3.382 61.036 3.26398 61.582 3.26398C62.265 3.26398 62.824 3.47801 63.258 3.90601C63.692 4.33001 63.909 4.99098 63.909 5.88898V11H62.736V5.88898C62.736 5.32598 62.582 4.92303 62.273 4.68103C61.965 4.43903 61.602 4.31799 61.185 4.31799C60.648 4.31799 60.232 4.48099 59.937 4.80499C59.642 5.12699 59.494 5.53502 59.494 6.02802V11H58.301V5.77002C58.301 5.33602 58.16 4.98601 57.879 4.72101C57.597 4.45201 57.234 4.31799 56.79 4.31799C56.485 4.31799 56.2 4.39901 55.935 4.56201C55.673 4.72401 55.461 4.94998 55.298 5.23798C55.139 5.52298 55.06 5.85299 55.06 6.22699V11H53.886Z" fill="#5F6980"/>
</svg>
